<?xml version="1.0" encoding="UTF-8"?>
<!DOCTYPE svg PUBLIC "-//W3C//DTD SVG 1.1//EN" "http://www.w3.org/Graphics/SVG/1.1/DTD/svg11.dtd">
<svg xmlns="http://www.w3.org/2000/svg" xml:space="preserve" width="709px" height="118px" version="1.1" style="shape-rendering:geometricPrecision; text-rendering:geometricPrecision; image-rendering:optimizeQuality; fill-rule:evenodd; clip-rule:evenodd"
viewBox="0 0 2193 365"
 xmlns:xlink="http://www.w3.org/1999/xlink">
 <defs>
  <style type="text/css">
   <![CDATA[
    .c1 {fill:none}
    .c2 {fill:#a00;fill-rule:nonzero}
   ]]>
  </style>
 </defs>
 <g>
  <rect class="c1" width="2193" height="365"/>
  <g class="c2">
  <path d="M420 84c-5,0 -10,1 -15,3 -4,3 -8,6 -12,11 -4,4 -8,9 -11,14 -4,5 -6,10 -9,15 10,19 19,35 29,49 6,-5 12,-10 19,-16 6,-5 13,-11 19,-18l0 -18c0,-7 0,-13 -1,-18 -1,-5 -2,-9 -4,-12 -2,-3 -4,-6 -6,-7 -3,-2 -6,-3 -9,-3zm-85 62c0,-5 2,-10 5,-16 3,-7 7,-13 12,-19 5,-6 11,-11 18,-16 7,-5 14,-10 21,-13 -7,0 -13,1 -19,1 -7,1 -12,2 -17,4 -5,2 -10,4 -13,7 -4,3 -7,8 -9,13 1,-5 1,-11 1,-17 0,-6 -1,-12 -4,-17 14,1 28,2 42,2 14,1 28,1 42,1 11,0 21,0 31,0 10,-1 21,-1 31,-1 -2,1 -3,2 -5,4 -1,2 -3,5 -4,8 -2,4 -3,8 -4,14 -1,6 -1,14 -1,23l0 121c0,8 0,15 1,21 1,5 3,10 4,13 2,3 3,6 5,8 2,1 3,3 4,4 -4,-1 -8,-1 -13,-2 -4,0 -8,0 -12,0 -4,0 -8,0 -12,0 -4,1 -9,1 -13,2 1,-1 3,-3 4,-4 2,-2 3,-5 5,-8 1,-3 3,-8 4,-13 1,-6 1,-13 1,-21l0 -89c-6,7 -13,14 -19,19 -7,6 -13,11 -20,16 -10,-15 -21,-32 -32,-52 -2,6 -3,11 -3,16 0,10 1,19 1,28 0,9 1,18 1,26 1,9 1,17 1,25 1,9 1,17 1,25 0,10 -2,17 -6,23 -4,6 -9,9 -16,9 -3,0 -6,-1 -9,-4 -3,-2 -4,-5 -4,-9l8 1c0,3 0,4 0,5 1,1 2,1 3,1 4,0 6,-1 8,-2 2,-2 3,-4 4,-6 1,-3 2,-5 2,-8 1,-3 1,-6 1,-8 0,-9 -1,-17 -2,-24 -1,-7 -3,-13 -5,-19 -2,-6 -4,-11 -6,-17 -2,-5 -4,-10 -6,-16 -2,-5 -4,-11 -5,-17 -1,-7 -2,-14 -2,-22z"/>
  <path d="M494 75c8,1 16,2 25,2 4,0 8,0 13,-1 4,0 8,-1 12,-1 -2,1 -3,2 -5,4 -1,2 -3,5 -4,8 -2,4 -3,8 -4,14 -1,6 -1,14 -1,23l0 121c0,12 1,20 3,27 2,6 4,10 6,13 9,-1 16,-4 21,-7 6,-3 11,-6 16,-10 5,-3 9,-6 14,-9 6,-2 12,-4 20,-4 -1,-8 -3,-16 -4,-23 -1,-7 -3,-14 -3,-20 -1,-7 -2,-14 -3,-21 0,-8 -1,-16 -1,-25 0,-4 0,-8 1,-14 0,-5 0,-11 1,-17 0,-6 1,-12 2,-18 1,-7 2,-12 3,-17 2,-5 4,-9 6,-12 2,-3 5,-5 8,-5 9,0 13,2 13,5 0,1 0,2 -1,4 -1,1 -2,1 -3,1 -1,0 -3,0 -4,-2 -1,-2 -2,-3 -4,-3 -3,0 -6,2 -8,6 -2,4 -4,10 -5,18 -2,7 -2,16 -3,27 0,10 0,22 0,35 0,13 0,27 2,39 1,13 3,24 5,34 2,11 4,19 6,27 2,8 3,13 4,17l-128 0c1,-1 3,-3 4,-4 2,-2 3,-5 5,-8 1,-3 3,-8 4,-13 1,-6 1,-13 1,-21l0 -121c0,-9 0,-17 -1,-23 -1,-6 -2,-10 -3,-14 -2,-3 -3,-6 -5,-8 -1,-2 -3,-3 -5,-4z"/>
  <path d="M709 73c4,0 8,1 11,1 3,1 6,1 9,2 3,1 6,2 9,2 3,1 7,1 10,2 3,0 6,0 9,0 4,-1 7,-1 10,-2 3,0 6,-1 9,-2 3,-1 7,-1 10,-2 3,0 7,-1 11,-1 9,0 18,3 25,7 8,5 14,11 19,18 5,7 9,15 12,23 2,9 3,17 3,25 0,8 0,15 -1,22 -1,6 -3,12 -5,17 -2,6 -4,11 -5,16 -2,6 -4,11 -6,17 -2,6 -4,12 -5,19 -1,7 -1,15 -1,24 0,2 0,5 1,8 1,3 2,5 4,8 2,2 4,4 7,6 2,1 5,2 8,2 2,0 4,0 6,-1 2,-1 4,-2 4,-5 0,-2 -1,-3 -3,-3 -1,-1 -3,-1 -4,-1l4 -4c2,0 5,1 7,2 3,1 4,3 4,5 0,2 -1,4 -2,6 -2,1 -3,2 -5,4 -3,1 -5,2 -7,2 -2,1 -4,1 -5,1 -4,0 -7,-1 -10,-2 -4,-2 -7,-4 -10,-7 -2,-3 -5,-6 -6,-10 -2,-4 -3,-8 -3,-13 0,-16 1,-33 1,-49 1,-17 1,-35 1,-55 0,-5 0,-12 -1,-20 0,-9 -2,-17 -4,-25 -2,-8 -6,-16 -10,-21 -5,-6 -11,-9 -19,-9 -7,0 -12,1 -16,3 -3,2 -6,5 -8,9 -1,3 -2,7 -2,12 -1,6 -1,12 -1,20l0 121c0,8 0,15 1,21 1,5 2,10 4,13 2,3 3,6 5,8 1,1 2,3 4,4 -5,-1 -9,-1 -13,-2 -4,0 -8,0 -12,0 -4,0 -8,0 -13,0 -4,1 -8,1 -12,2 1,-1 2,-3 4,-4 1,-2 3,-5 5,-8 1,-3 2,-8 3,-13 1,-6 2,-13 2,-21l0 -121c0,-8 0,-14 -1,-20 -1,-5 -1,-9 -2,-12 -2,-4 -5,-7 -9,-9 -4,-2 -9,-3 -16,-3 -8,0 -14,3 -18,9 -5,5 -8,13 -10,21 -3,8 -4,16 -5,25 -1,8 -1,15 -1,20 0,20 0,38 1,55 1,16 1,33 1,49 0,5 -1,9 -2,13 -2,4 -4,7 -7,10 -3,3 -6,5 -9,7 -3,1 -7,2 -10,2 -2,0 -3,0 -6,-1 -2,0 -4,-1 -6,-2 -2,-2 -4,-3 -5,-4 -2,-2 -2,-4 -2,-6 0,-2 1,-4 3,-5 3,-1 5,-2 8,-2l4 4c-2,0 -3,0 -5,1 -1,0 -2,1 -2,3 0,3 1,4 3,5 3,1 5,1 7,1 3,0 5,-1 8,-2 2,-2 5,-4 6,-6 2,-3 4,-5 5,-8 0,-3 1,-6 1,-8 0,-9 -1,-17 -2,-24 -1,-7 -2,-13 -4,-19 -2,-6 -4,-11 -6,-17 -2,-5 -4,-10 -6,-16 -2,-5 -3,-11 -4,-17 -1,-7 -2,-14 -2,-22 0,-8 1,-16 4,-25 3,-8 6,-16 11,-23 5,-7 12,-13 19,-18 8,-4 16,-7 26,-7z"/>
  <path d="M967 84c-6,0 -10,1 -15,3 -5,3 -9,6 -13,11 -4,4 -7,9 -11,14 -3,5 -6,10 -8,15 9,19 19,35 28,49 6,-5 13,-10 19,-16 7,-5 13,-11 20,-18l0 -18c0,-7 -1,-13 -2,-18 -1,-5 -2,-9 -4,-12 -1,-3 -3,-6 -6,-7 -2,-2 -5,-3 -8,-3zm-85 62c0,-5 1,-10 4,-16 3,-7 7,-13 12,-19 5,-6 11,-11 18,-16 7,-5 14,-10 21,-13 -6,0 -13,1 -19,1 -6,1 -12,2 -17,4 -5,2 -9,4 -13,7 -4,3 -7,8 -8,13 0,-5 1,-11 1,-17 0,-6 -2,-12 -4,-17 14,1 28,2 41,2 14,1 28,1 43,1 10,0 21,0 31,0 10,-1 20,-1 30,-1 -1,1 -3,2 -4,4 -2,2 -4,5 -5,8 -1,4 -3,8 -3,14 -1,6 -2,14 -2,23l0 121c0,8 1,15 2,21 1,5 2,10 4,13 1,3 3,6 4,8 2,1 3,3 4,4 -4,-1 -8,-1 -12,-2 -4,0 -8,0 -12,0 -5,0 -9,0 -13,0 -4,1 -8,1 -12,2 1,-1 2,-3 4,-4 1,-2 3,-5 4,-8 2,-3 3,-8 4,-13 1,-6 2,-13 2,-21l0 -89c-7,7 -13,14 -20,19 -6,6 -13,11 -19,16 -11,-15 -22,-32 -32,-52 -2,6 -3,11 -3,16 0,10 0,19 0,28 1,9 1,18 2,26 0,9 0,17 1,25 0,9 0,17 0,25 0,10 -2,17 -6,23 -4,6 -9,9 -16,9 -3,0 -6,-1 -8,-4 -3,-2 -5,-5 -5,-9l9 1c0,3 0,4 0,5 0,1 1,1 3,1 3,0 6,-1 7,-2 2,-2 4,-4 5,-6 1,-3 1,-5 2,-8 0,-3 0,-6 0,-8 0,-9 0,-17 -2,-24 -1,-7 -2,-13 -4,-19 -2,-6 -4,-11 -7,-17 -2,-5 -4,-10 -6,-16 -2,-5 -3,-11 -4,-17 -2,-7 -2,-14 -2,-22z"/>
  <path d="M1129 75c4,0 7,0 10,2 4,1 7,4 9,7 3,2 5,6 7,10 2,3 3,8 3,12 0,9 -1,16 -3,23 -2,7 -4,14 -6,21 -2,8 -4,16 -6,26 -2,9 -3,21 -3,35 0,5 1,12 2,20 2,9 5,17 8,25 4,8 8,15 14,21 5,6 12,9 19,9 8,0 13,-1 18,-3 4,-3 7,-6 9,-10 2,-5 3,-9 4,-15 0,-5 0,-11 0,-16l0 -121c0,-8 0,-15 -1,-21 -1,-5 -3,-10 -4,-13 -2,-4 -3,-6 -5,-8 -1,-2 -3,-3 -4,-4 8,1 16,2 25,2 4,0 8,0 12,-1 4,0 9,-1 13,-1 -1,1 -3,2 -4,4 -2,2 -3,4 -5,8 -1,3 -3,8 -4,13 -1,6 -1,13 -1,21l0 121c0,9 0,16 1,22 1,6 2,10 3,13 2,3 3,6 5,7 2,2 3,3 5,4 -5,-1 -10,-2 -15,-2 -5,0 -10,0 -14,0 -4,0 -8,1 -11,1 -4,1 -7,2 -10,3 -4,0 -7,1 -11,2 -3,0 -7,0 -11,0 -10,0 -19,-2 -27,-8 -9,-6 -16,-12 -22,-21 -6,-8 -11,-17 -15,-26 -3,-10 -5,-19 -5,-27 0,-10 1,-19 3,-26 2,-8 4,-14 7,-19 3,-6 6,-10 10,-15 3,-4 6,-8 9,-12 3,-4 5,-9 7,-14 2,-5 3,-12 3,-19 0,-3 0,-5 -1,-8 -1,-3 -2,-5 -4,-8 -2,-2 -4,-4 -7,-6 -2,-1 -5,-2 -8,-2 -2,0 -4,0 -6,1 -3,1 -4,2 -4,5 0,2 1,3 3,3 1,1 3,1 4,1l-4 4c-2,0 -5,-1 -7,-2 -3,-1 -4,-3 -4,-6 0,-2 1,-3 2,-5 1,-1 3,-3 5,-4 2,-1 4,-2 7,-2 2,-1 4,-1 5,-1z"/>
  <path d="M1268 75c8,1 16,2 25,2 4,0 8,0 12,-1 5,0 9,-1 13,-1 -2,1 -3,2 -5,4 -2,2 -3,5 -4,8 -2,4 -3,8 -4,14 -1,6 -1,14 -1,23l0 121c0,8 0,15 1,21 1,5 3,10 4,13 2,3 3,6 5,8 1,1 3,3 4,4 -4,-1 -8,-1 -13,-2 -4,0 -8,0 -12,0 -4,0 -8,0 -12,0 -4,1 -9,1 -13,2 1,-1 3,-3 4,-4 2,-2 3,-5 5,-8 1,-3 3,-8 4,-13 1,-6 1,-13 1,-21l0 -121c0,-9 0,-17 -1,-23 -1,-6 -2,-10 -3,-14 -2,-3 -3,-6 -5,-8 -1,-2 -3,-3 -5,-4z"/>
  <path d="M1372 170c8,0 15,0 21,0 7,0 13,0 18,-2 4,-1 7,-2 10,-4 3,-2 5,-4 6,-8 2,-3 3,-8 4,-13 1,-5 1,-11 1,-19 0,-3 0,-8 -1,-13 -1,-5 -2,-10 -4,-15 -1,-4 -4,-8 -7,-12 -3,-3 -6,-4 -11,-4 -7,0 -13,1 -18,3 -4,2 -8,5 -11,9 -3,4 -5,9 -6,14 -1,6 -2,11 -2,18l0 46zm-6 -90c8,-1 16,-2 24,-4 8,-2 16,-3 24,-3 7,0 13,2 19,5 6,3 11,8 16,13 4,5 8,11 10,17 3,6 4,13 4,19 0,6 -1,12 -3,17 -2,5 -5,9 -9,14 -4,4 -8,8 -13,11 -4,4 -9,7 -13,10 4,3 8,6 13,9 5,4 9,8 13,12 4,4 8,9 10,13 3,5 4,9 4,13 0,3 0,6 -2,9 -1,3 -3,6 -5,9 -2,2 -4,5 -5,8 -2,3 -3,6 -3,9 0,2 1,5 2,8 1,3 2,5 4,8 2,2 4,4 6,6 3,1 6,2 9,2 2,0 4,0 6,-1 2,-1 3,-2 3,-5 0,-2 -1,-3 -2,-3 -2,-1 -3,-1 -5,-1l4 -4c3,0 5,1 8,2 2,1 4,3 4,5 0,2 -1,4 -3,6 -1,1 -3,2 -5,4 -2,1 -4,2 -6,2 -2,1 -4,1 -6,1 -5,0 -9,-2 -13,-5 -4,-4 -7,-9 -10,-14 -3,-6 -5,-13 -7,-20 -3,-7 -5,-14 -6,-21 -2,-7 -4,-13 -6,-19 -2,-6 -3,-10 -6,-14 -3,-5 -6,-9 -10,-12 -3,-3 -7,-5 -11,-7 -4,-2 -9,-2 -13,-3 -5,0 -10,0 -15,0l0 69c0,8 0,15 1,21 2,5 3,10 4,13 2,3 3,6 5,8 2,1 3,3 4,4 -4,-1 -8,-1 -13,-2 -4,0 -8,0 -12,0 -4,0 -8,0 -12,0 -4,1 -9,1 -13,2 1,-1 3,-3 4,-4 2,-2 3,-5 5,-8 1,-3 3,-8 4,-13 1,-6 1,-13 1,-21l0 -121c0,-9 0,-17 -1,-22 -1,-6 -2,-10 -3,-13 -2,-4 -3,-6 -5,-7 -1,-2 -3,-3 -5,-4 10,2 20,2 30,2z"/>
  <path d="M1582 75c7,0 13,0 20,1 6,2 12,3 18,5 6,1 11,3 16,4 6,1 11,2 15,2 4,0 7,0 10,-1 4,-1 7,-3 10,-5l-22 46c-2,-7 -5,-14 -11,-20 -5,-5 -12,-10 -19,-14 -7,-4 -14,-6 -21,-8 -7,-2 -12,-3 -16,-3 -8,0 -16,3 -23,8 -7,4 -14,11 -19,20 -6,9 -10,19 -14,32 -3,12 -5,26 -5,41 0,15 2,29 5,41 4,12 8,23 14,32 5,9 12,15 19,20 7,5 15,7 23,7 7,0 13,-1 19,-5 6,-3 11,-8 15,-16 4,-7 7,-17 9,-29 2,-12 3,-27 3,-44 0,-13 -3,-24 -9,-31 -6,-7 -14,-11 -22,-11 -12,0 -20,2 -25,5 -5,4 -7,8 -7,13 0,3 2,4 5,5 4,1 8,1 13,1 3,0 5,1 6,4 1,2 1,4 1,5 0,3 -1,5 -2,7 -2,2 -4,5 -6,7 -2,3 -4,5 -6,8 -2,2 -4,5 -4,8 0,-4 -1,-7 -3,-10 -2,-3 -4,-6 -6,-9 -2,-3 -4,-7 -6,-11 -2,-4 -3,-9 -3,-15 0,-3 1,-6 3,-9 2,-3 5,-6 9,-9 4,-3 9,-6 14,-7 6,-2 12,-3 19,-3 7,0 15,1 21,4 7,3 13,7 19,12 5,5 9,11 12,18 3,7 5,15 5,24 0,16 -2,29 -7,41 -4,12 -10,22 -17,30 -7,8 -15,15 -24,19 -9,4 -18,6 -26,6 -10,0 -20,-3 -31,-8 -10,-5 -20,-13 -29,-23 -9,-9 -17,-21 -23,-34 -6,-13 -9,-28 -9,-43 0,-15 3,-29 9,-42 6,-13 14,-24 23,-34 9,-10 19,-18 29,-24 11,-6 21,-8 31,-8z"/>
  <path d="M1771 75c10,0 20,2 31,8 10,6 20,14 29,24 9,10 17,21 23,34 5,13 8,27 8,42 0,15 -3,30 -8,43 -6,13 -14,25 -23,34 -9,10 -19,18 -29,23 -11,5 -21,8 -31,8 -9,0 -19,-3 -30,-8 -11,-5 -21,-13 -30,-23 -9,-9 -16,-21 -22,-34 -6,-13 -9,-28 -9,-43 0,-15 3,-29 9,-42 6,-13 13,-24 22,-34 9,-10 19,-18 30,-24 11,-6 21,-8 30,-8zm0 7c-8,0 -15,3 -23,8 -7,4 -13,11 -19,20 -6,9 -10,19 -13,32 -4,12 -5,26 -5,41 0,15 1,29 5,41 3,12 7,23 13,32 6,9 12,15 19,20 8,5 15,7 23,7 8,0 16,-2 23,-7 7,-5 14,-11 19,-20 6,-9 10,-20 13,-32 4,-12 5,-26 5,-41 0,-15 -1,-29 -5,-41 -3,-13 -7,-23 -13,-32 -5,-9 -12,-16 -19,-20 -7,-5 -15,-8 -23,-8z"/>
  </g>
 </g>
</svg>
