<?xml version="1.0" encoding="UTF-8"?>
<!DOCTYPE svg PUBLIC "-//W3C//DTD SVG 1.1//EN" "http://www.w3.org/Graphics/SVG/1.1/DTD/svg11.dtd">
<svg xmlns="http://www.w3.org/2000/svg" xml:space="preserve" width="709px" height="118px" version="1.1" style="shape-rendering:geometricPrecision; text-rendering:geometricPrecision; image-rendering:optimizeQuality; fill-rule:evenodd; clip-rule:evenodd"
viewBox="0 0 2193 365"
 xmlns:xlink="http://www.w3.org/1999/xlink">
 <defs>
  <style type="text/css">
   <![CDATA[
    .c1 {fill:none}
    .c2 {fill:#a00;fill-rule:nonzero}
   ]]>
  </style>
 </defs>
 <g>
  <rect class="c1" width="2193" height="365"/>
  <g class="c2">
  <path d="M134 171c-1,0 -3,0 -3,1 -1,0 -1,0 -2,1 0,1 0,1 0,2 0,1 0,3 -1,4 -1,4 -3,8 -4,12 -2,5 -5,9 -7,13 -3,4 -6,8 -8,12 -3,4 -6,7 -10,9 0,1 -1,1 -2,1 -1,1 -2,1 -3,1 -1,0 -2,0 -3,1 -1,0 -2,0 -3,0 0,0 0,0 0,0 6,-6 11,-12 15,-19 5,-7 8,-14 9,-23 1,-4 1,-8 1,-13 0,-4 1,-8 2,-13 2,-4 4,-9 6,-13 2,-5 5,-9 8,-13 3,-4 6,-7 9,-11 4,-4 7,-7 11,-11l0 0 0 -1c-1,0 -2,0 -3,-1 -1,0 -2,0 -4,0 -1,0 -2,0 -3,0 -1,0 -2,0 -3,0 -3,0 -5,0 -8,0 -2,0 -5,1 -7,1 -1,0 -1,0 -2,1 -1,0 -1,0 -2,0 0,0 0,0 0,0 0,-1 0,-1 0,-1 0,-1 1,-2 1,-2 1,-1 1,-2 1,-2 1,0 1,-1 1,-1 3,1 6,1 9,1 3,0 6,0 10,0 3,0 6,0 9,0 3,0 6,0 9,0 4,0 9,0 13,0 5,0 9,0 13,-1l1 1c-1,0 -1,1 -2,3 -1,1 -1,2 -1,3 0,5 1,10 3,15 1,4 2,8 3,12 2,4 3,8 4,12 2,6 4,13 6,19 3,6 5,12 7,19 1,4 2,8 4,12 1,4 3,8 4,12 1,2 2,4 4,6 1,2 3,3 4,5l0 0c0,1 0,1 0,1 -2,0 -3,0 -5,-1 -1,0 -3,0 -5,0 -4,0 -9,-1 -13,-1 -5,0 -9,0 -14,0 -4,0 -8,0 -11,0 -4,1 -8,1 -12,1 -3,0 -6,0 -10,0 -3,1 -6,1 -10,0 0,0 0,0 0,0 0,0 0,0 0,0 1,-1 1,-2 2,-3 0,-1 1,-1 2,-1 1,0 2,0 4,0 2,1 3,1 5,1 1,0 3,1 5,1 1,0 3,0 5,0 3,0 5,-1 9,-1 3,-1 6,-1 8,-3 3,-1 5,-3 7,-5 1,-2 2,-5 2,-8 0,-4 0,-8 -1,-12 -1,-3 -2,-7 -3,-11 -1,-2 -2,-3 -2,-5 -1,-2 -2,-4 -2,-6 0,0 -1,0 -3,-1 -2,0 -5,0 -8,0 -3,0 -6,0 -9,0 -4,0 -7,0 -11,0 -3,0 -6,0 -9,0 -3,0 -5,0 -7,0zm22 -57l-2 1c-5,6 -9,12 -11,18 -3,6 -5,13 -7,20 0,1 -1,2 -1,3 -1,1 -1,2 -1,3 -1,2 -1,3 -2,4 0,1 0,2 0,2 0,1 0,1 1,1 2,0 4,0 5,0 2,0 4,0 6,0l7 0c2,0 4,0 6,0 2,0 4,0 6,0l15 0c0,0 0,0 1,0 0,0 0,0 0,-1 0,0 0,-1 -1,-3 0,-1 -1,-2 -1,-2 0,-2 -1,-3 -2,-6 -1,-3 -2,-6 -3,-9 -1,-3 -3,-7 -4,-10 -2,-4 -3,-7 -5,-10 -1,-3 -2,-6 -4,-8 -1,-2 -2,-3 -3,-3z"/>
  <path d="M281 219c0,1 1,1 2,1 1,0 2,0 5,-1 2,-1 4,-2 7,-3 2,-2 4,-3 6,-4 2,-1 4,-2 5,-3l1 -1c0,0 0,1 0,1 -1,1 -1,2 -2,3 -1,2 -1,3 -2,4 0,2 -1,3 -1,5 -1,1 -2,2 -2,3l-1 0c-2,-1 -4,-1 -7,-1 -2,0 -4,0 -6,0 -2,0 -4,0 -6,0 -2,1 -4,1 -6,1l-1 0 0 -1 0 0c3,-4 5,-8 7,-12 2,-4 3,-8 5,-13 1,-5 2,-9 3,-14 0,-4 1,-9 1,-13 0,-3 -1,-6 -2,-9 -1,-4 -2,-7 -4,-10 -2,-3 -4,-6 -7,-8 -2,-2 -5,-3 -9,-3 -5,0 -8,2 -11,4 -2,2 -4,5 -5,8 -1,3 -1,7 -1,11 0,4 0,8 0,11 0,5 0,9 0,13 0,5 0,9 0,13 0,3 0,5 0,8 1,3 1,5 2,7 1,2 2,3 3,4 1,1 2,2 3,3 -1,0 -1,1 -1,1 -3,-1 -6,-1 -9,-1 -3,0 -6,0 -9,0 -1,0 -2,0 -3,0 -1,0 -2,0 -3,0 -2,0 -3,0 -4,0 -1,0 -1,0 -2,0l-1 0c3,-4 4,-7 5,-9 1,-3 2,-5 3,-8 0,-2 0,-5 1,-8 0,-2 0,-6 0,-10l0 -20c0,-3 -1,-6 -1,-9 0,-3 0,-6 -1,-8 0,-3 -1,-5 -3,-8 -2,-2 -4,-4 -6,-5 0,0 0,-1 -1,-1 0,0 -1,-1 -1,-1l1 0c0,0 1,1 2,1 2,1 3,1 4,1 2,1 3,1 5,1 2,0 4,1 6,1 5,0 10,-1 14,-2 5,-1 10,-2 15,-2 5,0 10,1 14,2 5,1 9,3 12,6 3,2 6,6 8,10 2,4 3,9 3,14 0,3 0,7 -1,10 0,3 -1,6 -2,10 -1,2 -2,5 -3,8 -2,2 -4,5 -6,8 -2,2 -4,5 -6,7 -2,3 -4,5 -6,6 0,1 -1,1 -1,2z"/>
  <path d="M402 105l0 0 0 1c-3,1 -5,3 -7,6 -1,3 -2,7 -3,10 -1,4 -1,8 -1,11 0,4 0,7 0,10 0,8 0,16 0,24 0,9 0,17 0,25 0,4 1,8 1,13 0,4 1,8 3,12 0,0 0,1 1,1 0,1 1,2 1,2 0,1 1,1 1,2 0,0 1,1 1,1 0,0 -1,0 -1,0 -1,0 -2,0 -2,0 -1,0 -2,-1 -3,-1 -1,0 -3,0 -4,0 -2,0 -3,0 -4,0 -6,0 -11,0 -17,1 -5,2 -11,2 -16,2 -7,0 -12,-1 -17,-3 -5,-3 -9,-6 -13,-10 -3,-4 -5,-9 -7,-14 -2,-6 -3,-11 -3,-18 0,-5 1,-11 3,-16 2,-5 5,-10 8,-13 3,-4 8,-7 12,-10 5,-2 11,-3 17,-3 2,0 5,0 7,1 3,1 5,1 8,2 2,1 4,2 5,3 1,1 2,1 2,1l1 0 1 -1 0 -14c0,-5 -1,-9 -3,-14 -2,-4 -5,-7 -9,-10 0,0 -1,0 -1,0 -1,0 -1,-1 -1,-1l0 0 1 0c1,0 3,0 6,1 2,0 4,1 6,2 2,1 3,2 5,2 1,1 2,2 2,2 2,-1 4,-2 5,-3 1,0 3,-1 4,-2 1,0 2,-1 4,-1 2,0 4,-1 7,-1zm-42 41c-2,-1 -4,-2 -7,-1 -1,0 -3,0 -4,0 -1,0 -2,0 -3,1 -2,1 -4,2 -6,4 -1,1 -2,3 -4,5 -1,1 -1,2 -2,3 0,0 -1,1 -1,2 -1,1 -1,2 -1,3 0,1 0,2 -1,3 0,2 -1,5 -1,8 0,4 0,9 0,14 0,3 1,6 1,8 1,1 1,3 2,4 0,2 1,3 1,4 1,2 2,3 3,5 1,1 2,2 3,3 2,3 5,5 8,6 4,1 7,2 11,1 1,0 2,0 3,0 1,-1 1,-1 2,-1 3,-1 5,-3 7,-6 1,-2 3,-4 4,-7 0,-1 0,-2 0,-3 0,0 0,-2 0,-3 0,-1 0,-2 0,-3 1,-1 1,-2 1,-3l0 -30c0,-2 -1,-4 -2,-6 -1,-2 -3,-3 -4,-5 -3,-3 -6,-5 -10,-6z"/>
  <path d="M408 118c2,-1 4,-3 5,-4 2,-2 3,-4 5,-6 0,0 0,0 1,0 0,0 0,0 0,0 1,2 3,4 5,5 1,2 3,3 5,4l1 1 -1 0c-2,2 -3,3 -5,5 -1,2 -3,4 -5,6l0 0 0 0c-1,-2 -2,-3 -3,-4 -1,-1 -2,-2 -3,-3 -1,-1 -2,-1 -3,-2 -1,0 -1,-1 -2,-2zm25 22c-1,2 -2,3 -3,5 0,2 -1,4 -2,6 0,2 0,4 -1,6 0,2 0,4 0,6 0,2 0,6 0,11 0,5 0,10 0,15 0,5 0,10 0,14 1,5 1,9 2,11 1,2 2,4 3,6 2,1 3,3 5,4l0 1c0,0 0,0 0,0 -3,0 -5,-1 -7,-1 -3,-1 -5,-1 -7,-1 -3,0 -6,0 -9,1 -3,0 -6,0 -9,0l-1 0 0 0c0,-1 1,-2 2,-2 0,-1 1,-2 2,-3 1,-2 2,-5 3,-8 1,-3 1,-7 1,-10 0,-4 0,-8 0,-11 0,-4 0,-7 0,-9 0,-3 0,-6 1,-9 0,-3 0,-6 0,-9 0,-4 -1,-8 -1,-12 -1,-4 -2,-7 -6,-11l1 0 0 0c2,0 4,0 6,0 2,1 3,1 5,1 3,0 5,0 8,-1 2,0 5,0 7,0l0 0 0 0z"/>
  <path d="M512 206c0,3 1,6 1,9 1,3 3,5 4,7l0 1 0 0c-1,0 -3,0 -6,0 -2,0 -4,0 -5,0 -6,0 -11,0 -16,1 -5,1 -11,2 -16,2 -5,0 -9,-1 -13,-2 -4,-1 -7,-3 -10,-5 -3,-3 -6,-5 -7,-9 -2,-4 -3,-8 -3,-13 0,-3 1,-6 2,-9 2,-3 4,-6 6,-8 0,-1 0,-1 0,-1 0,-1 0,-1 0,-2 -1,-1 -1,-2 -2,-3 0,-2 0,-3 -1,-4 0,-2 0,-3 0,-5 0,-4 1,-8 2,-12 2,-3 5,-6 8,-9 3,-2 6,-4 10,-5 4,-1 8,-2 13,-2 4,0 8,1 12,1 3,1 6,2 9,4 3,2 5,4 7,7 2,3 3,6 4,11 1,3 1,7 1,11 0,4 0,8 0,12 0,3 0,7 0,11 0,4 0,8 0,12zm-34 -64c-3,0 -6,1 -8,2 -3,0 -5,1 -7,3 -2,1 -4,3 -5,5 -2,2 -2,5 -2,8 0,0 0,1 0,3 0,1 1,2 1,3 1,1 1,2 2,3 1,1 2,1 3,1l0 0c4,-1 9,-3 13,-5 4,-2 9,-3 13,-5 1,0 3,0 4,0 1,-1 2,-1 3,-2l0 0c0,-5 -2,-9 -5,-12 -3,-2 -8,-4 -12,-4zm0 78c6,0 9,-1 12,-3 2,-2 4,-5 5,-8 1,-3 2,-6 2,-10 0,-4 0,-8 0,-11l-1 -24 0 0c-4,0 -9,1 -13,3 -5,2 -8,4 -12,7 -4,2 -6,6 -9,10 -2,3 -3,8 -3,13 0,2 0,5 1,8 1,3 2,5 4,7 2,3 4,4 6,6 3,1 5,2 8,2z"/>
  <path d="M519 139l0 -1 2 0c2,0 4,1 6,1 2,0 4,1 6,1 5,0 10,-1 14,-1 5,-1 9,-1 14,-1 4,0 7,0 11,1 3,1 6,2 9,3 1,0 1,1 2,1 1,1 2,1 2,1 1,0 2,0 3,-1 2,-1 3,-2 3,-2 1,-1 2,-1 4,-1 1,-1 2,-1 4,-2 2,0 3,0 5,-1 1,0 2,0 3,0 10,0 17,2 23,7 6,5 9,12 9,22 0,9 -2,16 -6,24 -3,8 -7,15 -12,21 0,1 -1,1 -1,2 -1,1 -2,2 -3,3 0,0 -1,1 -2,2 0,1 -1,1 -1,2l1 1c0,0 0,0 1,0 1,0 3,-1 5,-2 2,-1 5,-2 7,-4 3,-1 5,-3 7,-4 3,-2 4,-3 5,-4l1 0 0 1c-1,0 -1,2 -2,3 -1,2 -1,4 -2,5 -1,2 -1,4 -2,5 0,1 -1,2 -1,2 -3,0 -5,0 -8,0 -2,0 -4,0 -7,0 -2,0 -4,0 -6,0 -2,0 -4,0 -6,1l0 -1c0,0 0,-1 1,-2 0,-2 1,-3 2,-5 1,-2 2,-3 3,-5 0,-2 1,-3 1,-3 3,-6 4,-11 5,-17 2,-6 2,-12 2,-18 0,-3 0,-6 -1,-10 0,-3 -1,-6 -2,-9 -2,-3 -4,-6 -6,-8 -3,-1 -6,-2 -10,-2 -1,0 -2,0 -3,0 -2,1 -3,1 -5,2 -1,0 -2,1 -4,2 -1,0 -1,1 -1,2 0,0 0,1 0,2 1,1 1,3 2,4 0,2 1,4 1,6 1,2 1,3 1,5 0,6 -1,13 -3,19 -2,7 -4,13 -8,19 0,0 -1,1 -2,3 -1,2 -2,3 -4,5 -1,2 -2,3 -3,5 -1,1 -2,2 -2,2 0,0 1,0 1,1 0,0 1,0 1,0 1,0 2,0 3,-1 1,0 3,-1 4,-2 2,0 3,-1 5,-2 1,-1 2,-1 3,-1 0,-1 1,-1 1,-1 1,-1 1,-1 2,-2 1,0 2,-1 2,-1l1 0c0,0 -1,1 -1,2 -1,1 -1,2 -2,3 0,1 -1,2 -1,3 0,2 -1,3 -1,4 -1,0 -1,0 -2,1 -1,0 -2,0 -3,0 -1,-1 -2,-1 -4,-1 -1,0 -1,0 -2,0 -2,0 -4,0 -6,0 -2,1 -4,1 -6,1l-1 0 -1 -1c1,-3 2,-6 4,-9 2,-3 3,-6 4,-9 3,-10 4,-20 4,-30 0,-3 0,-7 -1,-11 0,-3 -1,-7 -3,-10 -1,-3 -3,-5 -6,-7 -2,-2 -6,-3 -10,-3 -4,0 -7,1 -9,2 -2,2 -3,4 -4,6 0,3 -1,5 -1,8 1,3 1,6 1,9l-1 9c0,6 0,12 0,18 0,5 1,11 1,17 1,2 1,3 2,5 1,2 3,3 4,5l1 0 -1 1c-3,-1 -7,-2 -10,-2 -4,0 -7,1 -11,1 -1,0 -2,0 -3,0 -1,0 -2,0 -4,0l0 0c2,-2 3,-4 4,-6 1,-2 1,-4 2,-7 0,-2 0,-5 0,-7 0,-2 0,-5 0,-7 0,-2 0,-4 0,-6 0,-2 0,-4 0,-7l0 -23c0,-4 0,-8 -1,-12 -1,-3 -3,-7 -7,-9z"/>
  <path d="M686 225c-6,0 -12,-1 -18,-4 -5,-2 -9,-5 -13,-9 -4,-4 -7,-8 -9,-14 -2,-5 -3,-11 -3,-18 0,-6 1,-12 3,-17 2,-5 5,-10 8,-14 4,-4 8,-7 14,-9 5,-2 11,-3 17,-3 7,0 12,1 18,3 5,2 10,5 14,9 3,4 6,9 8,15 3,5 4,11 4,17 0,6 -1,12 -4,17 -2,5 -5,10 -9,14 -3,4 -8,7 -13,9 -5,3 -11,4 -17,4zm-25 -46c0,4 0,8 1,12 1,5 2,9 4,13 2,4 5,7 8,10 3,3 6,4 11,4 4,0 8,-1 11,-3 3,-2 6,-5 8,-8 2,-4 3,-7 4,-11 1,-4 2,-8 2,-12 0,-4 -1,-8 -1,-13 -1,-5 -2,-9 -4,-13 -2,-5 -4,-8 -7,-11 -3,-3 -7,-5 -12,-5 -5,0 -9,2 -12,4 -3,2 -6,5 -8,9 -2,4 -3,8 -4,12 -1,4 -1,8 -1,12z"/>
  <path d="M851 206c0,3 0,6 1,9 0,3 2,5 4,7l0 1 -1 0c-1,0 -3,0 -5,0 -2,0 -4,0 -6,0 -5,0 -11,0 -16,1 -5,1 -10,2 -16,2 -4,0 -8,-1 -13,-2 -4,-1 -7,-3 -10,-5 -3,-3 -5,-5 -7,-9 -2,-4 -3,-8 -3,-13 0,-3 1,-6 2,-9 2,-3 4,-6 6,-8 0,-1 0,-1 0,-1 0,-1 0,-1 0,-2 0,-1 -1,-2 -1,-3 -1,-2 -1,-3 -1,-4 -1,-2 -1,-3 -1,-5 0,-4 1,-8 3,-12 2,-3 4,-6 7,-9 3,-2 7,-4 11,-5 4,-1 8,-2 12,-2 4,0 8,1 12,1 3,1 7,2 9,4 3,2 5,4 7,7 2,3 4,6 5,11 0,3 1,7 0,11 0,4 0,8 0,12 1,3 1,7 1,11 0,4 0,8 0,12zm-35 -64c-3,0 -5,1 -8,2 -2,0 -5,1 -7,3 -2,1 -4,3 -5,5 -1,2 -2,5 -2,8 0,0 0,1 0,3 1,1 1,2 2,3 0,1 1,2 1,3 1,1 2,1 3,1l0 0c5,-1 9,-3 13,-5 4,-2 9,-3 13,-5 2,0 3,0 4,0 1,-1 3,-1 3,-2l1 0c-1,-5 -3,-9 -6,-12 -3,-2 -7,-4 -12,-4zm1 78c5,0 9,-1 11,-3 3,-2 4,-5 5,-8 1,-3 2,-6 2,-10 0,-4 0,-8 0,-11l0 -24 -1 0c-4,0 -8,1 -13,3 -4,2 -8,4 -12,7 -3,2 -6,6 -8,10 -3,3 -4,8 -4,13 0,2 1,5 2,8 0,3 2,5 3,7 2,3 4,4 6,6 3,1 6,2 9,2z"/>
  <path d="M945 224l-1 1c-3,0 -7,-1 -10,-2 -3,0 -7,-1 -10,-1 -2,0 -5,0 -7,1 -3,0 -5,0 -8,0l0 0c0,0 1,-1 1,-1 1,0 1,-1 1,-1 3,-3 4,-7 5,-12 1,-4 1,-9 1,-13 0,-6 0,-12 0,-18 0,-6 0,-13 0,-19 0,-4 0,-8 0,-14 0,-5 0,-10 -1,-15 0,-6 -2,-10 -4,-15 -2,-4 -5,-7 -9,-9l0 -1 0 0c3,0 7,1 10,2 4,1 7,2 10,4 1,0 1,0 1,0 1,0 2,0 3,-1 1,-1 2,-1 3,-2 2,0 4,-1 7,-1 2,-1 4,-1 7,-1l0 0 0 0c-3,2 -5,3 -6,5 -2,3 -3,5 -4,8 -1,3 -1,6 -2,8 0,3 0,6 0,9 0,1 0,2 0,3 0,1 0,3 0,4 0,0 0,0 1,0 1,0 1,0 2,-1 1,0 2,-1 3,-1 3,-1 6,-2 10,-2 3,-1 6,-1 9,-1 6,0 12,1 16,4 5,2 9,5 12,9 4,4 6,9 8,14 1,5 2,10 2,16 0,6 -1,12 -2,18 -2,5 -5,10 -8,14 -3,4 -8,7 -13,9 -5,2 -11,3 -18,3 -1,0 -3,0 -5,0 -2,0 -3,0 -4,-1zm-12 -70l0 27c0,4 0,8 -1,13 0,4 1,8 2,12 1,4 3,7 6,9 3,3 7,4 12,4 5,0 9,-1 13,-3 3,-2 6,-4 8,-8 2,-3 4,-7 5,-11 1,-4 1,-8 1,-13 0,-4 0,-8 -1,-13 -1,-5 -2,-9 -4,-13 -2,-4 -5,-8 -9,-10 -3,-3 -8,-4 -13,-4 -4,0 -7,0 -10,2 -2,1 -5,2 -8,4 -1,0 -1,1 -1,2 0,0 0,1 0,2z"/>
  <path d="M1033 145c-2,0 -4,0 -5,2 -1,1 -2,2 -3,3 0,1 0,3 0,4 -1,7 -1,13 -1,20 0,7 0,13 0,20 0,3 0,6 0,8 0,3 1,6 1,8 1,3 2,6 4,8 1,2 3,4 5,5l0 1c-7,-1 -13,-2 -20,-2 -2,0 -4,0 -6,0 -2,1 -4,1 -6,1l0 -1 0 -1c1,-1 3,-2 4,-4 0,-2 1,-4 1,-6 1,-1 1,-3 1,-5 0,-2 0,-4 0,-6 0,-6 1,-11 1,-17 0,-5 0,-11 0,-17 0,-3 0,-5 0,-8 0,-2 0,-4 0,-6 -1,-2 -2,-4 -3,-6 -1,-1 -3,-3 -5,-5 -1,-1 -2,-1 -2,-2 -1,0 -1,-1 -2,-1l0 -1c6,1 11,2 17,3 5,0 10,0 16,0 4,0 8,0 12,0 4,-1 8,-2 12,-3l1 1c2,2 4,4 6,6 3,2 5,4 8,5l0 1c-1,1 -2,2 -4,2 -1,1 -3,1 -4,2 -3,3 -7,5 -10,8 -3,2 -6,5 -9,7 0,1 -1,1 -1,1l0 0 0 0 0 0 0 0c0,-1 0,-2 1,-3 0,-1 0,-2 0,-3 0,0 1,0 1,-1 0,0 0,-1 0,-1 0,-1 0,-2 0,-3 0,-1 0,-2 0,-3 0,-3 -1,-6 -3,-8 -1,-2 -4,-3 -7,-3z"/>
  <path d="M1094 142c-1,0 -2,1 -4,1 -2,1 -4,2 -6,2 -2,1 -4,2 -6,3 -2,1 -4,1 -5,2l0 0 0 0 0 -1c1,-1 2,-3 3,-5 1,-1 2,-3 3,-4l1 -1c2,0 4,0 7,0 2,0 4,0 7,0 2,0 4,0 6,0 2,0 4,0 6,0 0,0 0,0 0,1 -1,2 -3,4 -4,6 -2,2 -4,5 -5,8 -1,5 -3,10 -4,15 -1,5 -2,10 -2,15 0,4 1,8 2,12 1,4 2,7 4,11 2,3 4,6 8,8 3,2 7,3 11,3 4,0 7,-1 9,-2 2,-1 4,-3 6,-5 1,-2 2,-5 2,-8 1,-3 1,-6 1,-9 0,-3 0,-7 1,-10 0,-3 0,-7 0,-10 0,-3 0,-6 0,-9 0,-3 0,-5 -1,-8 0,-4 0,-8 -1,-10 -2,-3 -4,-5 -7,-8l0 0c2,0 4,0 6,0 3,0 5,1 7,1 1,0 2,-1 4,-1 2,0 4,0 6,0 2,0 4,0 6,-1 2,0 3,0 3,0l0 1 0 0c-2,1 -3,3 -4,5 -1,2 -2,4 -2,6 -1,2 -1,5 -1,7 0,2 0,4 0,6l0 51c0,2 1,4 2,6 1,2 2,4 4,5l0 0 0 0c-1,0 -2,0 -2,0 -1,-1 -1,-1 -2,-1 -1,-1 -3,-1 -6,-2 -2,0 -4,0 -6,0 -5,0 -10,0 -16,1 -5,1 -10,2 -16,2 -5,0 -9,-1 -14,-3 -5,-1 -9,-4 -12,-7 -4,-3 -7,-7 -9,-11 -2,-4 -3,-9 -3,-14 0,-5 1,-10 3,-15 1,-6 4,-10 6,-15 4,-5 8,-10 13,-14 0,0 1,-1 1,-1 1,-1 1,-1 1,-1 0,-1 0,-2 -1,-2z"/>
  <path d="M1205 144c-5,0 -9,1 -13,4 -3,2 -6,5 -8,9 -3,3 -4,7 -5,12 -1,4 -2,9 -2,13 0,3 1,7 1,10 1,3 2,6 3,10 2,3 3,6 5,8 2,3 5,5 7,7 2,1 4,2 6,2 3,1 5,1 7,1 6,0 11,-2 15,-5 4,-4 7,-8 9,-13 1,-1 1,-3 2,-5 0,-1 1,-3 1,-4l1 0 0 0 0 6c0,1 0,2 0,3 0,1 0,2 0,3 0,3 0,6 1,10 0,3 1,6 0,9l0 0c-2,0 -5,-1 -8,-1 -4,0 -8,1 -11,1 -4,1 -8,2 -12,2 -15,0 -26,-4 -33,-12 -8,-9 -11,-20 -11,-34 0,-6 1,-12 3,-17 2,-6 5,-10 8,-14 4,-3 8,-6 14,-8 5,-2 10,-3 17,-3 4,0 8,0 12,1 5,1 9,2 13,2 3,0 5,-1 7,-2l1 0 0 1 0 0c0,1 0,2 0,4 -1,2 -1,3 -1,5 -1,3 -1,6 -1,10 0,3 0,6 0,10 0,0 0,1 0,1 0,1 0,1 0,2l0 0 0 -1c-1,-3 -2,-7 -4,-10 -1,-3 -3,-6 -5,-9 -2,-2 -5,-4 -8,-6 -3,-1 -6,-2 -11,-2z"/>
  <path d="M1243 118c2,-1 4,-3 6,-4 1,-2 3,-4 4,-6 0,0 1,0 1,0 0,0 0,0 0,0 2,2 3,4 5,5 1,2 3,3 6,4l0 1 0 0c-2,2 -4,3 -6,5 -1,2 -3,4 -5,6l0 0 0 0c-1,-2 -2,-3 -3,-4 -1,-1 -2,-2 -3,-3 -1,-1 -2,-1 -2,-2 -1,0 -2,-1 -3,-2zm25 22c-1,2 -2,3 -2,5 -1,2 -2,4 -2,6 -1,2 -1,4 -1,6 0,2 0,4 0,6 0,2 -1,6 -1,11 0,5 0,10 0,15 0,5 1,10 1,14 0,5 1,9 2,11 0,2 1,4 3,6 1,1 3,3 4,4l1 1c0,0 -1,0 -1,0 -2,0 -5,-1 -7,-1 -2,-1 -5,-1 -7,-1 -3,0 -6,0 -9,1 -3,0 -6,0 -9,0l-1 0 0 0c1,-1 1,-2 2,-2 1,-1 1,-2 2,-3 1,-2 3,-5 3,-8 1,-3 1,-7 1,-10 1,-4 1,-8 1,-11 -1,-4 -1,-7 0,-9 0,-3 0,-6 0,-9 0,-3 0,-6 0,-9 0,-4 0,-8 -1,-12 0,-4 -2,-7 -5,-11l0 0 1 0c1,0 3,0 5,0 2,1 4,1 6,1 2,0 5,0 7,-1 3,0 5,0 7,0l1 0 -1 0z"/>
  <path d="M1348 206c0,3 0,6 1,9 1,3 2,5 4,7l0 1 -1 0c-1,0 -3,0 -5,0 -2,0 -4,0 -6,0 -5,0 -11,0 -16,1 -5,1 -10,2 -16,2 -4,0 -8,-1 -12,-2 -4,-1 -8,-3 -11,-5 -3,-3 -5,-5 -7,-9 -2,-4 -3,-8 -3,-13 0,-3 1,-6 3,-9 1,-3 3,-6 5,-8 0,-1 1,-1 1,-1 0,-1 -1,-1 -1,-2 0,-1 -1,-2 -1,-3 -1,-2 -1,-3 -1,-4 -1,-2 -1,-3 -1,-5 0,-4 1,-8 3,-12 2,-3 4,-6 7,-9 3,-2 7,-4 11,-5 4,-1 8,-2 12,-2 4,0 8,1 12,1 4,1 7,2 9,4 3,2 6,4 8,7 1,3 3,6 4,11 0,3 1,7 0,11 0,4 0,8 0,12 1,3 1,7 1,11 0,4 0,8 0,12zm-35 -64c-3,0 -5,1 -8,2 -2,0 -5,1 -7,3 -2,1 -4,3 -5,5 -1,2 -2,5 -2,8 0,0 0,1 1,3 0,1 0,2 1,3 0,1 1,2 2,3 0,1 1,1 2,1l0 0c5,-1 9,-3 13,-5 4,-2 9,-3 14,-5 1,0 2,0 3,0 2,-1 3,-1 4,-2l0 0c-1,-5 -3,-9 -6,-12 -3,-2 -7,-4 -12,-4zm1 78c5,0 9,-1 11,-3 3,-2 4,-5 5,-8 1,-3 2,-6 2,-10 0,-4 0,-8 0,-11l0 -24 -1 0c-4,0 -8,1 -13,3 -4,2 -8,4 -12,7 -3,2 -6,6 -8,10 -3,3 -4,8 -4,13 0,2 1,5 2,8 1,3 2,5 3,7 2,3 4,4 7,6 2,1 5,2 8,2z"/>
  <path d="M1389 145c-2,0 -4,0 -6,2 -1,1 -1,2 -2,3 0,1 0,3 -1,4 0,7 0,13 0,20 0,7 0,13 0,20 0,3 0,6 0,8 0,3 1,6 1,8 1,3 2,6 3,8 2,2 4,4 6,5l0 1c-7,-1 -14,-2 -20,-2 -2,0 -4,0 -6,0 -2,1 -4,1 -6,1l-1 -1 1 -1c1,-1 2,-2 3,-4 1,-2 2,-4 2,-6 1,-1 1,-3 1,-5 0,-2 0,-4 0,-6 0,-6 0,-11 1,-17 0,-5 0,-11 0,-17 0,-3 0,-5 0,-8 0,-2 0,-4 -1,-6 0,-2 -1,-4 -2,-6 -1,-1 -3,-3 -6,-5 0,-1 -1,-1 -1,-2 -1,0 -2,-1 -2,-1l0 -1c5,1 11,2 16,3 6,0 11,0 17,0 4,0 8,0 12,0 3,-1 7,-2 11,-3l2 1c2,2 4,4 6,6 2,2 5,4 8,5l0 1c-1,1 -3,2 -4,2 -2,1 -3,1 -4,2 -4,3 -7,5 -10,8 -3,2 -6,5 -9,7 -1,1 -1,1 -2,1l0 0 0 0 0 0 0 0c1,-1 1,-2 1,-3 1,-1 1,-2 1,-3 0,0 0,0 0,-1 0,0 1,-1 1,-1 0,-1 0,-2 0,-3 0,-1 0,-2 0,-3 0,-3 -1,-6 -3,-8 -2,-2 -4,-3 -7,-3z"/>
  <path d="M1442 219c-1,-1 -2,-2 -2,-2 -1,-1 -2,-1 -3,-2 -2,-1 -4,-3 -5,-6 -2,-3 -4,-5 -5,-8 -1,-3 -2,-6 -3,-9 0,-3 -1,-6 -1,-9 0,-10 3,-19 9,-26 5,-8 13,-13 23,-16 3,-1 6,-1 9,-2 3,0 7,0 10,0 3,0 7,1 11,1 3,1 7,1 11,1 2,0 3,0 5,0 2,-1 4,-1 5,-1l0 0 0 0c-1,1 -2,3 -2,4 -1,2 -2,4 -2,5 -1,2 -1,5 -1,8 -1,3 -1,6 -1,9 0,4 0,7 0,10 0,3 0,6 0,8l0 21c0,3 0,5 1,8 1,2 2,5 2,6 1,2 2,4 3,5 1,1 1,2 1,2 0,0 0,1 -1,2 -2,4 -5,8 -9,12 -4,4 -8,8 -13,11 -4,3 -9,5 -14,7 -5,2 -10,3 -15,3 -3,0 -7,-1 -10,-1 -3,-1 -6,-2 -8,-4 -3,-2 -5,-4 -7,-7 -1,-2 -2,-5 -2,-9 0,-4 1,-7 2,-10 2,-2 3,-4 5,-6 1,-1 3,-2 4,-3 2,-1 3,-1 3,-2l0 0zm25 -73c-5,0 -9,1 -12,3 -3,2 -6,5 -8,8 -2,4 -3,7 -4,11 -1,4 -1,9 -1,12 0,7 1,14 3,20 2,6 6,11 12,15 0,1 1,1 1,1 0,1 1,1 2,1 1,0 3,1 4,1 1,0 3,0 4,0 6,0 11,-1 15,-5 1,-1 2,-2 2,-4 0,-5 0,-10 0,-15 0,-5 0,-9 0,-14l0 -13c0,-3 0,-6 -1,-9 0,-2 -1,-5 -2,-6 -2,-2 -3,-4 -6,-5 -2,-1 -5,-1 -9,-1zm24 87c0,-1 0,-1 -1,-2 0,-1 -1,-2 -1,-3 -1,-1 -1,-2 -2,-4 0,-1 -1,-2 -1,-2 0,-1 0,-1 0,-1 0,-1 -1,-1 -1,-1 -1,0 -1,0 -1,0 -1,0 -2,1 -2,1 -1,0 -1,0 -2,1 -1,0 -1,0 -2,0 -2,1 -4,1 -7,2 -2,0 -4,0 -7,0 -1,0 -3,0 -5,0 -2,-1 -4,-1 -6,-1 -1,-1 -3,-1 -4,-1 -2,-1 -2,-1 -3,-1 -1,0 -2,1 -3,1 -1,1 -1,2 -2,4 -1,1 -1,2 -1,4 -1,1 -1,2 -1,3 0,3 1,6 2,8 1,3 3,5 5,6 2,2 5,3 8,4 2,1 5,2 8,2 5,0 9,-1 13,-3 4,-2 7,-5 10,-8 0,-1 1,-1 2,-2 0,-1 1,-2 2,-3 0,0 1,-1 1,-2 1,-1 1,-2 1,-2z"/>
  <path d="M1526 112c0,0 1,0 2,-1 1,-1 2,-2 4,-3 2,0 4,-1 6,-2 2,0 3,-1 5,-1l0 1 0 0c-2,2 -4,4 -5,6 -1,3 -2,6 -3,9 0,2 0,5 0,8 0,3 0,6 0,8 0,4 0,7 -1,11 0,3 0,7 0,10 0,9 0,17 0,26 0,10 0,18 1,27 1,2 1,4 2,6 0,1 1,2 2,3 1,1 1,1 2,2 1,0 1,1 1,2l0 0c-1,0 -3,0 -6,0 -2,0 -5,0 -8,0 -3,0 -5,0 -8,-1 -2,0 -4,0 -5,0l0 -1c1,-3 2,-7 3,-10 0,-4 1,-8 1,-12 0,-4 0,-8 0,-12 0,-4 0,-7 0,-11 0,-3 0,-6 0,-9 0,-3 0,-6 0,-9 0,-2 0,-4 0,-6 0,-2 0,-4 0,-6 0,-3 0,-7 0,-11 1,-4 0,-8 0,-12 -1,-3 -2,-7 -3,-10 -2,-4 -4,-6 -7,-8 0,-1 0,-1 0,-1 0,0 0,0 0,0l0 0c1,0 2,0 4,1 1,0 3,1 4,1 1,1 3,1 4,2 1,0 2,1 3,2 1,1 1,1 2,1z"/>
  <path d="M1551 118c2,-1 4,-3 6,-4 1,-2 3,-4 4,-6 0,0 1,0 1,0 0,0 0,0 0,0 2,2 3,4 5,5 1,2 3,3 6,4l0 1 0 0c-2,2 -4,3 -6,5 -1,2 -3,4 -5,6l0 0 0 0c-1,-2 -2,-3 -3,-4 -1,-1 -2,-2 -3,-3 -1,-1 -2,-1 -2,-2 -1,0 -2,-1 -3,-2zm25 22c-1,2 -2,3 -2,5 -1,2 -2,4 -2,6 -1,2 -1,4 -1,6 0,2 -1,4 -1,6 0,2 0,6 0,11 0,5 0,10 0,15 0,5 0,10 1,14 0,5 1,9 1,11 1,2 2,4 4,6 1,1 3,3 4,4l1 1c0,0 -1,0 -1,0 -2,0 -5,-1 -7,-1 -2,-1 -5,-1 -7,-1 -3,0 -6,0 -9,1 -3,0 -6,0 -9,0l-1 0 0 0c1,-1 1,-2 2,-2 1,-1 1,-2 2,-3 1,-2 2,-5 3,-8 1,-3 1,-7 1,-10 1,-4 1,-8 0,-11 0,-4 0,-7 0,-9 1,-3 1,-6 1,-9 0,-3 0,-6 0,-9 0,-4 0,-8 -1,-12 0,-4 -2,-7 -5,-11l0 0 0 0c2,0 4,0 6,0 2,1 4,1 6,1 2,0 4,0 7,-1 3,0 5,0 7,0l1 0 -1 0z"/>
  <path d="M1648 112c1,0 1,0 2,-1 1,-1 3,-2 4,-3 2,0 4,-1 6,-2 2,0 4,-1 6,-1l0 1 0 0c-3,2 -4,4 -6,6 -1,3 -2,6 -2,9 -1,2 -1,5 -1,8 0,3 0,6 0,8 0,4 0,7 0,11 0,3 0,7 0,10 0,9 0,17 -1,26 0,10 1,18 2,27 0,2 1,4 1,6 1,1 2,2 2,3 1,1 2,1 2,2 1,0 2,1 2,2l0 0c-2,0 -4,0 -6,0 -3,0 -6,0 -8,0 -3,0 -6,0 -8,-1 -3,0 -4,0 -6,0l0 -1c1,-3 2,-7 3,-10 1,-4 1,-8 1,-12 1,-4 1,-8 1,-12 0,-4 0,-7 0,-11 0,-3 0,-6 -1,-9 0,-3 0,-6 0,-9 0,-2 0,-4 0,-6 1,-2 1,-4 1,-6 0,-3 0,-7 0,-11 0,-4 0,-8 -1,-12 0,-3 -1,-7 -3,-10 -1,-4 -4,-6 -7,-8 0,-1 0,-1 0,-1 0,0 0,0 0,0l1 0c1,0 2,0 3,1 2,0 3,1 4,1 2,1 3,1 4,2 2,0 3,1 3,2 1,1 2,1 2,1z"/>
  <path d="M1741 206c0,3 0,6 1,9 1,3 2,5 4,7l0 1 0 0c-2,0 -4,0 -6,0 -2,0 -4,0 -6,0 -5,0 -10,0 -16,1 -5,1 -10,2 -16,2 -4,0 -8,-1 -12,-2 -4,-1 -8,-3 -11,-5 -3,-3 -5,-5 -7,-9 -2,-4 -3,-8 -3,-13 0,-3 1,-6 3,-9 1,-3 3,-6 6,-8 0,-1 0,-1 0,-1 0,-1 0,-1 -1,-2 0,-1 -1,-2 -1,-3 0,-2 -1,-3 -1,-4 -1,-2 -1,-3 -1,-5 0,-4 1,-8 3,-12 2,-3 4,-6 7,-9 3,-2 7,-4 11,-5 4,-1 8,-2 12,-2 4,0 8,1 12,1 4,1 7,2 10,4 2,2 5,4 7,7 2,3 3,6 4,11 0,3 1,7 0,11 0,4 0,8 0,12 1,3 1,7 1,11 0,4 0,8 0,12zm-35 -64c-3,0 -5,1 -8,2 -2,0 -5,1 -7,3 -2,1 -4,3 -5,5 -1,2 -2,5 -2,8 0,0 0,1 1,3 0,1 0,2 1,3 0,1 1,2 2,3 0,1 1,1 2,1l0 0c5,-1 9,-3 13,-5 5,-2 9,-3 14,-5 1,0 2,0 3,0 2,-1 3,-1 4,-2l0 0c-1,-5 -2,-9 -6,-12 -3,-2 -7,-4 -12,-4zm1 78c5,0 9,-1 11,-3 3,-2 5,-5 6,-8 0,-3 1,-6 1,-10 0,-4 0,-8 0,-11l0 -24 -1 0c-4,0 -8,1 -13,3 -4,2 -8,4 -12,7 -3,2 -6,6 -8,10 -2,3 -4,8 -4,13 0,2 1,5 2,8 1,3 2,5 4,7 1,3 3,4 6,6 2,1 5,2 8,2z"/>
  <path d="M1840 144c-5,0 -9,1 -13,4 -4,2 -6,5 -9,9 -2,3 -3,7 -4,12 -1,4 -2,9 -2,13 0,3 0,7 1,10 1,3 2,6 3,10 2,3 3,6 5,8 2,3 5,5 7,7 2,1 4,2 6,2 3,1 5,1 7,1 6,0 10,-2 14,-5 5,-4 8,-8 10,-13 1,-1 1,-3 2,-5 0,-1 1,-3 1,-4l0 0 0 0 0 6c0,1 1,2 1,3 0,1 0,2 0,3 0,3 0,6 1,10 0,3 0,6 0,9l0 0c-3,0 -5,-1 -8,-1 -4,0 -8,1 -12,1 -3,1 -7,2 -11,2 -15,0 -26,-4 -34,-12 -7,-9 -10,-20 -10,-34 0,-6 1,-12 3,-17 2,-6 4,-10 8,-14 4,-3 8,-6 13,-8 6,-2 11,-3 18,-3 4,0 8,0 12,1 4,1 9,2 13,2 2,0 5,-1 7,-2l0 0 1 1 0 0c0,1 0,2 -1,4 0,2 0,3 0,5 -1,3 -1,6 -1,10 0,3 0,6 0,10 0,0 0,1 0,1 0,1 0,1 0,2l0 0 -1 -1c0,-3 -2,-7 -3,-10 -1,-3 -3,-6 -5,-9 -2,-2 -5,-4 -8,-6 -3,-1 -7,-2 -11,-2z"/>
  <path d="M1945 206c0,3 1,6 1,9 1,3 2,5 4,7l0 1 0 0c-2,0 -3,0 -6,0 -2,0 -4,0 -5,0 -6,0 -11,0 -16,1 -5,1 -11,2 -16,2 -5,0 -9,-1 -13,-2 -4,-1 -7,-3 -10,-5 -3,-3 -6,-5 -7,-9 -2,-4 -3,-8 -3,-13 0,-3 1,-6 2,-9 2,-3 4,-6 6,-8 0,-1 0,-1 0,-1 0,-1 0,-1 0,-2 -1,-1 -1,-2 -2,-3 0,-2 0,-3 -1,-4 0,-2 0,-3 0,-5 0,-4 1,-8 2,-12 2,-3 5,-6 8,-9 3,-2 6,-4 10,-5 4,-1 8,-2 13,-2 4,0 8,1 12,1 3,1 6,2 9,4 3,2 5,4 7,7 2,3 3,6 4,11 1,3 1,7 1,11 0,4 0,8 0,12 0,3 0,7 0,11 0,4 0,8 0,12zm-34 -64c-3,0 -6,1 -8,2 -3,0 -5,1 -7,3 -2,1 -4,3 -5,5 -2,2 -2,5 -2,8 0,0 0,1 0,3 0,1 1,2 1,3 1,1 1,2 2,3 1,1 2,1 3,1l0 0c4,-1 9,-3 13,-5 4,-2 8,-3 13,-5 1,0 3,0 4,0 1,-1 2,-1 3,-2l0 0c0,-5 -2,-9 -5,-12 -3,-2 -8,-4 -12,-4zm0 78c5,0 9,-1 12,-3 2,-2 4,-5 5,-8 1,-3 1,-6 1,-10 0,-4 0,-8 0,-11l0 -24 0 0c-4,0 -9,1 -13,3 -5,2 -9,4 -12,7 -4,2 -6,6 -9,10 -2,3 -3,8 -3,13 0,2 0,5 1,8 1,3 2,5 4,7 2,3 4,4 6,6 3,1 5,2 8,2z"/>
  <path d="M1955 160c0,-3 1,-7 3,-9 2,-3 4,-6 7,-7 3,-2 6,-3 10,-4 3,-1 7,-1 10,-1 4,0 9,0 13,1 5,1 9,2 14,2 1,0 3,0 4,-1 1,0 2,-1 3,-1l0 0c0,0 1,0 1,0 0,5 -1,11 -1,16 0,5 -1,10 -1,16 0,0 0,1 0,1 0,1 0,1 0,1 0,0 0,0 -1,-1 0,-2 -1,-3 -2,-5 0,-1 -1,-3 -2,-4 0,-2 -1,-3 -2,-4 -3,-4 -7,-8 -11,-10 -4,-3 -9,-4 -15,-4 -1,0 -3,0 -5,1 -1,0 -3,1 -4,2 -2,0 -3,1 -4,3 -1,1 -2,3 -2,4 0,3 2,5 4,7 3,1 6,3 9,4 4,2 7,3 10,4 4,1 7,2 8,2 3,1 6,3 9,5 2,2 5,4 7,6 2,3 3,6 4,9 1,3 2,6 2,9 0,4 -1,8 -2,11 -2,3 -4,6 -7,8 -3,2 -6,3 -10,4 -3,1 -7,1 -11,1 -3,0 -5,0 -8,0 -2,-1 -5,-1 -8,-2 -2,0 -5,-1 -7,-1 -3,-1 -5,-1 -8,-1 -2,0 -3,0 -4,1 -1,0 -2,1 -3,1l-1 0 0 0c0,-1 0,-2 1,-3 0,0 0,-1 0,-2 1,-6 2,-12 2,-18 0,-5 0,-11 0,-17 0,0 0,0 0,0l1 0c0,2 0,4 1,7 1,2 1,4 2,6 2,3 4,7 6,9 2,3 4,6 7,8 2,1 5,3 8,4 3,1 7,1 12,1 1,0 3,0 5,-1 2,0 4,-1 5,-2 2,-1 3,-2 4,-4 1,-1 1,-3 1,-5 0,-4 -1,-7 -4,-10 -2,-2 -6,-4 -10,-6 -4,-2 -8,-4 -13,-5 -4,-2 -9,-4 -13,-6 -4,-2 -7,-5 -10,-8 -2,-3 -4,-7 -4,-12z"/>
  <path d="M2100 206c0,3 0,6 1,9 1,3 2,5 4,7l0 1 0 0c-2,0 -4,0 -6,0 -2,0 -4,0 -6,0 -5,0 -10,0 -16,1 -5,1 -10,2 -16,2 -4,0 -8,-1 -12,-2 -4,-1 -8,-3 -11,-5 -3,-3 -5,-5 -7,-9 -2,-4 -3,-8 -3,-13 0,-3 1,-6 3,-9 1,-3 3,-6 6,-8 0,-1 0,-1 0,-1 0,-1 0,-1 -1,-2 0,-1 -1,-2 -1,-3 0,-2 -1,-3 -1,-4 -1,-2 -1,-3 -1,-5 0,-4 1,-8 3,-12 2,-3 4,-6 7,-9 3,-2 7,-4 11,-5 4,-1 8,-2 12,-2 5,0 8,1 12,1 4,1 7,2 10,4 2,2 5,4 7,7 2,3 3,6 4,11 1,3 1,7 1,11 -1,4 -1,8 0,12 0,3 0,7 0,11 0,4 0,8 0,12zm-35 -64c-2,0 -5,1 -8,2 -2,0 -5,1 -7,3 -2,1 -3,3 -5,5 -1,2 -2,5 -2,8 0,0 0,1 1,3 0,1 0,2 1,3 0,1 1,2 2,3 0,1 1,1 2,1l1 0c4,-1 8,-3 12,-5 5,-2 9,-3 14,-5 1,0 2,0 3,0 2,-1 3,-1 4,-2l0 0c-1,-5 -2,-9 -6,-12 -3,-2 -7,-4 -12,-4zm1 78c5,0 9,-1 11,-3 3,-2 5,-5 6,-8 1,-3 1,-6 1,-10 0,-4 0,-8 0,-11l0 -24 -1 0c-4,0 -8,1 -13,3 -4,2 -8,4 -12,7 -3,2 -6,6 -8,10 -2,3 -4,8 -4,13 0,2 1,5 2,8 1,3 2,5 4,7 1,3 3,4 6,6 2,1 5,2 8,2z"/>
 </g>
 </g>
</svg>
