<?xml version="1.0" encoding="UTF-8"?>
<!DOCTYPE svg PUBLIC "-//W3C//DTD SVG 1.1//EN" "http://www.w3.org/Graphics/SVG/1.1/DTD/svg11.dtd">
<svg xmlns="http://www.w3.org/2000/svg" xml:space="preserve" width="709px" height="118px" version="1.1" style="shape-rendering:geometricPrecision; text-rendering:geometricPrecision; image-rendering:optimizeQuality; fill-rule:evenodd; clip-rule:evenodd"
viewBox="0 0 2193 365"
 xmlns:xlink="http://www.w3.org/1999/xlink">
 <defs>
  <style type="text/css">
   <![CDATA[
    .c1 {fill:none}
    .c2 {fill:#a00;fill-rule:nonzero}
   ]]>
  </style>
 </defs>
 <g>
  <rect class="c1" width="2193" height="365"/>
  <g class="c2">
  <path d="M234 113l-2 -1c-1,0 -3,1 -4,1 -1,1 -2,2 -3,3 -3,4 -6,8 -8,13 -2,5 -3,11 -4,16 -1,6 -2,12 -2,17 -1,6 -1,11 -1,16 0,7 1,14 2,20 0,6 1,12 3,19 1,6 3,12 5,18 2,5 4,11 6,17l0 1c0,0 0,0 -1,0 0,0 -1,0 -1,0 -1,0 -1,-1 -3,-3 -1,-3 -2,-6 -3,-9 -1,-3 -2,-6 -3,-9 -1,-3 -2,-5 -2,-6l-1 0 0 0c-3,4 -6,7 -11,10 -4,3 -8,5 -13,7 -5,2 -10,3 -15,4 -6,1 -11,1 -15,1 -9,0 -18,-1 -27,-5 -9,-3 -16,-8 -23,-14 -6,-5 -12,-13 -16,-21 -4,-8 -6,-17 -6,-26 0,-10 2,-19 6,-28 4,-8 9,-15 15,-22 7,-6 14,-11 23,-14 9,-4 18,-6 27,-6 11,0 20,2 29,6 9,4 17,10 25,17l0 0 0 0c1,-3 2,-6 3,-10 2,-3 4,-6 6,-9 2,-2 4,-5 7,-6 3,-2 6,-3 10,-3 2,0 5,1 7,2 2,2 3,4 3,6 0,2 -1,4 -2,5 -2,2 -3,2 -5,2 -2,0 -4,0 -5,-2 -1,-1 -1,-3 -1,-5 0,-1 0,-1 0,-2l0 0zm-27 72c0,-6 0,-13 0,-19 -1,-7 -2,-13 -4,-19 -2,-6 -5,-11 -8,-16 -4,-5 -10,-9 -17,-11 -3,-1 -5,-2 -8,-3 -3,0 -6,-1 -9,-1 -8,0 -16,2 -22,6 -6,4 -11,9 -15,15 -3,7 -6,13 -8,21 -1,8 -2,15 -2,23 0,7 1,14 3,22 2,7 5,14 9,20 4,6 9,11 15,15 6,4 13,6 21,6 5,0 9,0 12,-1 4,-1 7,-3 11,-6 5,-3 9,-7 12,-10 3,-4 5,-8 7,-12 1,-5 2,-9 3,-14 0,-5 0,-10 0,-16z"/>
  <path d="M393 240c0,0 1,0 1,0 0,0 0,0 -1,-1 -3,-2 -5,-4 -7,-6 -2,-3 -4,-6 -6,-9 -1,-3 -2,-7 -3,-10 -1,-4 -1,-7 -1,-10 -1,-3 -1,-5 -1,-8 0,-3 0,-6 -1,-8 0,-1 0,-2 -1,-2l-76 1c0,0 0,0 -1,0 0,0 0,1 0,1 0,3 0,5 1,8 0,2 1,5 1,8 0,1 0,3 0,5 0,2 0,4 0,6 0,5 -1,10 -2,16 -1,6 -3,11 -5,16 -2,4 -6,8 -10,12 -4,3 -9,4 -15,4 -2,0 -4,0 -7,0 -2,-1 -4,-2 -6,-3 -2,-1 -3,-3 -5,-4 -1,-2 -1,-4 -1,-7 0,-3 0,-5 2,-7 2,-2 4,-3 7,-3 2,0 4,0 6,2 1,2 2,4 2,6 0,1 -1,2 -1,3 0,1 -1,2 -2,3 0,1 -1,1 -2,2 -1,0 -2,0 -3,0l0 1c1,2 3,3 5,4 2,0 4,1 6,1 4,0 7,-1 10,-3 3,-2 5,-5 7,-8 2,-3 3,-6 4,-10 1,-3 1,-7 1,-10l0 0c-4,-1 -6,-3 -9,-6 -2,-3 -4,-7 -5,-11 -2,-4 -3,-8 -4,-12 0,-4 -1,-8 -1,-11 0,-6 1,-13 3,-20 2,-8 4,-15 7,-21 4,-7 8,-13 12,-19 5,-5 10,-10 16,-14 0,0 0,0 0,0 -1,0 -3,0 -5,2 -2,1 -5,2 -7,3 -3,1 -6,3 -9,4 -3,1 -6,1 -9,1 -1,0 -2,0 -3,0 -1,0 -3,0 -4,-1 -1,0 -2,-1 -3,-1 -1,-1 -1,-2 -1,-3 0,-1 0,-1 0,-2 1,0 1,0 1,-1l0 -1c-1,1 -3,0 -4,-1 -2,0 -3,-2 -4,-3 -1,-1 -2,-3 -3,-5 -1,-1 -1,-3 -1,-4 0,-3 1,-5 2,-7 2,-1 4,-2 6,-2 2,0 4,0 6,1 1,2 2,3 2,5 0,2 0,3 -1,4 -1,1 -3,2 -4,2l-1 1c0,1 0,2 1,3 1,1 1,2 2,2 2,3 5,4 8,4 3,1 6,1 9,1 3,0 6,0 9,-1 3,0 6,-1 9,-2 3,-1 6,-1 9,-2 3,-1 6,-2 9,-3 3,0 7,-1 10,-1 3,0 6,0 10,0 9,0 17,2 24,6 7,3 14,8 19,15 5,6 9,13 12,21 3,8 4,16 4,25 0,4 0,8 -1,12 0,4 -1,8 -2,12 0,2 -1,5 -2,7 -2,2 -3,5 -4,7 -1,2 -2,4 -3,7 -1,2 -1,3 -1,5 0,4 1,7 3,9 2,3 5,4 8,6 4,1 7,2 11,3 3,1 7,2 9,3l1 1c0,0 0,0 0,0 0,0 0,0 0,0 0,0 0,0 0,0 -10,-2 -19,-3 -28,-5 -9,-1 -18,-2 -28,-2 -7,0 -15,0 -23,1 -7,0 -15,1 -23,2 -2,0 -4,0 -6,1 -2,0 -4,0 -6,0 0,0 0,0 0,0 0,-1 0,-1 0,-1 1,-1 2,-1 2,-1 17,-3 33,-4 50,-4 3,0 6,0 9,0 2,0 5,0 8,0 3,0 6,0 9,1 3,0 6,0 9,0zm-18 -70c0,-6 -1,-12 -2,-19 -1,-7 -2,-13 -5,-19 -3,-6 -6,-11 -11,-15 -4,-4 -11,-6 -18,-6 -4,0 -8,0 -12,1 -4,0 -8,2 -11,4 -4,3 -7,6 -10,9 -3,3 -5,7 -7,11 -2,4 -3,8 -4,13 -1,4 -2,8 -2,13 0,0 0,2 0,3 0,2 0,4 0,5 1,2 1,4 1,5 1,2 1,2 2,2 13,0 26,0 38,0 13,0 26,-1 39,-1 1,0 1,0 1,0 0,-1 0,-1 0,-2 1,-1 1,-2 1,-2 0,-1 0,-2 0,-2z"/>
  <path d="M429 128c0,0 -1,0 -2,-1 0,0 -1,1 -1,2 0,2 1,3 2,4 1,2 3,3 5,3 2,1 3,1 5,2 2,0 4,0 6,0 3,0 7,-1 12,-2 4,-2 8,-3 12,-5 5,-2 9,-5 14,-7 5,-3 10,-5 15,-7 5,-2 10,-4 16,-5 5,-2 11,-2 17,-2 7,0 15,1 22,3 8,2 15,5 21,9 7,4 12,9 16,15 4,6 6,14 6,22 0,8 -2,15 -6,22 -3,6 -8,12 -14,17 -5,5 -12,9 -19,12 -7,2 -14,4 -22,4 -5,0 -9,-1 -14,-2 -5,0 -9,-2 -13,-4 -3,-3 -6,-6 -9,-9 -2,-4 -3,-9 -3,-15 0,-2 0,-4 1,-7 1,-2 2,-4 4,-6 1,-2 3,-3 5,-4 2,-1 4,-2 7,-2 2,0 4,1 6,3 2,1 2,3 2,6 0,2 0,4 -2,5 -2,1 -3,2 -5,2 -2,0 -4,-1 -5,-2 -1,-1 -1,-2 -1,-4 0,-1 0,-1 0,-2 0,-1 0,-2 -1,-2 -1,0 -2,1 -3,2 -1,1 -1,2 -2,3 -1,2 -1,3 -1,5 -1,1 -1,2 -1,3 0,4 1,7 3,10 1,3 3,6 6,8 2,2 5,4 8,5 4,1 7,2 11,2 7,0 13,-2 18,-5 5,-3 9,-6 12,-11 4,-5 6,-10 8,-16 1,-6 2,-12 2,-18 0,-6 -1,-13 -3,-18 -1,-6 -4,-11 -8,-15 -3,-4 -8,-7 -13,-9 -6,-2 -12,-3 -19,-3 -9,0 -17,2 -23,5 -6,4 -10,9 -13,15 -4,7 -6,14 -7,21 -1,8 -1,16 -1,23 0,8 0,16 0,24 1,8 2,16 3,24 1,3 1,5 3,7 1,2 3,3 6,3 6,2 11,2 17,2 7,0 12,1 18,1 10,0 20,0 31,1 10,1 20,3 30,5 0,1 1,1 1,1 0,1 1,1 1,1l-1 1c-1,0 -3,0 -6,0 -3,-1 -6,-1 -10,-2 -3,-1 -7,-1 -10,-2 -4,0 -6,-1 -8,-1 -7,0 -14,0 -21,-1 -7,0 -14,0 -21,0 -5,0 -10,0 -18,0 -7,0 -14,0 -21,1 -8,0 -15,1 -22,2 -6,1 -11,2 -15,4 -3,2 -5,4 -6,6l0 0 1 1c2,0 3,1 4,1 2,0 2,2 2,5 0,1 -1,3 -2,4 -2,1 -3,2 -5,2 -2,0 -4,-1 -5,-2 -1,-2 -2,-4 -2,-6 0,-3 1,-6 2,-7 2,-2 4,-4 6,-5 3,-2 5,-3 8,-4 2,-1 4,-2 6,-4 3,-2 6,-5 7,-9 2,-3 3,-7 3,-11 1,-4 1,-8 1,-13 0,-4 0,-8 0,-11 0,-3 0,-6 0,-12 0,-5 0,-10 -1,-15 0,-6 -1,-11 -2,-15 -1,-5 -2,-8 -4,-10 -1,-1 -3,-2 -4,-2 -2,-1 -3,-1 -5,-1 -2,0 -5,0 -7,-1 -3,0 -5,-1 -7,-2 -2,-1 -3,-3 -5,-4 -1,-2 -2,-5 -2,-7 0,-2 1,-5 2,-7 2,-2 4,-3 6,-3 2,0 4,0 5,1 2,1 2,3 2,5 0,1 0,3 -2,3 -1,1 -2,2 -4,2z"/>
  <path d="M666 114c10,0 19,2 27,5 9,3 16,8 23,13 6,6 11,13 14,21 4,9 6,18 6,27 0,8 -1,15 -4,22 -2,7 -6,13 -10,19 -5,6 -10,11 -17,15 -6,4 -13,7 -20,8 -4,1 -7,1 -11,2 -4,0 -8,0 -11,0 -10,0 -19,-1 -27,-5 -8,-3 -15,-7 -21,-13 -6,-6 -11,-13 -15,-21 -4,-8 -5,-16 -5,-26 0,-8 1,-15 3,-22 3,-8 6,-14 11,-20 4,-6 10,-11 16,-15 7,-4 14,-7 22,-8 3,-1 6,-2 10,-2 3,0 6,0 9,0zm-44 64c0,7 1,14 2,21 1,8 3,15 6,22 4,6 8,12 13,16 6,5 13,7 21,7 9,0 16,-2 22,-7 6,-4 10,-10 14,-16 3,-7 5,-15 6,-23 1,-8 2,-15 2,-22 0,-7 -1,-14 -2,-21 -2,-6 -4,-13 -8,-18 -3,-6 -8,-10 -13,-14 -6,-4 -13,-5 -21,-5 -8,0 -14,2 -20,5 -5,4 -9,9 -13,15 -3,6 -6,12 -7,19 -1,8 -2,14 -2,21z"/>
  <path d="M796 108c0,0 0,1 1,1 2,2 6,4 11,5 5,2 10,3 16,3 6,1 11,1 16,1 6,0 10,0 14,0 14,0 29,0 43,-1 15,-1 29,-3 44,-5l0 0 0 0c-1,1 -3,2 -6,2 -3,1 -6,2 -10,2 -4,1 -8,1 -13,2 -4,0 -9,1 -13,1 -4,0 -7,1 -10,1 -3,0 -6,0 -7,1 -4,0 -9,0 -13,0 -5,0 -9,0 -13,1 -2,1 -3,2 -5,4 -1,2 -2,4 -3,7 -1,3 -1,6 -2,9 0,4 -1,7 -1,10 -1,3 -1,6 -1,9 0,2 0,4 0,6 0,2 0,5 0,9 0,4 0,8 0,12 0,4 1,9 1,14 0,4 1,9 1,13 1,4 2,8 3,11 0,4 2,6 3,8 1,2 3,3 4,4 2,1 4,2 6,2 3,1 5,1 7,1 2,1 4,1 6,1 4,0 7,-1 11,-2 3,-1 6,-2 10,-3 7,-4 13,-8 17,-15 5,-6 8,-13 10,-21 3,-8 5,-16 6,-24 2,-8 3,-15 5,-22 2,-6 4,-12 6,-16 3,-4 7,-6 12,-6 2,0 4,0 6,2 1,1 2,3 2,5 0,3 -2,5 -5,5 -1,0 -2,0 -3,-2 0,-1 -1,-2 -1,-3 0,-1 0,-2 1,-2l-1 -2c-3,0 -5,1 -7,4 -2,2 -3,5 -4,9 -1,4 -2,8 -3,12 0,5 -1,9 -1,14 0,4 -1,8 -1,11 0,4 0,7 0,8 0,10 1,19 2,28 2,9 4,18 7,27 0,0 1,1 1,1 0,0 0,0 0,1 0,0 0,0 -1,0 -2,0 -4,0 -7,0 -3,0 -5,-1 -8,-2 -3,0 -6,-1 -9,-1 -3,-1 -5,-1 -8,-1 -10,-1 -20,-2 -30,-2 -11,-1 -21,-1 -31,-1 -5,0 -11,0 -17,1 -7,0 -13,0 -20,1 -6,0 -11,1 -15,3 -5,1 -7,3 -7,5 0,0 0,0 0,1l1 0c1,0 2,1 3,2 1,1 2,2 2,4 0,1 -1,3 -2,4 -1,1 -2,2 -4,2 -2,0 -3,-1 -4,-3 -1,-2 -2,-3 -2,-5 0,-3 1,-6 3,-8 2,-2 5,-3 8,-5 3,-1 6,-2 9,-2 3,-1 6,-2 9,-2 1,-1 2,-2 3,-5 2,-3 2,-7 3,-11 1,-4 1,-9 2,-14 0,-5 1,-10 1,-14 0,-5 0,-9 0,-12 0,-4 0,-7 0,-8 0,-4 0,-8 0,-13 0,-5 0,-10 -1,-15 -1,-5 -1,-10 -2,-15 -1,-5 -3,-9 -4,-12 0,-2 -2,-3 -3,-4 -2,-1 -4,-1 -6,-2 -2,-1 -4,-1 -6,-2 -2,-1 -4,-2 -6,-3 -2,-1 -3,-2 -5,-4 -1,-1 -1,-3 -1,-6 0,-2 0,-4 2,-6 1,-1 3,-2 5,-2 2,0 3,1 4,2 1,2 2,3 2,5 0,1 -1,3 -3,4 -1,1 -2,1 -4,1l0 1 0 1z"/>
  <path d="M1032 114c9,0 18,2 27,5 8,3 16,8 22,13 6,6 11,13 15,21 4,9 5,18 5,27 0,8 -1,15 -3,22 -3,7 -6,13 -11,19 -5,6 -10,11 -16,15 -6,4 -13,7 -20,8 -4,1 -8,1 -12,2 -3,0 -7,0 -11,0 -9,0 -18,-1 -26,-5 -8,-3 -16,-7 -22,-13 -6,-6 -11,-13 -14,-21 -4,-8 -6,-16 -6,-26 0,-8 1,-15 4,-22 2,-8 6,-14 10,-20 5,-6 10,-11 17,-15 6,-4 13,-7 21,-8 4,-1 7,-2 10,-2 3,0 7,0 10,0zm-45 64c0,7 1,14 2,21 1,8 4,15 7,22 3,6 7,12 13,16 5,5 12,7 20,7 10,0 17,-2 23,-7 5,-4 10,-10 13,-16 3,-7 6,-15 7,-23 1,-8 1,-15 1,-22 0,-7 0,-14 -2,-21 -1,-6 -4,-13 -7,-18 -4,-6 -8,-10 -14,-14 -5,-4 -12,-5 -20,-5 -8,0 -15,2 -20,5 -6,4 -10,9 -13,15 -4,6 -6,12 -7,19 -2,8 -3,14 -3,21z"/>
  <path d="M1223 256c0,0 0,0 0,-1 1,0 1,0 1,0l0 0c-2,-3 -4,-5 -8,-7 -3,-2 -7,-3 -11,-4 -4,-1 -8,-2 -13,-2 -4,0 -7,0 -10,0 -3,0 -7,0 -12,0 -4,1 -9,1 -14,2 -5,1 -10,3 -14,4 -4,2 -7,4 -8,7 0,0 0,1 1,1 0,0 1,1 1,1 1,0 2,1 2,1 1,1 1,2 1,4 0,1 -1,2 -2,4 -1,1 -2,2 -4,2 -2,0 -4,-1 -5,-3 -2,-1 -3,-3 -3,-5 0,-3 1,-5 3,-7 2,-2 3,-4 6,-5 2,-1 5,-2 7,-3 3,0 6,-1 8,-1l0 0 0 -1 0 0c-7,-1 -14,-4 -20,-8 -5,-4 -10,-9 -15,-15 -4,-5 -7,-12 -9,-18 -3,-7 -4,-14 -4,-21 0,-6 1,-13 3,-19 2,-6 4,-12 8,-17 3,-5 7,-10 12,-14 5,-4 10,-8 16,-10 2,-1 3,-1 5,-2 2,-1 3,-1 5,-1 5,-2 10,-3 15,-5 6,-2 11,-4 15,-7l1 0c6,3 12,5 17,6 5,2 10,3 15,4 4,2 9,4 14,6 4,2 9,6 14,11 13,13 19,28 19,47 0,8 -1,15 -3,21 -2,7 -6,13 -10,18 -4,6 -9,10 -15,14 -6,4 -12,7 -19,10l-1 1 0 0 1 0c2,1 4,1 6,2 2,1 4,2 6,3 1,1 3,2 4,4 1,2 2,4 2,6 0,2 -1,4 -2,6 -1,1 -3,2 -5,2 -2,0 -3,-1 -5,-2 -1,-1 -1,-2 -1,-4 0,-2 0,-3 1,-4 2,0 3,-1 4,-1zm-14 -15c3,0 6,-1 9,-3 2,-2 4,-5 6,-8 2,-3 4,-6 5,-10 2,-4 3,-8 4,-12 1,-4 1,-8 2,-11 0,-4 1,-7 1,-9l0 -6c0,-8 -1,-16 -2,-24 -1,-3 -2,-7 -3,-12 -2,-5 -4,-9 -6,-13 -2,-5 -5,-8 -8,-11 -3,-3 -7,-5 -11,-5 -2,0 -5,1 -6,4 -2,2 -4,6 -5,10 -1,3 -2,8 -3,13 -1,4 -2,9 -2,14 0,4 -1,9 -1,12 0,4 0,7 0,9 0,2 0,6 0,10 0,4 0,8 0,13 1,4 1,9 2,14 0,4 1,8 3,12 2,4 3,7 6,9 2,3 6,4 9,4zm-54 -123c-3,0 -6,1 -9,4 -3,2 -5,5 -8,9 -2,4 -4,8 -5,13 -2,5 -3,10 -4,15 -1,4 -2,9 -2,13 -1,4 -1,8 -1,10 0,3 0,6 1,10 0,4 1,9 2,13 1,4 2,9 3,13 2,5 4,8 6,12 2,3 5,6 8,8 3,2 6,3 10,3 3,0 6,-1 8,-3 2,-2 4,-5 5,-9 1,-3 2,-7 3,-12 1,-4 1,-8 1,-12 1,-5 1,-9 1,-12 0,-4 0,-7 0,-8 0,-2 0,-5 0,-9 0,-3 -1,-7 -1,-11 0,-4 -1,-8 -1,-12 0,-5 -1,-9 -2,-12 0,-4 -1,-8 -2,-11 -1,-3 -2,-5 -3,-7 -1,-1 -3,-2 -4,-4 -2,-1 -4,-1 -6,-1z"/>
  <path d="M1380 174c0,0 0,0 0,0 3,1 6,1 9,1 2,1 5,1 8,2 2,0 4,1 7,3 2,1 4,2 6,4 5,3 8,6 11,10 2,4 3,9 3,15 0,6 -1,11 -4,16 -3,5 -7,9 -11,13 -5,3 -10,5 -16,7 -6,2 -12,2 -17,2 -8,0 -16,-1 -23,-3 -8,-3 -16,-5 -23,-8 -8,-3 -15,-6 -22,-8 -7,-3 -14,-4 -21,-4 -2,0 -4,0 -6,1 -2,0 -5,0 -7,1 -2,1 -3,2 -5,3 -1,2 -2,4 -2,6 0,1 0,1 0,2 1,0 1,0 2,0 1,0 2,1 3,1 1,0 2,1 2,3 0,1 -1,3 -2,4 -1,1 -2,1 -3,1 -3,0 -5,-1 -7,-3 -1,-2 -2,-5 -2,-7 0,-3 1,-6 3,-7 2,-2 4,-4 6,-5 2,-1 5,-2 8,-2 2,-1 5,-1 7,-1 2,0 4,-1 6,-2 2,-2 3,-4 4,-7 1,-2 2,-5 3,-8 1,-3 2,-6 2,-9 1,-3 1,-6 1,-9 0,-2 1,-5 1,-6 0,-1 -1,-3 -1,-5 0,-3 0,-5 -1,-9 0,-3 -1,-6 -1,-9 -1,-3 -1,-6 -2,-9 -1,-2 -2,-4 -3,-6 -1,-2 -2,-2 -4,-2 -3,0 -6,-1 -9,-1 -3,0 -6,-1 -8,-2 -3,-1 -5,-2 -7,-4 -1,-2 -2,-5 -2,-9 0,-3 1,-5 2,-7 2,-3 4,-4 7,-4 2,0 3,1 5,2 2,1 2,2 2,4 0,1 0,2 -1,3 -1,1 -2,1 -3,1 -2,0 -3,0 -4,-2l-1 0c-1,0 -2,0 -2,2 -1,1 -1,2 -1,2 0,2 1,4 2,6 1,1 2,2 4,3 2,1 4,2 6,2 2,0 4,1 5,1 7,0 13,-2 20,-4 6,-2 13,-5 20,-8 6,-3 14,-5 21,-8 8,-2 16,-3 25,-3 5,0 10,0 15,1 6,2 11,4 15,6 5,3 9,6 12,10 3,4 5,9 5,14 0,5 -1,9 -3,13 -3,3 -6,6 -9,8 -4,3 -8,4 -12,5 -4,2 -8,2 -13,3l0 0zm-37 20c0,-1 0,-2 1,-2 0,-1 0,-2 0,-3 2,-4 4,-7 7,-10 3,-2 6,-4 10,-5 3,-1 7,-3 11,-4 4,-1 8,-2 11,-4 3,-2 6,-5 8,-8 2,-3 4,-8 4,-14 0,-4 -1,-8 -3,-11 -2,-4 -4,-7 -7,-9 -3,-3 -7,-4 -11,-6 -3,-1 -7,-2 -11,-2 -9,0 -16,2 -22,6 -5,5 -10,10 -13,16 -3,7 -5,14 -7,21 -1,8 -1,15 -1,22 0,7 0,14 2,21 2,7 4,14 8,20 4,6 8,11 14,15 6,4 12,6 20,6 5,0 10,-1 14,-3 4,-2 8,-4 11,-8 3,-3 5,-6 7,-11 2,-4 2,-8 2,-13 0,-4 0,-8 -2,-12 -1,-4 -3,-7 -6,-10 -3,-3 -6,-5 -9,-7 -4,-2 -8,-3 -12,-3 -2,0 -5,0 -8,1 -2,1 -5,2 -7,4 -2,1 -4,3 -6,5 -1,2 -2,5 -2,7 0,2 0,4 1,6 1,1 3,2 5,2 1,0 2,0 2,-1 0,0 1,-1 1,-2 1,0 1,-1 2,-2 0,0 1,0 2,0 2,0 3,0 4,2 1,1 2,2 2,4 0,3 -1,5 -3,6 -2,1 -4,2 -6,2 -2,0 -4,-1 -6,-2 -1,-1 -2,-2 -4,-3 -1,-2 -1,-3 -2,-5 0,-2 -1,-4 -1,-6z"/>
  <path d="M1570 240c1,0 1,0 2,0 0,0 -1,0 -1,-1 -3,-2 -6,-4 -8,-6 -2,-3 -3,-6 -5,-9 -1,-3 -2,-7 -3,-10 -1,-4 -1,-7 -2,-10 0,-3 0,-5 0,-8 0,-3 0,-6 -1,-8 0,-1 -1,-2 -1,-2l-76 1c0,0 0,0 -1,0 0,0 0,1 0,1 0,3 0,5 0,8 1,2 1,5 1,8 0,1 0,3 0,5 1,2 1,4 1,6 0,5 -1,10 -2,16 -1,6 -3,11 -5,16 -3,4 -6,8 -10,12 -4,3 -9,4 -15,4 -2,0 -4,0 -7,0 -2,-1 -4,-2 -6,-3 -2,-1 -4,-3 -5,-4 -1,-2 -2,-4 -2,-7 0,-3 1,-5 3,-7 1,-2 4,-3 7,-3 2,0 4,0 5,2 2,2 2,4 2,6 0,1 0,2 0,3 -1,1 -1,2 -2,3 0,1 -1,1 -2,2 -1,0 -2,0 -3,0l0 1c1,2 3,3 5,4 2,0 4,1 6,1 4,0 7,-1 10,-3 3,-2 5,-5 7,-8 1,-3 3,-6 4,-10 0,-3 1,-7 1,-10l-1 0c-3,-1 -6,-3 -8,-6 -2,-3 -4,-7 -6,-11 -1,-4 -2,-8 -3,-12 -1,-4 -1,-8 -1,-11 0,-6 1,-13 3,-20 1,-8 4,-15 7,-21 3,-7 7,-13 12,-19 5,-5 10,-10 16,-14 0,0 0,0 0,0 -1,0 -3,0 -5,2 -2,1 -5,2 -8,3 -2,1 -5,3 -8,4 -3,1 -6,1 -9,1 -1,0 -2,0 -3,0 -2,0 -3,0 -4,-1 -1,0 -2,-1 -3,-1 -1,-1 -1,-2 -1,-3 0,-1 0,-1 0,-2 0,0 1,0 1,-1l0 -1c-2,1 -3,0 -5,-1 -1,0 -2,-2 -3,-3 -2,-1 -2,-3 -3,-5 -1,-1 -1,-3 -1,-4 0,-3 1,-5 2,-7 1,-1 4,-2 6,-2 2,0 4,0 5,1 2,2 3,3 3,5 0,2 -1,3 -2,4 -1,1 -2,2 -3,2l-1 1c-1,1 0,2 1,3 0,1 1,2 2,2 2,3 5,4 8,4 2,1 5,1 8,1 3,0 7,0 10,-1 3,0 6,-1 9,-2 3,-1 6,-1 9,-2 3,-1 6,-2 9,-3 3,0 6,-1 10,-1 3,0 6,0 9,0 9,0 17,2 25,6 7,3 13,8 19,15 5,6 9,13 12,21 3,8 4,16 4,25 0,4 0,8 -1,12 0,4 -1,8 -2,12 -1,2 -1,5 -3,7 -1,2 -2,5 -3,7 -1,2 -2,4 -3,7 -1,2 -2,3 -2,5 0,4 2,7 4,9 2,3 5,4 8,6 3,1 7,2 11,3 3,1 6,2 9,3l1 1c0,0 0,0 0,0 0,0 0,0 0,0 0,0 0,0 -1,0 -9,-2 -18,-3 -27,-5 -9,-1 -19,-2 -28,-2 -8,0 -15,0 -23,1 -8,0 -15,1 -23,2 -2,0 -4,0 -6,1 -2,0 -4,0 -6,0 0,0 -1,0 -1,0 0,-1 1,-1 1,-1 1,-1 1,-1 2,-1 16,-3 33,-4 50,-4 3,0 6,0 8,0 3,0 6,0 9,0 3,0 6,0 8,1 3,0 6,0 9,0zm-18 -70c0,-6 0,-12 -1,-19 -1,-7 -3,-13 -5,-19 -3,-6 -6,-11 -11,-15 -5,-4 -11,-6 -18,-6 -4,0 -8,0 -12,1 -4,0 -8,2 -11,4 -4,3 -7,6 -10,9 -3,3 -5,7 -7,11 -2,4 -4,8 -5,13 -1,4 -1,8 -1,13 0,0 0,2 0,3 0,2 0,4 0,5 0,2 1,4 1,5 0,2 1,2 2,2 12,0 25,0 38,0 13,0 26,-1 39,-1 0,0 1,0 1,0 0,-1 0,-1 0,-2 0,-1 0,-2 0,-2 0,-1 0,-2 0,-2z"/>
  <path d="M1786 253c2,0 4,0 6,1 2,0 4,0 6,1 1,1 3,2 4,4 1,2 1,4 1,6 0,2 0,3 -1,4 -1,2 -3,2 -5,2 -1,0 -2,0 -3,-1 -1,0 -2,-1 -2,-3 0,-3 2,-5 5,-5l0 -1 0 -1c-1,-1 -2,-2 -4,-3 -2,0 -4,-1 -6,-1 -2,0 -5,1 -8,2 -2,0 -5,1 -7,2 -3,1 -6,2 -9,3 -2,1 -5,1 -8,1 -4,0 -9,-1 -13,-3 -4,-2 -7,-5 -9,-9 -3,-4 -4,-8 -5,-12 -1,-4 -1,-8 -2,-13 0,-4 0,-8 0,-12 0,-5 -1,-9 -2,-13 -1,-4 -2,-8 -4,-11 -2,-4 -5,-8 -9,-11 -1,-1 -4,-3 -6,-3 -3,-1 -5,-2 -8,-2 -2,0 -4,1 -6,1 -2,1 -4,2 -6,3 -1,1 -3,3 -4,5 -1,1 -2,3 -2,6 0,1 1,2 1,3 0,2 1,3 2,3l0 1 1 -1c0,-1 1,-2 2,-3 0,-1 1,-1 2,-1 2,0 3,1 4,2 1,1 2,2 2,4 0,2 -1,3 -2,5 -2,1 -4,1 -5,1 -4,0 -6,-1 -8,-4 -1,-2 -2,-5 -2,-8 0,-5 1,-8 3,-11 3,-3 6,-5 9,-7 4,-2 7,-4 12,-5 4,-2 8,-4 11,-6 4,-2 7,-5 9,-8 2,-3 3,-8 3,-13 0,-4 0,-7 -2,-10 -1,-3 -3,-6 -5,-8 -2,-3 -5,-4 -8,-5 -3,-2 -7,-2 -10,-2 -1,0 -1,0 -2,0 0,0 0,0 -1,0 -6,1 -12,2 -16,5 -5,2 -9,5 -12,9 -3,4 -5,8 -6,13 -2,5 -3,10 -4,15 -1,5 -2,11 -2,16 0,6 0,11 0,16 0,10 0,20 1,30 1,4 2,8 4,12 1,3 5,5 10,6 4,1 7,2 11,3 4,0 7,0 11,1 4,0 7,0 11,1 4,1 8,2 13,3l0 1 0 0 0 0 0 0c-8,-1 -16,-2 -24,-3 -8,-1 -16,-1 -25,-1 -2,0 -5,0 -9,0 -4,0 -8,0 -12,0 -5,1 -9,1 -14,2 -4,0 -9,1 -13,2 -4,1 -7,2 -10,4 -2,1 -4,3 -4,5l1 0c1,1 3,1 4,2 1,1 2,2 2,4 0,2 -1,3 -2,5 -1,1 -3,1 -5,1 -2,0 -4,-1 -5,-2 -1,-2 -2,-4 -2,-6 0,-4 1,-7 4,-9 2,-2 5,-4 8,-6 3,-1 7,-2 10,-4 4,-1 6,-3 8,-5 2,-3 3,-6 4,-9 1,-3 2,-7 2,-10 1,-4 1,-7 1,-11 0,-3 0,-6 0,-9 0,-3 0,-7 0,-11 0,-4 0,-8 0,-12 0,-4 -1,-8 -1,-12 0,-3 -1,-7 -1,-10 -1,-2 -2,-3 -2,-5 -1,-1 -3,-3 -4,-4 -2,-1 -4,-2 -7,-3 -3,0 -6,-1 -9,-3 -3,-1 -6,-3 -8,-5 -2,-2 -3,-5 -3,-9 0,-3 1,-5 2,-8 2,-2 4,-3 7,-3 2,0 3,1 5,2 2,1 3,3 3,5 0,1 -1,3 -2,4 -1,1 -2,1 -4,1 -1,0 -2,0 -3,-1l0 0 -1 1 0 1c0,2 0,4 1,5 1,2 3,3 4,4 2,1 3,2 5,2 2,1 4,1 6,1 5,0 11,-2 16,-4 6,-3 12,-6 19,-9 6,-3 14,-6 21,-9 8,-3 16,-4 25,-4 5,0 10,1 15,2 5,1 10,3 15,5 4,2 8,6 10,10 3,4 5,9 5,14 0,2 -1,4 -1,7 -2,4 -4,7 -6,10 -2,3 -5,5 -8,7 -3,1 -6,2 -9,3 -3,1 -6,1 -8,2 -3,0 -5,0 -7,0 -1,0 -3,1 -3,2 0,0 1,0 2,0 2,0 3,0 3,0 6,1 11,3 15,6 5,3 9,6 13,10 3,4 6,9 8,14 2,5 3,11 3,16 0,2 0,5 -1,7 0,3 -1,5 -2,7 -2,2 -3,3 -5,4 -2,2 -4,2 -7,2 -1,1 -1,1 -1,2 0,0 0,1 0,2 0,4 1,7 4,10 3,2 6,4 11,4 2,0 5,-1 7,-2 2,-2 4,-3 6,-5 3,-1 5,-3 7,-4 2,-1 5,-2 7,-2 2,0 4,1 6,2 1,1 2,2 2,4 0,0 0,1 0,1 0,0 0,1 0,1l1 0z"/>
  <path d="M1811 119c-1,1 -1,1 -1,2 0,0 0,1 0,1 0,2 0,4 1,6 1,1 3,3 4,3 2,1 4,2 6,3 2,0 4,0 6,0 5,0 11,-1 17,-3 5,-2 11,-4 17,-7 6,-2 12,-4 18,-6 6,-2 13,-3 20,-3 9,0 18,1 26,5 8,3 15,8 21,14 6,6 11,13 14,21 4,8 5,17 5,26 0,9 -1,17 -5,25 -3,8 -8,15 -14,21 -6,6 -13,11 -21,15 -8,3 -16,5 -25,5 -7,0 -13,-1 -20,-3 -6,-2 -12,-4 -18,-6 -7,-3 -13,-5 -19,-7 -6,-2 -12,-3 -18,-3 -1,0 -3,0 -5,0 -2,1 -4,1 -5,2 -2,0 -3,1 -4,2 -1,1 -2,3 -2,5 0,1 0,2 1,3 1,0 2,0 2,0 1,-1 2,-1 3,-1 1,0 2,1 3,2 1,1 1,3 1,4 0,2 0,3 -2,4 -1,1 -3,2 -4,2 -3,0 -5,-1 -7,-4 -2,-2 -3,-5 -3,-7 0,-4 1,-7 3,-9 2,-2 5,-4 7,-5 3,-1 6,-1 9,-2 3,-1 6,-2 8,-3 2,-2 3,-4 5,-8 1,-3 2,-6 2,-10 1,-3 1,-7 1,-11 0,-3 0,-6 0,-9 0,-2 0,-5 0,-9 0,-4 -1,-8 -1,-12 -1,-5 -1,-8 -2,-12 -1,-4 -2,-6 -3,-8 -2,-2 -4,-3 -7,-4 -3,-1 -6,-2 -9,-3 -3,-1 -6,-2 -8,-4 -2,-2 -3,-5 -3,-9 0,-1 0,-2 0,-4 1,-1 2,-3 3,-4 1,-1 2,-2 3,-3 1,-1 3,-1 4,-1 2,0 4,1 5,2 2,1 3,2 3,4 0,4 -2,6 -6,6 -2,0 -4,-1 -6,-2l0 -1zm89 125c8,0 14,-2 19,-5 5,-4 9,-9 12,-15 3,-5 5,-12 6,-19 1,-7 2,-13 2,-19 0,-7 -1,-14 -2,-22 -1,-8 -3,-15 -6,-22 -3,-7 -7,-12 -12,-17 -5,-5 -12,-7 -21,-7 -4,0 -9,1 -13,3 -4,1 -8,4 -12,7 -3,3 -6,6 -8,10 -2,4 -4,8 -5,13 -1,4 -2,7 -2,11 0,3 0,7 0,11 0,4 0,9 0,15 1,5 2,10 3,16 1,5 2,10 4,15 2,5 5,9 8,13 3,4 7,7 11,9 5,2 10,3 16,3z"/>
  <path d="M2037 114c10,0 19,2 27,5 9,3 16,8 22,13 7,6 12,13 15,21 4,9 6,18 6,27 0,8 -2,15 -4,22 -3,7 -6,13 -11,19 -4,6 -10,11 -16,15 -6,4 -13,7 -20,8 -4,1 -8,1 -11,2 -4,0 -8,0 -12,0 -9,0 -18,-1 -26,-5 -8,-3 -15,-7 -21,-13 -7,-6 -12,-13 -15,-21 -4,-8 -6,-16 -6,-26 0,-8 2,-15 4,-22 3,-8 6,-14 11,-20 4,-6 10,-11 16,-15 7,-4 14,-7 22,-8 3,-1 6,-2 9,-2 4,0 7,0 10,0zm-44 64c0,7 0,14 2,21 1,8 3,15 6,22 3,6 8,12 13,16 6,5 12,7 21,7 9,0 16,-2 22,-7 6,-4 10,-10 13,-16 4,-7 6,-15 7,-23 1,-8 2,-15 2,-22 0,-7 -1,-14 -3,-21 -1,-6 -4,-13 -7,-18 -4,-6 -8,-10 -14,-14 -5,-4 -12,-5 -20,-5 -8,0 -14,2 -20,5 -5,4 -10,9 -13,15 -3,6 -6,12 -7,19 -2,8 -2,14 -2,21z"/>
 </g>
 </g>
</svg>
