<?xml version="1.0" encoding="UTF-8"?>
<!DOCTYPE svg PUBLIC "-//W3C//DTD SVG 1.1//EN" "http://www.w3.org/Graphics/SVG/1.1/DTD/svg11.dtd">
<svg xmlns="http://www.w3.org/2000/svg" xml:space="preserve" width="709px" height="118px" version="1.1" style="shape-rendering:geometricPrecision; text-rendering:geometricPrecision; image-rendering:optimizeQuality; fill-rule:evenodd; clip-rule:evenodd"
viewBox="0 0 2193 365"
 xmlns:xlink="http://www.w3.org/1999/xlink">
 <defs>
  <style type="text/css">
   <![CDATA[
    .c1 {fill:#eee}
    .c2 {fill:#000}
   ]]>
  </style>
 </defs>
 <g>
  <rect class="c1" width="2193" height="365"/>
  <g class="c2">
  <path d="M85 194c0,-14 3,-26 7,-38 5,-12 11,-23 19,-32 9,-9 19,-16 30,-22 11,-5 24,-8 37,-8 12,0 22,2 31,5 8,4 16,8 21,12 6,5 11,9 14,12 3,4 5,6 5,6 1,-1 2,-3 3,-6 1,-3 2,-6 4,-9 1,-3 3,-5 5,-8 2,-2 5,-3 9,-3 2,0 4,1 5,3 1,2 1,4 1,6 0,2 0,3 -1,4 -2,0 -3,1 -5,1 -1,0 -3,0 -4,-1 -1,0 -2,0 -4,0 0,0 -1,0 -1,1 -1,1 -2,2 -2,3 -1,2 -1,3 -2,4 0,1 -1,2 -1,2 -2,5 -3,9 -4,14 -1,5 -2,10 -2,15 -1,5 -1,10 -1,15 0,4 0,9 0,14 -1,7 -1,14 -2,22 -1,7 -1,14 -1,22 0,3 0,6 0,10 1,3 1,7 1,10 1,4 2,7 3,11 1,3 2,6 4,9 0,1 0,1 1,2 0,1 0,3 1,4 0,1 0,2 1,2 0,1 0,2 1,2 2,0 3,-1 5,-3 2,-1 3,-2 5,-2 2,0 4,1 5,3 1,1 1,3 1,5 0,2 -1,3 -4,4 -2,1 -4,1 -6,1 -3,0 -6,-1 -9,-4 -2,-3 -4,-5 -5,-8 -1,-3 -2,-6 -3,-9 -1,-2 -1,-4 -2,-4 -1,0 -3,1 -4,3 -2,1 -3,2 -3,3 -9,9 -19,15 -29,19 -11,4 -22,6 -35,6 -13,0 -26,-3 -37,-8 -11,-5 -20,-13 -28,-22 -7,-9 -13,-19 -18,-31 -4,-12 -6,-24 -6,-37zm141 58c3,-10 6,-19 8,-29 3,-9 4,-19 4,-30 0,-3 0,-7 0,-12 0,-5 -1,-11 -1,-16 0,-5 -1,-11 -1,-16 -1,-5 -2,-9 -3,-12 -4,-11 -11,-21 -21,-27 -10,-6 -22,-10 -34,-10 -14,0 -24,3 -33,10 -8,6 -14,14 -19,23 -4,10 -7,20 -9,32 -1,11 -2,22 -2,33 0,9 1,19 4,29 2,10 6,20 11,28 5,9 12,16 20,21 8,6 17,9 28,9 5,0 10,-1 15,-3 5,-1 10,-4 14,-6 5,-3 9,-7 12,-11 3,-4 6,-8 7,-13z"/>
  <path d="M369 284c0,-1 0,-3 1,-4 1,-2 2,-3 4,-3 2,0 3,1 4,2 1,1 2,3 3,4 1,2 2,3 4,4 3,1 6,2 11,2 8,0 15,-2 20,-7 5,-5 8,-10 11,-17 3,-7 5,-14 6,-22 1,-8 1,-14 1,-21 0,-4 0,-8 1,-13 0,-5 0,-9 0,-13 0,-2 0,-4 0,-6 -1,-2 -2,-3 -4,-3 -1,0 -2,1 -3,1 -1,0 -2,0 -3,0 -3,1 -8,1 -13,2 -6,1 -13,2 -19,2 -7,1 -13,1 -19,2 -6,0 -11,0 -14,0 -2,0 -3,0 -5,0 -2,0 -4,0 -5,1 -2,0 -3,1 -4,1 -1,1 -2,3 -2,5 0,5 1,9 1,13 1,4 1,8 1,13 0,7 0,14 -2,21 -2,8 -5,14 -9,20 -4,6 -9,11 -15,15 -6,4 -13,6 -21,6 -6,0 -12,-2 -16,-5 -4,-4 -7,-9 -7,-15 0,-7 2,-13 5,-18 4,-5 8,-10 12,-15 4,-4 7,-8 11,-12 3,-3 5,-6 5,-8 0,-2 0,-3 -1,-3 -1,-1 -2,-1 -3,-2 -1,-1 -1,-1 -2,-2 -1,-1 -1,-2 -1,-3 0,-3 1,-4 3,-4 3,0 5,1 6,3 2,2 2,4 2,7 0,4 -1,7 -3,10 -1,4 -3,7 -6,10 2,0 4,1 6,2 2,1 3,3 3,6 0,4 -2,6 -5,8 -3,2 -6,4 -9,5 -2,1 -3,2 -5,3 -2,2 -4,4 -6,6 -2,2 -3,4 -5,6 -1,2 -2,4 -2,5 0,4 3,6 7,8 4,2 9,3 13,3 6,0 11,-2 15,-6 4,-4 6,-8 7,-14 0,-2 1,-4 2,-5 2,-1 4,-1 6,-2 2,-1 3,-2 5,-4 2,-1 3,-4 3,-7 0,-8 -1,-15 -3,-22 -2,-8 -4,-15 -6,-22 -3,-7 -5,-14 -7,-21 -1,-8 -2,-15 -2,-23 0,-6 0,-11 1,-16 1,-4 3,-8 5,-11 2,-4 5,-7 8,-10 3,-3 7,-7 11,-10 0,-1 1,-2 3,-3 1,-1 3,-2 4,-3 2,-1 3,-3 5,-4 1,-1 1,-1 1,-2 0,-1 0,-1 0,-1 -1,0 -1,0 -1,0 -1,1 -1,1 -1,1 -1,1 -4,1 -9,3 -4,1 -9,3 -14,4 -5,2 -9,3 -13,4 -5,2 -7,2 -8,2 -2,0 -4,0 -6,-1 -2,-2 -3,-3 -3,-6 0,-2 0,-3 1,-5 1,-1 2,-3 3,-4 -2,-2 -4,-5 -5,-7 -2,-2 -2,-4 -2,-7 0,-3 0,-5 2,-8 1,-2 3,-4 6,-4 2,0 3,1 4,2 2,0 2,2 2,3 0,2 0,4 -1,4 -1,1 -2,2 -4,2 -1,0 -2,1 -3,1 -1,0 -1,1 -1,2 0,3 0,5 1,6 2,1 3,2 5,3 2,1 4,1 6,1 2,1 4,1 6,1 13,0 27,-1 40,-3 14,-1 28,-2 41,-2 5,0 11,1 16,4 5,2 9,5 13,7 5,3 8,6 11,8 3,2 5,4 6,4 0,0 1,-1 3,-2 2,-1 4,-3 7,-4 2,-1 5,-3 8,-4 3,-1 6,-2 8,-2 1,0 1,1 2,1 1,0 2,1 4,1 1,0 2,1 3,1 0,1 1,1 1,1 0,1 0,1 -1,2 -4,1 -7,3 -11,5 -3,2 -6,4 -8,6 -3,3 -4,6 -6,10 -1,3 -2,7 -2,11 0,13 0,25 1,37 0,12 0,25 0,37 0,3 0,7 0,12 0,5 0,10 0,16 0,5 1,11 1,16 1,6 2,11 4,15 2,5 4,8 8,11 3,3 7,5 12,5 3,0 6,-1 7,-2 1,-1 2,-2 2,-3 1,-2 1,-3 1,-4 0,-1 1,-1 3,-1 2,0 3,1 4,3 1,2 2,4 2,5 0,2 -2,4 -6,5 -4,1 -9,1 -13,1 -5,1 -10,1 -15,1 -4,0 -7,0 -8,0 -12,0 -24,0 -36,0 -12,0 -24,1 -36,2 -2,0 -3,0 -5,0 -1,0 -3,0 -5,0 -3,0 -6,-1 -8,-3 -2,-2 -3,-4 -3,-8zm67 -114c0,-5 0,-11 0,-16 -1,-6 -2,-12 -2,-17 0,-6 -2,-11 -4,-16 -2,-4 -4,-9 -8,-12 -3,-4 -8,-6 -12,-8 -5,-2 -10,-3 -16,-3 -8,0 -15,1 -20,5 -5,3 -9,8 -13,13 -3,5 -5,11 -7,18 -1,7 -3,13 -4,20 0,2 -1,4 -1,6 0,2 -1,4 -1,6 0,2 2,3 4,3 3,1 6,2 9,3 4,1 8,2 13,2 4,1 8,1 12,2 4,0 8,1 10,1 3,0 5,1 6,1 0,0 2,0 5,1 3,0 7,1 11,1 3,1 7,1 10,2 4,0 6,1 6,1 1,-2 1,-5 2,-7 0,-1 0,-4 0,-6z"/>
  <path d="M504 287c0,-1 0,-3 1,-4 1,-2 2,-3 3,-3 1,0 2,0 3,1 1,0 2,1 2,2 1,0 2,1 3,1 1,1 3,1 4,1 4,0 8,-2 12,-5 3,-4 5,-8 6,-12 0,-3 1,-7 1,-11 0,-5 0,-10 0,-15 0,-5 0,-11 0,-15 0,-5 0,-9 0,-12 0,-13 0,-25 1,-37 0,-12 1,-25 1,-37 0,-7 -2,-11 -5,-14 -3,-3 -6,-5 -10,-7 -4,-1 -7,-2 -10,-3 -3,0 -5,-2 -5,-4 0,-1 0,-2 1,-3 0,0 1,-1 2,-1 1,0 1,1 2,1 0,1 1,1 1,1 2,2 5,3 8,4 4,0 7,0 9,0 7,0 13,-1 18,-3 6,-2 11,-4 17,-6 6,-2 12,-4 19,-6 7,-2 15,-3 25,-3 6,0 13,2 20,6 6,3 12,8 17,14 4,5 8,12 11,19 3,7 5,14 5,20 0,11 -2,20 -5,29 -4,8 -8,16 -14,22 -6,6 -14,11 -22,14 -9,4 -18,5 -29,5 -2,0 -4,0 -6,0 -2,0 -5,-1 -7,-2 -2,-1 -4,-2 -5,-4 -2,-1 -2,-4 -2,-6 0,-1 0,-2 1,-3 0,-2 1,-2 3,-2 1,0 2,1 3,2 1,1 2,3 3,4 1,2 2,3 5,5 2,1 6,2 11,2 7,0 13,-2 17,-6 5,-3 8,-7 11,-13 2,-5 4,-11 4,-17 1,-6 1,-12 1,-18 0,-5 0,-12 -1,-19 -1,-7 -2,-14 -5,-21 -2,-7 -6,-12 -11,-17 -4,-5 -10,-7 -18,-7 -2,0 -4,0 -6,1 -2,0 -4,0 -5,1 -2,1 -4,2 -5,2 -2,1 -4,2 -6,2 -3,1 -5,3 -7,4 -2,2 -3,4 -4,6 -1,2 -1,5 -1,7 -1,3 -1,5 -1,8 -1,13 -2,26 -2,39 0,12 0,25 0,38 0,6 -1,12 -1,18 0,7 0,13 0,19 0,2 0,5 0,9 0,4 1,8 2,13 0,4 2,8 3,11 2,4 4,5 7,5 1,0 3,0 5,-1 2,-1 3,-1 5,-2 2,-1 4,-2 5,-3 1,0 2,-1 2,-1 1,0 2,1 2,2 1,1 1,1 1,2 0,2 -1,4 -2,5 -2,1 -3,2 -5,2 -2,0 -4,0 -6,0 -2,0 -4,0 -6,0 -4,0 -8,0 -13,1 -5,0 -9,0 -13,0 -2,0 -6,0 -11,0 -5,0 -10,0 -15,0 -5,-1 -9,-1 -13,-2 -4,0 -6,-2 -6,-3z"/>
  <path d="M759 95c14,0 26,2 38,6 12,5 22,11 31,19 8,8 15,18 20,29 6,11 8,24 8,38 0,15 -2,29 -8,41 -5,13 -12,24 -21,34 -9,9 -20,16 -32,22 -13,5 -27,8 -42,8 -13,0 -25,-3 -36,-8 -10,-5 -20,-11 -27,-20 -8,-8 -14,-18 -18,-29 -4,-11 -6,-23 -6,-36 0,-13 2,-26 6,-39 5,-13 11,-24 19,-33 9,-10 19,-18 30,-24 11,-5 24,-8 38,-8zm-2 7c-14,0 -24,3 -32,9 -8,5 -15,13 -19,22 -4,9 -7,19 -9,30 -1,11 -2,21 -2,32 0,10 1,21 3,32 2,10 5,20 10,28 5,9 12,16 20,21 8,6 18,8 31,8 12,0 23,-2 31,-8 8,-6 15,-13 19,-22 5,-9 8,-19 10,-29 2,-11 3,-22 3,-32 0,-11 -1,-22 -4,-33 -2,-10 -5,-20 -10,-29 -5,-8 -12,-15 -20,-21 -9,-5 -19,-8 -31,-8z"/>
  <path d="M930 194c0,-14 2,-26 7,-38 4,-12 11,-23 19,-32 8,-9 18,-16 30,-22 11,-5 24,-8 37,-8 12,0 22,2 30,5 9,4 16,8 22,12 6,5 10,9 14,12 3,4 5,6 5,6 1,-1 2,-3 3,-6 1,-3 2,-6 4,-9 1,-3 3,-5 5,-8 2,-2 5,-3 8,-3 3,0 4,1 5,3 2,2 2,4 2,6 0,2 -1,3 -2,4 -1,0 -2,1 -4,1 -2,0 -3,0 -4,-1 -2,0 -3,0 -4,0 -1,0 -1,0 -2,1 0,1 -1,2 -2,3 0,2 -1,3 -1,4 -1,1 -1,2 -1,2 -2,5 -3,9 -4,14 -2,5 -2,10 -3,15 0,5 0,10 -1,15 0,4 0,9 0,14 0,7 0,14 -1,22 -1,7 -1,14 -1,22 0,3 0,6 0,10 0,3 1,7 1,10 0,4 1,7 2,11 1,3 3,6 4,9 1,1 1,1 1,2 1,1 1,3 1,4 1,1 1,2 1,2 1,1 1,2 2,2 1,0 3,-1 5,-3 1,-1 3,-2 5,-2 2,0 3,1 4,3 1,1 2,3 2,5 0,2 -1,3 -4,4 -2,1 -4,1 -6,1 -4,0 -7,-1 -9,-4 -2,-3 -4,-5 -5,-8 -1,-3 -2,-6 -3,-9 -1,-2 -2,-4 -3,-4 -1,0 -2,1 -3,3 -2,1 -3,2 -4,3 -9,9 -18,15 -29,19 -10,4 -22,6 -34,6 -14,0 -26,-3 -37,-8 -11,-5 -20,-13 -28,-22 -8,-9 -14,-19 -18,-31 -4,-12 -6,-24 -6,-37zm141 58c3,-10 6,-19 8,-29 3,-9 4,-19 4,-30 0,-3 0,-7 -1,-12 0,-5 0,-11 0,-16 -1,-5 -1,-11 -2,-16 0,-5 -1,-9 -2,-12 -4,-11 -11,-21 -22,-27 -10,-6 -21,-10 -34,-10 -13,0 -24,3 -32,10 -8,6 -14,14 -19,23 -5,10 -8,20 -9,32 -2,11 -2,22 -2,33 0,9 1,19 3,29 3,10 7,20 12,28 5,9 12,16 20,21 8,6 17,9 28,9 5,0 10,-1 15,-3 5,-1 10,-4 14,-6 4,-3 8,-7 12,-11 3,-4 5,-8 7,-13z"/>
  <path d="M1244 198c-2,0 -5,0 -8,1 -2,1 -5,2 -7,4 -3,1 -5,3 -6,5 -2,2 -3,4 -3,7 0,1 1,2 2,3 1,1 2,2 3,3 1,0 2,1 3,2 1,1 2,2 2,4 0,1 -1,2 -2,3 -1,0 -2,1 -4,1 -3,0 -6,-2 -7,-5 -1,-3 -2,-5 -2,-9 0,-3 1,-6 2,-9 1,-4 2,-7 4,-10 2,-2 5,-5 8,-7 2,-2 6,-2 9,-2 5,0 8,-2 11,-5 3,-4 5,-8 6,-12 2,-5 3,-10 3,-15 0,-5 1,-9 1,-12 0,-5 -1,-10 -1,-16 -1,-5 -2,-11 -3,-15 -2,-5 -5,-9 -9,-13 -3,-3 -8,-4 -15,-4 -6,0 -12,1 -19,3 -4,2 -8,5 -10,10 -3,5 -5,10 -6,16 -1,6 -2,12 -2,18 -1,6 -1,11 -2,15 -1,9 -1,18 -1,28 0,9 0,19 0,28 0,6 0,12 0,18 0,6 1,12 1,18 0,1 0,4 0,7 0,4 0,8 0,12 0,4 1,8 2,11 1,3 2,5 4,6 1,0 2,0 3,1 2,0 3,0 5,0 2,0 4,0 6,-1 2,-1 3,-3 5,-4 1,-1 2,-2 3,-3 1,-1 2,-2 3,-2 2,0 3,1 4,4 1,2 2,4 2,5 0,2 -1,4 -2,5 -1,0 -3,1 -5,1 -7,0 -15,-1 -22,-2 -7,-1 -15,-2 -22,-2 -6,0 -12,1 -19,2 -6,1 -12,1 -18,1 -1,0 -3,0 -5,0 -3,0 -5,0 -7,-1 -2,0 -4,-1 -6,-2 -1,-1 -2,-3 -2,-5 0,-1 1,-3 2,-4 1,-1 3,-2 4,-2 2,0 4,0 5,1 1,1 2,2 3,3 1,1 2,2 3,3 1,1 2,2 4,2 1,0 2,0 3,0 1,-1 2,-1 3,-1 4,0 7,-1 10,-4 2,-3 4,-6 5,-10 1,-4 1,-8 2,-13 0,-4 0,-8 0,-11 1,-11 2,-22 3,-33 1,-11 2,-22 2,-34 0,-2 0,-6 -1,-10 0,-4 0,-9 0,-14 -1,-5 -1,-10 -2,-15 -1,-6 -2,-11 -3,-15 -2,-5 -3,-9 -5,-12 -3,-3 -5,-5 -8,-6 -1,-1 -2,-1 -3,-1 -2,-1 -3,-1 -5,-2 -1,-1 -3,-1 -4,-2 -1,-1 -2,-1 -2,-2l1 -2c0,0 0,0 1,0 1,0 2,0 4,1 1,1 3,1 4,2 2,1 3,1 5,2 1,1 3,1 4,1 7,0 14,-1 21,-3 6,-2 13,-4 19,-7 6,-2 13,-5 19,-7 7,-2 13,-3 20,-3 7,0 14,1 20,4 6,3 12,6 17,10 4,5 8,10 11,16 3,6 4,13 4,20 0,9 -2,16 -5,22 -3,7 -6,12 -10,16 -4,3 -7,7 -11,9 -3,2 -4,3 -5,4 2,1 3,2 5,2 6,0 11,1 16,4 4,3 8,6 11,11 3,4 5,9 7,14 1,6 2,11 2,16 0,5 0,10 -1,16 -1,5 -1,10 -1,15 0,7 1,12 4,16 3,4 8,5 15,5 2,0 4,0 6,-1 2,-1 3,-2 4,-4 -1,0 -1,-1 -2,-1 -1,0 -2,0 -3,0 -1,-1 -2,-1 -3,-2 -1,0 -1,-2 -1,-3 0,-2 1,-4 2,-6 1,-2 3,-3 5,-3 1,0 2,1 3,2 1,1 2,2 3,3 0,2 1,3 1,4 0,2 1,3 1,4 0,5 -2,9 -5,12 -4,3 -8,4 -13,4 -3,0 -5,-1 -8,-2 -3,-1 -5,-2 -8,-4 -2,-1 -4,-3 -6,-5 -2,-2 -5,-4 -6,-6 -3,-3 -6,-7 -8,-12 -2,-5 -3,-11 -5,-17 -1,-6 -3,-12 -4,-18 -2,-6 -4,-11 -6,-16 -2,-5 -4,-9 -7,-12 -3,-4 -6,-5 -10,-5z"/>
  <path d="M1330 197c0,-14 2,-27 6,-40 5,-13 11,-24 20,-34 8,-10 18,-18 30,-24 12,-6 26,-9 40,-9 12,0 22,1 30,5 9,3 17,7 23,11 7,5 12,9 16,12 4,4 6,6 8,6 2,0 3,-1 5,-3 1,-2 2,-4 4,-6 1,-2 2,-4 4,-6 2,-2 4,-3 7,-3 4,0 7,2 7,7 0,2 -1,4 -3,5 -1,2 -3,3 -5,3 -1,0 -3,-1 -4,-1 -1,-1 -2,-1 -4,-1 0,0 -1,1 -2,2 0,1 -1,2 -2,3 -1,1 -1,3 -2,4 0,1 -1,2 -1,2 -2,3 -4,8 -6,14 -1,6 -2,13 -3,20 -1,7 -2,13 -2,20 -1,6 -1,11 -1,15 0,2 0,5 0,10 0,4 0,9 1,15 0,6 0,12 1,18 1,6 2,12 3,17 1,5 2,9 4,13 2,3 4,5 6,5 2,0 3,0 4,2 1,1 2,2 2,4 0,2 -1,3 -2,5 -1,1 -3,2 -4,2 -2,0 -4,-1 -6,-3 -1,-1 -3,-3 -4,-6 -1,-2 -2,-4 -2,-6 -1,-3 -1,-5 -2,-6 0,-1 0,-2 0,-4 0,-2 -1,-3 -2,-3 -2,1 -3,2 -4,3 -2,2 -3,3 -5,4 -4,3 -8,6 -12,9 -5,3 -10,6 -15,8 -6,3 -12,5 -18,6 -7,2 -14,3 -22,3 -13,0 -24,-3 -35,-9 -11,-6 -21,-13 -28,-22 -8,-10 -14,-20 -19,-32 -4,-11 -6,-23 -6,-35zm161 16c0,-4 -1,-7 -3,-8 -2,-2 -5,-3 -8,-4 -3,0 -6,-1 -10,-1 -4,0 -7,0 -10,0 -10,-1 -20,-1 -30,-2 -10,0 -20,-1 -30,-2 0,0 -2,0 -4,0 -3,0 -6,0 -9,0 -4,-1 -7,-1 -11,-1 -4,0 -8,-1 -11,-1 -3,0 -6,-1 -8,-1 -2,0 -3,-1 -3,-1 0,-1 2,-2 6,-3 3,-1 8,-2 13,-3 6,0 11,-1 17,-2 7,0 12,0 18,-1 6,0 10,0 15,0 4,-1 7,-1 8,-1 7,0 14,0 21,-1 6,-1 13,-2 20,-2 2,-1 4,-1 6,-1 2,0 3,0 5,0 1,0 2,-1 3,-2 1,-1 2,-3 2,-5 1,-2 1,-3 1,-5 0,-1 1,-3 1,-4 0,-9 -2,-18 -5,-26 -3,-7 -8,-14 -13,-20 -6,-6 -12,-10 -20,-14 -8,-3 -16,-5 -25,-5 -10,0 -18,2 -24,5 -7,3 -13,8 -18,13 -6,5 -10,12 -13,19 -4,7 -6,14 -8,22 -2,8 -4,16 -5,24 0,8 -1,16 -1,23 0,8 2,17 5,26 3,10 7,19 13,27 6,9 12,16 20,22 8,6 17,8 26,8 10,0 19,-2 28,-6 8,-4 15,-9 22,-16 6,-7 10,-15 14,-24 3,-8 5,-18 5,-27z"/>
  <path d="M1530 289c0,-2 0,-3 1,-3 0,-1 1,-1 2,-2 1,0 3,0 4,0 1,0 2,0 3,0 1,0 2,-1 3,-2 1,-2 2,-4 3,-4 0,-1 1,-3 3,-7 1,-4 2,-9 4,-15 2,-5 4,-11 5,-18 2,-6 4,-13 6,-19 1,-6 2,-11 3,-16 1,-5 2,-8 2,-10 0,-1 0,-1 0,-3 0,-1 0,-2 1,-2 2,0 3,1 4,2 1,2 1,3 1,4 0,1 0,2 -1,3 -1,1 -1,2 -1,5 0,10 1,19 3,28 2,10 5,19 9,27 2,4 5,8 9,11 3,4 8,7 12,10 5,2 10,5 15,6 4,2 9,3 13,3 7,0 13,-1 20,-2 7,-1 14,-3 20,-5 6,-3 11,-7 15,-12 4,-4 6,-11 6,-18 0,-10 -2,-17 -6,-23 -4,-5 -9,-10 -15,-13 -7,-4 -14,-6 -22,-8 -8,-2 -17,-3 -25,-5 -8,-1 -17,-3 -25,-5 -8,-2 -15,-5 -22,-9 -6,-3 -11,-8 -15,-15 -4,-6 -6,-14 -6,-25 0,-8 2,-16 7,-23 5,-7 11,-14 18,-19 7,-5 15,-9 24,-12 9,-3 17,-4 24,-4 3,0 6,0 10,0 4,1 9,1 13,2 4,1 8,2 13,2 4,1 7,2 9,3 1,1 4,2 9,4 4,2 9,5 14,7 5,2 9,4 13,6 4,2 6,3 7,3 1,0 2,0 2,-1 1,-1 2,-2 2,-3 0,-1 1,-2 1,-3 0,-1 0,-2 0,-3 0,-2 0,-4 -1,-6 -1,-2 -2,-4 -2,-6 0,-2 1,-3 4,-3 2,0 4,0 5,1 2,1 3,2 3,5 0,4 -1,9 -2,13 0,5 -1,9 -3,13 -1,5 -2,9 -4,13 -1,5 -2,9 -3,13 -1,7 -3,14 -4,20 -1,7 -3,13 -6,20 0,0 0,0 0,0 -1,1 -1,1 -1,1 -1,0 -1,-1 -2,-3 0,-1 0,-3 0,-6 0,-2 0,-4 0,-6 0,-2 0,-4 0,-4 0,-11 -2,-21 -6,-30 -3,-9 -8,-17 -15,-23 -6,-7 -14,-11 -23,-15 -9,-3 -19,-5 -29,-5 -6,0 -11,1 -17,2 -5,2 -10,4 -14,7 -5,4 -8,8 -11,12 -3,5 -4,10 -4,17 0,8 2,14 6,19 4,5 9,10 15,13 6,3 14,6 22,7 8,2 16,4 25,5 8,2 17,4 25,5 8,2 15,5 21,8 7,3 12,7 16,13 4,5 6,11 6,20 0,13 -3,24 -9,33 -6,9 -13,16 -22,21 -9,5 -20,9 -31,11 -11,2 -22,4 -32,4 -9,0 -17,-1 -25,-3 -8,-2 -16,-4 -24,-7 -1,-1 -3,-2 -6,-3 -2,-1 -5,-3 -8,-4 -3,-2 -6,-3 -8,-4 -2,-1 -4,-1 -5,-1 -1,1 -2,3 -4,6 -1,2 -3,5 -5,7 -2,3 -4,5 -7,6 -2,2 -4,3 -5,3 -2,0 -4,0 -4,-2 -1,-1 -1,-3 -1,-4z"/>
  <path d="M1734 194c0,-14 2,-26 7,-38 4,-12 11,-23 19,-32 8,-9 18,-16 29,-22 12,-5 24,-8 38,-8 11,0 22,2 30,5 9,4 16,8 22,12 6,5 10,9 13,12 4,4 5,6 6,6 1,-1 2,-3 3,-6 1,-3 2,-6 3,-9 2,-3 4,-5 6,-8 2,-2 5,-3 8,-3 2,0 4,1 5,3 1,2 2,4 2,6 0,2 -1,3 -2,4 -1,0 -3,1 -4,1 -2,0 -3,0 -4,-1 -2,0 -3,0 -4,0 -1,0 -1,0 -2,1 -1,1 -1,2 -2,3 0,2 -1,3 -1,4 -1,1 -1,2 -1,2 -2,5 -4,9 -5,14 -1,5 -1,10 -2,15 0,5 -1,10 -1,15 0,4 0,9 0,14 0,7 -1,14 -1,22 -1,7 -1,14 -1,22 0,3 0,6 0,10 0,3 0,7 1,10 0,4 1,7 2,11 1,3 3,6 4,9 1,1 1,1 1,2 0,1 1,3 1,4 0,1 1,2 1,2 0,1 1,2 1,2 2,0 4,-1 5,-3 2,-1 4,-2 6,-2 2,0 3,1 4,3 1,1 2,3 2,5 0,2 -2,3 -4,4 -3,1 -4,1 -6,1 -4,0 -7,-1 -9,-4 -2,-3 -4,-5 -5,-8 -2,-3 -3,-6 -3,-9 -1,-2 -2,-4 -3,-4 -1,0 -2,1 -4,3 -1,1 -2,2 -3,3 -9,9 -18,15 -29,19 -10,4 -22,6 -34,6 -14,0 -26,-3 -37,-8 -11,-5 -20,-13 -28,-22 -8,-9 -14,-19 -18,-31 -4,-12 -6,-24 -6,-37zm140 58c4,-10 6,-19 9,-29 2,-9 4,-19 4,-30 0,-3 0,-7 -1,-12 0,-5 0,-11 -1,-16 0,-5 0,-11 -1,-16 -1,-5 -1,-9 -2,-12 -4,-11 -12,-21 -22,-27 -10,-6 -21,-10 -34,-10 -13,0 -24,3 -32,10 -8,6 -15,14 -19,23 -5,10 -8,20 -9,32 -2,11 -2,22 -2,33 0,9 1,19 3,29 3,10 6,20 12,28 5,9 11,16 19,21 8,6 18,9 28,9 5,0 10,-1 16,-3 5,-1 9,-4 14,-6 4,-3 8,-7 11,-11 4,-4 6,-8 7,-13z"/>
  <path d="M1925 279c0,-2 1,-4 3,-5 2,-2 4,-2 6,-2 0,0 1,0 2,1 0,1 1,2 1,3 1,1 1,2 2,3 0,1 0,2 0,3 1,2 3,3 5,3 3,0 5,0 7,0 12,0 21,0 28,0 8,0 13,-2 17,-4 4,-3 6,-8 7,-14 1,-7 2,-16 2,-29 0,-7 0,-14 1,-21 0,-7 0,-14 1,-21 0,-10 0,-19 0,-28 1,-9 1,-19 1,-28 0,-5 -1,-10 -1,-15 -1,-5 -1,-10 -2,-14 -1,-4 -2,-6 -4,-7 -1,-2 -4,-3 -6,-3 -2,0 -5,-1 -8,-1 -3,1 -5,1 -8,1 -1,0 -4,0 -6,0 -3,0 -6,0 -9,0 -3,0 -5,0 -8,1 -3,1 -5,1 -6,2 -1,1 -2,2 -3,2 -1,1 -2,1 -3,1 -2,0 -4,-1 -5,-2 -1,-1 -2,-2 -2,-4 0,-2 2,-4 4,-5 2,-1 5,-2 8,-2 3,0 6,0 9,0 3,0 5,0 6,0 6,0 12,0 17,0 6,0 12,0 17,0 11,0 22,0 32,-1 11,-1 21,-1 32,-1 1,0 4,0 8,0 4,0 9,0 13,0 5,1 9,1 13,1 4,0 6,1 7,1 1,1 1,2 2,3 1,0 1,1 1,2 0,2 -1,4 -2,4 -2,1 -4,2 -5,2 -3,0 -5,-1 -8,-3 -2,-2 -4,-3 -5,-3l-16 0c-8,0 -15,2 -19,6 -5,3 -8,8 -10,13 -2,5 -3,12 -4,18 0,7 0,14 -1,21 0,13 -1,26 -2,39 -2,13 -2,26 -2,39 0,2 0,5 0,8 0,3 0,6 0,10 1,3 1,6 1,9 1,3 1,6 1,8 1,4 2,7 4,11 2,3 3,4 4,4l49 0c0,-2 2,-4 3,-6 1,-1 3,-2 6,-2 2,0 4,0 5,1 2,2 3,3 3,5 0,3 -1,5 -3,6 -2,1 -4,2 -6,2 -2,1 -5,1 -7,1 -3,0 -5,0 -7,0 -11,0 -23,-1 -34,-1 -11,0 -23,0 -34,0 -12,0 -24,0 -36,0 -12,0 -24,1 -36,1 -2,0 -4,-1 -7,-1 -2,0 -4,0 -6,-1 -2,-1 -4,-2 -5,-4 -1,-2 -2,-4 -2,-7z"/>
 </g>
 </g>
</svg>
