<?xml version="1.0" encoding="UTF-8"?>
<!DOCTYPE svg PUBLIC "-//W3C//DTD SVG 1.1//EN" "http://www.w3.org/Graphics/SVG/1.1/DTD/svg11.dtd">
<svg xmlns="http://www.w3.org/2000/svg" xml:space="preserve" width="709px" height="118px" version="1.1" style="shape-rendering:geometricPrecision; text-rendering:geometricPrecision; image-rendering:optimizeQuality; fill-rule:evenodd; clip-rule:evenodd"
viewBox="0 0 2193 365"
 xmlns:xlink="http://www.w3.org/1999/xlink">
 <defs>
  <style type="text/css">
   <![CDATA[
    .c1 {fill:#eee}
    .c2 {fill:#000}
   ]]>
  </style>
 </defs>
 <g>
  <rect class="c1" width="2193" height="365"/>
  <g class="c2">
  <path d="M289 83c-14,0 -26,3 -36,10 -10,7 -19,16 -26,26 -6,11 -11,22 -15,35 -3,12 -5,24 -5,36 0,12 2,24 6,35 4,11 9,21 16,29 7,9 16,16 27,21 10,5 22,7 35,7 9,0 18,-2 27,-6 9,-4 16,-9 23,-16 7,-6 12,-14 16,-22 5,-9 7,-18 8,-26 1,-4 1,-7 1,-11 0,-4 0,-9 0,-13 -1,-4 -1,-9 -1,-13 0,-4 -1,-8 -1,-11 0,-10 -3,-20 -6,-30 -4,-10 -9,-18 -16,-26 -6,-7 -14,-14 -23,-18 -9,-5 -19,-7 -30,-7zm-2 -7c8,0 17,2 26,5 9,3 17,7 26,13 8,5 15,11 22,17 7,6 12,13 17,19l0 0 1 0c0,-4 0,-9 1,-14 1,-5 2,-10 3,-15 1,-5 3,-9 5,-14 1,-5 4,-9 6,-13 1,1 2,3 3,5 1,2 1,4 1,5 -6,18 -10,36 -12,54 -2,18 -3,36 -3,55 0,6 1,13 2,21 0,8 1,16 2,24 1,8 3,16 4,23 2,8 4,15 5,21 0,2 0,4 -1,4 -1,0 -2,0 -3,0 -1,-1 -3,-3 -4,-8 -2,-4 -4,-8 -5,-12 -2,-5 -3,-9 -4,-13 -1,-5 -2,-8 -2,-10 0,0 0,0 -1,0 0,0 0,0 -1,1 -1,1 -2,2 -3,3 -1,1 -2,2 -3,3 -1,1 -2,2 -3,2 -3,4 -8,8 -14,13 -6,4 -13,8 -19,12 -7,4 -14,7 -22,10 -7,3 -14,4 -21,4 -7,0 -15,-2 -24,-5 -9,-3 -17,-7 -26,-12 -9,-6 -17,-12 -25,-19 -8,-7 -15,-15 -21,-23 -6,-8 -11,-16 -14,-25 -4,-9 -6,-17 -6,-26 0,-6 2,-14 6,-21 3,-8 8,-16 13,-24 6,-8 13,-15 21,-23 7,-7 15,-13 24,-19 8,-5 17,-10 25,-13 9,-3 17,-5 24,-5z"/>
  <path d="M512 78c7,0 14,2 21,6 7,4 14,8 20,13 6,4 12,8 17,12 5,4 9,6 12,6 3,0 6,0 8,-1 2,-1 4,-3 4,-7 0,-1 -1,-3 -2,-5 0,-2 -2,-3 -4,-3 -1,0 -2,1 -2,1 -1,1 -2,2 -2,3l-2 -2c0,-1 1,-2 2,-3 0,-1 1,-2 2,-2 3,0 6,1 8,3 2,2 3,5 3,8 0,1 -1,3 -2,5 -1,2 -2,4 -3,6 -2,2 -3,4 -4,6 -2,1 -3,3 -3,5 -2,7 -3,13 -4,20 -1,7 -1,13 -1,20 0,10 0,20 1,29 1,9 2,19 3,28 2,9 4,17 7,26 3,9 7,18 11,27l-1 2c-3,0 -6,-1 -9,-1 -3,0 -6,0 -9,0 -7,0 -14,1 -21,2 -7,1 -14,2 -21,2 -1,0 -2,-1 -2,-2 0,-2 1,-4 4,-5 2,-1 4,-2 7,-2 3,-1 5,-1 8,-1 3,0 5,-1 7,-1l1 -1c0,-1 0,-2 0,-3 0,-1 0,-3 0,-4 0,-9 0,-19 1,-29 0,-10 -1,-20 -3,-29 -6,-10 -14,-17 -24,-21 -9,-4 -20,-6 -31,-6 -14,0 -26,2 -35,7 -10,4 -20,12 -29,22 -2,7 -3,14 -2,22 0,7 0,14 0,21 0,4 0,8 0,12 -1,4 -2,9 -3,13 -2,4 -4,7 -7,10 -2,3 -6,4 -11,4 -4,0 -8,-1 -11,-4 -4,-3 -6,-7 -6,-11 0,-4 1,-7 2,-10 2,-4 5,-6 10,-6 2,0 5,1 6,3 2,3 3,5 3,8 0,2 -1,3 -2,5 -1,2 -3,3 -4,3l0 1c1,1 3,1 5,1 2,0 4,0 6,-2 1,-1 2,-3 3,-5 1,-3 2,-5 3,-7 0,-3 0,-5 0,-6 0,-8 -1,-15 -3,-22 -3,-8 -5,-16 -8,-24 -3,-8 -6,-16 -8,-25 -3,-9 -4,-18 -4,-27 0,-5 1,-11 3,-16 2,-4 5,-9 8,-14 3,-5 6,-9 10,-13 4,-4 7,-8 11,-12 -4,2 -7,3 -10,5 -2,1 -5,2 -10,2 -1,0 -2,0 -4,0 -1,-1 -3,-1 -4,-2 -2,0 -3,-1 -4,-2 -1,-1 -1,-2 -1,-4 0,-2 0,-4 0,-5 0,-1 1,-2 1,-2 1,-1 1,-1 2,-2 1,0 2,-1 3,-2 -3,-2 -6,-4 -10,-6 -3,-3 -4,-6 -4,-10 0,-2 0,-4 1,-5 2,0 4,-1 7,-1l-1 3c-2,0 -3,0 -4,0 0,1 -1,2 -1,4 0,3 2,6 4,8 3,2 6,4 10,5 4,1 7,2 11,2 4,1 7,1 9,1 6,0 12,-1 17,-3 6,-2 12,-4 17,-7 6,-2 12,-4 18,-6 6,-2 12,-3 19,-3zm-2 6c-6,0 -13,1 -20,3 -7,2 -13,6 -19,10 -7,4 -12,8 -16,14 -4,6 -6,12 -6,19 0,8 2,14 5,19 3,6 7,10 12,14 5,3 11,6 17,8 7,1 13,2 20,2 5,0 11,-1 18,-2 6,-1 12,-4 18,-7 6,-3 11,-6 15,-11 4,-5 6,-10 6,-17 0,-5 -2,-11 -5,-18 -3,-6 -7,-11 -11,-17 -5,-5 -10,-9 -16,-12 -6,-4 -12,-5 -18,-5z"/>
  <path d="M719 74c11,0 22,3 33,9 11,6 21,14 29,23 9,9 16,19 21,30 6,11 8,21 8,31 0,11 -2,21 -7,32 -4,11 -10,21 -18,30 -7,8 -16,16 -26,21 -10,6 -20,9 -30,9 -7,1 -14,0 -19,0 -6,-1 -12,-2 -17,-4 -5,-3 -10,-5 -15,-9 -5,-3 -10,-7 -15,-12 0,2 1,6 1,11 0,5 0,10 1,16 0,6 0,13 1,21 6,0 12,-1 18,-2 6,-2 13,-4 20,-6 6,-1 14,-3 22,-5 9,-1 18,-2 28,-2 4,0 9,0 14,1 6,1 10,2 15,3 5,2 9,3 12,5 3,3 5,5 5,8 0,0 -1,2 -2,4 0,2 -2,3 -5,3 -1,0 -3,-1 -5,-2 -2,-1 -3,-2 -3,-3 0,-1 0,-2 2,-3 1,0 2,-1 2,-2 0,-2 -2,-3 -5,-4 -3,-1 -7,-2 -11,-2 -4,-1 -8,-1 -12,-2 -3,0 -6,0 -7,0 -8,0 -17,1 -25,3 -8,1 -16,4 -24,6 -8,2 -16,4 -24,6 -8,2 -16,3 -24,3 -6,0 -13,0 -20,-2 -7,-1 -13,-3 -19,-6 -1,-1 -3,-2 -6,-4 -2,-2 -4,-4 -4,-6 0,-1 0,-2 0,-3 0,0 1,-1 1,-2 0,-2 1,-3 2,-5 1,-2 2,-4 4,-4 0,0 1,1 2,1 1,0 2,1 3,2 1,1 2,1 3,2 1,1 1,1 1,2 0,2 -1,4 -2,6 -2,1 -2,3 -2,4 0,1 1,2 3,3 3,-3 5,-7 7,-12 2,-5 4,-11 6,-17 1,-7 2,-14 3,-21 1,-8 2,-15 2,-22 1,-7 1,-13 1,-19 1,-6 1,-11 1,-15 0,-8 -1,-15 -3,-22 -2,-7 -6,-13 -12,-18 -1,-1 -3,-2 -5,-3 -2,-1 -4,-2 -6,-3 -2,-1 -3,-2 -5,-4 -1,-1 -2,-3 -2,-5 0,-3 1,-6 3,-8 2,-3 5,-4 8,-4 4,0 6,2 7,4 1,2 2,5 2,7 0,2 0,3 -1,4 0,1 -1,2 -2,2l4 0c5,0 10,-3 17,-8 6,-5 13,-10 21,-16 7,-6 15,-12 24,-17 8,-5 17,-8 26,-8zm4 8c-13,0 -24,3 -33,9 -8,6 -15,13 -19,22 -5,10 -8,20 -10,31 -2,11 -3,22 -3,33 0,12 1,23 4,32 3,10 7,18 13,24 6,7 13,12 22,16 9,3 20,5 32,5 11,0 20,-3 27,-9 7,-5 12,-12 16,-21 3,-9 6,-18 7,-28 2,-10 2,-19 2,-28 0,-9 -1,-18 -2,-29 -2,-10 -5,-19 -10,-28 -5,-8 -11,-15 -18,-21 -8,-5 -17,-8 -28,-8z"/>
  <path d="M934 83c-13,0 -25,2 -35,7 -11,5 -20,11 -27,19 -8,8 -14,18 -18,29 -4,11 -6,22 -6,35 0,14 1,28 3,41 1,13 5,25 11,35 5,10 14,18 24,24 11,6 26,9 44,9 14,0 25,-3 34,-10 10,-6 17,-14 22,-24 6,-10 9,-21 12,-33 2,-11 3,-23 3,-34 0,-10 -1,-21 -3,-33 -3,-11 -7,-22 -12,-31 -5,-10 -12,-18 -21,-24 -8,-7 -19,-10 -31,-10zm1 -9c8,0 15,2 23,5 7,3 15,8 22,13 7,5 14,12 20,19 6,7 12,14 16,22 5,8 9,16 11,24 3,8 4,15 4,22 0,10 -2,21 -6,32 -4,11 -10,22 -17,32 -7,10 -15,19 -24,27 -10,8 -19,13 -29,16 -4,2 -9,3 -14,4 -5,1 -10,1 -14,1 -5,0 -10,-1 -17,-2 -6,-1 -12,-3 -19,-5 -6,-2 -13,-5 -18,-8 -6,-3 -11,-6 -15,-9 -6,-4 -11,-9 -16,-15 -5,-6 -9,-12 -13,-19 -4,-7 -7,-14 -9,-21 -3,-7 -4,-14 -4,-21 0,-16 4,-30 10,-43 7,-13 16,-26 26,-37 10,-12 23,-21 38,-27 15,-6 30,-10 45,-10z"/>
  <path d="M1102 84c11,0 21,0 31,-2 11,-1 21,-2 32,-3 10,-1 20,-2 31,-3 10,-1 21,-2 31,-2 1,0 3,1 4,1l1 1c-1,1 -3,3 -8,5 -4,2 -9,4 -14,6 -5,2 -10,3 -15,5 -5,1 -9,2 -10,2 -3,0 -5,1 -8,2 -2,0 -4,1 -6,1l-2 -2c2,-1 3,-2 6,-2 2,-1 3,-2 3,-4 0,-1 0,-1 -1,-1 0,0 -1,0 -2,0 -11,0 -23,0 -35,0 -12,1 -23,1 -35,3l0 1c0,4 0,9 1,17 0,7 0,15 0,24 0,9 1,19 1,29 0,10 0,20 1,30 0,9 0,18 1,27 0,8 0,15 0,21 1,3 1,7 1,11 0,4 0,7 1,11 1,1 3,2 5,3 2,1 5,1 7,2 3,0 6,1 8,1 3,0 5,0 7,0 7,0 14,-2 20,-5 5,-2 11,-6 17,-9 5,-3 10,-6 16,-9 5,-3 11,-4 17,-4 8,0 15,2 21,6l0 0c1,0 1,0 1,0 -1,-3 -2,-7 -4,-13 -1,-6 -3,-12 -4,-19 -2,-8 -3,-15 -5,-23 -1,-8 -2,-16 -3,-23 -2,-7 -3,-13 -3,-18 -1,-6 -1,-10 -1,-12 0,-3 0,-5 1,-8 1,-3 2,-5 4,-7 2,-2 4,-4 6,-5 3,-2 5,-2 8,-2 4,0 8,1 11,3 3,3 5,6 5,10 0,6 -1,10 -3,12 -1,2 -5,3 -10,3 -3,0 -6,0 -8,-2 -2,-1 -4,-3 -5,-6l0 0c-1,2 -1,4 -1,6 0,2 0,3 0,5 0,7 1,15 3,25 2,9 4,20 7,30 2,11 5,23 8,34 3,11 6,22 9,32 0,2 1,4 1,7 1,3 1,6 1,8 0,0 0,0 0,1 -1,1 -1,1 -1,1 -4,-2 -9,-3 -15,-4 -5,-1 -12,-2 -18,-3 -7,0 -14,-1 -20,-1 -7,0 -13,-1 -19,-1 -4,0 -10,1 -17,1 -7,0 -15,1 -23,2 -9,0 -17,1 -26,2 -10,1 -18,2 -27,3 -8,1 -16,2 -23,3 -7,1 -13,2 -18,3l-2 -1c0,0 0,0 0,-1l0 -2c1,1 2,0 4,-1 1,-1 3,-3 4,-4 2,-2 3,-4 4,-6 2,-1 2,-3 3,-4 6,-7 11,-15 15,-24 3,-9 6,-18 8,-27 2,-9 4,-18 5,-28 0,-9 1,-19 1,-28 0,-8 -1,-16 -2,-23 -1,-8 -2,-15 -5,-22 -2,-7 -6,-14 -10,-20 -5,-6 -10,-11 -17,-16 -1,0 -2,-1 -4,-3 -2,-1 -3,-2 -3,-3 0,-1 1,-2 2,-2 3,0 6,1 9,2 3,1 7,2 10,3 3,0 6,0 9,1 4,0 7,1 11,1 4,0 7,1 11,1 3,0 7,0 9,0zm-3 7l-1 1c0,12 1,25 1,39 0,13 0,27 1,41 0,14 0,28 1,42 1,14 1,27 2,40 0,2 1,3 3,5l0 0c0,0 0,-1 0,-1 1,0 1,0 1,-1 -1,-27 -2,-55 -3,-83 -1,-27 -2,-55 -3,-83l-2 0z"/>
  <path d="M1275 80c5,0 10,1 17,3 7,2 14,4 21,6 8,2 16,4 23,6 8,2 15,3 22,3 1,0 2,0 4,0 1,0 3,-1 5,-1 2,0 4,0 6,-1 1,0 3,-1 3,-1 -1,-2 -3,-3 -4,-5 -1,-1 -1,-3 -1,-6 0,-2 1,-5 4,-7 3,-2 6,-3 8,-3 4,0 7,2 9,4 1,2 2,5 2,8 0,5 -1,8 -3,11 -3,2 -6,4 -10,6 -3,1 -7,2 -12,2 -4,1 -8,1 -11,1 -3,0 -7,0 -9,-1l-1 0c0,1 0,2 -1,3 0,1 0,3 0,4 0,23 1,46 1,69 1,23 1,46 1,69 0,0 0,1 0,3 0,1 0,2 0,4 0,1 1,2 1,4 0,1 0,2 0,2 4,0 8,0 12,-1 4,0 7,-1 11,-1 2,0 4,0 7,1 3,0 5,1 8,1 2,1 4,3 6,4 2,2 3,4 3,6 0,3 -1,7 -2,10 -2,3 -5,5 -9,5 -3,0 -6,-1 -8,-3 -2,-2 -3,-5 -3,-8 0,-2 0,-4 1,-5 1,-1 2,-2 3,-4l0 0c-2,-1 -5,-2 -7,-2 -8,0 -16,2 -23,4 -8,3 -15,6 -23,9 -7,3 -15,6 -22,8 -7,3 -15,4 -23,4 -2,0 -5,0 -8,-1 -4,0 -7,-1 -9,-3 -3,-1 -6,-3 -7,-5 -2,-3 -3,-5 -3,-9 0,-2 1,-5 3,-8 3,-3 6,-5 8,-5 3,0 6,1 8,3 3,2 4,4 4,7 0,3 -1,6 -3,7 -1,2 -3,4 -6,5l0 1c2,1 4,1 6,2 2,0 4,0 6,0 6,0 11,-2 15,-7 4,-5 7,-12 10,-19 3,-8 5,-16 6,-25 1,-9 2,-17 3,-25 1,-8 1,-14 1,-20 1,-5 1,-8 1,-8l-1 -2 0 0c-3,2 -4,3 -5,5 -1,1 -4,2 -7,2 -2,0 -4,-1 -5,-3 -2,-1 -3,-3 -3,-5 0,-3 1,-6 2,-8 2,-3 4,-4 8,-4 1,0 2,0 3,0 1,1 2,2 2,2 1,1 1,2 1,2 1,1 1,1 2,1l3 -3c0,-3 0,-9 -1,-16 0,-7 -1,-14 -2,-22 -1,-7 -3,-14 -4,-21 -2,-7 -4,-12 -6,-15 -5,-1 -9,-3 -14,-4 -4,-2 -9,-2 -15,-2 0,0 -1,0 -1,0 -1,0 -1,0 -2,0l0 0c2,2 3,3 5,5 1,1 1,3 1,5 0,3 -1,6 -3,9 -2,4 -4,5 -8,5 -1,0 -2,0 -4,-1 -1,-1 -3,-2 -4,-3 -1,-2 -2,-3 -3,-5 -1,-1 -1,-3 -1,-4 0,-2 0,-5 2,-7 1,-2 3,-4 5,-6 2,-1 5,-3 7,-4 3,-1 5,-2 7,-2zm66 23c-1,0 -1,0 -1,1 0,0 0,0 -1,0 0,20 1,41 1,61 1,20 1,40 1,60l0 41c0,0 1,0 1,-1 1,0 2,0 2,-1 0,-2 1,-5 1,-9 0,-3 0,-7 0,-10 0,-4 0,-8 0,-12 0,-3 0,-6 0,-9 0,-19 0,-38 0,-57 -1,-18 -1,-37 -1,-56 0,-1 -1,-2 -1,-3 0,-1 -1,-3 -1,-4 -1,0 -1,-1 -1,-1z"/>
  <path d="M1521 74c6,0 12,2 19,6 6,3 12,8 19,13 6,6 12,12 17,19 6,8 11,15 15,22 5,8 8,15 11,22 2,7 3,13 3,18 0,8 -1,15 -4,23 -3,7 -6,15 -9,22 -3,8 -6,15 -9,23 -3,8 -4,16 -4,23 0,3 0,5 1,8 1,2 1,5 2,7l1 0c0,-1 0,-2 0,-2 0,-1 0,-1 0,-2 0,-1 1,-2 2,-3 0,-1 2,-2 3,-3 1,0 2,0 3,-1 2,0 3,0 4,0 2,0 5,1 7,3 2,2 3,4 3,6 0,4 -1,7 -3,10 -3,2 -6,3 -10,3 -5,0 -9,-2 -12,-5 -3,-3 -6,-6 -7,-11 -1,-4 -2,-9 -2,-14 0,-5 0,-9 0,-13l1 -73c0,-9 -1,-18 -3,-29 -2,-11 -5,-21 -9,-30 -4,-9 -10,-17 -17,-23 -7,-7 -16,-10 -26,-10 -12,0 -22,3 -30,9 -8,6 -14,14 -19,23 -4,10 -8,20 -10,30 -2,11 -3,22 -3,31 0,16 1,31 2,46 1,15 2,30 2,46 0,1 0,2 0,4 0,3 1,4 1,4 3,0 7,-1 12,-3 4,-2 9,-4 15,-6 5,-2 10,-3 15,-5 4,-1 8,-2 11,-2 2,0 5,0 8,1 4,0 7,1 9,2 3,1 5,2 7,4 2,2 3,5 3,8 0,1 0,3 -1,4 0,2 -1,3 -2,4 -1,2 -3,3 -4,4 -1,0 -2,1 -4,1 -3,0 -5,-1 -7,-2 -2,-1 -2,-3 -2,-5 0,-3 0,-5 1,-7 1,-2 3,-3 6,-3l0 -1c-5,-2 -10,-3 -15,-3 -6,0 -12,1 -17,3 -5,2 -10,4 -16,6 -6,2 -13,5 -21,7 -8,1 -18,2 -31,2 -3,0 -5,0 -8,0 -3,-1 -5,-2 -7,-3 -3,-2 -4,-4 -6,-6 -1,-2 -2,-4 -2,-7 0,-3 1,-6 2,-9 2,-3 4,-5 8,-5 2,0 4,1 6,3 1,2 2,4 2,7 0,2 0,4 -1,5 -1,2 -2,2 -3,2l-3 0c1,3 2,4 5,4 3,-2 6,-6 9,-12 3,-6 5,-13 7,-20 1,-7 3,-14 4,-21 1,-7 1,-13 1,-18 0,-13 -1,-26 -4,-37 -3,-12 -9,-22 -18,-32 -1,-2 -3,-3 -5,-4 -2,-2 -3,-3 -5,-4 -2,-2 -3,-3 -4,-5 -2,-1 -2,-3 -2,-6 0,-3 1,-6 4,-9 3,-2 6,-3 10,-3 3,0 6,1 8,3 1,2 2,5 2,8 0,1 0,3 -1,4 -1,1 -1,2 -2,3l0 2 2 0c7,0 13,-3 20,-8 6,-5 13,-11 21,-17 7,-7 16,-12 24,-18 9,-5 19,-8 30,-8z"/>
  <path d="M1708 74c12,0 22,2 30,4 8,3 15,7 22,12 6,5 12,10 17,17 4,7 10,15 15,23 0,1 1,1 2,2 1,1 1,2 2,2l0 -1c0,-2 1,-5 1,-9 1,-5 1,-9 2,-14 1,-5 2,-10 4,-14 1,-4 2,-7 4,-8l0 0c1,0 1,1 2,3 0,1 1,3 1,4 1,2 2,3 3,4 0,1 1,2 2,2l0 1c-5,6 -9,12 -11,20 -3,8 -5,16 -6,25 -1,8 -2,16 -2,25 0,8 -1,16 -1,24 0,6 1,13 1,19 0,6 1,13 2,19 1,6 3,12 5,18 2,6 5,11 8,17l0 1c0,1 -1,1 -2,2 0,0 -1,1 -1,1 -1,1 -1,2 -1,4 0,2 -1,3 -2,3 0,0 -1,-1 -1,-1 0,-1 -1,-2 -1,-2 -3,-5 -5,-11 -6,-17 -2,-6 -3,-11 -5,-17l-1 0c-5,6 -10,12 -16,17 -5,6 -11,11 -18,16 -6,4 -13,8 -21,11 -7,3 -16,4 -25,4 -7,0 -14,-2 -21,-5 -8,-3 -15,-7 -23,-12 -7,-6 -14,-12 -21,-19 -7,-8 -12,-15 -18,-24 -5,-8 -9,-17 -12,-26 -3,-9 -4,-17 -4,-26 0,-7 1,-14 4,-22 3,-8 7,-16 12,-23 5,-8 10,-16 17,-23 6,-7 13,-13 20,-19 7,-5 15,-9 22,-13 8,-3 15,-5 21,-5zm5 8c-8,0 -16,1 -24,4 -8,4 -15,8 -22,13 -6,6 -12,13 -16,20 -4,7 -6,15 -6,24 0,8 2,15 7,20 5,5 11,9 18,11 7,3 15,4 23,5 8,0 16,0 22,0 7,0 15,0 22,-1 8,0 15,-2 21,-5 6,-3 12,-7 16,-12 4,-6 6,-13 6,-23 0,-7 -2,-14 -7,-21 -4,-6 -10,-12 -16,-18 -7,-5 -14,-9 -22,-13 -8,-3 -15,-4 -22,-4zm-69 138c0,9 2,17 7,25 5,7 11,13 18,19 8,5 16,9 24,12 9,4 17,5 25,5 7,0 14,-1 22,-5 7,-3 13,-7 19,-12 6,-6 11,-12 15,-18 3,-7 5,-14 5,-21 0,-9 -2,-15 -6,-20 -5,-5 -10,-9 -16,-12 -7,-3 -14,-5 -21,-6 -8,-1 -15,-2 -21,-2 -6,0 -13,0 -21,1 -8,0 -16,2 -23,4 -8,2 -14,6 -19,10 -6,5 -8,12 -8,20z"/>
  <path d="M1928 78c7,0 14,2 21,6 7,4 14,8 20,13 6,4 12,8 17,12 5,4 9,6 13,6 3,0 5,0 7,-1 3,-1 4,-3 4,-7 0,-1 -1,-3 -1,-5 -1,-2 -3,-3 -4,-3 -1,0 -2,1 -3,1 -1,1 -1,2 -2,3l-2 -2c0,-1 1,-2 2,-3 1,-1 2,-2 3,-2 3,0 5,1 7,3 2,2 3,5 3,8 0,1 0,3 -1,5 -1,2 -3,4 -4,6 -1,2 -3,4 -4,6 -2,1 -2,3 -3,5 -2,7 -3,13 -4,20 0,7 -1,13 -1,20 0,10 1,20 1,29 1,9 2,19 3,28 2,9 4,17 7,26 3,9 7,18 11,27l-1 2c-3,0 -6,-1 -9,-1 -3,0 -6,0 -9,0 -7,0 -14,1 -21,2 -6,1 -14,2 -21,2 -1,0 -1,-1 -1,-2 0,-2 1,-4 3,-5 2,-1 4,-2 7,-2 3,-1 6,-1 8,-1 3,0 5,-1 7,-1l1 -1c0,-1 0,-2 0,-3 1,-1 1,-3 1,-4 0,-9 0,-19 0,-29 0,-10 -1,-20 -2,-29 -7,-10 -15,-17 -24,-21 -10,-4 -21,-6 -32,-6 -14,0 -26,2 -35,7 -10,4 -19,12 -28,22 -2,7 -3,14 -3,22 0,7 0,14 0,21 0,4 0,8 0,12 -1,4 -2,9 -3,13 -1,4 -4,7 -6,10 -3,3 -7,4 -11,4 -4,0 -8,-1 -12,-4 -4,-3 -6,-7 -6,-11 0,-4 1,-7 3,-10 1,-4 4,-6 9,-6 3,0 5,1 7,3 1,3 2,5 2,8 0,2 -1,3 -2,5 -1,2 -2,3 -4,3l0 1c2,1 3,1 5,1 3,0 4,0 6,-2 1,-1 2,-3 3,-5 1,-3 2,-5 3,-7 0,-3 1,-5 1,-6 0,-8 -2,-15 -4,-22 -2,-8 -5,-16 -8,-24 -3,-8 -6,-16 -8,-25 -2,-9 -4,-18 -4,-27 0,-5 1,-11 3,-16 3,-4 5,-9 8,-14 3,-5 7,-9 10,-13 4,-4 8,-8 11,-12 -4,2 -7,3 -9,5 -3,1 -6,2 -11,2 -1,0 -2,0 -4,0 -1,-1 -2,-1 -4,-2 -1,0 -3,-1 -3,-2 -1,-1 -2,-2 -2,-4 0,-2 0,-4 0,-5 1,-1 1,-2 1,-2 1,-1 1,-1 2,-2 1,0 2,-1 3,-2 -3,-2 -6,-4 -9,-6 -4,-3 -5,-6 -5,-10 0,-2 0,-4 2,-5 1,0 3,-1 6,-1l-1 3c-1,0 -3,0 -3,0 -1,1 -1,2 -1,4 0,3 1,6 4,8 2,2 5,4 9,5 4,1 8,2 11,2 4,1 7,1 10,1 5,0 11,-1 17,-3 5,-2 11,-4 16,-7 6,-2 12,-4 18,-6 6,-2 13,-3 19,-3zm-1 6c-7,0 -13,1 -20,3 -7,2 -14,6 -20,10 -6,4 -11,8 -15,14 -5,6 -7,12 -7,19 0,8 2,14 5,19 3,6 7,10 12,14 5,3 11,6 18,8 6,1 13,2 19,2 5,0 11,-1 18,-2 6,-1 13,-4 18,-7 6,-3 11,-6 15,-11 4,-5 6,-10 6,-17 0,-5 -1,-11 -4,-18 -3,-6 -7,-11 -12,-17 -5,-5 -10,-9 -16,-12 -6,-4 -12,-5 -17,-5z"/>
 </g>
 </g>
</svg>
