<?xml version="1.0" encoding="UTF-8"?>
<!DOCTYPE svg PUBLIC "-//W3C//DTD SVG 1.1//EN" "http://www.w3.org/Graphics/SVG/1.1/DTD/svg11.dtd">
<svg xmlns="http://www.w3.org/2000/svg" xml:space="preserve" width="709px" height="118px" version="1.1" style="shape-rendering:geometricPrecision; text-rendering:geometricPrecision; image-rendering:optimizeQuality; fill-rule:evenodd; clip-rule:evenodd"
viewBox="0 0 2193 365"
 xmlns:xlink="http://www.w3.org/1999/xlink">
 <defs>
  <style type="text/css">
   <![CDATA[
    .c1 {fill:none}
    .c2 {fill:#a00;fill-rule:nonzero}
   ]]>
  </style>
 </defs>
 <g>
  <rect class="c1" width="2193" height="365"/>
  <g class="c2">
  <path d="M777 291c0,4 9,2 12,2l55 0c11,0 19,-3 22,-14 5,-18 3,-45 3,-64l0 -70c0,-16 4,-71 -19,-73 -19,-1 -39,-1 -58,-1 -2,0 -11,0 -13,1 -7,4 -8,26 -8,33 0,5 0,18 7,18 5,0 8,-21 26,-21 20,0 28,14 30,32 4,23 4,47 4,70 0,9 1,53 -8,56 -1,0 -2,0 -3,0 -16,0 -14,-42 -14,-53l0 -71c0,-9 -3,-20 -14,-20 -23,0 -18,64 -18,79 0,19 1,39 0,58 0,12 -4,27 -4,38z"/>
  <path d="M905 71c-25,0 -23,4 -24,27 0,6 5,11 10,11 26,0 23,-3 24,-27 1,-6 -4,-11 -10,-11zm-21 101c0,36 -3,71 -3,107 0,5 -1,14 6,14 8,0 18,1 27,0 1,0 2,-1 2,-2 0,-6 -2,-13 -3,-20 -2,-18 -2,-37 -2,-55 0,-25 2,-50 2,-76 0,-4 1,-18 -5,-18 -4,0 -27,-1 -27,3 0,1 0,2 0,3 2,15 3,29 3,44z"/>
  <path d="M926 244c0,10 1,45 12,48 5,2 33,1 40,1 17,0 14,-33 14,-44 0,-10 -1,-20 -1,-30 -2,-28 -33,-30 -33,-49 0,-6 1,-12 8,-12 15,0 1,25 15,25 10,0 8,-17 8,-23 0,-11 0,-25 -8,-35 -2,-2 -6,-2 -10,-2 -6,0 -31,0 -31,1 -10,3 -11,21 -11,30 0,13 0,33 10,43 14,15 26,15 26,38 0,8 0,22 -11,22 -11,0 -11,-20 -11,-28 0,-10 3,-17 -10,-17 -1,0 -4,3 -5,5 -1,8 -2,18 -2,27z"/>
  <path d="M1012 293c20,0 41,0 61,0 8,0 10,-10 11,-16 2,-22 3,-44 3,-67 0,-11 1,-58 -15,-60 -20,-2 -35,-1 -35,-27 0,-7 2,-19 11,-19 19,0 9,34 24,34 11,0 9,-21 9,-29 0,-9 1,-38 -13,-38 -14,0 -29,0 -44,0 -6,0 -11,0 -15,5 -6,10 -5,39 -5,51 0,75 43,39 47,70 1,7 2,14 2,21 0,8 0,40 -12,40 -14,0 -14,-44 -14,-54 0,-8 1,-13 -10,-13 -5,0 -8,2 -10,7 -4,13 -5,44 -5,58 0,7 0,37 10,37l0 0z"/>
  <path d="M1136 190c-3,4 -7,7 -9,11 -2,3 -3,3 -2,-1 0,-12 1,-26 2,-38 0,-4 1,-6 3,-8 0,-1 1,-1 1,-1 5,-1 7,0 8,5 4,11 2,21 -3,32zm-28 101c2,1 4,2 9,2l30 0c21,0 18,-58 16,-69 0,-5 -3,-7 -7,-7l-3 0c-3,1 -5,3 -5,6 0,9 0,25 -5,34 -2,3 -5,4 -8,4 -3,0 -6,-2 -7,-8 -3,-8 -5,-26 2,-32 10,-10 21,-20 29,-31 9,-15 10,-34 7,-51 -2,-8 -7,-17 -18,-17 -4,0 -11,0 -18,0 -11,0 -23,1 -26,6 -7,9 -7,25 -7,36 0,15 0,43 0,87 0,11 0,33 11,40z"/>
  <path d="M1210 139c-1,-2 -1,-3 -1,-5 0,-3 1,-7 -1,-11l-1 0 -28 0 -2 1 0 0c3,17 5,33 5,49 0,38 -3,75 -3,113 0,2 0,4 0,6l1 1 31 0 1 -1c-2,-26 -3,-52 -3,-79 0,-8 -4,-58 8,-58 11,0 10,33 10,40 0,27 -2,54 -2,81 0,3 -1,16 2,17l30 0c0,0 1,-1 1,-2 0,-6 -2,-13 -2,-19 -2,-14 -3,-27 -3,-41 0,-26 2,-52 2,-78 0,-6 -2,-30 -11,-30 -6,0 -13,0 -19,0 -8,0 -11,16 -13,16l-2 0 0 0z"/>
  <path d="M1267 244c0,10 1,45 12,48 5,2 33,1 40,1 17,0 14,-33 14,-44 0,-10 -1,-20 -1,-30 -2,-28 -33,-30 -33,-49 0,-6 1,-12 8,-12 14,0 1,25 15,25 10,0 8,-17 8,-23 0,-11 0,-25 -8,-35 -2,-2 -6,-2 -10,-2 -6,0 -31,0 -31,1 -10,3 -11,21 -11,30 0,13 0,33 10,43 14,15 26,15 26,38 0,8 0,22 -11,22 -11,0 -11,-20 -11,-28 0,-10 3,-17 -10,-17 -1,0 -4,3 -5,5 -1,8 -2,18 -2,27z"/>
  <path d="M1391 224c0,7 1,38 -8,38 -14,0 -12,-64 -12,-75 0,-5 -1,-34 7,-34 14,0 13,61 13,71zm-5 70c5,0 12,0 17,-2 19,-7 16,-69 16,-87 0,-17 2,-69 -13,-78 -4,-3 -12,-5 -17,-5 -8,0 -16,0 -24,1 -8,0 -13,4 -16,11 -6,16 -6,49 -6,67 0,20 0,40 1,60 4,32 14,33 42,33z"/>
 </g>
 </g>
</svg>
