<?xml version="1.0" encoding="UTF-8"?>
<!DOCTYPE svg PUBLIC "-//W3C//DTD SVG 1.1//EN" "http://www.w3.org/Graphics/SVG/1.1/DTD/svg11.dtd">
<svg xmlns="http://www.w3.org/2000/svg" xml:space="preserve" width="709px" height="118px" version="1.1" style="shape-rendering:geometricPrecision; text-rendering:geometricPrecision; image-rendering:optimizeQuality; fill-rule:evenodd; clip-rule:evenodd"
viewBox="0 0 7090 1182"
 xmlns:xlink="http://www.w3.org/1999/xlink">
 <defs>
  <style type="text/css">
   <![CDATA[
    .c1 {fill:none}
    .c2 {fill:#a00;fill-rule:nonzero}
   ]]>
  </style>
 </defs>
 <g>
  <rect class="c1" width="7090" height="1182"/>
  <g class="c2">
  <path d="M1683 881c-7,1 -14,-1 -20,-6 -6,-5 -9,-11 -9,-19 0,-6 3,-12 8,-16 5,-4 11,-6 17,-6 7,0 13,3 17,9 4,6 6,12 6,18 0,4 0,7 -1,10 -1,3 -1,6 -2,9 1,4 5,7 11,8 5,1 11,2 17,4 6,2 12,4 17,8 5,4 7,10 7,20 0,4 -2,8 -5,12 -3,4 -7,7 -11,10 -7,0 -12,-3 -17,-9 -5,-6 -10,-10 -15,-13 -5,1 -8,3 -11,7 -3,3 -7,6 -11,9 -4,3 -9,6 -15,8 -6,2 -14,4 -24,4 -19,0 -34,-6 -45,-16 -12,-11 -21,-25 -27,-41 -7,-16 -11,-33 -13,-51 -2,-18 -3,-34 -3,-48 0,-30 3,-61 8,-91 5,-30 8,-60 8,-91 0,-20 -2,-42 -5,-64 -3,-22 -10,-42 -19,-60 -9,-18 -22,-32 -38,-44 -17,-11 -38,-17 -64,-17 -25,0 -47,6 -64,17 -17,11 -30,25 -41,43 -10,17 -17,38 -22,60 -5,23 -8,46 -10,70 -1,24 -2,47 -2,69 1,23 1,43 1,60 0,12 0,28 1,48 1,20 3,40 8,60 5,20 12,36 21,50 9,15 23,22 41,22 9,0 18,-2 27,-4 9,-2 17,-5 25,-8 9,-3 17,-6 25,-8 9,-2 17,-4 26,-4 5,0 7,3 7,9 0,9 -3,17 -10,23 -6,6 -13,10 -22,14 -9,3 -18,5 -28,6 -9,1 -18,2 -25,2 -13,0 -27,-2 -40,-4 -13,-3 -26,-6 -39,-10 -13,-4 -26,-7 -39,-9 -13,-3 -26,-4 -39,-4 -12,0 -24,1 -35,3 -11,2 -23,5 -34,8 -11,3 -23,6 -34,8 -11,2 -23,4 -35,4 -6,0 -13,-1 -20,-2 -8,-2 -14,-4 -20,-7 -6,-4 -11,-8 -15,-13 -4,-5 -6,-11 -6,-19 0,-9 1,-19 5,-30 3,-10 10,-16 22,-16 11,0 18,3 22,9 3,6 5,12 6,18 0,7 1,13 3,19 1,6 5,9 12,9 14,0 26,-6 35,-18 9,-12 17,-27 23,-45 6,-18 11,-38 14,-60 3,-22 6,-44 7,-66 1,-21 2,-41 2,-59 1,-18 1,-31 1,-41 0,-22 -1,-46 -2,-74 -1,-28 -4,-56 -7,-85 -3,-28 -8,-56 -14,-83 -6,-26 -14,-49 -23,-69 -2,-4 -5,-8 -8,-14 -3,-5 -6,-10 -11,-15 -4,-5 -9,-9 -13,-13 -5,-3 -10,-5 -14,-5l-1 0 -4 4c0,4 0,8 -1,13 0,4 -1,8 -2,12 -1,3 -3,6 -5,9 -3,2 -7,3 -12,3 -6,0 -11,-3 -15,-11 -4,-7 -6,-13 -6,-19 0,-9 2,-17 6,-23 4,-7 9,-12 15,-15 7,-4 14,-6 21,-8 8,-1 16,-2 24,-2 13,0 25,2 37,4 13,3 25,6 38,9 13,3 25,6 37,8 13,3 25,4 38,4 21,0 42,-2 63,-7 21,-4 41,-9 61,-15 21,-5 41,-10 62,-15 21,-5 42,-7 63,-7 7,0 18,1 32,3 13,2 27,5 41,9 13,4 25,10 35,16 10,7 15,15 15,25 0,6 -3,13 -8,20 -5,7 -11,10 -18,10 -9,0 -15,-4 -17,-13 -3,-8 -4,-16 -4,-23l-3 -5c-9,-4 -17,-7 -26,-8 -9,0 -19,-1 -28,-1 -46,0 -85,8 -117,24 -32,16 -59,45 -80,87 -2,4 -4,10 -7,16 -3,7 -6,14 -9,21 -3,7 -5,14 -7,20 -2,7 -3,12 -3,16 0,4 1,8 3,11l4 2 4 -2c23,-31 48,-56 75,-75 27,-18 60,-28 101,-28 29,0 56,5 81,16 25,10 46,24 65,42 19,18 34,40 45,64 11,25 16,52 16,81 0,36 -6,69 -18,97 -12,28 -25,55 -40,80 -15,26 -28,51 -40,75 -12,24 -18,50 -18,77 0,6 1,13 3,19 2,6 5,12 8,18 3,5 8,9 13,13 5,4 11,6 18,6 11,0 21,-5 29,-15 7,-9 12,-19 15,-29l-2 -3z"/>
  <path d="M1771 566c0,-11 2,-26 5,-44 3,-19 8,-37 14,-57 5,-19 12,-38 19,-56 7,-18 14,-32 20,-42 32,-44 70,-79 112,-104 43,-24 93,-37 149,-37 37,0 71,6 102,17 32,12 60,27 85,47 25,20 47,44 66,72 20,27 36,58 48,91 9,23 15,45 17,68 2,22 3,45 3,69 0,41 -5,80 -17,117 -11,38 -27,72 -49,103 -21,32 -47,59 -77,82 -30,24 -65,42 -104,55 -9,3 -19,6 -30,8 -11,2 -21,3 -31,3 -52,0 -99,-12 -141,-34 -41,-22 -76,-52 -104,-89 -29,-36 -50,-78 -65,-125 -15,-47 -22,-95 -22,-144zm271 338c6,0 10,-2 11,-7 1,-5 2,-10 3,-16 2,-6 4,-11 8,-16 4,-5 12,-8 23,-8 16,0 26,5 32,14 5,9 10,20 12,32l4 6 3 -2c17,-8 33,-22 48,-41 15,-18 28,-39 40,-62 12,-22 21,-45 29,-68 8,-23 14,-44 17,-62 6,-34 9,-68 9,-103 0,-26 -1,-52 -4,-79 -3,-26 -8,-52 -16,-78 -8,-25 -18,-49 -31,-72 -13,-23 -29,-44 -49,-63 -5,-5 -11,-10 -18,-15 -7,-4 -14,-7 -22,-7 -7,0 -11,3 -13,8 -1,5 -2,10 -3,17 -1,6 -3,12 -6,17 -3,5 -10,7 -22,7 -10,0 -18,-5 -23,-16 -5,-11 -8,-21 -10,-30l-3 -3c-4,2 -10,4 -16,9 -7,4 -13,9 -20,14 -6,5 -13,10 -18,15 -6,6 -10,10 -14,13 -13,14 -24,31 -34,54 -9,22 -17,46 -23,71 -6,25 -10,50 -13,75 -2,25 -4,46 -4,64 0,28 1,57 4,86 2,29 7,57 14,85 7,28 17,55 30,80 13,26 30,48 51,68 4,4 7,7 11,9 4,3 9,4 13,4z"/>
  <path d="M3031 277c-12,6 -21,17 -29,33 -8,16 -15,35 -20,56 -5,21 -9,44 -12,68 -3,25 -5,49 -6,72 -1,23 -1,44 -2,64 0,20 0,36 0,48l0 107c0,10 1,24 3,44 3,20 6,40 11,60 4,20 10,39 16,56 7,18 14,28 23,33l4 -3c4,-6 9,-13 15,-21 6,-8 13,-12 21,-12 7,0 13,3 18,8 4,6 7,12 7,19 0,7 -2,13 -6,18 -4,5 -9,9 -15,12 -6,3 -13,5 -19,7 -7,1 -13,2 -19,2 -6,0 -13,-2 -22,-6 -8,-4 -17,-8 -25,-13 -9,-6 -17,-12 -24,-18 -7,-6 -12,-12 -14,-17 -2,-2 -4,-6 -6,-12 -3,-5 -6,-8 -9,-8 -1,0 -4,3 -9,8 -6,5 -11,11 -17,17 -6,6 -12,12 -18,18 -5,6 -10,9 -12,11 -16,9 -33,16 -52,20 -19,4 -37,7 -54,7 -31,0 -61,-6 -91,-16 -30,-11 -57,-26 -83,-44 -26,-18 -50,-40 -71,-64 -21,-24 -39,-49 -53,-76 -11,-22 -19,-46 -23,-70 -4,-24 -7,-49 -7,-75 0,-48 8,-95 22,-141 14,-45 35,-85 64,-120 28,-35 62,-63 103,-84 40,-21 87,-32 140,-32 19,0 36,1 50,4 14,2 28,6 40,12 12,6 23,14 33,24 11,10 21,23 33,38l7 0c6,-10 13,-19 20,-28 6,-8 14,-16 22,-23 8,-7 17,-13 26,-17 10,-4 21,-6 35,-6 13,0 25,4 36,11 11,7 17,18 17,32 0,14 -6,20 -17,20 -16,0 -24,-7 -25,-21l-6 -2zm-128 314c0,-15 -1,-34 -3,-56 -2,-22 -6,-44 -10,-68 -5,-23 -11,-46 -19,-70 -7,-23 -17,-44 -29,-63 -12,-18 -25,-33 -41,-45 -16,-11 -35,-17 -55,-17 -23,0 -44,8 -63,24 -24,20 -43,42 -56,68 -14,26 -24,54 -30,83 -7,29 -11,59 -13,89 -2,31 -2,60 -2,88 0,18 2,39 6,63 4,24 9,49 17,74 7,25 16,48 26,70 10,22 22,39 35,51 11,11 23,19 37,24 14,5 28,7 44,7 24,0 44,-5 61,-17 16,-11 30,-26 42,-44 12,-18 21,-38 28,-61 7,-23 13,-47 16,-71 4,-24 6,-47 7,-70 1,-22 2,-42 2,-59z"/>
  <path d="M3360 566c0,-11 2,-26 5,-44 3,-19 8,-37 13,-57 6,-19 12,-38 19,-56 7,-18 14,-32 21,-42 32,-44 69,-79 112,-104 43,-24 92,-37 149,-37 37,0 71,6 102,17 31,12 60,27 85,47 25,20 47,44 66,72 20,27 36,58 48,91 9,23 14,45 17,68 2,22 3,45 3,69 0,41 -5,80 -17,117 -11,38 -27,72 -49,103 -21,32 -47,59 -77,82 -31,24 -65,42 -104,55 -9,3 -19,6 -30,8 -11,2 -22,3 -31,3 -53,0 -100,-12 -141,-34 -41,-22 -76,-52 -105,-89 -28,-36 -49,-78 -64,-125 -15,-47 -22,-95 -22,-144zm271 338c6,0 10,-2 11,-7 1,-5 2,-10 3,-16 1,-6 4,-11 8,-16 4,-5 12,-8 23,-8 15,0 26,5 32,14 5,9 9,20 12,32l4 6 3 -2c17,-8 33,-22 48,-41 15,-18 28,-39 40,-62 11,-22 21,-45 29,-68 8,-23 14,-44 17,-62 6,-34 9,-68 9,-103 0,-26 -1,-52 -4,-79 -3,-26 -9,-52 -16,-78 -8,-25 -18,-49 -31,-72 -13,-23 -30,-44 -49,-63 -5,-5 -11,-10 -18,-15 -7,-4 -15,-7 -22,-7 -7,0 -12,3 -13,8 -1,5 -2,10 -3,17 -1,6 -3,12 -6,17 -3,5 -11,7 -22,7 -11,0 -18,-5 -23,-16 -5,-11 -9,-21 -10,-30l-3 -3c-5,2 -10,4 -16,9 -7,4 -13,9 -20,14 -7,5 -13,10 -18,15 -6,6 -11,10 -14,13 -13,14 -25,31 -34,54 -9,22 -17,46 -23,71 -6,25 -10,50 -13,75 -3,25 -4,46 -4,64 0,28 1,57 3,86 3,29 7,57 14,85 7,28 17,55 31,80 13,26 30,48 51,68 3,4 7,7 11,9 4,3 8,4 13,4z"/>
  <path d="M4383 248c18,0 35,1 52,1 18,1 35,3 52,6 25,4 48,14 69,28 22,15 40,33 56,54 15,21 27,44 36,68 9,25 14,49 14,73 0,28 -5,56 -13,86 -9,30 -22,58 -38,82 -17,25 -38,45 -62,61 -24,16 -52,24 -84,24 -17,0 -32,-3 -46,-10 -14,-7 -25,-16 -35,-28 -10,-11 -17,-24 -23,-40 -5,-15 -8,-31 -8,-47 0,-3 1,-9 2,-17 1,-8 2,-16 4,-25 2,-9 5,-17 7,-25 2,-7 5,-12 7,-14l-4 -6 -2 -1c-8,1 -17,-1 -27,-5 -10,-5 -15,-12 -15,-22 0,-13 7,-20 19,-20 12,0 19,2 22,7 4,4 7,6 10,6 4,0 7,-2 9,-6 2,-4 5,-8 7,-12 3,-5 6,-9 9,-13 4,-4 8,-6 14,-6 6,0 11,2 16,6 6,3 8,8 8,14 0,6 -2,12 -7,20 -5,7 -8,14 -8,18 0,2 2,3 4,3 9,2 18,4 28,7 10,3 15,10 15,22 0,7 -3,12 -11,17 -8,4 -14,6 -20,6 -7,0 -13,-3 -18,-9 -4,-7 -9,-10 -14,-10 -4,0 -8,3 -12,10 -4,6 -7,13 -9,21 -2,8 -3,16 -4,24 -1,8 -2,14 -2,18 0,10 1,19 3,28 2,10 5,18 9,25 4,8 10,14 17,18 8,5 17,7 28,7 19,0 34,-5 46,-16 12,-11 21,-25 27,-41 7,-16 12,-33 14,-51 2,-18 3,-34 3,-48 0,-26 -1,-55 -4,-86 -2,-30 -9,-59 -19,-85 -10,-26 -26,-47 -46,-65 -20,-17 -48,-26 -83,-26 -13,0 -27,2 -43,5 -15,4 -28,12 -39,25 -10,14 -19,30 -26,48 -6,19 -11,39 -15,62 -3,22 -5,44 -7,65 -2,22 -3,42 -3,61 0,19 0,34 0,45 0,20 1,40 3,60 2,20 3,39 4,59 2,34 7,65 13,92 7,28 18,51 32,69 15,19 35,33 59,44 24,9 55,15 93,15 16,0 30,-2 43,-4 14,-3 27,-8 40,-16l2 -4c0,-8 2,-17 4,-26 2,-9 9,-14 20,-14 8,0 14,3 19,7 6,4 9,10 9,18 0,14 -4,25 -12,33 -9,9 -18,16 -30,21 -11,5 -23,8 -37,10 -13,2 -25,3 -35,3 -20,0 -39,-2 -58,-5 -19,-4 -38,-7 -58,-11 -19,-4 -38,-8 -57,-11 -19,-4 -39,-5 -59,-5 -16,0 -33,1 -49,4 -16,2 -32,5 -48,9 -16,4 -32,7 -48,10 -17,2 -33,4 -50,4 -11,0 -21,-4 -30,-11 -8,-8 -13,-18 -13,-30 0,-6 1,-11 4,-17 2,-5 7,-8 14,-8 9,0 15,3 18,8 3,6 5,12 5,18 1,7 2,13 2,19 1,5 4,8 8,8 5,0 9,-2 13,-6 3,-4 7,-8 9,-11 14,-20 24,-42 33,-66 8,-24 14,-48 19,-74 4,-25 7,-50 8,-76 2,-26 2,-50 2,-74 0,-11 0,-27 0,-47 -1,-20 -1,-42 -3,-66 -1,-25 -3,-49 -6,-75 -3,-25 -7,-49 -12,-71 -5,-22 -12,-41 -19,-56 -8,-16 -17,-26 -29,-30l-4 4c-1,5 -4,11 -9,17 -4,7 -9,10 -15,10 -7,0 -14,-3 -21,-10 -6,-7 -10,-14 -10,-22 0,-13 4,-22 13,-28 8,-5 18,-8 30,-8 10,0 19,2 28,5 8,4 17,6 26,8 15,4 30,6 45,7 16,1 31,1 46,1 32,0 64,-3 94,-9 31,-6 62,-9 94,-9z"/>
  <path d="M5340 271c-4,-1 -7,-2 -10,-2 -1,0 -3,1 -5,1 -1,1 -3,2 -4,2 -13,6 -25,17 -35,32 -9,15 -18,32 -24,52 -7,19 -12,41 -16,63 -4,23 -7,45 -10,67 -2,22 -4,43 -4,62 -1,20 -1,36 -1,49 0,26 1,57 3,92 3,36 8,70 17,103 9,34 23,64 41,90 18,27 42,45 73,55l5 4c0,1 0,2 -1,2 -10,2 -20,4 -30,6 -9,2 -19,3 -29,3 -17,0 -32,-4 -46,-11 -14,-7 -27,-15 -37,-23 -11,-9 -20,-17 -26,-24 -7,-7 -11,-11 -12,-11 -6,0 -11,3 -15,8 -5,5 -10,9 -15,11 -31,16 -62,29 -94,40 -32,10 -66,16 -100,16 -28,0 -54,-4 -80,-12 -26,-8 -51,-20 -73,-34 -22,-15 -42,-33 -60,-54 -18,-20 -32,-43 -43,-68 -12,-24 -19,-47 -22,-68 -4,-20 -5,-44 -5,-72 0,-44 8,-86 24,-126 16,-39 37,-77 63,-113 17,-24 36,-45 57,-63 21,-18 42,-37 63,-58 -2,-4 -7,-7 -15,-10 -8,-3 -16,-6 -25,-8 -9,-3 -18,-4 -26,-5 -9,-1 -16,-2 -20,-2 -10,0 -19,2 -27,4l-3 3c1,4 3,8 6,11 3,3 5,7 5,12 0,8 -3,13 -9,17 -6,4 -11,6 -17,6 -11,0 -18,-3 -22,-9 -4,-6 -5,-13 -5,-23 0,-11 4,-20 12,-27 8,-6 17,-12 28,-15 11,-4 22,-6 34,-8 12,-1 22,-2 30,-2 20,0 41,2 61,6 20,4 41,8 61,13 20,4 40,8 61,12 20,4 41,6 62,6 16,0 33,-1 49,-2 17,-2 33,-4 49,-7 23,-3 46,-8 69,-15 23,-7 47,-11 72,-11 6,0 13,1 21,2 8,1 16,3 23,6 8,3 14,7 19,12 5,6 8,12 8,20 0,10 -3,18 -9,24 -5,7 -13,10 -22,10 -7,0 -13,-2 -16,-8 -3,-5 -5,-11 -5,-19 0,-2 0,-3 1,-5 1,-1 2,-3 3,-5l-2 -2zm-339 12c-8,0 -15,1 -23,3 -7,1 -15,4 -21,8 -24,16 -44,35 -60,59 -16,24 -28,50 -37,78 -9,28 -15,57 -18,87 -4,29 -5,58 -5,84 0,14 0,31 1,51 1,21 3,43 7,67 3,24 8,47 14,71 6,24 13,45 23,64 9,20 21,35 35,47 14,13 30,19 49,19 22,0 41,-6 57,-17 17,-11 31,-25 42,-42 12,-16 22,-34 30,-54 8,-20 15,-38 21,-56 3,-10 6,-23 9,-39 2,-16 4,-33 6,-51 1,-18 2,-35 3,-52 0,-16 1,-30 1,-42 0,-14 -1,-32 -2,-51 -1,-20 -3,-40 -6,-61 -4,-21 -8,-42 -14,-63 -6,-20 -14,-39 -24,-55 -10,-17 -22,-30 -37,-40 -14,-10 -31,-15 -51,-15z"/>
  <path d="M5731 219c17,0 33,3 48,7 15,5 29,10 42,16 13,5 25,11 36,15 11,5 22,7 32,7 11,0 20,-1 28,-5 7,-3 14,-7 20,-10 5,-4 10,-7 15,-11 4,-3 8,-5 11,-5 8,0 13,3 17,10 3,6 6,13 8,22 1,8 2,17 3,25 0,9 0,16 0,20 0,19 -1,37 -5,56 -3,18 -5,36 -5,54 0,11 2,22 5,34l3 2c4,-1 8,-4 11,-7 3,-4 7,-6 12,-6 7,0 12,3 16,8 3,5 5,10 5,16 0,8 -3,15 -9,22 -6,8 -12,11 -20,11 -6,0 -12,-1 -19,-2 -7,-2 -13,-5 -18,-9 -9,-8 -17,-20 -24,-34 -7,-14 -14,-26 -19,-38 -24,-49 -56,-89 -97,-119 -41,-31 -90,-46 -147,-46 -21,0 -39,4 -55,12 -16,7 -30,18 -41,31 -11,13 -19,28 -25,45 -5,17 -8,35 -8,54 0,8 1,15 3,23 3,7 5,15 8,22 7,20 21,34 41,44 21,10 45,18 73,24 27,6 57,11 90,16 33,4 65,11 96,19 31,9 59,21 86,37 27,16 48,37 64,64 10,17 17,33 23,49 6,16 9,33 9,52 0,34 -7,65 -22,93 -14,28 -34,51 -57,70 -24,19 -51,34 -81,44 -31,10 -62,16 -93,16 -38,0 -76,-5 -113,-15 -37,-10 -72,-25 -104,-43 -15,-9 -33,-14 -52,-14 -3,0 -6,3 -9,9 -3,6 -6,12 -10,19 -4,6 -9,12 -14,18 -5,6 -12,9 -21,9 -7,0 -12,-3 -15,-7 -3,-5 -4,-10 -4,-16 0,-9 1,-18 4,-27 3,-8 6,-17 9,-26 4,-9 8,-18 11,-27 4,-9 7,-18 8,-27 1,-9 2,-18 3,-28 1,-10 1,-19 1,-29 0,-20 -5,-40 -16,-60l-4 -1c-5,2 -10,4 -13,6 -3,2 -7,2 -14,2 -7,0 -14,-2 -20,-8 -5,-6 -8,-13 -8,-21 0,-12 5,-21 15,-28 10,-6 21,-10 32,-10 18,0 32,5 43,15 11,10 21,23 30,39 9,16 18,34 27,54 9,20 20,40 33,60 13,20 30,38 50,56 20,18 46,33 77,45 14,5 28,9 42,12 14,2 29,4 44,4 17,0 34,-3 53,-7 18,-4 35,-11 50,-21 15,-9 28,-21 38,-35 10,-14 15,-31 15,-51 0,-17 -5,-35 -16,-53 -11,-18 -23,-32 -36,-44 -23,-19 -49,-33 -78,-41 -30,-8 -61,-14 -92,-19 -32,-5 -63,-10 -93,-16 -31,-6 -58,-15 -82,-28 -24,-13 -43,-32 -58,-57 -15,-25 -22,-59 -22,-103 0,-34 7,-65 20,-94 14,-28 32,-53 55,-74 23,-20 49,-37 80,-48 30,-12 61,-18 94,-18z"/>
  </g>
  </g>
</svg>
