<?xml version="1.0" encoding="UTF-8"?>
<!DOCTYPE svg PUBLIC "-//W3C//DTD SVG 1.1//EN" "http://www.w3.org/Graphics/SVG/1.1/DTD/svg11.dtd">
<svg xmlns="http://www.w3.org/2000/svg" xml:space="preserve" width="709px" height="118px" version="1.1" style="shape-rendering:geometricPrecision; text-rendering:geometricPrecision; image-rendering:optimizeQuality; fill-rule:evenodd; clip-rule:evenodd"
viewBox="0 0 5908 985"
 xmlns:xlink="http://www.w3.org/1999/xlink">
 <defs>
  <style type="text/css">
   <![CDATA[
    .c1 {fill:#eee}
    .c2 {fill:#000}
   ]]>
  </style>
 </defs>
 <g>
  <rect class="c1" width="5908" height="985"/>
  <g class="c2">
  <path d="M1100 735c-6,0 -11,-2 -16,-6 -5,-4 -8,-9 -8,-15 0,-6 2,-10 7,-14 4,-3 9,-5 14,-5 6,0 11,3 14,7 4,5 5,10 5,16 0,3 0,5 -1,8 0,2 -1,5 -1,8 1,3 4,5 8,6 5,1 10,2 15,3 5,2 10,4 14,7 4,3 6,8 6,16 0,4 -1,8 -4,11 -3,3 -6,5 -9,8 -6,0 -11,-3 -14,-8 -4,-4 -9,-8 -13,-11 -4,1 -7,3 -10,6 -2,3 -5,5 -8,8 -4,2 -8,5 -13,7 -5,2 -12,3 -20,3 -15,0 -28,-5 -38,-14 -10,-9 -17,-20 -22,-33 -6,-13 -9,-28 -11,-43 -1,-15 -2,-28 -2,-40 0,-25 2,-50 6,-76 5,-25 7,-50 7,-75 0,-18 -1,-35 -4,-54 -3,-18 -8,-35 -16,-50 -8,-15 -18,-27 -32,-36 -14,-10 -31,-15 -53,-15 -21,0 -39,5 -53,14 -14,9 -25,21 -34,36 -9,15 -15,32 -19,50 -4,19 -6,39 -8,58 -1,20 -2,39 -1,58 0,19 0,36 0,50 0,10 0,24 1,40 0,17 3,34 7,50 3,16 9,30 17,42 8,12 19,18 34,18 8,0 16,-1 23,-3 7,-2 14,-5 21,-7 7,-3 14,-5 21,-7 7,-2 14,-3 21,-3 4,0 6,3 6,7 0,8 -3,14 -8,19 -5,5 -12,9 -19,12 -7,3 -15,5 -23,5 -8,1 -15,2 -21,2 -11,0 -22,-2 -33,-4 -11,-2 -22,-5 -32,-8 -11,-3 -22,-5 -33,-8 -11,-2 -22,-3 -33,-3 -10,0 -20,1 -29,3 -9,2 -19,4 -28,7 -10,2 -19,4 -29,6 -9,2 -19,3 -29,3 -5,0 -10,0 -17,-1 -6,-2 -11,-3 -16,-6 -5,-3 -9,-7 -13,-11 -3,-4 -5,-9 -5,-16 0,-7 2,-15 4,-24 3,-9 9,-13 19,-13 9,0 15,2 18,7 3,4 5,10 5,15 1,6 1,11 3,15 1,5 4,8 10,8 11,0 21,-5 29,-15 8,-10 14,-22 19,-37 5,-15 9,-32 12,-51 2,-18 4,-36 5,-54 2,-18 2,-34 3,-49 0,-15 0,-27 0,-35 0,-18 -1,-39 -2,-62 -1,-23 -3,-46 -6,-70 -2,-24 -6,-47 -11,-69 -5,-23 -12,-42 -19,-58 -2,-3 -4,-7 -7,-12 -2,-4 -5,-8 -9,-12 -3,-5 -7,-8 -11,-11 -4,-3 -8,-4 -12,-4l-1 0 -3 3c0,4 0,7 0,11 -1,3 -1,7 -2,10 -1,3 -2,5 -5,7 -2,2 -5,3 -10,3 -5,0 -9,-3 -12,-9 -3,-6 -5,-11 -5,-16 0,-8 2,-14 5,-19 3,-6 8,-10 13,-13 5,-3 11,-5 17,-6 7,-1 13,-2 20,-2 11,0 21,1 31,3 10,3 21,5 31,8 11,2 21,4 32,7 10,2 20,3 31,3 18,0 35,-2 53,-6 17,-4 34,-8 51,-12 17,-5 34,-9 51,-13 17,-4 35,-6 53,-6 6,0 14,1 26,3 11,1 23,4 34,7 11,4 21,8 30,14 8,5 12,12 12,20 0,5 -2,11 -7,17 -4,6 -9,8 -15,8 -7,0 -12,-3 -14,-10 -2,-8 -3,-14 -3,-20l-3 -4c-7,-4 -14,-6 -22,-6 -7,-1 -15,-1 -23,-1 -38,0 -70,6 -97,20 -27,13 -49,37 -67,72 -1,4 -3,8 -6,14 -2,5 -4,11 -7,17 -2,6 -4,11 -6,17 -2,5 -2,10 -2,13 0,4 0,7 2,9l3 2 4 -2c19,-26 40,-47 62,-62 22,-16 51,-23 84,-23 24,0 47,4 68,12 20,9 39,21 54,36 16,15 28,33 37,53 9,21 14,43 14,68 0,30 -5,57 -15,80 -10,24 -21,46 -33,67 -13,21 -24,42 -34,62 -10,21 -15,42 -15,65 0,5 1,10 3,15 1,6 4,11 6,15 3,5 7,8 11,11 5,3 10,5 15,5 10,0 18,-4 24,-12 6,-8 11,-16 13,-24l-2 -2z"/>
  <path d="M1174 472c0,-10 1,-22 4,-37 3,-15 6,-31 11,-47 5,-16 10,-32 16,-47 6,-15 12,-27 17,-35 27,-37 58,-66 93,-87 36,-20 77,-31 125,-31 30,0 59,5 85,15 26,9 49,22 70,39 21,16 39,36 56,59 16,24 29,49 40,77 7,19 11,37 13,56 2,19 3,38 3,58 0,34 -4,66 -14,97 -9,32 -23,60 -41,86 -18,26 -39,49 -64,69 -26,19 -54,34 -87,45 -7,3 -16,5 -25,6 -9,2 -18,3 -25,3 -44,0 -84,-9 -118,-28 -35,-19 -64,-43 -87,-74 -24,-30 -42,-65 -54,-104 -12,-40 -18,-79 -18,-120zm226 282c5,0 8,-2 8,-7 1,-4 2,-8 3,-13 1,-5 4,-9 7,-13 3,-4 10,-6 19,-6 13,0 22,3 26,11 5,7 9,16 11,27l3 4 3 -1c14,-7 27,-18 39,-34 13,-16 24,-33 34,-52 9,-19 18,-38 24,-57 7,-19 12,-36 14,-51 5,-28 8,-57 8,-86 0,-22 -1,-44 -4,-66 -2,-22 -7,-44 -13,-65 -7,-21 -15,-41 -26,-60 -11,-19 -24,-37 -40,-52 -5,-5 -10,-9 -16,-13 -6,-4 -12,-6 -18,-6 -6,0 -10,2 -11,7 -1,4 -2,8 -3,14 0,5 -2,10 -5,14 -2,4 -8,6 -17,6 -9,0 -16,-4 -20,-14 -4,-9 -7,-17 -8,-24l-3 -3c-3,1 -8,4 -13,7 -6,4 -11,8 -17,12 -5,4 -10,9 -15,13 -5,4 -8,8 -11,11 -11,11 -21,26 -29,44 -7,19 -14,39 -19,60 -5,20 -8,41 -11,62 -2,21 -3,39 -3,54 0,23 1,47 3,71 2,24 6,48 12,72 6,23 14,45 25,66 11,21 25,40 43,57 2,3 5,5 9,7 3,3 7,4 11,4z"/>
  <path d="M2223 231c-9,5 -17,14 -24,27 -6,14 -12,29 -16,47 -4,17 -8,36 -10,57 -3,20 -4,40 -5,59 -1,20 -1,38 -2,54 0,17 0,30 0,40l0 90c0,7 1,19 3,36 2,16 5,33 9,50 3,17 8,32 13,47 6,14 12,23 19,27l3 -2c4,-5 8,-11 13,-18 5,-6 11,-10 17,-10 7,0 12,3 15,7 4,5 6,10 6,16 0,5 -1,10 -5,14 -3,5 -7,8 -12,10 -5,3 -11,5 -16,6 -6,1 -11,2 -16,2 -5,0 -11,-2 -18,-5 -7,-3 -14,-7 -21,-11 -7,-5 -14,-10 -20,-15 -6,-5 -10,-10 -12,-14 -1,-2 -3,-5 -5,-10 -2,-4 -5,-6 -7,-6 -1,0 -3,2 -8,6 -4,4 -9,9 -14,14 -5,5 -10,10 -15,15 -4,5 -8,8 -10,9 -13,8 -27,13 -43,17 -16,4 -31,5 -45,5 -26,0 -51,-4 -76,-13 -25,-9 -48,-21 -69,-36 -22,-15 -42,-33 -59,-53 -18,-20 -32,-41 -44,-63 -9,-19 -16,-39 -20,-59 -3,-21 -5,-41 -5,-62 0,-41 6,-80 18,-118 12,-38 30,-71 53,-100 23,-30 52,-53 86,-70 34,-18 73,-27 116,-27 17,0 31,1 43,3 12,2 22,6 32,11 10,5 20,11 28,20 9,8 18,19 28,31l5 0c6,-8 11,-16 17,-23 6,-7 12,-14 18,-20 7,-5 14,-10 22,-13 9,-4 18,-5 29,-5 11,0 21,3 31,8 9,6 13,15 13,27 0,12 -4,17 -14,17 -13,0 -20,-6 -21,-17l-5 -2zm-106 262c0,-13 -1,-29 -3,-47 -2,-18 -4,-37 -8,-57 -4,-19 -9,-39 -16,-58 -6,-19 -14,-37 -24,-52 -9,-16 -21,-29 -34,-38 -14,-9 -29,-14 -46,-14 -19,0 -37,6 -53,20 -20,16 -35,35 -46,57 -12,21 -20,44 -25,68 -6,24 -9,49 -11,75 -1,25 -2,50 -2,73 0,15 2,32 5,52 3,21 8,41 14,62 6,21 14,41 22,59 9,18 19,32 29,42 10,9 20,16 31,20 12,4 24,6 37,6 20,0 37,-4 50,-14 14,-9 26,-22 36,-37 10,-15 17,-32 23,-51 6,-19 11,-39 14,-59 3,-20 5,-39 5,-58 1,-19 2,-35 2,-49z"/>
  <path d="M3029 735c-6,0 -12,-2 -17,-6 -5,-4 -7,-9 -7,-15 0,-6 2,-10 6,-14 5,-3 9,-5 14,-5 7,0 11,3 15,7 3,5 5,10 5,16 0,3 -1,5 -1,8 -1,2 -1,5 -2,8 1,3 4,5 9,6 5,1 9,2 14,3 5,2 10,4 14,7 4,3 6,8 6,16 0,4 -1,8 -4,11 -2,3 -6,5 -9,8 -5,0 -10,-3 -14,-8 -4,-4 -8,-8 -13,-11 -3,1 -7,3 -9,6 -3,3 -6,5 -9,8 -3,2 -7,5 -12,7 -5,2 -12,3 -20,3 -16,0 -29,-5 -38,-14 -10,-9 -18,-20 -23,-33 -5,-13 -9,-28 -10,-43 -2,-15 -3,-28 -3,-40 0,-25 2,-50 7,-76 4,-25 7,-50 7,-75 0,-18 -2,-35 -5,-54 -2,-18 -8,-35 -15,-50 -8,-15 -19,-27 -33,-36 -13,-10 -31,-15 -52,-15 -22,0 -39,5 -53,14 -15,9 -26,21 -35,36 -8,15 -14,32 -18,50 -4,19 -7,39 -8,58 -2,20 -2,39 -2,58 0,19 0,36 0,50 0,10 1,24 1,40 1,17 3,34 7,50 4,16 10,30 17,42 8,12 20,18 35,18 7,0 15,-1 22,-3 7,-2 14,-5 21,-7 7,-3 14,-5 21,-7 7,-2 14,-3 22,-3 3,0 5,3 5,7 0,8 -2,14 -8,19 -5,5 -11,9 -18,12 -8,3 -15,5 -23,5 -8,1 -15,2 -22,2 -11,0 -22,-2 -32,-4 -11,-2 -22,-5 -33,-8 -11,-3 -22,-5 -32,-8 -11,-2 -22,-3 -33,-3 -10,0 -20,1 -30,3 -9,2 -18,4 -28,7 -9,2 -19,4 -28,6 -10,2 -19,3 -29,3 -5,0 -11,0 -17,-1 -6,-2 -12,-3 -17,-6 -5,-3 -9,-7 -12,-11 -4,-4 -5,-9 -5,-16 0,-7 1,-15 4,-24 3,-9 9,-13 18,-13 10,0 16,2 19,7 2,4 4,10 5,15 0,6 1,11 2,15 1,5 4,8 10,8 12,0 21,-5 29,-15 8,-10 14,-22 19,-37 5,-15 9,-32 12,-51 3,-18 5,-36 6,-54 1,-18 2,-34 2,-49 0,-15 0,-27 0,-35 0,-18 0,-39 -1,-62 -1,-23 -3,-46 -6,-70 -3,-24 -7,-47 -12,-69 -5,-23 -11,-42 -19,-58 -2,-3 -4,-7 -6,-12 -3,-4 -6,-8 -9,-12 -4,-5 -8,-8 -12,-11 -4,-3 -7,-4 -11,-4l-1 0 -3 3c0,4 -1,7 -1,11 0,3 -1,7 -2,10 0,3 -2,5 -4,7 -2,2 -6,3 -10,3 -5,0 -9,-3 -13,-9 -3,-6 -5,-11 -5,-16 0,-8 2,-14 5,-19 4,-6 8,-10 13,-13 6,-3 11,-5 18,-6 6,-1 13,-2 19,-2 11,0 21,1 32,3 10,3 20,5 31,8 10,2 21,4 31,7 10,2 21,3 31,3 18,0 36,-2 53,-6 17,-4 34,-8 51,-12 17,-5 34,-9 52,-13 17,-4 34,-6 52,-6 6,0 15,1 26,3 12,1 23,4 34,7 12,4 22,8 30,14 8,5 13,12 13,20 0,5 -3,11 -7,17 -5,6 -10,8 -15,8 -8,0 -13,-3 -15,-10 -2,-8 -3,-14 -3,-20l-2 -4c-7,-4 -15,-6 -22,-6 -8,-1 -15,-1 -23,-1 -38,0 -71,6 -98,20 -26,13 -49,37 -66,72 -2,4 -4,8 -6,14 -2,5 -5,11 -7,17 -3,6 -5,11 -7,17 -1,5 -2,10 -2,13 0,4 1,7 2,9l4 2 3 -2c20,-26 40,-47 63,-62 22,-16 50,-23 84,-23 24,0 46,4 67,12 21,9 39,21 55,36 15,15 28,33 37,53 9,21 13,43 13,68 0,30 -5,57 -15,80 -10,24 -21,46 -33,67 -12,21 -23,42 -33,62 -10,21 -15,42 -15,65 0,5 1,10 2,15 2,6 4,11 7,15 3,5 6,8 11,11 4,3 9,5 15,5 9,0 17,-4 24,-12 6,-8 10,-16 12,-24l-1 -2z"/>
  <path d="M3102 472c0,-10 2,-22 4,-37 3,-15 7,-31 12,-47 4,-16 10,-32 15,-47 6,-15 12,-27 18,-35 26,-37 57,-66 93,-87 35,-20 77,-31 124,-31 31,0 59,5 85,15 26,9 50,22 71,39 20,16 39,36 55,59 16,24 30,49 40,77 7,19 12,37 14,56 2,19 3,38 3,58 0,34 -5,66 -14,97 -10,32 -24,60 -41,86 -18,26 -40,49 -65,69 -25,19 -54,34 -86,45 -8,3 -16,5 -26,6 -9,2 -17,3 -25,3 -44,0 -83,-9 -118,-28 -34,-19 -63,-43 -87,-74 -23,-30 -41,-65 -54,-104 -12,-40 -18,-79 -18,-120zm226 282c5,0 8,-2 9,-7 1,-4 2,-8 3,-13 1,-5 3,-9 6,-13 4,-4 10,-6 20,-6 12,0 21,3 26,11 5,7 8,16 10,27l4 4 2 -1c14,-7 27,-18 40,-34 12,-16 23,-33 33,-52 10,-19 18,-38 25,-57 6,-19 11,-36 14,-51 5,-28 7,-57 7,-86 0,-22 -1,-44 -3,-66 -3,-22 -7,-44 -14,-65 -6,-21 -15,-41 -26,-60 -10,-19 -24,-37 -40,-52 -4,-5 -10,-9 -15,-13 -6,-4 -12,-6 -18,-6 -6,0 -10,2 -11,7 -1,4 -2,8 -3,14 -1,5 -3,10 -5,14 -3,4 -9,6 -18,6 -9,0 -15,-4 -20,-14 -4,-9 -6,-17 -8,-24l-2 -3c-4,1 -9,4 -14,7 -5,4 -11,8 -16,12 -6,4 -11,9 -16,13 -4,4 -8,8 -11,11 -11,11 -20,26 -28,44 -8,19 -14,39 -19,60 -5,20 -9,41 -11,62 -2,21 -3,39 -3,54 0,23 1,47 2,71 2,24 6,48 12,72 6,23 14,45 25,66 11,21 25,40 43,57 3,3 6,5 9,7 4,3 7,4 11,4z"/>
  <path d="M3955 207c15,0 29,0 43,1 15,0 29,2 44,5 20,3 40,11 57,23 18,12 33,27 46,45 13,17 23,36 31,57 7,20 11,41 11,61 0,22 -4,46 -11,71 -7,25 -18,48 -32,69 -14,20 -31,37 -51,50 -20,14 -43,21 -70,21 -14,0 -27,-3 -38,-9 -12,-6 -21,-14 -30,-23 -8,-10 -14,-21 -18,-34 -5,-12 -7,-25 -7,-39 0,-2 0,-7 1,-14 1,-7 2,-14 4,-21 2,-8 4,-14 5,-21 2,-6 5,-10 7,-11l-4 -5 -1 -1c-7,0 -14,-1 -23,-5 -8,-3 -12,-9 -12,-18 0,-11 5,-16 16,-16 9,0 15,2 18,5 3,4 5,6 8,6 4,0 6,-2 8,-5 1,-4 3,-7 6,-11 2,-3 4,-7 7,-10 3,-4 7,-5 12,-5 4,0 9,1 13,4 5,3 7,7 7,12 0,5 -2,10 -7,17 -4,6 -6,11 -6,15 0,2 1,3 4,3 7,1 15,2 23,5 8,2 12,9 12,19 0,5 -3,10 -9,14 -7,3 -12,5 -16,5 -7,0 -12,-3 -15,-8 -4,-5 -8,-8 -12,-8 -4,0 -7,3 -11,8 -3,5 -5,11 -7,18 -1,7 -3,13 -3,20 -1,7 -2,12 -2,15 0,8 1,16 2,23 2,8 4,15 8,21 4,6 8,11 15,15 6,4 13,6 23,6 15,0 28,-5 38,-14 10,-9 17,-20 23,-34 5,-13 9,-27 11,-42 2,-15 3,-28 3,-40 0,-22 -1,-46 -3,-72 -3,-25 -8,-49 -17,-71 -8,-21 -21,-39 -38,-54 -17,-14 -40,-22 -69,-22 -11,0 -23,2 -36,5 -12,2 -23,9 -32,20 -9,12 -16,25 -22,41 -5,15 -10,32 -12,51 -3,18 -5,37 -7,54 -1,18 -2,35 -2,51 0,16 0,28 0,38 0,16 1,33 2,49 2,17 3,33 4,50 2,28 5,54 11,77 6,22 14,42 27,57 12,16 28,28 48,36 21,8 47,13 78,13 13,0 25,-2 36,-4 11,-2 22,-6 34,-12l1 -4c0,-7 1,-14 3,-22 2,-7 8,-11 17,-11 6,0 12,2 16,5 5,4 7,9 7,16 0,11 -4,20 -10,27 -7,8 -15,13 -24,17 -10,5 -20,7 -31,9 -11,1 -21,2 -29,2 -17,0 -33,-1 -49,-4 -16,-3 -32,-6 -48,-9 -16,-4 -32,-7 -48,-10 -16,-2 -32,-4 -49,-4 -14,0 -27,1 -41,4 -13,2 -26,4 -40,7 -13,4 -27,6 -40,8 -14,3 -28,4 -41,4 -10,0 -18,-3 -25,-9 -8,-7 -11,-15 -11,-25 0,-5 1,-9 3,-14 2,-4 6,-6 12,-6 7,0 12,2 14,6 3,5 4,10 5,15 0,6 1,11 2,15 0,5 2,7 6,7 4,0 8,-2 11,-5 3,-3 5,-6 8,-9 11,-16 20,-34 27,-54 7,-20 12,-41 16,-62 3,-21 6,-43 7,-64 1,-21 1,-42 1,-61 0,-10 0,-23 0,-39 0,-17 -1,-36 -2,-56 -1,-20 -3,-41 -6,-62 -2,-21 -5,-41 -10,-59 -4,-18 -9,-34 -15,-47 -7,-13 -15,-22 -24,-25l-4 3c-1,4 -3,9 -7,15 -4,5 -8,8 -13,8 -6,0 -12,-3 -17,-9 -6,-6 -8,-12 -8,-18 0,-11 3,-19 10,-23 7,-4 15,-7 25,-7 9,0 16,2 23,4 7,3 15,5 22,7 13,3 25,5 38,6 13,0 26,1 38,1 27,0 53,-3 79,-8 25,-5 51,-7 78,-7z"/>
  <path d="M4752 226c-3,-1 -6,-2 -8,-2 -1,0 -3,1 -4,1 -1,1 -3,1 -4,2 -11,5 -20,14 -28,26 -9,13 -15,27 -21,43 -5,17 -10,34 -13,53 -4,19 -6,38 -8,56 -2,19 -3,36 -4,52 0,16 -1,30 -1,41 0,21 1,47 3,76 2,30 7,59 14,86 8,28 19,53 34,75 15,23 35,38 61,45l4 4c0,1 0,1 -1,1 -8,2 -16,4 -24,5 -8,2 -17,3 -25,3 -14,0 -27,-3 -38,-9 -12,-6 -22,-12 -31,-19 -9,-8 -16,-14 -22,-20 -5,-6 -9,-9 -10,-9 -4,0 -8,2 -12,6 -4,5 -8,8 -13,10 -25,13 -51,24 -78,33 -27,8 -55,13 -84,13 -22,0 -45,-3 -66,-10 -22,-7 -42,-16 -61,-28 -18,-13 -35,-27 -50,-45 -14,-17 -27,-36 -36,-56 -9,-21 -16,-40 -18,-57 -3,-17 -4,-37 -4,-60 0,-37 6,-72 20,-105 14,-33 31,-64 52,-94 14,-20 30,-38 48,-53 17,-15 35,-31 52,-48 -2,-4 -6,-6 -12,-9 -6,-2 -13,-5 -21,-7 -7,-2 -15,-3 -22,-4 -7,-1 -13,-1 -17,-1 -8,0 -15,1 -22,3l-3 3c1,3 3,6 6,9 2,2 4,6 4,10 0,6 -3,11 -8,14 -4,4 -9,5 -14,5 -9,0 -15,-2 -18,-7 -3,-5 -5,-12 -5,-20 0,-9 4,-16 10,-22 7,-6 15,-10 24,-13 9,-3 19,-5 28,-6 10,-1 18,-2 25,-2 17,0 34,2 51,5 17,3 34,7 51,11 16,3 33,7 51,10 17,3 34,5 51,5 14,0 28,-1 42,-2 13,-1 27,-3 40,-6 19,-2 39,-7 58,-12 19,-6 39,-9 60,-9 5,0 10,0 17,1 7,1 13,3 20,5 6,3 11,6 16,10 4,5 6,10 6,17 0,8 -3,15 -7,20 -5,6 -11,8 -19,8 -6,0 -11,-2 -13,-6 -3,-5 -5,-10 -5,-16 0,-2 1,-3 1,-4 1,-1 2,-3 3,-4l-2 -2zm-283 10c-6,0 -12,1 -18,2 -7,1 -13,4 -18,7 -20,13 -37,29 -50,49 -13,20 -23,42 -31,65 -7,24 -12,48 -15,72 -3,25 -4,49 -4,71 0,11 0,25 1,42 1,18 3,36 5,56 3,20 7,39 12,59 5,20 11,38 19,54 8,16 18,29 29,39 12,10 26,15 41,15 19,0 35,-5 48,-14 14,-9 26,-20 35,-34 10,-14 18,-29 25,-46 7,-16 12,-32 17,-46 3,-8 6,-19 8,-33 2,-14 4,-28 5,-42 1,-15 2,-29 2,-43 1,-14 1,-26 1,-35 0,-13 0,-27 -1,-43 -1,-17 -3,-34 -5,-51 -3,-18 -7,-35 -12,-52 -5,-18 -12,-33 -20,-47 -9,-13 -19,-24 -31,-33 -12,-8 -26,-12 -43,-12z"/>
  <path d="M5078 183c14,0 27,2 40,5 12,4 24,9 35,13 11,5 21,9 30,13 10,4 18,6 27,6 9,0 16,-1 23,-4 6,-3 12,-6 16,-9 5,-3 9,-6 13,-9 4,-2 7,-4 10,-4 6,0 10,3 13,8 3,6 6,12 7,19 1,7 2,14 2,21 1,7 1,13 1,16 0,16 -2,31 -4,47 -3,15 -4,30 -4,45 0,9 1,19 4,29l2 1c4,-1 6,-3 9,-6 2,-3 6,-5 10,-5 6,0 10,2 13,7 3,4 5,8 5,13 0,7 -3,13 -8,19 -5,6 -10,9 -16,9 -5,0 -11,-1 -17,-2 -5,-2 -10,-4 -14,-7 -8,-7 -15,-17 -21,-29 -5,-11 -11,-22 -15,-31 -20,-41 -47,-75 -81,-100 -34,-25 -75,-38 -122,-38 -18,0 -33,3 -46,10 -14,6 -25,15 -34,26 -9,10 -16,23 -21,37 -5,14 -7,29 -7,46 0,6 1,12 3,18 2,7 4,13 6,19 6,16 18,28 35,37 17,8 37,15 60,20 23,5 48,9 75,13 28,3 54,9 80,16 26,7 50,17 72,30 22,13 40,31 53,54 8,14 15,28 20,41 5,13 7,27 7,43 0,29 -6,54 -18,77 -13,24 -28,43 -48,59 -20,16 -42,28 -68,37 -25,8 -51,12 -77,12 -32,0 -63,-4 -94,-12 -31,-8 -60,-20 -87,-36 -13,-7 -27,-11 -43,-11 -2,0 -5,3 -7,7 -3,5 -6,10 -9,16 -3,5 -7,10 -12,15 -4,5 -10,7 -17,7 -6,0 -10,-2 -13,-6 -2,-3 -3,-8 -3,-13 0,-7 1,-14 3,-22 3,-7 5,-14 8,-22 3,-7 6,-15 9,-22 3,-8 6,-15 7,-22 1,-8 2,-16 2,-24 1,-8 1,-16 1,-24 0,-17 -4,-34 -13,-50l-4 -1c-4,2 -8,4 -10,5 -3,1 -7,2 -12,2 -6,0 -12,-2 -16,-7 -5,-5 -8,-11 -8,-17 0,-10 5,-18 13,-24 8,-5 17,-8 27,-8 15,0 27,4 36,13 9,8 17,19 25,32 7,13 15,29 22,45 7,17 16,33 28,50 11,16 25,32 41,47 17,15 38,27 64,37 12,4 24,7 35,10 12,2 24,3 37,3 14,0 29,-2 44,-6 15,-3 29,-9 42,-17 13,-7 23,-17 32,-29 8,-11 12,-26 12,-42 0,-15 -4,-29 -13,-44 -9,-15 -19,-28 -30,-37 -19,-16 -41,-28 -66,-34 -24,-7 -50,-12 -76,-17 -27,-4 -53,-8 -78,-13 -25,-5 -48,-12 -68,-23 -20,-11 -36,-27 -48,-48 -12,-21 -18,-49 -18,-85 0,-29 5,-55 17,-79 11,-24 26,-44 45,-61 19,-18 41,-31 66,-41 26,-10 52,-14 79,-14z"/>
 </g>
 </g>
</svg>
