<?xml version="1.0" encoding="UTF-8"?>
<!DOCTYPE svg PUBLIC "-//W3C//DTD SVG 1.1//EN" "http://www.w3.org/Graphics/SVG/1.1/DTD/svg11.dtd">
<svg xmlns="http://www.w3.org/2000/svg" xml:space="preserve" width="709px" height="118px" version="1.1" style="shape-rendering:geometricPrecision; text-rendering:geometricPrecision; image-rendering:optimizeQuality; fill-rule:evenodd; clip-rule:evenodd"
viewBox="0 0 5908 985"
 xmlns:xlink="http://www.w3.org/1999/xlink">
 <defs>
  <style type="text/css">
   <![CDATA[
    .c1 {fill:#eee}
    .c2 {fill:#000}
   ]]>
  </style>
 </defs>
 <g>
  <rect class="c1" width="5908" height="985"/>
  <g class="c2">
  <path d="M1270 749c5,0 9,-3 12,-9 3,-5 6,-12 8,-19 2,-7 4,-14 5,-22 1,-7 1,-13 1,-16 0,-47 0,-94 -2,-141 -1,-46 -2,-93 -2,-140l0 -111c0,-11 -4,-21 -12,-30 -9,-10 -18,-14 -30,-14 -3,0 -7,1 -9,3l-1 2c3,3 6,5 9,6 4,1 6,4 6,11 0,5 -2,10 -7,15 -4,5 -9,7 -15,7 -8,0 -13,-3 -15,-10 -2,-6 -3,-12 -3,-19 0,-15 4,-25 13,-32 9,-7 20,-10 34,-10 10,0 17,2 23,6 6,5 11,9 15,14 4,5 7,10 9,14 2,5 4,8 6,9 2,0 3,-2 4,-6 1,-3 2,-6 2,-8 4,-16 13,-24 29,-24 5,0 10,2 13,4 3,3 6,7 8,11 2,4 3,8 4,13 1,5 2,9 3,13l2 1 10 -3 3 0 4 2 2 -2c-1,0 -2,-1 -3,-2 -2,-2 -3,-4 -3,-6 0,-9 3,-17 10,-24 7,-7 15,-10 24,-10 5,0 10,0 15,1 6,2 11,3 16,6 5,2 9,6 13,9 3,4 5,9 5,15 0,5 -3,10 -7,15 -4,5 -9,7 -14,7 -4,0 -8,-1 -10,-3 -3,-2 -4,-5 -4,-9 0,-3 0,-5 0,-6 1,-1 2,-2 3,-3 1,0 2,-1 2,-2 0,-1 -2,-2 -5,-2 -11,0 -19,4 -25,12 -5,8 -9,17 -11,28 -2,11 -3,23 -3,34 0,12 0,22 0,30 0,49 -1,98 -3,147 -2,49 -3,98 -3,148 0,12 1,26 2,41 1,15 7,28 18,38 2,3 6,6 12,9 5,3 9,5 13,5l1 0 3 -2 -1 -1c-1,-3 -2,-6 -3,-9 -2,-3 -2,-6 -2,-9 0,-4 2,-8 6,-11 4,-4 8,-5 12,-5 7,0 13,3 18,10 5,7 7,13 7,20 0,11 -5,19 -15,24 -10,5 -19,7 -28,7 -10,0 -17,-1 -23,-3 -5,-2 -10,-5 -13,-9 -4,-3 -7,-7 -10,-12 -3,-4 -8,-9 -13,-13l-4 1c-1,2 -2,5 -3,8 -1,4 -3,7 -4,11 -2,3 -4,6 -6,8 -2,3 -4,4 -8,4 -7,0 -13,-1 -16,-3 -4,-2 -6,-5 -8,-8 -1,-4 -3,-8 -4,-12 -1,-4 -3,-8 -6,-12l0 -1 -6 0c-3,3 -7,7 -10,12 -2,5 -5,10 -9,15 -3,5 -7,9 -12,13 -5,4 -12,5 -20,5 -8,0 -15,-2 -21,-8 -5,-5 -8,-12 -8,-20 0,-5 1,-10 5,-15 3,-6 8,-8 14,-8 5,0 9,1 12,5 4,3 5,7 5,11 0,3 -1,7 -3,11l2 3z"/>
  <path d="M1973 507c0,10 0,23 0,38 0,15 1,31 2,48 0,17 2,33 5,51 3,17 7,33 12,47 5,15 12,27 21,37 9,10 20,16 33,19 1,0 1,0 1,0 0,1 1,1 2,1 1,0 1,0 2,-1l1 0c0,-3 -2,-5 -6,-7 -3,-3 -5,-6 -5,-10 0,-5 1,-11 4,-17 3,-6 7,-8 13,-8 8,0 14,2 19,6 5,5 7,11 7,19 0,11 -4,21 -14,29 -9,9 -19,13 -30,13 -11,0 -24,-2 -37,-6 -14,-4 -26,-8 -37,-11 -8,-1 -16,-2 -24,-3 -8,0 -16,0 -24,0 -26,0 -51,2 -76,7 -25,4 -51,6 -76,6 -35,0 -66,-7 -95,-22 -29,-14 -53,-34 -74,-58 -20,-25 -36,-53 -48,-84 -11,-31 -17,-63 -17,-96 0,-31 7,-63 19,-96 13,-33 31,-63 53,-90 22,-28 48,-50 78,-67 30,-17 61,-26 95,-26 18,0 37,1 55,4 19,3 37,7 55,12 6,1 11,1 15,1 10,0 20,0 30,0 10,0 21,-1 31,-2 15,-2 28,-6 40,-11 13,-5 26,-7 42,-7 13,0 23,3 31,10 8,8 12,18 12,31 0,8 -2,15 -7,22 -4,6 -11,9 -19,9 -8,0 -13,-2 -18,-6 -1,-4 -2,-7 -2,-10 0,-4 1,-8 3,-11 1,-3 3,-4 5,-4 2,0 4,-1 7,-1l2 -3 -2 -3c-1,-1 -3,-2 -5,-2 -14,0 -25,5 -34,15 -9,10 -17,23 -22,39 -6,15 -10,32 -14,52 -3,19 -5,38 -6,56 -1,19 -2,36 -2,52 -1,17 -1,29 -1,38zm-157 -237c-16,0 -31,5 -45,14 -14,10 -26,21 -37,35 -11,14 -19,29 -26,46 -7,16 -12,32 -14,46 -5,32 -8,64 -8,96 0,22 2,46 5,72 3,26 9,51 19,74 9,23 23,42 40,57 18,16 41,24 69,24 17,0 32,-4 44,-12 12,-8 23,-19 31,-32 8,-13 15,-28 20,-45 6,-16 10,-33 13,-51 2,-17 4,-34 5,-51 1,-16 1,-30 1,-43 0,-19 -1,-41 -3,-67 -3,-26 -8,-52 -17,-76 -8,-24 -20,-44 -36,-61 -15,-17 -36,-26 -61,-26z"/>
  <path d="M2193 749c5,0 10,-3 13,-9 3,-5 6,-12 8,-19 2,-7 3,-14 4,-22 2,-7 2,-13 2,-16 0,-47 -1,-94 -2,-141 -1,-46 -2,-93 -2,-140l0 -111c0,-11 -4,-21 -13,-30 -8,-10 -18,-14 -29,-14 -4,0 -7,1 -9,3l-1 2c2,3 5,5 9,6 4,1 5,4 5,11 0,5 -2,10 -6,15 -4,5 -9,7 -15,7 -8,0 -13,-3 -15,-10 -3,-6 -4,-12 -4,-19 0,-15 5,-25 14,-32 9,-7 20,-10 34,-10 9,0 17,2 23,6 6,5 11,9 14,14 4,5 7,10 10,14 2,5 4,8 6,9 2,0 3,-2 4,-6 1,-3 2,-6 2,-8 3,-16 13,-24 28,-24 6,0 10,2 14,4 3,3 6,7 8,11 2,4 3,8 4,13 1,5 2,9 3,13l2 1 10 -3 3 0 4 2 2 -2c-1,0 -2,-1 -3,-2 -2,-2 -3,-4 -3,-6 0,-9 3,-17 10,-24 7,-7 15,-10 24,-10 4,0 9,0 15,1 6,2 11,3 16,6 5,2 9,6 12,9 4,4 5,9 5,15 0,5 -2,10 -6,15 -4,5 -9,7 -15,7 -3,0 -7,-1 -10,-3 -2,-2 -4,-5 -4,-9 0,-3 1,-5 1,-6 1,-1 2,-2 3,-3 1,0 1,-1 1,-2 0,-1 -1,-2 -4,-2 -11,0 -19,4 -25,12 -5,8 -9,17 -11,28 -2,11 -3,23 -3,34 0,12 0,22 0,30 0,49 -1,98 -3,147 -2,49 -3,98 -3,148 0,12 1,26 2,41 1,15 7,28 17,38 3,3 7,6 12,9 6,3 10,5 14,5l1 0 2 -2 0 -1c-1,-3 -3,-6 -4,-9 -1,-3 -1,-6 -1,-9 0,-4 2,-8 5,-11 4,-4 9,-5 13,-5 7,0 13,3 18,10 5,7 7,13 7,20 0,11 -5,19 -15,24 -10,5 -19,7 -28,7 -10,0 -17,-1 -23,-3 -5,-2 -10,-5 -14,-9 -3,-3 -7,-7 -10,-12 -3,-4 -7,-9 -12,-13l-4 1c-1,2 -2,5 -3,8 -1,4 -3,7 -4,11 -2,3 -4,6 -6,8 -2,3 -4,4 -8,4 -8,0 -13,-1 -16,-3 -4,-2 -6,-5 -8,-8 -2,-4 -3,-8 -4,-12 -1,-4 -3,-8 -6,-12l0 -1 -6 0c-4,3 -7,7 -10,12 -3,5 -6,10 -9,15 -3,5 -7,9 -12,13 -5,4 -12,5 -20,5 -8,0 -15,-2 -21,-8 -6,-5 -9,-12 -9,-20 0,-5 2,-10 5,-15 4,-6 8,-8 15,-8 5,0 9,1 12,5 3,3 5,7 5,11 0,3 -1,7 -3,11l1 3z"/>
  <path d="M2881 529c0,-4 1,-8 2,-12 1,-4 2,-8 2,-11 -1,0 -1,-1 -1,-1 -3,0 -5,1 -8,2 -3,2 -6,2 -9,2 -6,0 -12,-2 -17,-7 -5,-5 -8,-11 -8,-17 0,-5 1,-10 3,-17 3,-6 7,-9 13,-9 17,0 31,-4 43,-11 12,-7 24,-15 35,-24 12,-9 25,-17 39,-24 14,-7 32,-11 53,-11 24,0 46,6 67,16 22,10 40,24 56,41 16,17 28,37 37,59 10,22 14,44 14,68 0,3 0,6 0,9 -1,3 -1,7 -1,10 -7,33 -16,62 -30,85 -14,23 -31,41 -51,56 -20,14 -42,25 -68,31 -26,7 -55,10 -86,10 -26,0 -50,-2 -71,-5 -22,-4 -41,-9 -59,-17 -18,-8 -36,-18 -52,-31 -17,-13 -34,-30 -52,-49 -21,-23 -36,-49 -45,-76 -10,-27 -14,-56 -14,-87 0,-25 4,-49 13,-74 8,-24 20,-48 34,-70 14,-23 30,-43 49,-62 18,-19 37,-35 56,-49 16,-11 35,-19 55,-24 21,-5 41,-7 60,-7 14,0 28,1 43,3 14,2 29,4 43,6 14,2 28,4 42,6 15,2 29,3 42,3 12,0 24,-1 35,-4 11,-2 22,-5 32,-8 11,-2 21,-5 30,-8 9,-2 17,-3 24,-3 11,0 19,3 25,10 7,7 10,15 10,25 0,17 -9,26 -25,26 -6,0 -11,-2 -15,-5 -4,-3 -5,-8 -5,-14 0,-6 3,-12 9,-17 0,-1 0,-1 -1,-2 0,-1 0,-1 0,-2l-3 0c-12,0 -22,5 -29,15 -8,10 -14,22 -18,36 -4,13 -7,27 -8,42 -2,14 -3,26 -3,34 0,5 0,9 0,14 1,5 1,10 2,15 0,2 -1,4 -2,4 -1,0 -2,-1 -2,-1 -7,-4 -13,-9 -18,-18 -6,-8 -11,-18 -17,-28 -6,-11 -13,-22 -21,-33 -7,-11 -17,-22 -29,-31 -12,-10 -27,-18 -43,-24 -17,-6 -38,-9 -63,-9 -25,0 -48,4 -67,13 -20,8 -36,20 -50,34 -13,15 -25,32 -33,52 -9,20 -16,42 -21,65 -2,15 -5,30 -7,45 -3,15 -4,30 -4,45 0,29 3,58 10,86 7,29 17,54 32,77 15,22 34,40 57,55 23,14 51,21 83,21 27,0 48,-5 64,-16 17,-10 30,-24 39,-42 9,-17 16,-36 20,-57 3,-21 5,-42 5,-64 0,-11 -1,-26 -4,-44 -2,-17 -7,-35 -13,-51 -6,-16 -14,-30 -25,-42 -10,-12 -24,-18 -40,-18 -13,0 -22,5 -28,13 -7,8 -10,19 -10,31 0,9 2,18 5,27 3,8 5,17 5,26 0,6 -2,12 -6,16 -4,5 -10,7 -16,7 -5,0 -9,-1 -14,-4 -4,-3 -8,-7 -11,-11 -1,0 -2,0 -2,0 0,0 -2,0 -4,1 0,4 -1,8 -3,12 -2,4 -5,9 -8,13 -4,5 -7,9 -11,12 -4,3 -8,4 -11,4 -9,0 -16,-3 -20,-10 -4,-7 -6,-15 -6,-22z"/>
  <path d="M3371 749c5,0 9,-3 12,-9 3,-5 6,-12 8,-19 2,-7 4,-14 5,-22 1,-7 1,-13 1,-16 0,-47 0,-94 -2,-141 -1,-46 -2,-93 -2,-140l0 -111c0,-11 -4,-21 -12,-30 -9,-10 -18,-14 -30,-14 -3,0 -7,1 -9,3l-1 2c3,3 6,5 9,6 4,1 6,4 6,11 0,5 -2,10 -7,15 -4,5 -9,7 -15,7 -8,0 -13,-3 -15,-10 -2,-6 -3,-12 -3,-19 0,-15 4,-25 13,-32 9,-7 20,-10 34,-10 10,0 17,2 23,6 6,5 11,9 15,14 4,5 7,10 9,14 2,5 4,8 6,9 2,0 3,-2 4,-6 1,-3 2,-6 2,-8 4,-16 13,-24 29,-24 5,0 10,2 13,4 3,3 6,7 8,11 2,4 3,8 4,13 1,5 2,9 3,13l2 1 11 -3 2 0 4 2 2 -2c-1,0 -2,-1 -3,-2 -2,-2 -3,-4 -3,-6 0,-9 3,-17 10,-24 7,-7 15,-10 24,-10 5,0 10,0 15,1 6,2 11,3 16,6 5,2 9,6 13,9 3,4 5,9 5,15 0,5 -3,10 -7,15 -4,5 -9,7 -14,7 -4,0 -8,-1 -10,-3 -3,-2 -4,-5 -4,-9 0,-3 0,-5 0,-6 1,-1 2,-2 3,-3 1,0 2,-1 2,-2 0,-1 -2,-2 -5,-2 -11,0 -19,4 -25,12 -5,8 -9,17 -11,28 -2,11 -3,23 -3,34 0,12 0,22 0,30 0,49 -1,98 -3,147 -2,49 -3,98 -3,148 0,12 1,26 2,41 1,15 7,28 18,38 2,3 6,6 12,9 5,3 9,5 13,5l1 0 3 -2 -1 -1c-1,-3 -2,-6 -3,-9 -2,-3 -2,-6 -2,-9 0,-4 2,-8 6,-11 4,-4 8,-5 12,-5 7,0 13,3 18,10 5,7 7,13 7,20 0,11 -5,19 -15,24 -10,5 -19,7 -28,7 -10,0 -17,-1 -23,-3 -5,-2 -10,-5 -13,-9 -4,-3 -7,-7 -10,-12 -3,-4 -8,-9 -13,-13l-4 1c-1,2 -2,5 -3,8 -1,4 -3,7 -4,11 -2,3 -4,6 -6,8 -2,3 -4,4 -8,4 -7,0 -13,-1 -16,-3 -4,-2 -6,-5 -8,-8 -1,-4 -3,-8 -4,-12 -1,-4 -3,-8 -6,-12l0 -1 -6 0c-3,3 -7,7 -10,12 -2,5 -5,10 -9,15 -3,5 -7,9 -12,13 -5,4 -12,5 -20,5 -8,0 -15,-2 -21,-8 -5,-5 -8,-12 -8,-20 0,-5 1,-10 5,-15 3,-6 8,-8 14,-8 5,0 9,1 12,5 4,3 5,7 5,11 0,3 -1,7 -3,11l2 3z"/>
  <path d="M3851 727c14,0 31,-1 49,-3 18,-2 35,-6 51,-12 16,-6 30,-15 41,-26 11,-12 16,-27 16,-46 0,-27 -6,-47 -18,-62 -12,-15 -27,-26 -46,-34 -18,-7 -38,-11 -60,-13 -21,-2 -42,-2 -62,-2 -26,0 -51,-2 -74,-6 -23,-3 -42,-10 -59,-21 -17,-10 -30,-25 -39,-44 -10,-20 -14,-45 -14,-77 0,-27 6,-51 17,-72 12,-21 27,-40 46,-54 18,-15 40,-26 63,-34 24,-8 49,-13 73,-13 16,0 31,2 46,5 14,4 28,8 42,12 14,4 27,8 41,11 13,3 27,5 42,5 13,0 23,-2 30,-5 6,-3 12,-7 17,-11 5,-4 11,-8 16,-12 5,-3 13,-5 22,-5 9,0 17,3 22,9 5,6 7,13 7,21 0,7 -2,13 -5,17 -4,5 -9,7 -17,7 -4,0 -7,-2 -10,-5 -2,-4 -3,-7 -3,-12 0,-2 0,-2 1,-3 0,0 0,-1 -1,-3l-2 -1c-3,4 -7,9 -10,16 -2,7 -4,14 -5,22 -2,8 -2,16 -3,23 0,8 -1,15 -1,20 0,11 1,22 3,33 1,12 2,23 2,34 0,1 0,3 0,4 0,2 -1,3 -2,3 0,0 -1,-1 -2,-2 -8,-8 -15,-16 -22,-24 -8,-8 -15,-17 -23,-25 -12,-13 -25,-26 -41,-37 -16,-12 -33,-21 -51,-29 -18,-8 -36,-15 -55,-20 -19,-4 -37,-7 -55,-7 -14,0 -27,3 -39,8 -12,5 -23,12 -32,21 -9,9 -16,19 -22,31 -6,13 -8,26 -8,40 0,18 3,33 10,45 7,11 16,21 28,28 11,7 24,12 39,15 14,3 30,5 46,6 15,1 31,1 46,1 15,-1 29,-1 42,-1 3,0 7,0 11,1 4,0 8,1 12,2 20,5 39,11 56,19 18,7 33,17 46,29 13,11 23,26 30,43 8,17 11,37 11,60 0,11 -1,22 -3,34 -2,12 -5,23 -10,35 -4,11 -9,22 -15,32 -5,11 -12,19 -20,27 -20,19 -44,32 -71,40 -28,7 -55,11 -82,11 -11,0 -24,-1 -38,-4 -15,-2 -29,-5 -43,-8 -15,-4 -29,-7 -42,-9 -13,-3 -24,-4 -34,-4 -7,0 -15,1 -22,4 -8,2 -15,4 -22,7 -6,3 -12,5 -17,8 -6,2 -10,3 -13,3 -8,0 -15,-4 -20,-11 -6,-6 -9,-14 -9,-22 0,-5 3,-9 7,-14 5,-4 10,-6 14,-6 8,0 14,1 15,5 2,3 3,9 3,18l0 2c0,2 1,2 3,2l1 0 1 -2c2,-3 2,-7 3,-13 0,-5 0,-11 0,-17 1,-7 1,-13 1,-18 0,-6 0,-11 0,-15 0,-7 -1,-14 -3,-22 -2,-8 -4,-16 -6,-23 -3,-8 -5,-15 -7,-21 -2,-6 -3,-10 -3,-13l1 0c4,0 9,3 15,9 6,6 12,14 20,23 8,9 17,19 27,30 9,11 21,21 33,30 13,9 27,17 42,23 16,6 32,9 51,9z"/>
  <path d="M4372 286c-3,-1 -7,-1 -13,-1 -21,0 -41,6 -58,16 -17,11 -32,25 -45,41 -13,17 -23,35 -32,55 -9,20 -15,39 -20,57 -3,10 -5,21 -7,33 -1,12 -3,24 -4,36 -1,11 -3,23 -4,34 -1,10 -3,20 -5,28 -2,4 -3,6 -5,6 -3,-1 -4,-6 -5,-14 -1,-9 -1,-19 -2,-30 0,-10 0,-21 0,-31 0,-10 0,-17 0,-20l1 -260c0,-3 -1,-7 -2,-10 0,-3 -1,-7 -1,-10l0 -1 3 -2 0 0c18,8 39,15 61,19 23,5 46,9 70,11 24,3 48,4 72,5 23,1 45,1 64,1 25,0 50,-1 74,-3 24,-3 47,-6 71,-10 13,-2 26,-5 38,-7 13,-3 25,-5 38,-7 1,0 3,-1 6,-2 4,-1 7,-2 10,-3 3,-1 5,-1 8,-2 2,-1 4,-2 4,-2l1 0 2 3c1,8 2,16 2,23 0,8 0,16 0,24 0,29 -1,58 -1,87 -1,28 -1,57 -3,87 0,25 -1,50 -1,74 0,25 -1,49 -4,74l-2 3 -3 -3c-1,-1 -2,-3 -2,-6 -1,-2 -1,-4 -1,-5 -2,-25 -5,-49 -7,-71 -3,-22 -8,-44 -18,-68 -6,-14 -14,-30 -24,-47 -9,-17 -21,-33 -33,-47 -13,-14 -27,-26 -43,-36 -16,-10 -32,-15 -50,-15 -3,0 -6,1 -9,1 -3,1 -5,3 -6,7 -3,11 -5,23 -5,35 -1,13 -2,24 -2,36l0 190c0,23 2,46 5,70 3,23 10,45 21,66 2,4 6,9 10,13 5,5 10,9 15,13 6,4 11,7 17,10 6,2 12,4 17,4 3,0 6,-1 8,-1l2 -4 -1 -2c-6,0 -11,-1 -15,-4 -4,-2 -5,-7 -5,-14 0,-5 2,-9 6,-13 4,-3 8,-5 13,-5 7,0 14,3 20,9 7,6 10,12 10,19 0,10 -2,19 -6,25 -5,6 -10,12 -17,15 -6,4 -14,7 -22,9 -8,1 -17,2 -25,2 -20,0 -39,-3 -58,-9 -19,-5 -38,-8 -57,-8 -10,0 -20,1 -30,3 -10,2 -19,4 -29,6 -9,3 -18,5 -28,7 -9,2 -19,3 -29,3 -13,0 -25,-4 -35,-13 -11,-9 -16,-20 -16,-34 0,-8 2,-16 6,-23 4,-7 11,-11 21,-11 6,0 12,2 17,6 5,4 8,9 8,16 0,5 -2,9 -5,13 -4,3 -8,6 -12,8 0,0 0,1 0,1 -1,1 -1,1 -1,2l6 2c9,-2 17,-5 24,-10 7,-5 14,-12 19,-19 6,-7 11,-15 15,-23 4,-8 7,-17 10,-24 2,-8 5,-19 6,-33 2,-14 3,-30 5,-48 1,-17 2,-36 3,-55 0,-19 1,-38 1,-56 1,-18 1,-35 1,-50 0,-16 0,-29 0,-39 0,-15 0,-30 0,-46 0,-16 -2,-31 -5,-45l3 -4 -1 -2z"/>
 </g>
 </g>
</svg>
