<?xml version="1.0" encoding="UTF-8"?>
<!DOCTYPE svg PUBLIC "-//W3C//DTD SVG 1.1//EN" "http://www.w3.org/Graphics/SVG/1.1/DTD/svg11.dtd">
<svg xmlns="http://www.w3.org/2000/svg" xml:space="preserve" width="709px" height="118px" version="1.1" style="shape-rendering:geometricPrecision; text-rendering:geometricPrecision; image-rendering:optimizeQuality; fill-rule:evenodd; clip-rule:evenodd"
viewBox="0 0 5908 985"
 xmlns:xlink="http://www.w3.org/1999/xlink">
 <defs>
  <style type="text/css">
   <![CDATA[
    .c1 {fill:none}
    .c2 {fill:#a00;fill-rule:nonzero}
   ]]>
  </style>
 </defs>
 <g>
  <rect class="c1" width="5908" height="985"/>
  <g class="c2">
  <path d="M1171 219c-43,0 -207,-3 -237,16 -32,20 -40,41 -48,76 -1,2 -2,4 -5,4 -37,0 -51,-64 -62,-64 -5,0 -61,56 -61,62 0,8 51,65 57,65 7,0 23,-49 61,-49 18,0 13,15 13,29 0,134 -4,267 -6,400 2,7 81,6 92,7l3 -3c-2,-73 -1,-146 1,-219 3,-85 1,-171 4,-256 0,-10 4,-47 19,-47 3,0 8,1 8,6 0,121 -1,244 -5,366 -1,49 -4,99 -4,149 0,2 2,4 4,4 14,0 29,-3 43,-3 16,0 32,1 47,4l4 -4 2 -150c1,-4 2,-135 3,-200 1,-37 -2,-115 16,-146 22,-41 62,-15 62,-35 0,-7 -2,-12 -11,-12z"/>
  <path d="M1326 472c-1,1 -1,2 -1,2 -2,0 -2,-2 -2,-3 -3,-41 -18,-87 -60,-104 -1,0 -3,-1 -3,-1 -3,0 -5,2 -7,4 -18,21 -32,42 -53,62l-1 4c0,12 31,4 40,35 10,38 6,175 6,222 0,21 -4,42 -4,62 0,4 3,7 7,7l70 1c2,0 4,-1 4,-4 0,-81 3,-162 3,-243 0,-13 -5,-19 6,-29 7,-7 59,-56 62,-56 7,0 45,29 53,35 3,8 4,27 4,36 0,46 -3,92 -3,138 0,73 -5,89 64,127 2,0 5,1 7,1 8,0 58,-51 60,-56 -3,-7 -21,-5 -29,-11 -31,-24 -24,-96 -24,-133 0,-32 0,-65 1,-96 1,-16 5,-26 16,-37 1,-1 1,-2 1,-3 0,-1 0,-3 -2,-4l0 -1c-11,-2 -72,-46 -85,-56l-4 0 -4 0 -122 101z"/>
  <path d="M1892 525c0,-50 19,-72 48,-109l5 0c76,40 145,90 145,185 0,14 -9,79 -24,83 -5,1 -9,2 -14,2 -84,0 -160,-79 -160,-161zm37 -116c-59,43 -101,98 -101,173 0,96 79,159 164,183 3,1 5,1 9,1 7,0 13,-5 19,-10 58,-55 123,-125 123,-211 0,-114 -97,-170 -180,-227 -31,-22 -62,-46 -78,-81 -1,-1 -2,-3 -3,-5 -1,0 -3,-1 -4,-1 -1,0 -2,0 -4,1l-2 4c-2,27 -9,55 -9,81 0,32 42,69 66,88l1 2 -1 2z"/>
  <path d="M2219 526c0,51 -1,103 -4,155 -1,25 -19,26 -19,34 0,7 88,53 96,53 11,0 46,-52 57,-62l0 -3c0,-2 -2,-3 -4,-4 -11,-1 -22,1 -32,-5 -15,-8 -22,-21 -22,-38 0,-36 -2,-72 -2,-108 0,-36 -5,-96 22,-122l1 -1c0,-1 1,-3 1,-4 0,-3 -2,-5 -4,-6 -24,-14 -47,-25 -69,-44 -2,0 -3,0 -5,0 -1,0 -5,0 -4,2 -15,18 -28,38 -46,54 -2,3 -8,7 -8,10 0,5 6,5 9,5 41,0 33,55 33,84zm46 -300c-7,43 -17,84 -26,126 0,2 -1,3 -1,4 0,2 2,7 5,7 2,0 4,0 5,-2 17,-34 36,-67 58,-98 7,-10 17,-20 24,-30 1,-1 1,-2 2,-3 0,-10 -54,-7 -64,-7l-3 3z"/>
  <path d="M2514 416c7,6 77,67 77,71 0,5 -72,37 -80,40 -12,5 -55,31 -63,31 -3,0 -3,-15 -3,-17 0,-47 23,-102 64,-126l5 1zm-64 159c0,-6 64,-33 74,-38 49,-24 97,-50 147,-72l3 -3c0,-7 -2,-11 -7,-15 -28,-26 -59,-50 -88,-75 -3,-2 -5,-5 -10,-5 -3,0 -5,1 -8,3 -89,49 -178,104 -178,219 0,119 84,175 196,175 7,0 16,2 20,-5 7,-10 73,-108 73,-112 -2,-3 -4,-6 -8,-6 -3,0 -5,1 -6,3 -25,26 -59,37 -95,37 -33,0 -64,-19 -83,-45 -9,-14 -30,-45 -30,-61z"/>
  <path d="M3039 496c0,-1 1,-4 1,-5 11,-8 35,-37 45,-37 3,0 6,2 10,3 71,27 95,88 95,160 0,14 -7,75 -24,75 -25,0 -96,-31 -122,-42 -2,-1 -4,-3 -4,-4l-1 -150zm27 -266c-22,0 -60,8 -71,31l-3 0c-7,1 -14,-32 -53,-32 -4,0 -7,1 -10,1 -1,1 -4,3 -4,4 0,2 0,2 1,3 30,34 35,54 36,99 1,39 1,76 1,115 0,54 -1,108 -2,162 -1,38 -24,76 -24,78 0,3 3,6 5,7 15,9 166,67 175,67 5,0 10,-2 14,-6 52,-57 124,-139 124,-221 0,-79 -43,-131 -114,-161 0,0 -2,-1 -3,-1 -15,0 -74,91 -98,100 -3,-1 -3,-8 -3,-9 0,-49 4,-99 8,-147 2,-38 11,-56 42,-77 2,-1 3,-3 3,-5 0,-8 -18,-8 -24,-8z"/>
  <path d="M3407 763c10,0 106,-103 115,-103 2,0 3,2 3,3 0,6 -2,12 -2,18 0,36 26,59 54,80 1,1 3,2 5,2 2,0 4,-1 5,-2 20,-16 36,-38 57,-54l1 0 0 -1c0,-3 0,-5 -2,-6 -31,-12 -46,-35 -46,-68 0,-60 2,-120 2,-179 0,-9 0,-19 -1,-28 -1,-16 -34,-51 -46,-60l-5 -3 -4 2 -65 66c0,1 -1,1 -1,2 0,3 2,4 5,4l6 0c34,0 35,24 35,51l0 68c0,13 2,87 -5,92l-54 49c-2,1 -5,2 -8,2 -1,0 -4,-1 -5,-1 -65,-49 -60,-34 -60,-101 0,-36 2,-72 2,-108 0,-67 8,-72 -33,-126l-1 0 -5 -2c-4,0 -58,55 -64,61l-2 5c2,11 28,6 29,32 3,44 2,88 2,131 0,36 3,74 -15,106l-1 0 0 3c0,2 2,4 3,4l1 0c27,5 97,61 100,61z"/>
  <path d="M3770 414c2,0 2,0 4,1 31,14 62,31 94,45 7,3 16,5 24,8 2,1 4,2 6,5 -1,4 -70,64 -74,64 -39,-3 -78,-36 -78,-77 0,-12 10,-46 24,-46zm118 286c-20,0 -105,-56 -142,-62l-1 -2c11,-11 83,-81 93,-82 41,15 79,38 79,88 0,15 -9,58 -29,58zm-197 -182c0,62 60,90 60,91 0,4 -73,67 -81,74l1 3c36,16 72,31 108,49 18,8 33,18 51,26 2,1 4,1 7,1 2,0 4,0 6,-2 53,-35 132,-98 132,-167 0,-74 -73,-100 -74,-104 2,-3 56,-55 62,-60l1 -4 -2 -3c-31,-12 -62,-25 -91,-40 -14,-6 -28,-15 -43,-21 0,0 -3,-1 -4,-1 -1,0 -3,1 -5,1 -57,34 -128,84 -128,157z"/>
  <path d="M4051 526c0,51 -2,103 -4,155 -1,25 -19,26 -19,34 0,7 88,53 95,53 11,0 46,-52 58,-62l0 -3c0,-2 -2,-3 -4,-4 -11,-1 -23,1 -33,-5 -15,-8 -21,-21 -21,-38 0,-36 -2,-72 -2,-108 0,-36 -5,-96 22,-122l0 -1c0,-1 1,-3 1,-4 0,-3 -1,-5 -3,-6 -24,-14 -48,-25 -69,-44 -2,0 -4,0 -5,0 -1,0 -5,0 -4,2 -15,18 -28,38 -46,54 -3,3 -9,7 -9,10 0,5 7,5 10,5 40,0 33,55 33,84zm46 -300c-7,43 -17,84 -26,126 0,2 -1,3 -1,4 0,2 2,7 4,7 3,0 4,0 6,-2 17,-34 36,-67 58,-98 7,-10 16,-20 24,-30 1,-1 1,-2 1,-3 0,-10 -53,-7 -63,-7l-3 3z"/>
  <path d="M4276 256c-4,0 -29,-28 -51,-28 -1,0 -11,1 -11,4 0,4 5,7 7,9 24,20 28,46 28,77 0,110 3,222 -5,332 0,18 -14,37 -14,46 0,16 83,66 99,66 5,0 69,-60 69,-65 0,-1 -2,-2 -4,-2 -6,0 -13,2 -20,2 -55,0 -47,-59 -47,-96 0,-94 2,-189 4,-283 1,-27 3,-58 34,-66 4,-1 7,-6 7,-9 0,-12 -32,-16 -41,-16 -34,0 -42,24 -55,29z"/>
  <path d="M4493 256c-4,0 -29,-28 -51,-28 -2,0 -11,1 -11,4 0,4 5,7 7,9 24,20 27,46 27,77 0,110 4,222 -4,332 -1,18 -14,37 -14,46 0,16 83,66 99,66 5,0 69,-60 69,-65 0,-1 -2,-2 -4,-2 -6,0 -13,2 -20,2 -55,0 -47,-59 -47,-96 0,-94 1,-189 4,-283 1,-27 2,-58 34,-66 3,-1 7,-6 7,-9 0,-12 -32,-16 -41,-16 -34,0 -42,24 -55,29z"/>
  <path d="M4690 526c0,51 -1,103 -4,155 -1,25 -19,26 -19,34 0,7 88,53 96,53 11,0 46,-52 57,-62l0 -3c0,-2 -2,-3 -4,-4 -11,-1 -22,1 -32,-5 -15,-8 -22,-21 -22,-38 0,-36 -2,-72 -2,-108 0,-36 -5,-96 22,-122l1 -1c0,-1 1,-3 1,-4 0,-3 -2,-5 -4,-6 -24,-14 -47,-25 -69,-44 -1,0 -3,0 -5,0 -1,0 -5,0 -4,2 -15,18 -27,38 -46,54 -2,3 -8,7 -8,10 0,5 7,5 9,5 41,0 33,55 33,84zm46 -300c-6,43 -16,84 -26,126 0,2 0,3 0,4 0,2 1,7 4,7 2,0 4,0 6,-2 16,-34 35,-67 57,-98 8,-10 17,-20 24,-30 1,-1 1,-2 2,-3 0,-10 -53,-7 -63,-7l-4 3z"/>
  <path d="M4946 414c1,0 2,0 4,1 31,14 61,31 93,45 8,3 17,5 24,8 3,1 4,2 6,5 -1,4 -69,64 -73,64 -39,-3 -79,-36 -79,-77 0,-12 10,-46 25,-46zm118 286c-20,0 -105,-56 -143,-62l0 -2c10,-11 83,-81 92,-82 42,15 79,38 79,88 0,15 -9,58 -28,58zm-198 -182c0,62 60,90 60,91 0,4 -72,67 -81,74l1 3c37,16 73,31 109,49 17,8 33,18 51,26 1,1 4,1 6,1 3,0 4,0 7,-2 52,-35 132,-98 132,-167 0,-74 -74,-100 -75,-104 2,-3 56,-55 63,-60l1 -4 -3 -3c-31,-12 -61,-25 -91,-40 -14,-6 -28,-15 -42,-21 -1,0 -3,-1 -4,-1 -2,0 -4,1 -5,1 -57,34 -129,84 -129,157z"/>
 </g>
 </g>
</svg>
