<?xml version="1.0" encoding="UTF-8"?>
<!DOCTYPE svg PUBLIC "-//W3C//DTD SVG 1.1//EN" "http://www.w3.org/Graphics/SVG/1.1/DTD/svg11.dtd">
<svg xmlns="http://www.w3.org/2000/svg" xml:space="preserve" width="709px" height="118px" version="1.1" style="shape-rendering:geometricPrecision; text-rendering:geometricPrecision; image-rendering:optimizeQuality; fill-rule:evenodd; clip-rule:evenodd"
viewBox="0 0 5908 985"
 xmlns:xlink="http://www.w3.org/1999/xlink">
 <defs>
  <style type="text/css">
   <![CDATA[
    .c1 {fill:#eee}
    .c2 {fill:#000}
   ]]>
  </style>
 </defs>
 <g>
  <rect class="c1" width="5908" height="985"/>
  <g class="c2">
  <path d="M2250 201c0,0 -1,0 -1,1l1 582c0,0 0,1 0,1l47 0c1,0 2,-1 2,-1l-1 -582c0,-1 0,-1 -2,-1l-46 0z"/>
  <path d="M2420 467c-4,0 -1,-13 -1,-16 0,-7 1,-13 1,-20 0,-9 -37,-7 -44,-7l-2 3c3,46 2,94 2,141 0,72 0,143 2,216l1 1 42 0 2 -1c-2,-71 -4,-143 -4,-213 0,-17 -1,-33 0,-48 2,-37 72,-59 102,-59 45,0 71,29 71,74 0,63 -23,126 -23,189 0,28 12,60 44,60 17,0 30,-10 38,-23l0 -4c0,-9 -28,-1 -34,-23 -3,-8 -4,-16 -4,-25 0,-58 23,-118 23,-177 0,-66 -41,-113 -110,-113 -23,0 -47,6 -68,17 -7,3 -37,28 -38,28z"/>
  <path d="M2756 467l-5 308c0,6 4,9 9,9 12,-1 39,5 39,-12 0,-101 -2,-203 -3,-303l4 -5c21,0 32,3 40,3 12,0 12,-6 13,-34 0,-6 -1,-7 -6,-7l-47 1 -4 -4c2,-48 4,-94 4,-142 0,-18 2,-42 25,-42 12,0 24,1 37,3l2 -3 0 -40 -2 -3c-20,0 -40,2 -59,4 -62,8 -48,113 -48,159 0,21 1,43 1,65l-4 3c-15,1 -33,-1 -49,-2l-2 3 0 34 3 2 48 0 4 3z"/>
  <path d="M2932 269c0,0 -1,0 -1,2l0 74c0,2 1,3 1,3l41 -1c1,0 2,-1 2,-2l0 -74c0,-2 -1,-2 -2,-2l-41 0zm0 153l-1 1 1 359c0,1 0,2 1,2l41 0c1,0 2,-1 2,-2l-2 -359c0,-1 0,-1 -1,-1l-41 0z"/>
  <path d="M3258 740c0,1 -3,3 -5,3 -95,0 -166,0 -166,-118 0,-83 51,-160 141,-160 6,0 20,4 20,-6 0,-22 10,-35 -15,-35 -117,0 -190,94 -190,206l0 10c4,75 45,140 125,143 43,2 85,1 128,1 4,0 7,-3 7,-7 0,-193 0,-387 0,-580l-2 -1 -38 0 -2 2c0,181 -4,361 -3,542z"/>
  <path d="M3660 619c0,-84 -45,-200 -144,-200 -105,0 -154,109 -154,200 0,96 44,170 148,170 103,0 150,-74 150,-170zm-41 6c0,65 -35,121 -105,121 -80,0 -112,-53 -112,-127 0,-64 31,-159 107,-159 82,0 110,99 110,165z"/>
 </g>
 </g>
</svg>
