<?xml version="1.0" encoding="UTF-8"?>
<!DOCTYPE svg PUBLIC "-//W3C//DTD SVG 1.1//EN" "http://www.w3.org/Graphics/SVG/1.1/DTD/svg11.dtd">
<svg xmlns="http://www.w3.org/2000/svg" xml:space="preserve" width="709px" height="118px" version="1.1" style="shape-rendering:geometricPrecision; text-rendering:geometricPrecision; image-rendering:optimizeQuality; fill-rule:evenodd; clip-rule:evenodd"
viewBox="0 0 5908 985"
 xmlns:xlink="http://www.w3.org/1999/xlink">
 <defs>
  <style type="text/css">
   <![CDATA[
    .c1 {fill:#eee}
    .c2 {fill:#000}
   ]]>
  </style>
 </defs>
 <g>
  <rect class="c1" width="5908" height="985"/>
  <g class="c2">
  <path d="M1355 777l64 0 0 -521 146 0c41,0 72,11 91,31 19,21 28,54 28,99 0,23 -3,43 -8,61 -5,17 -12,32 -22,44 -10,11 -22,20 -37,26 -15,6 -32,9 -52,9l-159 0 0 56 160 0c30,0 57,-4 80,-12 23,-8 42,-21 58,-37 15,-17 26,-37 34,-61 8,-25 12,-54 12,-86 0,-64 -15,-111 -45,-141 -30,-30 -76,-45 -139,-45l-211 0 0 577z"/>
  <path d="M2078 521c-11,1 -23,2 -35,3 -12,1 -24,2 -36,3 -13,1 -25,3 -37,4 -12,1 -23,2 -35,3 -22,2 -41,6 -57,12 -16,6 -29,14 -40,24 -10,10 -18,22 -23,37 -5,15 -8,32 -8,52 0,20 3,38 8,54 5,16 12,29 22,39 10,11 23,19 37,25 15,5 32,8 51,8 13,0 25,-1 38,-2 12,-1 25,-4 37,-6 13,-3 25,-7 38,-11 12,-4 25,-9 37,-14 11,11 25,19 41,25 17,5 36,8 58,8l3 -49c-8,-1 -15,-3 -21,-5 -6,-2 -10,-4 -14,-7 -4,-3 -7,-7 -9,-11 -3,-4 -4,-9 -5,-14l0 -213c0,-47 -10,-81 -32,-102 -21,-22 -55,-33 -103,-33 -24,0 -49,2 -76,5 -27,3 -56,8 -86,14l2 47c28,-2 55,-5 82,-7 27,-2 55,-4 82,-4 22,0 38,7 50,19 13,12 19,32 19,61l0 221c-11,4 -21,7 -32,10 -11,3 -22,6 -33,8 -11,2 -21,4 -32,5 -11,2 -22,2 -34,2 -11,0 -20,-1 -28,-5 -8,-3 -15,-8 -20,-14 -5,-7 -9,-14 -12,-24 -2,-9 -3,-20 -3,-33 0,-8 0,-15 1,-22 1,-7 3,-13 6,-18 2,-5 5,-10 9,-14 4,-4 9,-8 14,-10 5,-3 11,-6 18,-8 7,-1 14,-3 22,-3 12,-1 23,-2 34,-4 12,-1 23,-2 34,-3 12,-1 23,-2 35,-3 11,-1 22,-2 33,-3l0 -47z"/>
  <path d="M2379 351c25,0 50,2 76,5 25,3 50,7 75,11l-1 54c-25,-4 -49,-7 -73,-10 -25,-2 -49,-4 -73,-4 -11,0 -22,1 -33,3 -11,1 -21,5 -29,9 -9,5 -16,12 -21,20 -6,8 -8,18 -8,32 0,19 6,32 19,40 12,8 28,14 46,18 19,3 39,6 61,9 21,3 41,8 60,16 19,8 34,20 47,36 12,16 19,40 19,71 0,25 -5,45 -14,61 -9,16 -21,29 -35,38 -15,9 -32,16 -52,20 -19,3 -40,5 -61,5 -25,0 -50,-2 -74,-5 -24,-3 -48,-7 -73,-11l3 -54c24,3 48,6 72,10 24,3 48,4 72,4 11,0 23,-1 35,-2 12,-1 23,-4 32,-9 10,-5 17,-12 23,-21 6,-8 9,-20 9,-35 0,-21 -6,-36 -19,-45 -12,-9 -28,-16 -46,-20 -19,-4 -39,-8 -61,-10 -22,-3 -42,-7 -60,-15 -19,-7 -35,-18 -47,-33 -13,-16 -19,-38 -19,-68 0,-23 4,-41 13,-56 8,-15 19,-27 33,-37 14,-9 30,-16 48,-20 18,-4 37,-7 56,-7z"/>
  <path d="M2767 351c25,0 50,2 75,5 26,3 51,7 76,11l-2 54c-24,-4 -49,-7 -73,-10 -24,-2 -48,-4 -73,-4 -11,0 -22,1 -33,3 -10,1 -20,5 -29,9 -8,5 -15,12 -21,20 -5,8 -8,18 -8,32 0,19 7,32 19,40 13,8 28,14 47,18 19,3 39,6 60,9 22,3 42,8 61,16 18,8 34,20 46,36 13,16 19,40 19,71 0,25 -4,45 -13,61 -9,16 -21,29 -36,38 -14,9 -31,16 -51,20 -19,3 -40,5 -62,5 -25,0 -49,-2 -73,-5 -24,-3 -49,-7 -73,-11l3 -54c24,3 48,6 72,10 24,3 48,4 71,4 12,0 24,-1 36,-2 12,-1 23,-4 32,-9 9,-5 17,-12 23,-21 6,-8 9,-20 9,-35 0,-21 -7,-36 -19,-45 -13,-9 -28,-16 -47,-20 -18,-4 -39,-8 -60,-10 -22,-3 -42,-7 -61,-15 -18,-7 -34,-18 -46,-33 -13,-16 -19,-38 -19,-68 0,-23 4,-41 12,-56 9,-15 20,-27 34,-37 14,-9 30,-16 48,-20 18,-4 37,-7 56,-7z"/>
  <path d="M3171 777l158 -577 140 0 158 577 -63 0 -42 -149 -246 0 -42 149 -63 0zm206 -522l-87 316 218 0 -87 -316 -44 0z"/>
  <path d="M3876 217c26,0 49,2 70,7 21,4 39,12 53,23 15,11 26,25 34,44 8,18 12,41 12,70 0,16 -2,31 -5,43 -4,12 -9,22 -16,31 -7,9 -16,18 -26,26 -10,8 -22,16 -35,25 18,6 33,13 45,21 12,7 22,16 29,27 8,11 13,23 16,36 4,14 5,30 5,49 0,30 -3,56 -11,76 -8,21 -19,38 -34,52 -15,13 -34,23 -56,29 -23,6 -48,9 -77,9 -31,0 -61,-2 -91,-6 -30,-4 -60,-9 -90,-17l6 -52c28,6 56,11 84,14 28,3 56,4 84,4 18,0 34,-2 49,-6 15,-3 28,-10 38,-18 11,-9 19,-20 24,-34 6,-13 9,-30 9,-48 0,-20 -3,-36 -10,-50 -6,-13 -14,-24 -25,-32 -10,-8 -22,-14 -36,-18 -14,-3 -29,-5 -44,-5l-110 1 0 -55 111 0c14,0 27,-3 39,-8 12,-6 22,-13 32,-22 9,-9 16,-20 21,-33 6,-12 8,-25 8,-39 0,-18 -3,-33 -9,-44 -5,-12 -13,-20 -23,-26 -10,-7 -22,-11 -36,-13 -13,-2 -28,-3 -44,-3 -27,0 -53,1 -78,4 -25,3 -50,7 -76,12l-6 -50c28,-8 55,-14 84,-18 28,-4 57,-6 85,-6z"/>
  <path d="M4346 217c23,0 47,2 71,7 24,4 45,12 64,23 19,11 34,25 46,44 12,18 18,41 18,70 0,17 -1,33 -5,45 -4,13 -9,25 -17,35 -7,10 -17,18 -29,26 -11,7 -25,15 -40,22 16,7 30,15 43,23 12,9 23,18 31,29 8,11 15,23 19,38 4,14 7,30 7,48 0,32 -6,57 -17,78 -12,20 -27,36 -46,48 -19,12 -41,20 -65,25 -25,5 -51,7 -78,7 -26,0 -51,-2 -76,-6 -24,-4 -47,-12 -66,-23 -19,-11 -35,-26 -47,-45 -12,-19 -18,-44 -18,-74 0,-20 2,-37 5,-51 4,-15 10,-28 17,-39 8,-11 18,-22 30,-31 12,-9 26,-18 43,-27 -14,-7 -27,-15 -38,-23 -11,-8 -20,-17 -27,-27 -7,-11 -12,-22 -15,-35 -4,-13 -6,-28 -6,-44 0,-28 6,-51 18,-69 11,-19 26,-33 45,-44 19,-11 40,-19 63,-23 23,-5 47,-7 70,-7zm2 510c18,0 35,-2 52,-5 16,-4 31,-9 44,-17 12,-8 23,-19 30,-33 8,-13 11,-31 11,-51 0,-12 -2,-25 -8,-37 -5,-11 -12,-22 -21,-32 -9,-10 -20,-18 -32,-23 -11,-6 -23,-9 -36,-9l-88 0c-13,0 -25,3 -36,10 -12,7 -21,15 -29,25 -8,11 -15,22 -19,34 -4,13 -7,25 -7,37 0,20 4,37 12,50 9,13 19,24 32,31 12,8 27,13 44,15 17,3 34,5 51,5zm0 -451c-16,0 -31,1 -47,3 -15,3 -29,7 -42,14 -12,7 -22,16 -29,28 -8,12 -11,27 -11,46 0,10 2,20 7,32 4,11 10,22 18,31 7,10 16,18 26,24 10,7 20,10 30,10l88 0c11,0 22,-3 33,-9 11,-6 20,-14 28,-24 9,-9 15,-19 20,-30 5,-11 8,-22 8,-33 0,-19 -4,-34 -11,-46 -8,-12 -18,-22 -30,-28 -12,-7 -26,-12 -41,-15 -15,-2 -31,-3 -47,-3z"/>
 </g>
 </g>
</svg>
