<?xml version="1.0" encoding="UTF-8"?>
<!DOCTYPE svg PUBLIC "-//W3C//DTD SVG 1.1//EN" "http://www.w3.org/Graphics/SVG/1.1/DTD/svg11.dtd">
<svg xmlns="http://www.w3.org/2000/svg" xml:space="preserve" width="709px" height="118px" version="1.1" style="shape-rendering:geometricPrecision; text-rendering:geometricPrecision; image-rendering:optimizeQuality; fill-rule:evenodd; clip-rule:evenodd"
viewBox="0 0 5908 985"
 xmlns:xlink="http://www.w3.org/1999/xlink">
 <defs>
  <style type="text/css">
   <![CDATA[
    .c1 {fill:none}
    .c2 {fill:#a00;fill-rule:nonzero}
   ]]>
  </style>
 </defs>
 <g>
  <rect class="c1" width="5908" height="985"/>
  <g class="c2">
  <path d="M1731 738l0 -24 -40 2c-11,0 -17,-6 -17,-19l0 -178 88 0c46,0 83,-13 110,-39 28,-26 41,-61 41,-105 0,-46 -14,-80 -41,-102 -28,-21 -70,-32 -128,-32l-196 0 0 25 29 -2c7,-1 12,1 15,4 3,3 4,8 4,14l0 415c0,13 -5,19 -15,19l-33 -2 0 24 183 0zm-57 -464c0,-3 1,-5 3,-7 3,-2 5,-3 7,-3l47 0c31,0 56,10 74,30 19,21 28,47 28,81 0,35 -8,64 -25,87 -17,22 -38,34 -64,34l-70 0 0 -222z"/>
  <path d="M2132 738l0 -21 -51 1c-7,0 -11,-5 -11,-16l0 -144c1,-22 5,-45 13,-69 7,-25 17,-45 30,-61 12,-17 27,-25 45,-25 12,1 19,7 19,18 0,4 -1,10 -4,18 -2,8 -3,14 -3,19 0,9 3,16 10,20 6,4 13,6 21,6 10,0 19,-3 25,-10 7,-7 10,-16 10,-29 0,-19 -6,-35 -18,-47 -12,-12 -29,-18 -50,-18 -43,0 -76,29 -98,87l0 -41c0,-7 1,-14 2,-22 1,-7 2,-13 3,-16l-118 0 0 22 30 -2c8,0 11,6 11,17l0 277c0,11 -3,16 -11,16l-26 -1 0 21 171 0z"/>
  <path d="M2439 747c31,0 60,-8 87,-23 26,-16 45,-37 56,-63l-19 -14c-9,20 -23,37 -42,51 -20,14 -43,21 -71,21 -35,0 -61,-14 -79,-41 -17,-27 -26,-66 -26,-116l240 0 0 -25c-1,-49 -15,-87 -42,-115 -27,-28 -62,-42 -106,-42 -55,0 -97,15 -125,46 -29,32 -43,77 -43,138 0,122 57,183 170,183zm-93 -206c0,-41 7,-75 22,-100 15,-26 38,-39 69,-39 28,0 48,9 59,27 12,18 18,46 18,84 0,11 -1,18 -4,22 -3,4 -7,6 -12,6l-152 0z"/>
  <path d="M2935 738l0 -24 -45 2c-11,0 -16,-6 -16,-19l0 -425c1,-6 4,-9 10,-9l35 0c36,0 63,9 79,26 15,16 23,43 23,79l22 0 0 -130c-4,1 -16,2 -33,2l-350 0c-14,0 -25,-1 -33,-2l0 130 22 0c0,-36 8,-63 24,-79 16,-17 42,-26 79,-26l34 0c7,0 10,3 10,10l0 422c0,6 -1,10 -4,15 -3,4 -7,6 -12,6l-45 -2 0 24 200 0z"/>
  <path d="M3216 747c32,0 61,-8 87,-23 27,-16 46,-37 57,-63l-19 -14c-9,20 -23,37 -43,51 -19,14 -42,21 -70,21 -35,0 -61,-14 -79,-41 -17,-27 -26,-66 -26,-116l240 0 0 -25c-1,-49 -15,-87 -42,-115 -27,-28 -62,-42 -106,-42 -55,0 -97,15 -125,46 -29,32 -43,77 -43,138 0,122 57,183 169,183zm-92 -206c0,-41 7,-75 22,-100 15,-26 38,-39 69,-39 28,0 47,9 59,27 12,18 18,46 18,84 0,11 -1,18 -4,22 -3,4 -7,6 -12,6l-152 0z"/>
  <path d="M3569 747c41,0 75,-10 100,-30 26,-20 38,-48 38,-84 0,-24 -5,-44 -17,-59 -12,-16 -32,-27 -60,-35l-80 -22c-35,-10 -52,-28 -52,-55 0,-18 6,-32 18,-43 12,-11 29,-17 50,-17 30,0 53,9 71,26 18,17 26,36 26,59l19 0 5 -96c-8,5 -15,7 -24,7 -8,0 -21,-2 -38,-7 -13,-4 -24,-7 -32,-9 -9,-1 -19,-2 -30,-2 -39,0 -70,9 -93,29 -23,19 -34,44 -34,74 0,24 6,43 19,59 13,16 30,27 52,34l80 22c22,6 37,14 45,24 9,10 14,23 14,39 0,19 -6,35 -19,46 -12,11 -29,17 -51,17 -34,0 -63,-10 -86,-30 -24,-21 -35,-46 -35,-76l-22 2 -4 110c5,-3 13,-5 24,-5 7,0 14,1 23,3 25,8 44,12 57,15 12,2 24,4 36,4z"/>
  <path d="M3884 743c48,0 77,-15 89,-46l-18 -11c-3,9 -9,17 -17,24 -9,6 -18,9 -26,9 -13,0 -22,-4 -27,-11 -5,-8 -7,-22 -7,-43l0 -256 91 0 0 -21 -91 0 0 -85 -24 0c-6,25 -12,43 -19,55 -7,12 -17,20 -28,24 -12,4 -29,6 -51,6l0 21 50 0 0 249c0,30 6,52 18,65 12,14 32,20 60,20z"/>
  <path d="M4190 747c112,0 169,-63 170,-189 0,-55 -14,-98 -43,-130 -28,-32 -70,-48 -124,-48 -55,0 -97,16 -125,49 -29,32 -43,77 -43,133 0,58 14,103 43,136 28,32 69,49 122,49zm3 -23c-33,0 -57,-13 -71,-38 -14,-25 -21,-66 -21,-122 0,-57 7,-98 21,-123 14,-26 38,-39 71,-39 32,0 56,13 70,39 14,25 21,66 21,123 0,56 -7,97 -21,122 -14,25 -38,38 -70,38z"/>
 </g>
 </g>
</svg>
