<?xml version="1.0" encoding="UTF-8"?>
<!DOCTYPE svg PUBLIC "-//W3C//DTD SVG 1.1//EN" "http://www.w3.org/Graphics/SVG/1.1/DTD/svg11.dtd">
<svg xmlns="http://www.w3.org/2000/svg" xml:space="preserve" width="709px" height="118px" version="1.1" style="shape-rendering:geometricPrecision; text-rendering:geometricPrecision; image-rendering:optimizeQuality; fill-rule:evenodd; clip-rule:evenodd"
viewBox="0 0 8508 1418"
 xmlns:xlink="http://www.w3.org/1999/xlink">
 <defs>
  <style type="text/css">
   <![CDATA[
    .c1 {fill:#eee}
    .c2 {fill:#000}
   ]]>
  </style>
 </defs>
 <g>
  <rect class="c1" width="8508" height="1418"/>
  <g class="c2">
  <path d="M2140 568c0,-1 2,-4 4,-8 3,-4 5,-7 6,-9 5,-12 9,-23 13,-33 5,-10 8,-20 11,-30 3,-10 5,-21 7,-31 2,-11 2,-23 2,-36 0,-9 0,-18 0,-27 -1,-8 -2,-17 -4,-26l0 -1c4,1 9,2 15,2 7,1 11,3 12,8 15,52 40,93 75,122 34,28 80,42 136,42 18,0 38,-2 58,-6 21,-5 40,-12 57,-22 17,-10 32,-23 43,-38 12,-16 17,-35 17,-57 0,-15 -2,-27 -7,-38 -5,-10 -12,-19 -21,-25 -9,-7 -19,-12 -31,-15 -12,-3 -25,-4 -38,-4 -17,0 -34,2 -50,7 -16,4 -32,9 -47,14 -16,5 -31,10 -47,14 -16,5 -32,7 -49,7 -31,0 -59,-6 -84,-17 -26,-12 -46,-32 -62,-60 -6,-12 -11,-22 -15,-32 -4,-10 -6,-22 -6,-35 0,-22 3,-40 8,-55 5,-15 14,-31 28,-48 14,-18 29,-33 43,-44 15,-11 31,-20 47,-27 17,-6 35,-10 54,-12 19,-2 40,-4 62,-4 26,0 52,3 79,9 27,6 52,14 76,25 2,1 5,2 9,5 4,3 9,6 14,9 5,2 9,5 13,7 4,3 7,4 8,4 2,0 4,-2 6,-7 1,-4 3,-10 5,-15 1,-6 3,-11 4,-17 2,-6 3,-9 5,-12l4 0c2,1 4,2 7,4 3,1 4,3 4,6 0,1 -1,4 -3,10 -2,6 -4,13 -6,21 -3,8 -5,15 -7,22 -2,8 -4,13 -4,16 -3,15 -4,30 -4,44 0,14 0,29 0,44 -1,1 -2,2 -4,4 -2,2 -3,2 -4,2 -3,0 -4,-2 -5,-6 -1,-4 -1,-7 -2,-9 -5,-11 -10,-21 -16,-30 -7,-10 -14,-19 -22,-27 -26,-25 -52,-43 -80,-55 -27,-11 -59,-17 -95,-17 -16,0 -33,2 -51,6 -17,4 -34,10 -49,19 -14,8 -27,19 -36,33 -10,13 -15,30 -15,49 0,29 9,50 28,63 18,13 41,20 67,20 16,0 31,-2 46,-6 14,-5 29,-9 43,-14 14,-6 28,-10 42,-14 14,-5 28,-7 42,-7 24,0 47,3 67,9 21,6 38,16 53,29 15,13 27,29 35,48 9,19 13,41 13,67 0,34 -7,64 -21,88 -14,25 -32,46 -55,62 -23,16 -49,28 -78,37 -30,8 -59,12 -90,12 -23,0 -49,-3 -78,-7 -29,-5 -55,-11 -77,-20 -2,0 -5,-2 -10,-3 -5,-2 -10,-4 -16,-7 -6,-2 -11,-3 -15,-5 -5,-1 -7,-2 -8,-2l-6 2c-4,3 -9,9 -13,18 -4,9 -7,16 -10,21l-1 0c-1,0 -2,0 -5,-1 -3,-2 -6,-3 -9,-4 -3,-1 -6,-2 -8,-3 -3,-2 -4,-3 -4,-3z"/>
  <path d="M2855 407l-1 4c3,17 7,33 12,48 5,16 11,32 18,47 2,6 8,11 18,16 9,4 20,9 34,13 13,4 28,7 43,10 15,3 31,6 45,8 15,2 28,4 40,5 12,1 21,2 28,3 20,2 40,5 61,7 20,3 40,4 61,4 2,0 5,1 8,4 4,3 5,5 5,8 0,2 -2,2 -5,2 -27,0 -54,-1 -81,-3 -28,-3 -55,-5 -82,-6 -19,-1 -37,-2 -56,-3 -19,-2 -37,-3 -56,-4 -13,-1 -26,-2 -39,-3 -13,-1 -26,-2 -39,-2l-73 0c-13,0 -26,1 -39,3 -12,1 -25,3 -37,7 -1,0 -3,1 -4,1 -2,1 -4,2 -5,3 -2,1 -4,3 -7,4 -2,0 -5,-2 -8,-5 -4,-4 -5,-7 -4,-9 17,-12 30,-29 41,-50 10,-21 18,-44 24,-69 6,-25 9,-50 11,-75 2,-24 3,-46 3,-64 0,-18 0,-39 -1,-64 -1,-24 -4,-48 -8,-72 -5,-24 -12,-46 -22,-67 -10,-20 -24,-35 -42,-46l-1 -4c1,-2 3,-3 4,-5 2,-2 4,-3 7,-3 0,0 1,0 2,1 0,0 1,1 2,1 6,2 11,5 17,8 6,2 12,5 19,8 9,3 20,5 33,6 12,2 23,2 34,2 16,0 33,-1 50,-3 16,-2 33,-4 50,-7 16,-3 33,-6 50,-8 17,-2 34,-3 51,-3 16,0 33,1 49,3 17,2 33,5 49,10 21,5 39,14 54,26 16,13 29,28 40,45 11,16 19,35 25,54 6,20 9,40 9,60 0,31 -6,59 -17,84 -11,26 -26,48 -45,66 -19,18 -42,32 -68,42 -26,11 -55,16 -85,16 -12,0 -25,-1 -37,-3 -13,-1 -25,-4 -37,-8 -10,-3 -22,-7 -35,-13 -13,-5 -24,-11 -33,-17 -2,-2 -7,-5 -13,-9 -6,-4 -10,-6 -13,-6l-2 0 -2 2zm137 14c24,0 45,-5 63,-15 19,-9 34,-22 47,-38 13,-16 23,-34 29,-54 6,-21 10,-42 10,-64 0,-22 -4,-42 -10,-62 -6,-19 -16,-36 -28,-51 -12,-15 -26,-27 -44,-35 -18,-9 -39,-14 -62,-14 -7,0 -17,1 -30,2 -13,2 -26,4 -40,7 -13,3 -26,7 -37,12 -11,6 -19,12 -22,20 -5,12 -9,25 -12,42 -3,16 -5,33 -6,50 -2,18 -2,35 -3,52 0,17 0,31 0,44 0,3 0,7 0,12 0,6 0,11 0,17 1,5 1,11 2,15 0,5 1,9 2,12 2,4 6,9 14,14 8,4 16,8 26,12 9,4 18,7 27,10 9,3 16,5 21,7 9,3 18,4 26,4 9,1 18,1 27,1z"/>
  <path d="M3719 332c1,2 7,6 18,13 12,7 24,17 38,30 14,12 26,28 38,47 11,19 17,41 17,67 0,5 -1,10 -1,15 -1,5 -2,9 -2,14 0,7 2,15 6,23 4,9 9,17 16,25 6,8 12,16 19,22 7,7 14,12 20,15l1 2 -1 1c-1,0 -3,1 -5,2 -2,0 -4,1 -5,1 -4,0 -9,-2 -17,-6 -7,-4 -13,-7 -16,-9 -10,-7 -19,-14 -28,-21 -10,-7 -19,-14 -28,-21 -21,-18 -41,-39 -60,-64 -19,-25 -38,-49 -59,-73 -20,-23 -43,-43 -67,-59 -24,-16 -51,-24 -82,-24 -3,0 -7,0 -13,1 -5,0 -11,1 -17,2 -6,1 -11,3 -15,5 -4,3 -6,5 -6,9 0,22 0,42 2,60 2,17 6,34 12,48 6,15 15,29 26,42 12,12 28,25 48,37 14,8 28,15 42,19 15,4 29,8 44,10 14,2 29,3 44,3 15,1 30,1 46,1 0,0 1,0 1,1 0,1 -1,2 -3,4 -1,2 -3,4 -6,6 -2,2 -5,4 -7,5 -2,1 -4,2 -5,2 -6,0 -13,-1 -22,-4 -8,-3 -16,-4 -24,-5 -20,-1 -39,-2 -57,-3 -18,-2 -36,-3 -53,-3 -18,-1 -36,-2 -54,-2 -19,-1 -39,-1 -60,-1 -14,0 -28,0 -43,2 -14,1 -29,3 -43,5 -9,1 -18,3 -29,5 -10,3 -20,4 -29,4 -3,0 -6,-2 -10,-7l0 0 1 -2c5,-2 10,-5 14,-9 4,-4 8,-7 13,-11 15,-15 27,-30 37,-48 9,-17 16,-35 21,-55 5,-19 8,-39 10,-60 1,-20 2,-40 2,-60 0,-20 -1,-43 -2,-70 -1,-27 -4,-54 -10,-79 -5,-26 -14,-49 -27,-70 -12,-21 -30,-35 -54,-44l-1 -2 0 -3c2,-2 4,-4 6,-6 1,-2 4,-3 6,-3 1,0 4,2 9,4 4,2 7,3 9,4 15,4 30,7 46,9 16,2 31,3 47,3 18,0 37,-1 55,-4 18,-2 36,-4 55,-7 18,-2 37,-5 55,-7 19,-2 37,-3 55,-3 23,0 47,2 70,6 23,5 44,12 62,23 19,11 34,26 45,44 12,18 17,41 17,69 0,27 -5,49 -17,65 -11,17 -24,30 -38,39 -14,10 -26,17 -38,21 -12,4 -18,8 -19,10zm-123 -240c-18,0 -35,2 -52,6 -16,3 -32,9 -48,18 -3,3 -6,8 -9,15 -2,8 -5,17 -7,28 -2,11 -4,22 -6,35 -1,12 -2,24 -3,36 -1,11 -2,22 -2,31 -1,9 -1,16 -1,20l0 25c0,1 0,2 1,3 0,1 1,2 1,3l0 1c2,0 4,0 6,0 0,0 1,0 4,-1 2,-1 5,-2 8,-3 3,-1 5,-3 8,-4 3,-1 5,-1 6,-1 10,-3 21,-5 33,-6 11,-1 22,-1 33,-1 11,0 21,0 31,2 10,2 20,3 31,4 8,1 17,3 25,6 9,3 17,4 25,4 8,0 15,-4 21,-12 6,-9 11,-19 15,-30 4,-11 7,-23 9,-34 1,-12 2,-20 2,-26 0,-18 -3,-34 -11,-48 -7,-15 -17,-28 -29,-38 -12,-11 -26,-19 -42,-24 -15,-6 -32,-9 -49,-9z"/>
  <path d="M4504 588c-9,-5 -20,-9 -33,-12 -14,-2 -27,-4 -42,-4 -14,-1 -28,-2 -43,-1 -14,0 -26,0 -37,0 -53,0 -107,1 -160,1 -54,1 -108,2 -161,2 -5,0 -9,0 -13,0 -5,0 -9,0 -13,0l-2 -2 1 -3 6 -4c4,0 8,0 12,0 4,0 8,0 13,0 17,0 37,-1 61,-2 23,-2 48,-3 73,-5 25,-3 49,-5 73,-9 23,-3 43,-7 59,-11 7,-1 14,-4 20,-7 6,-3 12,-8 16,-14 13,-15 19,-32 19,-51 0,-5 -1,-15 -3,-31 -1,-15 -4,-31 -7,-48 -3,-17 -6,-31 -10,-44 -4,-13 -9,-19 -13,-19 -40,1 -80,1 -120,0 -39,-1 -79,-1 -119,-1 -5,0 -9,2 -10,6 -1,5 -3,9 -4,13 -4,10 -7,20 -11,29 -3,10 -6,20 -9,30 -2,6 -5,14 -10,24 -4,11 -9,23 -16,36 -6,12 -12,26 -20,40 -7,14 -15,26 -22,38 -8,12 -15,22 -22,30 -8,8 -14,12 -20,13 -3,1 -6,2 -11,3 -4,1 -8,1 -11,1 0,0 0,0 0,0 -1,-1 -1,-1 -1,-1 8,-11 17,-23 25,-36 8,-13 15,-27 20,-41 6,-15 11,-29 15,-44 4,-15 5,-29 5,-43 0,-10 0,-21 -2,-30 -1,-10 -2,-21 -2,-31 0,-22 4,-44 12,-67 8,-22 18,-44 30,-65 13,-21 27,-41 43,-59 16,-19 31,-36 47,-50 1,-2 5,-5 10,-9 5,-4 10,-8 15,-12 6,-4 10,-8 15,-12 4,-3 6,-5 7,-6l-2 -4 -5 -1c-3,0 -7,1 -10,1 -3,0 -6,0 -9,0 -3,0 -9,0 -19,0 -10,-1 -21,-2 -34,-2 -13,-1 -27,-2 -41,-3 -15,-1 -28,-2 -40,-3 -12,-1 -23,-2 -31,-4 -8,-1 -13,-1 -13,-2l-2 -2 2 -4c1,-1 3,-2 5,-4 2,-2 4,-4 6,-4 4,0 8,1 11,2 4,0 8,1 11,2 15,1 30,2 45,2 15,1 30,1 46,2 31,2 63,2 94,3 31,0 62,1 93,1 23,0 46,-1 69,-2 23,0 46,-2 69,-5l2 0c5,0 8,2 11,5 3,3 5,6 7,10l-3 2c-2,1 -5,2 -7,2 -3,0 -5,0 -8,1 -10,5 -17,12 -20,22 -4,10 -5,20 -5,30 0,9 1,24 4,44 3,20 7,43 12,68 4,26 10,53 16,81 6,28 11,54 17,80 6,25 12,48 17,67 5,20 9,34 13,42 9,21 21,38 35,53 3,3 7,6 11,8 4,1 8,4 11,6l1 2c0,3 -2,7 -5,11 -1,1 -2,1 -4,1zm-420 -296l0 2 4 3c5,0 10,1 16,1 6,0 11,0 16,0 28,0 55,0 81,0 27,0 54,-1 81,-1 5,0 10,0 16,0 5,0 10,0 15,-1 5,-1 7,-4 7,-9 0,-7 -1,-16 -4,-24 -3,-9 -5,-17 -6,-25 -2,-12 -4,-26 -8,-44 -3,-17 -8,-35 -14,-51 -7,-17 -15,-32 -25,-44 -10,-12 -23,-18 -39,-18 -16,0 -30,5 -43,15 -13,11 -24,23 -33,38 -10,15 -18,31 -25,47 -7,16 -12,30 -17,43 -2,3 -4,8 -6,15 -2,6 -5,12 -7,19 -3,7 -5,14 -6,20 -2,6 -3,11 -3,14z"/>
  <path d="M4729 319c0,22 2,46 4,73 3,27 8,50 16,70 6,16 16,29 28,40 13,11 28,20 45,27 17,7 36,13 55,17 20,4 39,7 59,9 19,2 38,4 56,4 17,1 33,1 46,1l5 0 1 1c-4,3 -7,6 -10,10 -2,3 -5,7 -8,10 -2,0 -2,0 -3,0 -1,0 -2,1 -3,1 -9,0 -18,-1 -28,-2 -10,-2 -19,-3 -28,-4 -32,-2 -64,-4 -95,-6 -32,-2 -64,-3 -96,-3 -35,0 -69,2 -103,5 -33,4 -68,9 -102,17l-3 -1 -4 -8 2 -4c19,-13 34,-29 45,-48 12,-19 21,-39 28,-61 7,-21 11,-43 14,-66 2,-23 3,-45 3,-66 0,-18 0,-37 0,-58 0,-22 -2,-43 -4,-65 -2,-22 -6,-43 -11,-63 -5,-21 -12,-38 -21,-53 -6,-9 -11,-15 -15,-20 -5,-4 -9,-7 -14,-10 -4,-2 -9,-4 -13,-6 -4,-1 -8,-4 -12,-7l-1 -1 1 -1c3,-2 5,-4 8,-7 2,-2 4,-4 7,-6l2 -1c6,1 13,5 21,10 8,6 16,9 24,11 23,6 47,9 72,9 18,0 37,-2 54,-5 18,-2 36,-6 54,-9 18,-3 36,-6 54,-9 18,-3 36,-4 54,-4 33,0 64,4 92,12 27,8 51,20 71,36 19,17 34,38 45,64 10,26 16,57 16,93 0,18 -3,35 -7,52 -5,17 -10,34 -16,51 -6,17 -11,34 -16,51 -4,16 -7,34 -7,51 0,24 5,47 13,69 9,22 23,41 42,57l2 6 -1 1c-2,1 -6,3 -9,5 -4,1 -7,2 -9,2l-6 -2c-9,-5 -19,-12 -30,-22 -11,-9 -21,-20 -31,-32 -10,-11 -19,-23 -28,-35 -8,-12 -15,-23 -19,-33 -4,-8 -7,-19 -9,-32 -2,-14 -3,-25 -3,-34 0,-13 1,-26 3,-39 2,-12 4,-25 6,-38 3,-13 5,-26 7,-38 2,-13 3,-26 3,-39 0,-21 -3,-41 -9,-61 -5,-19 -14,-37 -25,-53 -12,-15 -26,-28 -43,-37 -17,-10 -37,-15 -60,-15 -38,0 -74,10 -107,29 -11,7 -21,20 -27,38 -6,18 -11,38 -14,60 -4,21 -6,42 -6,63 -1,21 -2,37 -2,49z"/>
  <path d="M5678 90l5 -1c1,-1 2,-4 3,-8 2,-3 3,-7 5,-12 1,-4 3,-8 4,-11 2,-3 4,-5 5,-5 2,0 4,1 7,1 3,1 6,2 8,2l1 2 0 1c0,1 -1,4 -3,8 -2,4 -4,7 -5,9 -2,5 -4,12 -7,20 -2,8 -4,16 -6,24 -2,8 -3,16 -4,25 -1,8 -2,15 -2,21 0,8 0,16 0,24 0,8 1,16 2,24 0,5 1,10 2,16 2,5 2,11 2,15 0,1 0,4 -2,7 -2,3 -3,5 -6,5 -1,0 -1,-1 -2,-2 0,0 0,-1 -1,-2 -2,-10 -5,-19 -7,-28 -1,-9 -4,-18 -8,-27 -16,-37 -40,-66 -72,-85 -31,-19 -67,-29 -107,-29 -18,0 -36,3 -53,8 -18,6 -35,14 -51,24 -16,10 -29,22 -41,36 -12,14 -22,30 -28,47 -8,20 -13,41 -17,62 -3,22 -5,43 -5,64 0,26 5,52 14,80 9,27 22,52 38,74 17,22 37,41 60,55 24,14 50,21 79,21 24,0 46,-4 65,-13 20,-8 36,-20 49,-35 13,-15 23,-33 29,-53 7,-21 10,-43 10,-66 0,-17 -2,-33 -8,-48 -6,-16 -13,-29 -24,-41 -10,-12 -22,-22 -36,-29 -15,-7 -31,-11 -48,-11 -14,0 -27,3 -40,8 -12,5 -23,13 -32,22 -9,9 -17,20 -22,32 -5,13 -7,26 -7,40 0,30 11,53 33,71 6,4 11,8 18,10 6,3 11,6 15,11l0 0c-1,4 -4,5 -9,5 -4,0 -11,-2 -19,-5 -8,-4 -15,-7 -19,-10 -17,-9 -28,-22 -36,-38 -7,-16 -10,-33 -10,-52 0,-20 4,-38 12,-54 8,-16 18,-29 32,-40 13,-11 28,-20 46,-26 18,-6 36,-8 55,-8 27,0 52,3 74,11 23,8 43,19 59,34 17,15 29,34 38,55 10,22 14,47 14,75 0,13 -2,25 -5,36 -4,11 -8,22 -13,34 -8,21 -20,39 -36,53 -16,15 -34,27 -54,37 -20,9 -41,16 -63,20 -22,5 -43,7 -64,7 -43,0 -82,-6 -118,-17 -36,-12 -67,-30 -93,-53 -26,-23 -46,-52 -61,-86 -15,-34 -22,-74 -22,-118 0,-45 8,-83 23,-116 15,-34 36,-61 63,-84 26,-22 58,-39 93,-50 36,-11 74,-17 115,-17 32,0 64,4 96,11 33,8 63,19 92,33z"/>
  <path d="M6364 588c-9,-5 -20,-9 -33,-12 -13,-2 -27,-4 -42,-4 -14,-1 -28,-2 -42,-1 -15,0 -27,0 -38,0 -53,0 -107,1 -160,1 -54,1 -108,2 -161,2 -5,0 -9,0 -13,0 -4,0 -9,0 -13,0l-2 -2 1 -3 6 -4c4,0 8,0 12,0 4,0 8,0 13,0 17,0 37,-1 61,-2 24,-2 48,-3 73,-5 25,-3 49,-5 73,-9 23,-3 43,-7 59,-11 7,-1 14,-4 20,-7 7,-3 12,-8 16,-14 13,-15 19,-32 19,-51 0,-5 -1,-15 -2,-31 -2,-15 -5,-31 -8,-48 -3,-17 -6,-31 -10,-44 -4,-13 -8,-19 -13,-19 -40,1 -80,1 -120,0 -39,-1 -79,-1 -119,-1 -5,0 -8,2 -10,6 -1,5 -3,9 -4,13 -4,10 -7,20 -11,29 -3,10 -6,20 -9,30 -2,6 -5,14 -9,24 -5,11 -10,23 -16,36 -7,12 -13,26 -21,40 -7,14 -15,26 -22,38 -8,12 -15,22 -22,30 -7,8 -14,12 -20,13 -3,1 -6,2 -11,3 -4,1 -8,1 -10,1 -1,0 -1,0 -1,0 -1,-1 -1,-1 -1,-1 8,-11 17,-23 25,-36 8,-13 15,-27 21,-41 5,-15 10,-29 14,-44 4,-15 6,-29 6,-43 0,-10 -1,-21 -2,-30 -2,-10 -2,-21 -2,-31 0,-22 3,-44 11,-67 8,-22 18,-44 31,-65 12,-21 26,-41 42,-59 16,-19 31,-36 47,-50 1,-2 5,-5 10,-9 5,-4 10,-8 15,-12 6,-4 11,-8 15,-12 4,-3 6,-5 7,-6l-2 -4 -5 -1c-3,0 -7,1 -10,1 -3,0 -6,0 -9,0 -3,0 -9,0 -19,0 -10,-1 -21,-2 -34,-2 -13,-1 -27,-2 -41,-3 -14,-1 -28,-2 -40,-3 -12,-1 -23,-2 -31,-4 -8,-1 -13,-1 -13,-2l-2 -2 2 -4c2,-1 3,-2 5,-4 2,-2 4,-4 6,-4 4,0 8,1 11,2 4,0 8,1 12,2 14,1 29,2 44,2 15,1 31,1 46,2 31,2 63,2 94,3 31,0 62,1 93,1 23,0 46,-1 69,-2 23,0 46,-2 69,-5l2 0c5,0 8,2 11,5 3,3 5,6 7,10l-2 2c-3,1 -6,2 -8,2 -2,0 -5,0 -8,1 -10,5 -17,12 -20,22 -4,10 -5,20 -5,30 0,9 1,24 4,44 3,20 7,43 12,68 5,26 10,53 16,81 6,28 11,54 17,80 6,25 12,48 17,67 5,20 9,34 13,42 9,21 21,38 35,53 3,3 7,6 11,8 4,1 8,4 11,6l1 2c0,3 -2,7 -5,11 -1,1 -2,1 -4,1zm-420 -296l0 2 4 3c5,0 10,1 16,1 6,0 11,0 16,0 28,0 55,0 81,0 27,0 54,-1 81,-1 5,0 10,0 16,0 5,0 11,0 15,-1 5,-1 8,-4 8,-9 0,-7 -2,-16 -5,-24 -3,-9 -5,-17 -6,-25 -1,-12 -4,-26 -7,-44 -4,-17 -9,-35 -15,-51 -7,-17 -15,-32 -25,-44 -10,-12 -23,-18 -39,-18 -16,0 -30,5 -43,15 -13,11 -24,23 -33,38 -10,15 -18,31 -25,47 -6,16 -12,30 -17,43 -2,3 -4,8 -6,15 -2,6 -5,12 -7,19 -3,7 -5,14 -6,20 -2,6 -3,11 -3,14z"/>
  <path d="M1751 854l4 -1 1 1c2,0 2,0 2,2 0,5 0,12 -2,21 -2,10 -4,20 -7,31 -2,11 -4,21 -7,32 -2,10 -3,18 -4,25 -2,11 -3,23 -5,38 -1,14 -2,29 -4,44 -1,15 -2,30 -3,44 -1,14 -1,26 -1,37l0 59c0,12 0,27 1,42 1,15 2,31 5,46 2,16 6,31 10,45 4,15 10,27 17,38 2,4 5,8 9,12 3,4 6,8 7,12 -1,3 -4,5 -8,5 -1,0 -2,0 -3,-1 0,0 -1,0 -2,0 -7,-4 -19,-8 -35,-10 -16,-2 -34,-4 -52,-5 -19,-1 -37,-2 -55,-2 -17,-1 -31,-1 -40,-1 -33,0 -67,0 -101,0 -34,0 -68,1 -101,3 -17,2 -36,3 -55,4 -20,1 -37,4 -53,9 -2,1 -5,3 -8,4 -3,2 -6,3 -8,3 -1,0 -2,-1 -5,-4 -2,-2 -3,-3 -3,-4 0,-2 1,-4 5,-6 4,-1 7,-3 8,-4 11,-7 23,-16 34,-28 11,-12 20,-23 27,-34 7,-12 12,-26 16,-43 4,-18 7,-36 9,-55 2,-19 3,-37 3,-56 1,-19 1,-35 1,-48 0,-19 -1,-38 -1,-58 -1,-19 -3,-38 -7,-56 -3,-19 -9,-36 -16,-54 -8,-17 -18,-33 -31,-49 -9,-12 -19,-20 -28,-24 -9,-4 -20,-8 -33,-14l0 -1c4,-3 7,-6 9,-7l4 0c8,2 19,5 32,7 12,3 27,5 42,6 16,1 32,2 48,3 17,2 34,2 50,3 16,0 30,1 44,1 14,0 25,0 34,0 28,0 56,0 84,-1 28,-1 55,-4 83,-8 7,-1 15,-3 24,-5 8,-1 16,-2 24,-2 2,0 4,1 7,4l0 2c0,2 -1,2 -3,2 -8,3 -16,5 -24,6 -8,2 -15,3 -23,4 -32,5 -64,11 -95,18 -32,6 -64,11 -96,14 -4,1 -9,1 -14,2 -4,0 -8,3 -10,8 -6,18 -11,36 -15,55 -3,20 -6,40 -8,60 -2,20 -4,40 -5,60 -1,20 -1,39 -1,58 0,12 1,27 2,45 1,18 3,37 6,55 2,19 5,37 10,54 4,18 9,32 14,42 2,5 5,7 8,7 3,1 7,1 11,1 12,0 26,-1 40,-4 15,-2 29,-5 43,-10 14,-5 27,-11 39,-19 12,-7 22,-17 30,-28 15,-21 27,-44 36,-67 9,-23 16,-47 22,-72 5,-24 10,-49 14,-74 4,-24 9,-49 15,-74 4,-14 7,-28 9,-42 3,-14 6,-28 10,-42 3,-10 5,-20 8,-31 3,-11 6,-20 11,-30z"/>
  <path d="M2107 1394c-39,0 -77,-6 -112,-18 -26,-8 -49,-20 -71,-38 -22,-17 -41,-37 -57,-60 -16,-23 -29,-48 -39,-74 -9,-27 -14,-53 -14,-79 0,-38 7,-74 20,-108 14,-34 32,-63 56,-89 24,-26 52,-46 85,-61 33,-15 69,-23 108,-23 42,0 81,7 117,20 37,13 68,31 94,56 27,24 48,53 63,88 15,35 23,74 23,118 0,35 -8,69 -23,101 -15,32 -36,61 -61,86 -25,24 -54,44 -87,59 -32,15 -66,22 -102,22zm-2 -519c-30,0 -57,7 -81,21 -23,13 -43,31 -59,53 -15,22 -27,47 -36,74 -8,28 -12,55 -12,82 0,27 4,56 11,86 8,29 19,57 35,82 15,24 34,45 58,61 23,17 51,25 83,25 34,0 62,-9 83,-26 22,-18 40,-39 53,-65 13,-26 22,-54 27,-85 6,-31 8,-59 8,-85 0,-26 -3,-52 -10,-78 -7,-26 -17,-50 -31,-72 -14,-21 -32,-39 -53,-52 -22,-14 -47,-21 -76,-21z"/>
  <path d="M2596 1119c0,22 2,47 4,73 3,27 8,50 16,71 6,15 16,28 28,39 13,11 28,20 45,27 17,8 36,13 55,17 20,4 39,7 59,9 19,3 38,4 56,4 17,1 33,1 46,1l5 0 1 2c-4,3 -7,6 -10,9 -2,4 -5,7 -8,10 -1,0 -2,0 -3,0 -1,1 -2,1 -3,1 -9,0 -18,-1 -28,-2 -10,-1 -19,-3 -28,-4 -32,-2 -64,-4 -95,-6 -32,-2 -64,-3 -96,-3 -35,0 -69,2 -103,6 -33,3 -68,9 -102,16l-3 -1 -4 -8 2 -4c19,-13 34,-28 45,-47 12,-19 21,-40 28,-61 7,-22 11,-44 14,-67 2,-23 3,-45 3,-66 0,-17 0,-37 0,-58 0,-21 -2,-43 -4,-65 -2,-22 -6,-43 -11,-63 -5,-20 -12,-38 -21,-53 -6,-8 -11,-15 -15,-19 -5,-4 -9,-8 -14,-10 -4,-3 -9,-5 -13,-6 -4,-2 -8,-4 -12,-7l-1 -2 1 -1c3,-2 5,-4 8,-6 2,-2 4,-4 7,-7l2 0c6,1 13,4 21,10 8,5 16,9 24,10 23,6 47,9 72,9 18,0 37,-1 54,-4 18,-3 36,-6 54,-9 18,-4 36,-7 54,-10 18,-3 36,-4 54,-4 33,0 64,4 92,12 27,8 51,20 71,37 19,16 34,38 45,63 10,26 16,57 16,93 0,18 -3,36 -7,53 -5,17 -10,34 -16,51 -6,16 -11,33 -16,50 -4,17 -7,34 -7,52 0,24 5,47 13,68 9,22 23,41 42,57l2 7 -1 0c-2,2 -6,3 -9,5 -4,2 -7,3 -9,3l-6 -3c-9,-5 -19,-12 -30,-21 -11,-10 -21,-21 -31,-32 -10,-12 -19,-24 -28,-36 -8,-12 -15,-23 -19,-32 -4,-8 -7,-19 -9,-33 -2,-13 -3,-25 -3,-34 0,-13 1,-25 3,-38 2,-13 4,-26 6,-39 3,-12 5,-25 7,-38 2,-13 3,-26 3,-38 0,-21 -3,-42 -9,-61 -5,-20 -14,-38 -25,-53 -12,-16 -26,-28 -43,-38 -17,-9 -37,-14 -60,-14 -38,0 -74,9 -107,29 -11,7 -21,19 -27,37 -6,18 -11,38 -14,60 -4,22 -6,43 -6,64 -1,20 -2,37 -2,48z"/>
  <path d="M3545 890l5 0c1,-2 2,-5 3,-8 2,-4 3,-8 5,-12 1,-5 3,-8 4,-12 2,-3 4,-4 5,-4 2,0 4,0 7,1 3,1 6,1 8,2l1 1 0 1c0,1 -1,4 -3,8 -2,5 -4,7 -5,9 -2,5 -4,12 -7,20 -2,8 -4,16 -6,24 -2,9 -3,17 -4,25 -1,8 -2,15 -2,21 0,8 0,17 0,25 0,8 1,16 2,24 0,4 1,10 2,15 2,6 2,11 2,16 0,1 0,3 -2,6 -2,3 -3,5 -6,5 -1,0 -1,0 -2,-1 0,-1 0,-2 -1,-3 -2,-9 -5,-18 -7,-27 -1,-9 -4,-18 -8,-27 -16,-38 -40,-66 -72,-85 -31,-20 -67,-29 -107,-29 -18,0 -36,3 -53,8 -18,5 -35,13 -51,23 -16,10 -29,22 -41,36 -12,15 -22,30 -28,47 -8,21 -13,41 -16,63 -4,21 -6,42 -6,64 0,25 5,52 14,79 9,27 22,52 38,74 17,23 37,41 60,55 24,14 50,21 79,21 24,0 46,-4 65,-12 20,-9 36,-21 49,-36 13,-14 23,-32 29,-53 7,-20 10,-42 10,-66 0,-16 -2,-32 -8,-48 -6,-15 -13,-29 -24,-41 -10,-12 -22,-22 -36,-29 -15,-7 -31,-11 -48,-11 -14,0 -27,3 -40,8 -12,6 -23,13 -32,22 -9,10 -17,20 -22,33 -5,12 -7,25 -7,40 0,29 11,53 33,70 6,4 11,8 18,11 6,2 11,6 15,10l0 1c-1,3 -4,5 -9,5 -4,0 -11,-2 -19,-6 -8,-4 -15,-7 -19,-10 -17,-9 -28,-21 -36,-38 -7,-16 -10,-33 -10,-51 0,-20 4,-39 12,-55 8,-16 18,-29 32,-40 13,-11 28,-19 46,-25 18,-6 36,-9 55,-9 27,0 52,4 74,12 23,7 43,19 59,34 17,14 29,33 38,55 10,22 14,46 14,74 0,14 -2,26 -5,36 -4,11 -8,22 -13,35 -8,20 -20,38 -36,53 -16,15 -34,27 -54,36 -20,9 -41,16 -63,21 -22,4 -43,6 -64,6 -43,0 -82,-5 -118,-17 -36,-12 -67,-29 -93,-53 -26,-23 -46,-51 -61,-86 -15,-34 -22,-73 -22,-118 0,-44 8,-83 23,-116 15,-33 36,-61 63,-83 26,-23 58,-40 93,-51 36,-11 74,-17 115,-17 32,0 64,4 96,12 33,7 63,18 92,32z"/>
  <path d="M3933 1394c-39,0 -77,-6 -113,-18 -25,-8 -48,-20 -70,-38 -22,-17 -41,-37 -57,-60 -17,-23 -30,-48 -39,-74 -9,-27 -14,-53 -14,-79 0,-38 7,-74 20,-108 13,-34 32,-63 56,-89 24,-26 52,-46 85,-61 33,-15 69,-23 108,-23 42,0 81,7 117,20 36,13 68,31 94,56 26,24 47,53 62,88 16,35 23,74 23,118 0,35 -7,69 -23,101 -15,32 -35,61 -60,86 -26,24 -55,44 -87,59 -33,15 -67,22 -102,22zm-2 -519c-31,0 -58,7 -81,21 -24,13 -43,31 -59,53 -16,22 -28,47 -36,74 -8,28 -12,55 -12,82 0,27 3,56 11,86 7,29 19,57 34,82 16,24 35,45 59,61 23,17 51,25 83,25 33,0 61,-9 83,-26 22,-18 39,-39 53,-65 13,-26 22,-54 27,-85 5,-31 8,-59 8,-85 0,-26 -3,-52 -10,-78 -7,-26 -18,-50 -31,-72 -14,-21 -32,-39 -54,-52 -21,-14 -47,-21 -75,-21z"/>
  <path d="M4662 1059l-2 4 0 1c2,3 8,6 17,10 9,3 16,7 20,10 24,17 44,36 58,59 14,22 21,48 21,77 0,28 -5,53 -16,74 -11,21 -25,39 -43,53 -19,14 -39,24 -63,31 -23,7 -48,10 -73,10 -19,0 -37,-1 -54,-3 -18,-2 -36,-4 -54,-7 -18,-2 -36,-4 -54,-6 -18,-2 -36,-3 -54,-3 -10,0 -21,1 -31,2 -9,1 -19,3 -30,6 -4,1 -10,3 -17,6 -7,4 -12,5 -14,5 -2,0 -5,-1 -7,-4 -2,-2 -3,-5 -2,-8 7,-9 14,-16 20,-23 6,-6 12,-14 16,-26 12,-28 20,-57 22,-88 3,-30 5,-60 5,-91 0,-15 0,-32 -1,-51 0,-18 -2,-37 -3,-55 -2,-19 -4,-37 -7,-55 -3,-18 -7,-34 -12,-49 -3,-10 -7,-19 -12,-28 -5,-8 -11,-17 -16,-25 -3,-3 -7,-6 -13,-11 -7,-4 -10,-7 -10,-10 0,-3 1,-5 3,-6 2,-1 4,-2 7,-2 1,0 4,1 7,2 4,1 8,2 12,4 4,1 9,3 13,4 4,1 8,2 11,3 13,1 25,2 38,3 12,1 24,2 37,2 17,0 33,-2 49,-7 16,-4 32,-7 48,-10 17,-3 35,-6 54,-8 19,-2 37,-3 55,-3 18,0 36,2 54,8 19,5 35,13 49,23 15,11 26,24 35,39 9,16 13,34 13,54 0,10 -2,20 -6,30 -4,10 -10,19 -17,27 -8,8 -16,14 -25,20 -9,6 -18,10 -28,12zm-128 -181c-6,0 -13,1 -19,2 -6,2 -13,3 -18,5 -23,6 -41,16 -55,29 -13,14 -22,29 -29,47 -7,18 -11,37 -13,57 -2,21 -3,41 -3,61l0 16 3 3c2,-1 5,-2 9,-4 4,-2 8,-5 13,-8 6,-3 10,-6 15,-8 4,-3 8,-5 10,-6 8,-4 17,-8 28,-11 11,-3 23,-6 34,-8 12,-2 24,-4 35,-5 11,-1 21,-1 31,-1 9,0 17,0 25,2 8,1 17,2 25,2 4,0 8,-3 11,-9 3,-5 6,-12 7,-19 2,-8 4,-15 4,-22 1,-8 2,-13 2,-16 0,-36 -11,-63 -32,-80 -20,-18 -48,-27 -83,-27zm7 201c-9,0 -21,1 -36,3 -15,3 -30,6 -45,11 -15,5 -29,11 -40,18 -12,7 -19,16 -22,25 -2,7 -2,14 -2,21 0,25 1,49 5,73 3,23 10,44 20,63 10,18 25,33 44,44 18,11 42,16 72,16 21,0 41,-3 58,-10 18,-6 34,-15 47,-27 14,-11 24,-26 32,-43 8,-18 11,-37 11,-58 0,-21 -3,-40 -11,-56 -8,-17 -18,-31 -31,-43 -13,-12 -29,-21 -46,-28 -18,-6 -37,-9 -56,-9z"/>
  <path d="M5399 1388c-9,-5 -20,-9 -33,-11 -13,-3 -27,-4 -41,-5 -14,-1 -29,-1 -43,-1 -14,0 -26,0 -37,0 -53,0 -107,1 -161,2 -53,0 -107,1 -161,1 -4,0 -8,0 -13,0 -4,1 -8,1 -12,1l-2 -3 1 -3 5 -3c5,-1 9,-1 13,-1 4,0 8,0 12,0 17,0 38,-1 61,-2 24,-1 49,-3 74,-5 25,-2 49,-5 72,-9 24,-3 44,-7 60,-10 7,-2 13,-4 20,-8 6,-3 11,-7 16,-13 12,-16 19,-33 19,-51 0,-6 -1,-16 -3,-32 -2,-15 -4,-31 -7,-48 -3,-16 -7,-31 -11,-44 -4,-12 -8,-19 -13,-19 -40,1 -80,1 -119,1 -39,-1 -79,-2 -119,-2 -6,0 -9,2 -10,7 -2,4 -3,8 -5,13 -3,9 -7,19 -10,29 -3,10 -6,20 -10,30 -1,5 -4,13 -9,24 -4,10 -10,22 -16,35 -6,13 -13,26 -20,40 -8,14 -15,27 -23,38 -7,12 -14,22 -22,30 -7,8 -13,13 -19,14 -3,1 -7,2 -11,2 -5,1 -8,2 -11,2 0,0 -1,-1 -1,-1 0,-1 -1,-1 -1,-1 9,-11 17,-22 25,-36 8,-13 15,-26 21,-41 6,-14 11,-29 14,-44 4,-15 6,-29 6,-42 0,-11 -1,-21 -2,-31 -1,-10 -2,-20 -2,-31 0,-22 4,-44 12,-66 7,-23 18,-44 30,-65 13,-22 27,-41 43,-60 15,-19 31,-35 46,-50 2,-1 5,-4 10,-8 5,-4 11,-8 16,-13 5,-4 10,-8 14,-11 5,-4 7,-6 8,-7l-2 -3 -6 -2c-3,1 -6,1 -9,1 -3,1 -7,1 -10,1 -3,0 -9,0 -19,-1 -10,0 -21,-1 -34,-2 -12,-1 -26,-2 -40,-3 -15,-1 -28,-2 -40,-3 -13,-1 -23,-2 -31,-3 -9,-1 -13,-2 -14,-3l-1 -2 1 -3c2,-1 4,-3 6,-5 2,-2 4,-3 6,-3 3,0 7,0 11,1 4,1 7,2 11,2 15,1 30,2 45,2 15,1 30,2 46,3 31,1 62,2 93,2 31,1 62,1 94,1 23,0 46,0 69,-1 23,-1 46,-3 69,-5l2 0c4,0 8,1 11,4 3,3 5,6 7,10l-3 2c-3,2 -5,2 -8,2 -2,0 -4,1 -7,2 -10,4 -17,12 -21,22 -3,10 -5,20 -5,30 0,9 2,23 5,43 3,20 6,43 11,69 5,25 10,52 16,80 6,28 12,55 18,80 6,26 11,48 16,67 5,20 10,34 14,42 9,21 20,39 35,53 3,3 7,6 11,8 4,2 7,4 10,7l1 1c0,3 -1,7 -5,11 0,1 -2,1 -4,1zm-419 -296l0 3 3 2c5,0 11,1 17,1 5,0 11,1 16,1 27,0 54,-1 81,-1 26,0 53,0 81,0 4,0 10,0 15,0 6,0 11,-1 16,-2 5,-1 7,-4 7,-9 0,-7 -1,-15 -4,-24 -3,-9 -5,-17 -6,-24 -2,-12 -4,-27 -8,-44 -3,-18 -8,-35 -15,-52 -6,-17 -14,-31 -25,-43 -10,-12 -23,-18 -38,-18 -16,0 -30,5 -43,15 -13,10 -24,23 -34,37 -9,15 -18,31 -24,47 -7,17 -13,31 -17,43 -2,4 -4,9 -6,15 -3,6 -5,13 -8,20 -2,6 -4,13 -6,19 -1,6 -2,11 -2,14z"/>
  <path d="M5885 1132c1,2 7,7 18,14 12,7 24,16 38,29 13,13 26,28 37,47 12,19 18,42 18,68 0,5 -1,9 -2,14 0,5 -1,10 -1,15 0,7 2,14 6,23 4,8 9,17 15,25 7,8 13,15 20,22 7,6 14,11 20,14l1 2 -1 1c-2,0 -3,1 -5,2 -2,1 -4,1 -5,1 -4,0 -10,-2 -17,-6 -8,-3 -13,-6 -16,-9 -10,-7 -19,-14 -29,-21 -9,-6 -18,-13 -27,-21 -21,-17 -41,-39 -60,-64 -19,-25 -39,-49 -59,-72 -21,-23 -43,-43 -67,-59 -24,-17 -51,-25 -82,-25 -3,0 -7,0 -13,1 -5,1 -11,1 -17,2 -6,1 -11,3 -15,6 -4,2 -7,5 -7,8 0,22 1,42 3,60 1,18 5,34 11,49 7,15 16,29 27,41 12,13 28,25 48,37 13,9 28,15 42,19 14,5 29,8 44,10 14,2 29,3 44,4 15,0 30,0 46,0 0,0 0,0 0,1 0,1 0,3 -2,5 -2,2 -4,4 -6,6 -2,2 -5,3 -7,4 -2,2 -4,2 -5,2 -6,0 -14,-1 -22,-4 -9,-2 -17,-4 -24,-4 -20,-1 -39,-3 -57,-4 -18,-1 -36,-2 -53,-3 -18,-1 -36,-2 -55,-2 -18,-1 -38,-1 -59,-1 -14,0 -28,1 -43,2 -15,1 -29,3 -43,5 -9,1 -19,3 -29,5 -10,3 -20,4 -29,4 -3,0 -7,-2 -10,-6l0 -1 1 -2c5,-2 10,-5 14,-9 4,-3 8,-7 12,-11 16,-14 28,-30 38,-47 9,-18 16,-36 21,-56 5,-19 8,-39 9,-59 2,-20 3,-40 3,-60 0,-21 -1,-44 -2,-71 -1,-27 -4,-53 -10,-79 -5,-26 -14,-49 -27,-70 -13,-20 -31,-35 -54,-44l-2 -2 1 -2c2,-2 4,-4 5,-6 2,-2 5,-3 7,-3 1,0 4,1 9,3 4,2 7,4 9,4 15,4 30,7 46,9 16,2 31,3 47,3 18,0 37,-1 55,-3 18,-2 36,-5 55,-7 18,-3 36,-5 55,-8 18,-2 37,-3 55,-3 23,0 47,2 70,7 23,4 44,12 62,22 19,11 34,26 45,44 11,18 17,41 17,70 0,26 -6,48 -17,65 -11,16 -24,29 -38,39 -14,9 -27,16 -38,21 -12,4 -18,7 -19,9zm-123 -239c-18,0 -36,2 -52,5 -17,4 -33,10 -48,19 -3,2 -6,7 -9,15 -3,7 -5,17 -7,27 -2,11 -4,23 -6,35 -1,13 -3,25 -3,36 -1,12 -2,22 -2,31 -1,10 -1,16 -1,20l0 26c0,1 0,2 1,2 0,1 0,2 0,3l1 1c2,0 4,1 6,1 0,0 1,-1 3,-1 3,-1 6,-2 8,-4 3,-1 6,-2 9,-3 3,-1 4,-2 5,-2 11,-3 22,-4 34,-5 11,-2 22,-2 33,-2 11,0 21,1 31,2 10,2 20,3 31,4 8,1 17,3 25,6 9,3 17,5 25,5 8,0 15,-5 21,-13 6,-9 11,-18 15,-30 4,-11 7,-22 8,-34 2,-11 3,-20 3,-26 0,-17 -4,-33 -11,-48 -7,-15 -17,-27 -29,-38 -12,-10 -26,-18 -42,-24 -16,-5 -32,-8 -49,-8z"/>
  <path d="M6167 1115c0,-16 -1,-34 -2,-54 -1,-21 -4,-42 -7,-63 -4,-21 -9,-41 -15,-60 -6,-19 -14,-34 -23,-47 -7,-7 -13,-13 -20,-18 -6,-4 -13,-9 -20,-15l-1 -2 6 -10c1,-1 2,-1 3,-1 18,10 36,17 56,21 21,3 41,5 61,5 16,0 32,-1 48,-3 15,-2 30,-4 46,-7 15,-2 31,-4 46,-7 16,-2 32,-3 48,-3 40,0 76,7 108,20 31,14 58,32 80,55 22,24 38,52 50,85 11,33 17,69 17,108 0,36 -6,70 -16,102 -11,32 -27,60 -48,84 -21,25 -46,44 -76,58 -30,14 -64,21 -102,21 -18,0 -36,-1 -54,-3 -18,-3 -36,-5 -53,-8 -18,-3 -36,-5 -54,-8 -18,-2 -36,-3 -54,-3 -19,0 -35,2 -50,7 -15,4 -31,9 -49,15l-2 1c-2,0 -4,-1 -6,-4 -3,-3 -4,-4 -4,-6 0,-1 0,-2 0,-3 21,-11 37,-27 48,-48 12,-21 20,-43 26,-67 6,-25 10,-49 11,-74 1,-25 2,-48 2,-68zm226 236c32,0 58,-8 79,-25 21,-16 37,-37 49,-61 12,-25 20,-52 25,-81 5,-29 7,-57 7,-82 0,-26 -3,-53 -10,-79 -7,-26 -18,-49 -32,-70 -14,-21 -32,-38 -54,-51 -22,-12 -48,-19 -78,-19 -13,0 -26,1 -39,3 -12,2 -24,5 -35,10 -10,6 -20,12 -28,21 -8,9 -15,21 -20,35 -3,10 -7,21 -10,34 -3,12 -5,25 -7,37 -2,13 -4,26 -5,38 -2,13 -2,25 -2,36 0,21 0,43 2,68 2,25 6,48 12,71 6,23 16,43 29,61 13,19 31,32 54,41 12,4 23,7 31,9 8,3 19,4 32,4z"/>
  <path d="M7267 1388c-9,-5 -20,-9 -33,-11 -13,-3 -27,-4 -41,-5 -14,-1 -29,-1 -43,-1 -14,0 -26,0 -37,0 -53,0 -107,1 -161,2 -53,0 -107,1 -161,1 -4,0 -8,0 -13,0 -4,1 -8,1 -12,1l-2 -3 1 -3 5 -3c5,-1 9,-1 13,-1 4,0 8,0 12,0 17,0 38,-1 61,-2 24,-1 49,-3 74,-5 25,-2 49,-5 72,-9 24,-3 44,-7 60,-10 7,-2 13,-4 20,-8 6,-3 11,-7 16,-13 13,-16 19,-33 19,-51 0,-6 -1,-16 -3,-32 -2,-15 -4,-31 -7,-48 -3,-16 -6,-31 -10,-44 -4,-12 -9,-19 -14,-19 -40,1 -79,1 -119,1 -39,-1 -79,-2 -119,-2 -6,0 -9,2 -10,7 -2,4 -3,8 -5,13 -3,9 -7,19 -10,29 -3,10 -6,20 -10,30 -1,5 -4,13 -9,24 -4,10 -10,22 -16,35 -6,13 -13,26 -20,40 -8,14 -15,27 -23,38 -7,12 -14,22 -22,30 -7,8 -13,13 -19,14 -3,1 -7,2 -11,2 -5,1 -8,2 -11,2 0,0 -1,-1 -1,-1 0,-1 0,-1 0,-1 8,-11 16,-22 24,-36 8,-13 15,-26 21,-41 6,-14 11,-29 15,-44 3,-15 5,-29 5,-42 0,-11 0,-21 -2,-31 -1,-10 -2,-20 -2,-31 0,-22 4,-44 12,-66 8,-23 18,-44 30,-65 13,-22 27,-41 43,-60 15,-19 31,-35 46,-50 2,-1 5,-4 10,-8 6,-4 11,-8 16,-13 5,-4 10,-8 14,-11 5,-4 7,-6 8,-7l-2 -3 -6 -2c-3,1 -6,1 -9,1 -3,1 -7,1 -10,1 -2,0 -9,0 -19,-1 -9,0 -21,-1 -34,-2 -12,-1 -26,-2 -40,-3 -15,-1 -28,-2 -40,-3 -13,-1 -23,-2 -31,-3 -9,-1 -13,-2 -13,-3l-2 -2 2 -3c1,-1 3,-3 5,-5 2,-2 4,-3 6,-3 3,0 7,0 11,1 4,1 7,2 11,2 15,1 30,2 45,2 15,1 30,2 46,3 31,1 62,2 93,2 31,1 62,1 94,1 23,0 46,0 69,-1 23,-1 46,-3 69,-5l2 0c4,0 8,1 11,4 3,3 5,6 7,10l-3 2c-2,2 -5,2 -7,2 -3,0 -5,1 -8,2 -10,4 -17,12 -20,22 -4,10 -6,20 -6,30 0,9 2,23 5,43 3,20 7,43 11,69 5,25 11,52 16,80 6,28 12,55 18,80 6,26 11,48 16,67 5,20 10,34 14,42 9,21 20,39 35,53 3,3 7,6 11,8 4,2 7,4 10,7l1 1c0,3 -1,7 -5,11 0,1 -1,1 -4,1zm-419 -296l0 3 3 2c6,0 11,1 17,1 5,0 11,1 16,1 27,0 54,-1 81,-1 27,0 54,0 81,0 5,0 10,0 15,0 6,0 11,-1 16,-2 5,-1 7,-4 7,-9 0,-7 -1,-15 -4,-24 -3,-9 -5,-17 -6,-24 -2,-12 -4,-27 -8,-44 -3,-18 -8,-35 -15,-52 -6,-17 -14,-31 -24,-43 -11,-12 -23,-18 -39,-18 -16,0 -30,5 -43,15 -13,10 -24,23 -34,37 -9,15 -17,31 -24,47 -7,17 -13,31 -17,43 -2,4 -4,9 -6,15 -3,6 -5,13 -8,20 -2,6 -4,13 -6,19 -1,6 -2,11 -2,14z"/>
 </g>
 </g>
</svg>
