<?xml version="1.0" encoding="UTF-8"?>
<!DOCTYPE svg PUBLIC "-//W3C//DTD SVG 1.1//EN" "http://www.w3.org/Graphics/SVG/1.1/DTD/svg11.dtd">
<svg xmlns="http://www.w3.org/2000/svg" xml:space="preserve" width="709px" height="118px" version="1.1" style="shape-rendering:geometricPrecision; text-rendering:geometricPrecision; image-rendering:optimizeQuality; fill-rule:evenodd; clip-rule:evenodd"
viewBox="0 0 8508 1418"
 xmlns:xlink="http://www.w3.org/1999/xlink">
 <defs>
  <style type="text/css">
   <![CDATA[
    .c1 {fill:none}
    .c2 {fill:#a00;fill-rule:nonzero}
   ]]>
  </style>
 </defs>
 <g>
  <rect class="c1" width="8508" height="1418"/>
  <g class="c2">
  <path d="M1332 385l384 0 0 -96 -384 0 0 96zm144 744l96 0 0 -792 -96 0 0 792z"/>
  <polygon points="1812,1129 1908,1129 1908,289 1812,289 "/>
  <path d="M2004 385l384 0 0 -96 -384 0 0 96zm144 744l96 0 0 -792 -96 0 0 792z"/>
  <path d="M2496 709c0,-47 8,-91 23,-131 14,-41 35,-76 61,-105 27,-29 58,-52 94,-69 36,-17 75,-25 116,-25 42,0 81,8 117,25 36,17 67,40 94,69 26,29 47,64 61,105 15,40 23,84 23,131 0,47 -8,91 -23,131 -14,41 -35,76 -61,105 -27,29 -58,52 -94,69 -36,17 -75,25 -117,25 -41,0 -80,-8 -116,-25 -36,-17 -67,-40 -94,-69 -26,-29 -47,-64 -61,-105 -15,-40 -23,-84 -23,-131zm-96 0c0,61 10,117 30,169 20,52 48,97 83,135 34,38 76,68 123,90 48,21 99,32 154,32 56,0 107,-11 155,-32 47,-22 89,-52 123,-90 35,-38 63,-83 83,-135 20,-52 30,-108 30,-169 0,-61 -10,-117 -30,-169 -20,-52 -48,-97 -83,-135 -34,-38 -76,-68 -123,-90 -48,-21 -99,-32 -155,-32 -55,0 -106,11 -154,32 -47,22 -89,52 -123,90 -35,38 -63,83 -83,135 -20,52 -30,108 -30,169z"/>
  <polygon points="3253,1129 3565,1129 3565,1033 3349,1033 3349,289 3253,289 "/>
  <polygon points="3661,1129 3757,1129 3757,289 3661,289 "/>
  <path d="M4189 1033c47,0 91,-8 130,-24 40,-16 74,-38 103,-67 29,-29 51,-63 67,-103 16,-39 24,-83 24,-130 0,-47 -8,-91 -24,-130 -16,-40 -38,-74 -67,-103 -29,-29 -63,-51 -103,-67 -39,-16 -83,-24 -130,-24l0 -96c60,0 116,10 167,32 51,21 96,50 133,88 38,37 67,82 89,133 21,51 31,107 31,167 0,60 -10,116 -31,167 -22,51 -51,96 -89,133 -37,38 -82,67 -133,88 -51,22 -107,32 -167,32l0 -96zm-48 -744l48 0 48 56 0 710 -48 74 -48 0 0 -840z"/>
  <polygon points="4681,1129 4777,1129 4777,289 4681,289 "/>
  <path d="M5162 385l384 0 0 -96 -384 0 0 96zm144 744l96 0 0 -792 -96 0 0 792z"/>
  <path d="M5750 385l156 0 0 -96 -156 0c-22,0 -42,6 -61,17 -19,12 -35,28 -50,49 -14,22 -25,47 -33,76 -8,29 -12,62 -12,98l0 600 96 0 0 -600c0,-22 2,-41 5,-59 4,-18 9,-33 14,-46 6,-12 12,-22 19,-29 8,-7 15,-10 22,-10zm-156 744l312 0 0 -96 -312 0 0 96zm0 -264l312 0 0 -96 -312 0 0 96z"/>
  <path d="M5978 484c0,-27 6,-53 17,-77 12,-24 27,-46 47,-64 19,-19 41,-33 66,-44 25,-11 51,-16 78,-16 6,0 13,0 20,1 7,1 14,2 21,4 6,1 12,3 18,6 6,2 11,5 14,8l0 100c-11,-9 -24,-15 -38,-18 -14,-4 -27,-5 -40,-5 -14,0 -28,3 -41,10 -14,7 -25,16 -35,27 -9,11 -17,24 -23,38 -5,14 -8,28 -8,41 0,24 7,47 21,68 14,20 32,41 52,60 21,20 44,40 68,60 24,20 46,41 67,64 21,24 38,49 52,77 14,28 21,60 21,95 0,27 -6,53 -17,79 -11,26 -26,49 -45,69 -20,21 -42,37 -67,50 -25,12 -52,18 -80,18 -26,0 -50,-4 -70,-14 -20,-9 -35,-20 -46,-34l0 -97c7,6 15,11 24,17 9,6 19,12 30,17 10,4 20,8 30,11 10,3 19,4 27,4 16,0 30,-3 44,-9 14,-6 27,-14 37,-24 11,-11 20,-23 27,-38 7,-14 10,-29 10,-45 0,-28 -7,-52 -21,-74 -14,-22 -31,-43 -52,-63 -21,-20 -43,-40 -68,-60 -24,-20 -46,-42 -67,-66 -21,-23 -38,-49 -52,-78 -14,-28 -21,-61 -21,-98z"/>
  <path d="M6348 385l384 0 0 -96 -384 0 0 96zm144 744l96 0 0 -792 -96 0 0 792z"/>
  <path d="M6780 1129l96 0 0 -480c0,-40 4,-76 11,-109 7,-32 17,-60 31,-83 14,-22 30,-40 49,-53 20,-13 41,-19 65,-19l93 0 0 -96 -93 0c-38,0 -73,8 -104,26 -31,17 -57,41 -79,73 -22,31 -39,69 -51,113 -12,44 -18,94 -18,148l0 480zm300 0l96 0 0 -840 -96 0 0 840zm-251 -192l296 0 0 -96 -296 0 0 96z"/>
 </g>
 </g>
</svg>
