<?xml version="1.0" encoding="UTF-8"?>
<!DOCTYPE svg PUBLIC "-//W3C//DTD SVG 1.1//EN" "http://www.w3.org/Graphics/SVG/1.1/DTD/svg11.dtd">
<svg xmlns="http://www.w3.org/2000/svg" xml:space="preserve" width="709px" height="118px" version="1.1" style="shape-rendering:geometricPrecision; text-rendering:geometricPrecision; image-rendering:optimizeQuality; fill-rule:evenodd; clip-rule:evenodd"
viewBox="0 0 8508 1418"
 xmlns:xlink="http://www.w3.org/1999/xlink">
 <defs>
  <style type="text/css">
   <![CDATA[
    .c1 {fill:none}
    .c2 {fill:#a00;fill-rule:nonzero}
   ]]>
  </style>
 </defs>
 <g>
  <rect class="c1" width="8508" height="1418"/>
  <g class="c2">
  <path d="M1506 212c-13,0 -25,0 -36,-1 -11,0 -21,0 -31,-1 -10,0 -21,-1 -32,-1 -10,0 -23,-1 -36,-2 -1,1 -2,3 -2,7 0,3 -1,7 -1,11 0,4 1,8 1,11 0,3 1,5 2,5 3,0 8,0 15,1 8,1 15,2 23,5 8,2 16,5 22,8 7,3 12,7 15,12 11,15 20,32 29,51 8,18 17,39 25,62 15,38 29,73 42,107 13,35 26,67 38,99 12,32 23,63 35,93 11,30 22,61 34,92 11,31 23,62 35,95 12,32 25,66 39,100 1,2 3,6 5,11 2,6 4,8 7,8 8,0 15,-2 23,-8 8,-5 15,-15 21,-31 23,-55 44,-104 62,-149 19,-44 37,-88 54,-130 17,-42 34,-86 52,-130 18,-45 37,-94 59,-147 5,-12 10,-23 15,-35 5,-12 10,-24 16,-35 5,-11 10,-21 15,-30 5,-9 10,-15 13,-19 5,-7 11,-12 18,-15 8,-4 16,-7 23,-9 8,-3 15,-4 21,-5 7,-1 11,-1 13,-1 2,0 3,-5 4,-15 1,-9 0,-16 -1,-19 -12,1 -22,2 -31,2 -8,0 -16,1 -24,1 -8,1 -17,1 -26,1 -9,1 -21,1 -34,1 -22,0 -42,0 -62,-1 -19,-1 -39,-2 -61,-4 -3,3 -5,10 -5,19 0,9 2,14 5,16 4,0 10,1 19,2 8,1 17,3 25,7 9,4 17,8 24,14 7,5 10,13 10,23 0,11 -2,24 -7,39 -4,14 -9,29 -15,42 -12,30 -24,62 -37,96 -14,34 -27,67 -41,101 -13,33 -26,65 -39,96 -13,30 -24,58 -34,82 -9,25 -18,45 -24,60 -7,16 -11,25 -12,27 -1,-1 -4,-12 -11,-31 -7,-19 -16,-43 -27,-72 -10,-30 -22,-62 -36,-97 -13,-35 -26,-70 -39,-105 -12,-35 -24,-67 -35,-97 -11,-29 -19,-53 -26,-71 -7,-20 -12,-36 -15,-49 -4,-14 -5,-23 -5,-30 0,-8 3,-14 9,-20 7,-5 14,-9 23,-12 8,-2 16,-4 24,-5 7,-1 12,-1 15,-1 2,-1 3,-6 4,-15 0,-8 0,-15 -2,-19 -23,2 -47,3 -71,4 -25,1 -50,1 -76,1z"/>
  <path d="M2306 499c18,0 34,4 46,13 13,9 23,19 30,31 8,12 13,25 17,38 3,12 4,23 4,32 0,11 -2,19 -8,23 -6,4 -12,6 -19,6 -5,0 -18,0 -38,0 -20,0 -41,0 -64,0 -24,0 -45,0 -63,0 -19,0 -29,0 -31,0 -1,0 1,-8 4,-22 4,-15 10,-32 20,-50 10,-18 23,-34 40,-49 16,-15 37,-22 62,-22zm18 -42c-26,0 -53,7 -80,22 -28,15 -53,35 -75,61 -23,25 -42,56 -56,90 -15,35 -22,73 -22,113 0,35 6,68 18,98 11,30 27,57 48,79 21,23 46,40 75,53 29,13 62,19 97,19 23,0 44,-3 63,-10 19,-8 35,-17 50,-27 14,-11 26,-22 36,-34 10,-12 18,-22 24,-30 2,-3 4,-6 6,-10 1,-4 2,-8 2,-11 0,-6 -1,-10 -5,-13 -3,-3 -5,-4 -6,-4 -4,5 -9,11 -17,18 -8,7 -17,14 -28,21 -11,7 -24,13 -38,17 -14,5 -29,8 -46,8 -34,0 -63,-7 -88,-20 -25,-12 -45,-29 -61,-51 -16,-21 -28,-45 -36,-73 -7,-28 -11,-58 -11,-88 2,0 11,0 25,-1 14,0 31,0 51,-1 21,0 43,-1 66,-2 24,0 46,-1 68,-1 21,-1 40,-1 56,-2 16,-1 28,-1 34,-1 11,-1 19,-7 23,-17 4,-10 6,-23 6,-40 0,-12 -3,-27 -8,-45 -5,-19 -14,-37 -28,-54 -14,-18 -32,-33 -55,-46 -22,-12 -52,-18 -88,-18z"/>
  <path d="M2912 458c-13,0 -27,4 -41,13 -14,8 -27,19 -40,31 -13,13 -24,27 -35,42 -10,15 -18,29 -24,41 -1,1 -2,2 -4,2 -1,0 -2,-2 -2,-4 0,-3 0,-10 1,-22 1,-11 2,-22 3,-34 1,-12 2,-24 4,-34 1,-11 1,-17 1,-19 0,-2 -1,-4 -4,-5 -3,-2 -6,-3 -10,-3 -12,5 -25,10 -38,14 -13,4 -27,7 -41,10 -15,3 -29,5 -45,8 -15,2 -30,4 -45,6 -1,2 -2,5 -2,8 0,2 -1,5 -1,7 0,3 1,5 1,8 0,3 1,6 2,8 2,0 7,0 15,1 7,0 15,1 24,2 8,1 16,3 24,6 7,3 12,7 15,13 1,3 3,7 3,13 1,5 2,11 2,17 1,6 1,12 1,18 0,5 0,10 0,14l0 224c0,19 0,36 -1,51 0,16 -2,29 -5,40 -1,3 -5,6 -12,8 -6,2 -14,4 -22,6 -9,2 -17,3 -24,4 -8,0 -14,1 -18,1 -3,5 -5,11 -5,17 0,5 2,11 5,16 24,-1 47,-3 68,-4 21,-1 43,-2 67,-2 11,0 23,1 35,1 12,0 25,1 37,2 13,1 25,1 38,2 13,0 25,1 37,1 4,-5 5,-11 5,-16 0,-6 -1,-12 -5,-17 -4,0 -11,-1 -22,-1 -11,-1 -22,-2 -33,-4 -12,-2 -23,-4 -32,-6 -10,-2 -15,-5 -16,-8 -4,-11 -6,-24 -7,-40 0,-15 0,-32 0,-51l0 -186c0,-7 2,-16 8,-28 5,-12 12,-24 21,-36 8,-12 19,-23 30,-32 12,-8 24,-13 37,-13 11,0 20,2 26,4 7,3 13,7 18,11 7,4 14,10 21,15 7,6 15,9 24,9 3,0 7,-2 11,-4 5,-2 9,-6 13,-11 5,-5 8,-11 11,-19 3,-8 4,-18 4,-29 0,-6 0,-12 -1,-17 -1,-5 -2,-10 -3,-14 -6,-10 -16,-18 -29,-25 -14,-7 -29,-10 -45,-10z"/>
  <path d="M3388 457c-16,0 -32,3 -48,9 -15,6 -30,13 -44,21 -14,9 -27,18 -38,27 -11,9 -20,17 -27,23 -1,1 -2,2 -2,2 -1,1 -1,1 -2,1 -2,0 -3,-1 -3,-2 -1,-1 -1,-2 -1,-3 0,-2 1,-7 2,-13 0,-6 1,-12 2,-18 1,-7 2,-13 3,-18 1,-6 2,-10 2,-12 0,-2 -2,-4 -5,-5 -2,-2 -6,-3 -10,-3 -12,5 -24,10 -38,14 -13,4 -27,7 -41,10 -14,3 -29,5 -44,8 -16,2 -31,4 -46,6 0,0 0,2 0,6 0,3 0,6 0,10 0,4 0,7 0,10 0,2 0,4 0,5 2,0 7,0 15,1 8,0 16,1 24,2 8,1 16,3 24,6 8,3 13,7 15,13 2,3 3,7 4,13 0,6 1,13 1,20 1,6 1,13 1,19 0,6 0,11 0,15l0 219c0,19 0,36 -1,51 0,16 -2,29 -5,40 -1,3 -5,6 -11,8 -7,2 -15,4 -23,6 -9,2 -17,3 -24,4 -8,0 -14,1 -18,1 -3,5 -4,11 -4,17 0,5 1,11 4,16 12,0 24,-1 34,-1 10,-1 21,-1 31,-2 10,-1 20,-2 30,-2 10,0 20,-1 31,-1 12,0 23,1 33,1 10,0 21,1 31,2 10,1 20,1 30,2 11,0 22,1 34,1 3,-5 5,-11 5,-16 0,-6 -2,-12 -5,-17 -3,0 -9,-1 -17,-1 -8,-1 -16,-2 -25,-4 -8,-2 -15,-4 -22,-6 -6,-2 -10,-5 -11,-8 -4,-11 -6,-24 -6,-40 -1,-15 -1,-32 -1,-51l0 -250c0,-4 3,-10 10,-18 7,-7 16,-15 27,-22 11,-7 23,-14 36,-19 13,-6 26,-9 40,-9 22,0 39,4 53,10 14,6 26,17 35,32 8,16 15,36 18,61 4,25 6,56 6,93l0 122c0,19 -1,36 -1,51 0,16 -2,29 -5,40 -1,3 -5,6 -11,8 -7,2 -14,4 -22,6 -9,2 -17,3 -25,4 -8,0 -14,1 -18,1 -3,5 -5,11 -5,17 0,5 2,11 5,16 12,0 23,-1 34,-1 10,-1 20,-1 30,-2 9,-1 19,-2 29,-2 10,0 21,-1 33,-1 23,0 44,1 63,2 19,1 40,3 64,4 3,-5 5,-11 5,-16 0,-6 -2,-12 -5,-17 -3,0 -9,-1 -17,-1 -8,-1 -16,-2 -24,-4 -9,-2 -16,-4 -23,-6 -7,-2 -11,-5 -11,-8 -4,-11 -5,-24 -5,-40 0,-15 0,-32 0,-51l0 -147c0,-11 -1,-26 -1,-43 -1,-17 -2,-32 -4,-44 0,-1 0,-4 -1,-7 0,-4 0,-6 0,-7 0,-2 3,-7 10,-15 7,-8 16,-15 26,-23 11,-8 24,-16 38,-22 14,-6 28,-10 42,-10 24,0 44,5 59,13 14,8 26,21 34,37 8,17 13,36 16,60 3,23 4,49 4,79l0 129c0,19 0,36 0,51 -1,16 -3,29 -6,40 -1,3 -4,6 -11,8 -6,2 -13,4 -22,6 -8,2 -16,3 -24,4 -7,0 -13,1 -17,1 -3,5 -5,11 -5,17 0,5 2,11 5,16 24,-1 45,-3 63,-4 18,-1 38,-2 62,-2 12,0 23,1 33,1 10,0 20,1 30,2 10,1 20,1 31,2 11,0 22,1 34,1 3,-5 5,-11 5,-16 0,-6 -2,-12 -5,-17 -3,0 -9,-1 -17,-1 -9,-1 -17,-2 -26,-4 -8,-2 -16,-4 -22,-6 -7,-2 -11,-5 -12,-8 -3,-11 -5,-24 -5,-39 -1,-15 -1,-32 -1,-50l0 -134c0,-43 -2,-80 -6,-112 -4,-32 -11,-59 -23,-80 -11,-22 -26,-37 -46,-47 -20,-10 -46,-15 -78,-15 -15,0 -29,3 -44,8 -15,6 -30,13 -45,22 -16,10 -30,20 -44,32 -14,11 -28,23 -42,35 -9,-36 -25,-61 -48,-76 -22,-14 -51,-21 -87,-21z"/>
  <path d="M4049 288c0,16 6,29 18,41 11,12 25,17 41,17 16,0 30,-5 42,-17 11,-12 17,-25 17,-41 0,-16 -6,-30 -17,-42 -12,-11 -26,-17 -42,-17 -16,0 -30,6 -41,17 -12,12 -18,26 -18,42zm111 306c0,-1 0,-3 0,-7 0,-3 0,-7 0,-12 0,-4 0,-9 0,-13 0,-4 0,-7 0,-9 0,-3 0,-9 1,-16 1,-8 2,-16 2,-24 1,-9 2,-17 3,-24 2,-7 2,-12 2,-14 0,-3 -1,-7 -4,-12 -3,-5 -6,-7 -9,-7 -12,6 -25,12 -38,17 -13,5 -27,10 -41,14 -15,4 -29,7 -44,10 -15,3 -30,5 -45,8 -1,1 -2,4 -2,7 0,3 -1,7 -1,10 0,4 1,7 1,10 0,3 1,5 2,5 2,0 7,1 14,1 7,0 15,1 24,2 9,2 17,4 24,6 8,3 12,7 15,12 1,3 2,8 3,14 1,6 2,12 2,18 1,6 1,11 1,17 0,6 0,10 0,14l0 224c0,18 0,35 -1,50 0,15 -2,28 -5,37 -1,4 -5,6 -11,9 -7,2 -14,4 -22,6 -9,1 -17,3 -24,3 -8,1 -14,2 -18,2 -2,3 -4,9 -4,17 0,8 1,14 4,17 12,0 23,-1 34,-1 10,-1 20,-1 30,-2 9,-1 19,-2 29,-2 10,0 21,-1 32,-1 23,0 44,1 62,3 18,1 39,3 63,3 3,-3 5,-9 4,-17 0,-8 -2,-14 -4,-17 -3,0 -9,-1 -17,-2 -8,0 -16,-2 -24,-3 -8,-2 -15,-4 -21,-6 -7,-3 -10,-5 -11,-9 -3,-9 -5,-22 -6,-37 0,-15 0,-32 0,-50l0 -251z"/>
  <path d="M4526 468c-29,0 -55,5 -80,15 -24,10 -46,23 -64,39 -18,17 -32,36 -42,57 -10,21 -15,43 -15,66 0,29 9,57 27,85 18,28 42,49 71,65 -6,4 -13,8 -23,15 -9,6 -18,13 -28,21 -10,7 -20,15 -29,23 -9,7 -16,14 -21,21 0,33 9,58 26,74 18,16 39,27 65,33 26,5 53,8 81,7 29,-1 53,-1 74,-1 28,0 52,3 72,9 20,7 36,14 49,23 13,9 22,19 28,29 5,11 8,21 8,29 0,16 -5,31 -17,46 -11,16 -25,29 -42,41 -17,11 -37,21 -58,28 -21,7 -42,11 -63,11 -51,0 -90,-13 -118,-38 -27,-24 -40,-56 -40,-94 0,-9 3,-18 10,-27 7,-10 15,-18 24,-26 9,-7 18,-14 28,-21 10,-6 17,-10 23,-13l-43 -6c-8,4 -20,10 -35,19 -15,8 -30,18 -45,30 -15,11 -28,24 -39,37 -11,13 -17,27 -17,41 0,24 6,45 19,63 12,18 28,33 47,45 19,12 41,21 65,27 25,5 49,8 73,8 42,0 81,-7 118,-21 38,-15 70,-33 99,-54 28,-22 51,-46 67,-72 16,-26 25,-51 25,-75 0,-17 -6,-32 -16,-47 -10,-15 -24,-28 -41,-39 -18,-12 -37,-20 -59,-27 -22,-6 -45,-9 -68,-9 -5,0 -14,0 -27,0 -13,0 -27,0 -43,0 -15,0 -29,0 -43,0 -13,0 -23,0 -27,0 -13,0 -23,-2 -32,-5 -9,-3 -16,-7 -22,-12 -6,-4 -10,-9 -13,-13 -3,-5 -4,-9 -4,-12 0,-10 4,-19 13,-29 9,-9 19,-17 30,-23 6,2 17,5 31,7 14,3 26,4 36,4 29,0 56,-5 81,-16 24,-10 46,-23 64,-39 18,-16 32,-35 42,-56 10,-20 15,-41 15,-61 0,-13 -2,-26 -4,-39 -3,-12 -6,-23 -10,-33 -4,-9 -7,-17 -11,-23 -3,-6 -6,-10 -8,-12 0,-1 1,-2 2,-3 0,0 2,0 3,0 0,0 3,0 8,0 5,1 12,1 20,2 8,0 16,1 25,1 9,1 17,2 24,2 3,-2 6,-5 10,-9 3,-5 6,-9 8,-14 2,-5 4,-10 6,-15 2,-5 2,-8 2,-11 0,-2 0,-4 -2,-6 -2,-2 -4,-4 -8,-6l-126 18c-3,0 -5,-1 -6,-1 -1,0 -2,0 -3,0 -2,-1 -3,-1 -6,-2 -2,-1 -7,-3 -13,-5 -11,-4 -26,-9 -43,-16 -18,-7 -39,-10 -65,-10zm-5 36c19,0 35,4 49,13 14,9 25,20 35,34 9,14 16,30 21,48 4,18 7,36 7,55 0,16 -2,32 -7,48 -4,16 -11,30 -20,42 -8,13 -19,23 -31,31 -13,8 -27,12 -44,12 -19,0 -35,-4 -49,-13 -15,-8 -27,-19 -37,-33 -9,-14 -17,-30 -22,-48 -5,-17 -8,-35 -8,-52 0,-17 3,-34 7,-50 4,-17 11,-31 20,-44 9,-13 20,-23 33,-31 13,-8 29,-12 46,-12z"/>
  <path d="M4923 328l0 519c0,18 0,34 0,49 -1,15 -2,28 -6,38 0,3 -4,6 -10,8 -7,2 -14,4 -23,6 -8,2 -16,3 -24,4 -7,0 -13,1 -17,1 -3,5 -5,11 -5,17 0,5 2,11 5,16 12,0 23,-1 33,-1 11,-1 21,-1 31,-2 9,-1 19,-2 29,-2 10,0 21,-1 32,-1 12,0 23,1 33,1 10,0 20,1 30,2 10,1 20,1 31,2 11,0 22,1 34,1 3,-5 5,-11 5,-16 0,-6 -2,-12 -5,-17 -4,0 -10,-1 -18,-1 -8,-1 -16,-2 -24,-4 -9,-2 -16,-4 -23,-6 -7,-2 -11,-5 -12,-8 -3,-10 -5,-23 -5,-38 0,-15 -1,-31 -1,-49l0 -557c0,-16 1,-30 2,-43 1,-13 3,-24 6,-33 1,-10 3,-19 6,-26 0,-4 -2,-8 -5,-13 -2,-4 -5,-6 -9,-6 -12,5 -24,11 -38,16 -14,5 -28,10 -42,14 -14,4 -29,7 -44,10 -15,3 -29,5 -44,7 -1,0 -2,1 -3,5 0,4 0,7 0,11 0,3 0,7 1,10 1,3 1,5 1,5 8,0 16,0 24,0 8,1 15,2 22,3 7,2 13,4 18,7 5,3 8,6 9,10 4,7 5,17 6,30 0,12 0,23 0,31z"/>
  <path d="M5221 288c0,16 6,29 17,41 12,12 26,17 42,17 16,0 30,-5 41,-17 12,-12 18,-25 18,-41 0,-16 -6,-30 -18,-42 -11,-11 -25,-17 -41,-17 -16,0 -30,6 -42,17 -11,12 -17,26 -17,42zm111 306c0,-1 0,-3 0,-7 0,-3 0,-7 0,-12 0,-4 0,-9 0,-13 0,-4 0,-7 0,-9 0,-3 0,-9 1,-16 1,-8 1,-16 2,-24 1,-9 2,-17 3,-24 1,-7 2,-12 2,-14 0,-3 -1,-7 -4,-12 -3,-5 -6,-7 -9,-7 -12,6 -25,12 -38,17 -13,5 -27,10 -42,14 -14,4 -29,7 -43,10 -15,3 -30,5 -45,8 -1,1 -2,4 -2,7 -1,3 -1,7 -1,10 0,4 0,7 1,10 0,3 1,5 2,5 2,0 7,1 14,1 7,0 15,1 24,2 9,2 17,4 24,6 7,3 12,7 14,12 2,3 3,8 4,14 1,6 1,12 2,18 0,6 0,11 0,17 0,6 0,10 0,14l0 224c0,18 0,35 0,50 -1,15 -2,28 -6,37 0,4 -4,6 -10,9 -7,2 -14,4 -23,6 -8,1 -16,3 -24,3 -7,1 -13,2 -17,2 -2,3 -4,9 -4,17 -1,8 1,14 4,17 12,0 23,-1 34,-1 10,-1 20,-1 30,-2 9,-1 19,-2 29,-2 10,0 21,-1 32,-1 23,0 44,1 62,3 18,1 39,3 63,3 3,-3 4,-9 4,-17 0,-8 -2,-14 -4,-17 -3,0 -9,-1 -17,-2 -8,0 -16,-2 -24,-3 -8,-2 -15,-4 -22,-6 -6,-3 -10,-5 -10,-9 -4,-9 -5,-22 -6,-37 0,-15 0,-32 0,-50l0 -251z"/>
  <path d="M5727 495c26,0 50,8 70,23 21,15 39,35 53,59 15,24 25,51 33,80 7,30 10,59 10,88 0,26 -2,51 -7,76 -5,24 -13,47 -24,66 -11,20 -25,36 -43,48 -18,12 -39,18 -65,18 -27,0 -51,-8 -72,-23 -21,-15 -38,-35 -52,-59 -14,-24 -25,-51 -32,-80 -7,-30 -11,-59 -11,-88 0,-26 3,-52 7,-77 5,-25 13,-47 24,-66 12,-19 26,-35 44,-47 17,-12 39,-18 65,-18zm13 -39c-36,0 -70,6 -101,20 -30,14 -57,33 -80,57 -23,25 -41,53 -53,87 -13,33 -20,69 -20,107 0,38 6,72 18,104 12,32 29,60 51,84 22,24 49,42 81,56 31,13 67,20 106,20 36,0 70,-7 100,-21 31,-14 58,-33 80,-58 23,-24 40,-53 53,-87 13,-33 19,-69 19,-108 0,-37 -6,-72 -17,-104 -12,-32 -29,-60 -51,-83 -22,-23 -48,-41 -80,-55 -32,-13 -67,-19 -106,-19z"/>
  <path d="M6424 457c-14,0 -30,3 -46,10 -16,7 -31,15 -46,24 -16,9 -29,19 -41,28 -11,10 -20,18 -27,24 0,1 -1,2 -1,2 -1,1 -1,1 -2,1 -2,0 -3,-1 -3,-2 -1,-1 -1,-2 -1,-3 0,-2 1,-7 1,-13 1,-7 2,-13 3,-21 1,-7 2,-14 3,-20 1,-7 2,-11 2,-13 0,-2 -2,-4 -5,-5 -2,-2 -6,-3 -10,-3 -12,5 -24,10 -38,14 -13,4 -27,7 -41,10 -14,3 -29,5 -44,8 -16,2 -31,4 -46,6 0,0 0,2 0,6 0,3 0,6 0,10 0,4 0,7 0,10 0,2 0,4 0,5 2,0 7,0 15,1 7,0 16,1 24,2 8,1 16,3 24,6 8,3 13,7 15,13 2,3 3,7 4,13 0,6 1,13 1,20 1,6 1,13 1,19 0,6 0,11 0,15l0 219c0,19 0,36 -1,51 0,16 -2,29 -5,40 -1,3 -5,6 -11,8 -7,2 -15,4 -23,6 -9,2 -17,3 -24,4 -8,0 -14,1 -18,1 -3,5 -5,11 -5,17 0,5 2,11 5,16 12,0 23,-1 34,-1 10,-1 21,-1 31,-2 10,-1 20,-2 30,-2 10,0 20,-1 31,-1 12,0 23,1 33,1 10,0 20,1 30,2 10,1 21,1 31,2 10,0 22,1 34,1 3,-5 4,-11 4,-16 0,-6 -1,-12 -4,-17 -4,0 -9,-1 -17,-1 -8,-1 -16,-2 -25,-4 -8,-2 -16,-4 -22,-6 -6,-2 -10,-5 -11,-8 -4,-11 -6,-24 -6,-40 -1,-15 -1,-32 -1,-51l0 -250c0,-4 4,-9 12,-16 8,-7 18,-15 29,-22 12,-8 24,-15 38,-21 13,-6 25,-9 36,-9 23,0 43,4 58,10 15,6 27,17 36,33 9,16 15,36 18,61 3,25 5,57 5,94l0 120c0,19 -1,36 -1,51 0,16 -2,29 -5,40 -1,3 -5,6 -11,8 -7,2 -14,4 -22,6 -9,2 -17,3 -25,4 -8,0 -14,1 -18,1 -3,5 -5,11 -5,17 0,5 2,11 5,16 12,0 23,-1 34,-1 10,-1 20,-1 30,-2 9,-1 19,-2 29,-2 10,0 21,-1 33,-1 12,0 23,1 33,1 10,0 20,1 30,2 10,1 21,1 31,2 11,0 23,1 35,1 3,-5 4,-11 4,-16 0,-6 -1,-12 -4,-17 -4,0 -10,-1 -18,-1 -8,-1 -17,-2 -25,-4 -8,-2 -16,-4 -23,-6 -7,-2 -10,-5 -11,-8 -3,-11 -5,-24 -6,-39 0,-15 0,-32 0,-50l0 -134c0,-43 -2,-80 -6,-112 -4,-32 -12,-59 -23,-80 -11,-22 -27,-37 -47,-47 -20,-10 -46,-15 -78,-15z"/>
  <path d="M6935 499c19,0 34,4 47,13 12,9 22,19 30,31 7,12 13,25 16,38 3,12 5,23 5,32 0,11 -3,19 -9,23 -5,4 -12,6 -19,6 -5,0 -17,0 -37,0 -20,0 -42,0 -65,0 -23,0 -44,0 -63,0 -19,0 -29,0 -31,0 0,0 1,-8 5,-22 3,-15 10,-32 19,-50 10,-18 23,-34 40,-49 17,-15 38,-22 62,-22zm19 -42c-27,0 -54,7 -81,22 -27,15 -52,35 -75,61 -23,25 -41,56 -56,90 -14,35 -21,73 -21,113 0,35 5,68 17,98 12,30 28,57 49,79 20,23 45,40 75,53 29,13 61,19 96,19 24,0 45,-3 63,-10 19,-8 36,-17 50,-27 15,-11 27,-22 37,-34 10,-12 18,-22 23,-30 3,-3 5,-6 6,-10 2,-4 3,-8 3,-11 0,-6 -2,-10 -5,-13 -3,-3 -5,-4 -6,-4 -4,5 -10,11 -18,18 -7,7 -17,14 -28,21 -11,7 -24,13 -38,17 -14,5 -29,8 -46,8 -33,0 -63,-7 -88,-20 -24,-12 -45,-29 -61,-51 -16,-21 -28,-45 -35,-73 -8,-28 -12,-58 -12,-88 3,0 11,0 25,-1 14,0 31,0 52,-1 20,0 42,-1 66,-2 23,0 46,-1 67,-1 21,-1 40,-1 56,-2 17,-1 28,-1 35,-1 11,-1 18,-7 22,-17 4,-10 6,-23 6,-40 0,-12 -2,-27 -7,-45 -6,-19 -15,-37 -29,-54 -13,-18 -31,-33 -54,-46 -23,-12 -52,-18 -88,-18z"/>
 </g>
 </g>
</svg>
