<?xml version="1.0" encoding="UTF-8"?>
<!DOCTYPE svg PUBLIC "-//W3C//DTD SVG 1.1//EN" "http://www.w3.org/Graphics/SVG/1.1/DTD/svg11.dtd">
<svg xmlns="http://www.w3.org/2000/svg" xml:space="preserve" width="709px" height="118px" version="1.1" style="shape-rendering:geometricPrecision; text-rendering:geometricPrecision; image-rendering:optimizeQuality; fill-rule:evenodd; clip-rule:evenodd"
viewBox="0 0 8508 1418"
 xmlns:xlink="http://www.w3.org/1999/xlink">
 <defs>
  <style type="text/css">
   <![CDATA[
    .c1 {fill:#eee}
    .c2 {fill:#000;fill-rule:nonzero}
   ]]>
  </style>
 </defs>
 <g>
  <rect class="c1" width="8508" height="1418"/>
  <g class="c2">
  <path d="M3469 282l-39 11 255 828c1,4 3,8 6,10 3,2 7,4 11,4 34,0 66,-11 96,-32 29,-21 57,-49 81,-84 25,-35 47,-75 66,-120 20,-46 36,-92 50,-141 13,-48 23,-96 30,-144 7,-47 11,-91 11,-130 0,-10 -1,-24 -2,-43 -1,-20 -4,-40 -9,-61 -5,-21 -12,-41 -23,-60 -10,-19 -23,-32 -40,-40l-12 26c4,2 9,7 14,15 5,8 10,19 15,33 5,15 9,32 11,54 3,21 5,46 5,76 0,40 -4,83 -11,128 -6,45 -16,90 -28,134 -13,44 -28,86 -45,127 -17,41 -36,77 -56,109 -20,31 -41,57 -64,76 -24,20 -48,31 -72,33l-250 -809z"/>
  <path d="M4170 1135l0 -619 -41 0 0 619 41 0zm0 -774l0 -62 -41 0 0 62 41 0z"/>
  <path d="M4445 1112l-17 -23c-1,0 -3,0 -7,1 -4,0 -9,1 -16,2 -6,1 -11,2 -15,2 -15,0 -25,-5 -32,-15 -6,-10 -9,-25 -9,-44l0 -740 -41 0 0 740c0,25 6,48 18,68 12,21 33,32 64,32 12,0 22,-2 30,-6 7,-4 15,-10 25,-17zm-96 -679l-41 0c0,21 0,37 -1,48 0,12 -1,20 -4,25 -2,5 -6,8 -12,9 -6,1 -15,1 -27,1l0 41c20,0 36,-2 48,-6 11,-4 19,-11 25,-21 5,-10 9,-23 10,-38 1,-16 2,-35 2,-59zm-85 124l166 0 0 -41 -166 0 0 41z"/>
  <path d="M4579 1135l0 -619 -40 0 0 619 40 0zm0 -774l0 -62 -40 0 0 62 40 0z"/>
  <path d="M4685 516l0 619 41 0 0 -619 -41 0zm0 147l41 0c0,-13 4,-25 12,-37 8,-12 19,-24 33,-34 14,-10 30,-19 49,-25 19,-7 39,-10 61,-10 36,0 64,5 85,16 21,10 36,25 47,45 10,19 17,44 20,73 2,29 4,62 4,99 0,39 -1,78 -4,115 -2,38 -5,72 -8,103 -2,31 -5,57 -9,79 -3,21 -6,36 -8,43l29 8c9,-33 16,-67 21,-101 5,-33 9,-65 12,-96 4,-30 6,-58 6,-84 1,-25 2,-48 2,-67 0,-36 -2,-71 -5,-104 -3,-33 -12,-62 -25,-87 -13,-26 -33,-46 -59,-60 -26,-15 -62,-23 -108,-23 -24,0 -48,4 -71,11 -23,7 -44,18 -63,31 -18,13 -33,29 -45,47 -11,18 -17,37 -17,58z"/>
 </g>
 </g>
</svg>
