<?xml version="1.0" encoding="UTF-8"?>
<!DOCTYPE svg PUBLIC "-//W3C//DTD SVG 1.1//EN" "http://www.w3.org/Graphics/SVG/1.1/DTD/svg11.dtd">
<svg xmlns="http://www.w3.org/2000/svg" xml:space="preserve" width="709px" height="118px" version="1.1" style="shape-rendering:geometricPrecision; text-rendering:geometricPrecision; image-rendering:optimizeQuality; fill-rule:evenodd; clip-rule:evenodd"
viewBox="0 0 8508 1418"
 xmlns:xlink="http://www.w3.org/1999/xlink">
 <defs>
  <style type="text/css">
   <![CDATA[
    .c1 {fill:none}
    .c2 {fill:#a00;fill-rule:nonzero}
   ]]>
  </style>
 </defs>
 <g>
  <rect class="c1" width="8508" height="1418"/>
  <g class="c2">
  <path d="M2746 349c4,0 7,1 9,5 2,3 3,7 4,11 1,4 1,9 1,13 0,5 0,8 0,10 0,101 1,201 1,301 0,99 1,199 1,300 0,5 2,9 7,12 13,8 29,16 46,25 17,9 35,17 53,24 18,7 36,13 55,17 18,5 35,7 51,7 39,0 71,-10 99,-29 27,-20 49,-45 66,-75 17,-30 30,-63 39,-98 8,-35 12,-69 12,-101 0,-29 -3,-63 -9,-101 -6,-38 -16,-74 -30,-107 -15,-34 -34,-62 -59,-85 -25,-23 -57,-34 -95,-34 -9,0 -17,1 -25,3 -8,2 -17,3 -25,3 -3,0 -5,-3 -8,-7 -2,-4 -3,-8 -3,-10 0,-8 4,-14 12,-18 13,-7 25,-13 36,-18 11,-6 22,-12 32,-19 10,-7 19,-14 29,-22 10,-8 19,-18 29,-29 2,-2 5,-3 7,-3 4,0 6,0 7,1 35,13 64,33 88,58 25,25 45,54 60,86 16,32 28,66 35,101 8,36 12,71 12,104 0,48 -6,95 -17,139 -11,45 -28,87 -51,126 -22,39 -50,74 -83,106 -33,31 -72,57 -116,78 -21,10 -42,17 -63,23 -22,6 -44,8 -68,8 -22,0 -45,-3 -70,-9 -24,-6 -49,-13 -73,-22 -25,-10 -48,-20 -71,-32 -23,-11 -44,-23 -63,-35 -2,-2 -4,-4 -6,-8l4 -9c12,-11 22,-21 30,-30 9,-10 13,-23 14,-41 2,-35 2,-70 2,-105 0,-35 0,-70 0,-105 0,-41 1,-84 2,-128 1,-44 0,-87 -5,-129 -2,-13 -6,-20 -14,-23 -8,-2 -17,-3 -27,-3 -8,0 -14,-4 -18,-12l0 -6c0,-7 3,-12 10,-16 13,-8 26,-15 37,-21 12,-7 23,-13 35,-20 11,-6 22,-13 33,-21 10,-8 22,-17 34,-28 1,0 2,0 3,-1 2,-1 3,-1 4,-1z"/>
  <path d="M3450 541c10,0 15,5 15,16 0,70 0,140 0,209 -1,69 -1,139 -1,210 0,45 23,68 70,68 7,0 20,-2 39,-6 19,-4 39,-9 59,-16 20,-7 38,-15 54,-23 15,-8 23,-17 23,-25l0 -260c0,-7 -3,-14 -8,-19 -6,-6 -12,-9 -20,-9 -3,0 -6,1 -9,2 -2,1 -6,2 -10,2 -6,0 -11,-2 -15,-6 -4,-3 -6,-8 -6,-15 0,-6 2,-11 8,-15 21,-16 40,-31 59,-46 18,-14 37,-31 55,-50 3,-4 7,-8 11,-12 4,-3 9,-5 14,-5 9,0 15,2 19,5 3,3 5,9 5,18 0,73 0,146 1,219 0,72 0,145 0,219 0,13 3,23 9,31 6,7 16,11 30,11 7,0 14,-1 21,-4 7,-3 13,-6 20,-9 6,-2 12,-5 17,-8 5,-3 9,-4 11,-4 7,0 10,2 11,7l1 0c1,2 2,4 2,8 0,9 -8,19 -22,30 -14,12 -31,22 -49,32 -19,10 -37,19 -55,25 -19,7 -32,11 -41,11 -15,0 -27,-4 -35,-10 -8,-6 -14,-15 -17,-25 -3,-10 -5,-21 -5,-33 -1,-12 -2,-23 -3,-33l-4 -4 -2 1c-17,12 -35,23 -53,35 -18,12 -37,23 -57,33 -19,9 -39,17 -59,23 -20,6 -41,9 -63,9 -34,0 -60,-9 -79,-28 -19,-18 -30,-44 -31,-76 -2,-55 -3,-109 -2,-163 0,-54 0,-109 0,-164 0,-7 -1,-12 -4,-16 -4,-3 -8,-5 -12,-6 -5,0 -10,0 -16,0 -6,1 -11,2 -16,2 -4,0 -7,-2 -10,-6 -4,-3 -5,-7 -5,-11 0,-6 2,-11 7,-15 23,-16 46,-33 70,-48 23,-16 46,-33 68,-52l10 -4z"/>
  <path d="M4126 264c10,0 15,4 15,13 0,1 0,3 0,4 -1,1 -1,3 -1,4 -10,15 -17,35 -23,62 -6,27 -11,57 -14,90 -2,33 -4,68 -6,105 -1,37 -1,73 -1,107 1,34 1,66 1,96 1,30 1,54 1,72 0,7 0,18 -1,32 -1,14 -1,29 -1,46 0,17 0,34 2,52 2,17 4,33 8,48 3,14 9,26 15,35 7,9 16,14 27,14 12,0 22,-4 33,-11 10,-7 19,-11 25,-11 4,0 8,3 11,8 4,4 6,9 6,13 0,5 -7,12 -19,22 -13,10 -28,20 -45,30 -17,10 -33,19 -48,26 -16,8 -27,12 -33,12 -12,0 -23,-4 -33,-10 -11,-7 -19,-16 -26,-26 -8,-11 -13,-22 -18,-34 -4,-12 -7,-23 -8,-33 -1,-43 -2,-85 -3,-127 -1,-41 -1,-83 -1,-126 0,-98 2,-196 7,-293 2,-43 13,-83 31,-121 19,-37 46,-69 82,-93 5,-4 11,-6 17,-6z"/>
  <path d="M4642 553c21,0 38,4 51,13 13,9 24,21 32,35 8,14 13,30 16,48 3,18 4,35 5,52 2,44 3,89 3,133 0,44 0,88 0,133 0,17 4,33 14,47 10,14 24,22 42,22 6,0 12,-3 20,-8 7,-4 17,-7 28,-7 3,0 6,1 10,1 5,1 7,4 7,8 0,5 -6,14 -18,25 -12,12 -26,23 -41,35 -15,11 -30,21 -45,30 -15,8 -25,13 -31,13 -10,0 -20,-3 -29,-8 -9,-5 -17,-12 -25,-20 -7,-9 -13,-18 -18,-27 -5,-10 -10,-19 -13,-28 -9,-29 -14,-59 -12,-90 1,-31 1,-62 1,-91 0,-24 0,-47 0,-71 -1,-23 -1,-47 -2,-70 -1,-22 -6,-41 -16,-55 -9,-14 -26,-22 -51,-22 -9,0 -23,3 -43,9 -19,6 -39,14 -59,23 -20,8 -38,18 -53,30 -15,11 -23,21 -23,31l1 257c0,4 1,7 3,10 1,3 4,4 8,4 6,0 13,-1 19,-3 6,-3 12,-4 18,-4 3,0 6,2 9,7 2,4 3,8 3,11 0,3 -7,11 -20,22 -14,12 -29,24 -46,37 -17,13 -33,24 -48,34 -16,10 -26,15 -30,15 -6,0 -12,-2 -16,-7 -4,-4 -7,-9 -7,-16l-3 -390c0,-6 -3,-12 -8,-16 -5,-5 -11,-7 -17,-7 -6,0 -11,1 -15,4 -5,2 -9,3 -13,3 -5,0 -9,-2 -13,-6 -3,-5 -5,-9 -5,-14 0,-4 1,-8 4,-11 2,-3 5,-6 8,-8 14,-11 27,-21 40,-31 12,-10 25,-20 38,-32 10,-8 19,-16 28,-25 8,-9 18,-17 27,-24 3,-3 8,-5 15,-5 5,0 10,2 14,6 4,4 6,9 6,15l0 98c0,2 0,4 1,8 0,4 1,5 4,5 1,0 9,-6 24,-19 16,-14 36,-28 60,-45 24,-16 50,-31 79,-44 28,-13 55,-20 82,-20z"/>
  <path d="M5002 541c10,0 16,5 16,16 0,70 -1,140 -1,209 0,69 -1,139 -1,210 0,45 24,68 70,68 7,0 20,-2 40,-6 19,-4 38,-9 58,-16 20,-7 38,-15 54,-23 15,-8 23,-17 23,-25l0 -260c0,-7 -3,-14 -8,-19 -6,-6 -12,-9 -19,-9 -4,0 -7,1 -9,2 -3,1 -7,2 -11,2 -6,0 -11,-2 -15,-6 -4,-3 -6,-8 -6,-15 0,-6 3,-11 8,-15 21,-16 41,-31 59,-46 19,-14 37,-31 55,-50 4,-4 7,-8 11,-12 4,-3 9,-5 15,-5 8,0 15,2 18,5 4,3 6,9 6,18 0,73 0,146 0,219 1,72 1,145 1,219 0,13 3,23 9,31 6,7 16,11 29,11 7,0 14,-1 21,-4 7,-3 14,-6 20,-9 6,-2 12,-5 17,-8 6,-3 9,-4 12,-4 6,0 10,2 11,7l1 0c1,2 1,4 1,8 0,9 -7,19 -22,30 -14,12 -30,22 -49,32 -18,10 -37,19 -55,25 -18,7 -32,11 -41,11 -15,0 -27,-4 -35,-10 -8,-6 -13,-15 -17,-25 -3,-10 -5,-21 -5,-33 0,-12 -1,-23 -3,-33l-4 -4 -2 1c-17,12 -34,23 -53,35 -18,12 -37,23 -56,33 -19,9 -39,17 -60,23 -20,6 -41,9 -63,9 -33,0 -60,-9 -79,-28 -19,-18 -29,-44 -31,-76 -2,-55 -2,-109 -2,-163 1,-54 1,-109 1,-164 0,-7 -2,-12 -5,-16 -3,-3 -7,-5 -12,-6 -5,0 -10,0 -16,0 -5,1 -11,2 -15,2 -4,0 -8,-2 -11,-6 -3,-3 -5,-7 -5,-11 0,-6 2,-11 7,-15 24,-16 47,-33 70,-48 23,-16 46,-33 68,-52l10 -4z"/>
  <path d="M5750 546c12,0 23,2 33,5 10,4 19,8 26,13 8,5 14,9 20,12 5,4 9,6 11,6 4,0 8,-2 13,-6 4,-3 9,-7 13,-11 5,-4 10,-8 16,-11 6,-4 12,-6 18,-6 5,0 9,2 13,6 3,3 5,7 5,12 0,2 -6,9 -19,22 -12,14 -26,28 -41,42 -15,15 -30,29 -44,41 -14,12 -23,18 -27,18 -5,0 -11,-4 -18,-11 -8,-7 -17,-15 -26,-24 -10,-8 -21,-16 -33,-23 -12,-7 -24,-11 -37,-11 -14,0 -26,5 -37,16 -10,10 -16,22 -16,36 0,17 7,32 22,42 14,11 32,20 55,28 22,8 45,15 70,22 26,7 49,17 71,28 22,12 40,27 55,45 14,19 21,43 21,72 0,30 -7,58 -21,85 -14,26 -32,49 -55,69 -23,20 -48,36 -77,47 -28,11 -57,17 -85,17 -18,0 -37,-3 -58,-9 -21,-6 -40,-15 -58,-26 -17,-11 -32,-25 -44,-41 -11,-16 -17,-34 -17,-55 0,-8 3,-18 10,-31 6,-13 14,-26 24,-38 9,-12 19,-22 30,-31 10,-9 19,-13 27,-13 7,0 12,2 15,7 4,4 6,9 6,15 0,8 -2,15 -5,23 -2,8 -4,16 -4,24 0,14 5,28 15,41 9,13 21,25 36,35 14,10 30,18 46,24 16,6 31,9 44,9 11,0 22,-2 34,-7 12,-4 22,-10 32,-18 9,-8 17,-18 23,-29 6,-10 9,-22 9,-34 0,-22 -7,-40 -21,-54 -15,-14 -33,-25 -54,-34 -22,-9 -46,-18 -71,-25 -26,-8 -50,-17 -71,-27 -22,-11 -40,-24 -54,-40 -15,-16 -22,-37 -22,-64 0,-21 7,-43 20,-65 13,-22 30,-42 50,-59 20,-17 42,-31 65,-42 24,-12 46,-17 67,-17z"/>
 </g>
 </g>
</svg>
