<?xml version="1.0" encoding="UTF-8"?>
<!DOCTYPE svg PUBLIC "-//W3C//DTD SVG 1.1//EN" "http://www.w3.org/Graphics/SVG/1.1/DTD/svg11.dtd">
<svg xmlns="http://www.w3.org/2000/svg" xml:space="preserve" width="709px" height="118px" version="1.1" style="shape-rendering:geometricPrecision; text-rendering:geometricPrecision; image-rendering:optimizeQuality; fill-rule:evenodd; clip-rule:evenodd"
viewBox="0 0 8508 1418"
 xmlns:xlink="http://www.w3.org/1999/xlink">
 <defs>
  <style type="text/css">
   <![CDATA[
    .c1 {fill:#eee}
    .c2 {fill:#000}
   ]]>
  </style>
 </defs>
 <g>
  <rect class="c1" width="8508" height="1418"/>
  <g class="c2">
  <path d="M2463 347c8,0 16,3 24,8 8,6 12,13 12,22 0,8 -2,18 -7,31 -4,12 -9,25 -15,37 -5,13 -10,25 -15,35 -4,10 -6,16 -6,18 0,12 3,18 11,20 8,2 16,3 25,3 16,0 32,-3 46,-11 14,-7 27,-10 39,-10 20,0 30,10 30,30 0,11 -3,21 -10,29 -6,8 -16,13 -29,13 -18,0 -36,1 -54,3 -17,3 -34,7 -51,12 -3,1 -7,8 -12,21 -5,13 -10,28 -14,45 -4,16 -8,32 -11,47 -4,15 -6,25 -8,30 -3,12 -8,20 -16,23 -8,3 -18,5 -29,5 -11,0 -16,-5 -16,-15 0,-10 2,-21 6,-31 3,-10 7,-21 11,-31 5,-11 9,-21 13,-32 3,-11 5,-21 5,-32 0,-9 -3,-14 -9,-17 -6,-3 -13,-4 -20,-4 -13,0 -28,2 -45,6 -17,4 -34,8 -50,13 -17,6 -31,10 -44,14 -12,4 -19,6 -22,6 -6,0 -12,-3 -17,-9 -5,-7 -8,-13 -8,-18 0,-4 1,-8 4,-11 2,-2 5,-5 8,-6 22,-15 41,-24 56,-28 16,-5 30,-8 43,-10 13,-2 27,-4 41,-6 15,-2 32,-7 53,-15 10,-4 17,-16 20,-36 4,-19 7,-40 11,-62 4,-22 9,-42 16,-60 6,-18 18,-27 34,-27z"/>
  <path d="M2810 363c8,0 17,1 26,5 10,4 19,8 27,14 8,6 14,14 20,22 6,8 8,17 8,26 0,12 -3,24 -9,38 -7,13 -14,25 -21,36 -8,11 -15,21 -21,29 -7,8 -10,13 -10,16 0,3 2,6 7,9 4,3 9,6 14,11 5,4 11,10 16,16 5,7 9,15 11,25 5,19 7,38 7,58 0,21 -4,41 -12,60 -9,18 -20,34 -35,48 -15,14 -32,25 -51,33 -19,7 -40,11 -61,11 -9,0 -17,-3 -23,-10 -7,-6 -10,-14 -10,-22 0,-10 4,-19 12,-28 8,-9 17,-13 28,-13 5,0 9,1 14,3 4,2 9,3 13,3 9,0 17,-4 25,-11 8,-7 15,-16 21,-26 6,-10 10,-20 14,-32 4,-11 5,-20 5,-27 0,-22 -5,-39 -15,-51 -10,-12 -26,-18 -48,-18 -7,0 -13,1 -19,3 -6,1 -12,2 -19,2 -6,0 -12,-3 -17,-9 -5,-6 -8,-12 -8,-18 0,-8 7,-14 22,-21 14,-6 30,-14 47,-23 16,-8 32,-20 47,-33 14,-14 21,-31 21,-52 0,-7 -3,-13 -9,-18 -6,-5 -12,-7 -18,-7 -16,0 -31,6 -47,20 -16,13 -31,27 -45,43 -14,16 -26,30 -36,43 -9,13 -16,20 -20,20 -7,0 -13,-4 -20,-11 -7,-7 -10,-14 -10,-20 0,-4 2,-10 6,-17 5,-7 10,-15 15,-23 6,-8 12,-16 17,-23 6,-7 10,-12 12,-15 2,-3 5,-6 11,-9 6,-4 12,-7 18,-11 6,-3 13,-6 19,-10 7,-3 11,-6 15,-9 9,-7 19,-13 30,-19 11,-6 23,-8 36,-8z"/>
  <path d="M3211 435c8,-2 15,0 22,6 7,6 11,14 14,25 1,9 0,18 -4,26 -4,8 -10,13 -18,15 -8,1 -15,-1 -23,-7 -7,-6 -11,-14 -13,-23 -2,-11 0,-20 4,-28 4,-8 10,-13 18,-14zm-41 264c8,1 14,6 18,14 5,7 6,16 5,25 -2,10 -6,18 -13,23 -7,6 -15,8 -23,6 -8,-1 -14,-6 -18,-14 -4,-7 -6,-16 -4,-25 2,-10 6,-18 13,-23 6,-6 14,-8 22,-6zm152 -103c24,-17 27,-34 9,-52 -5,-5 -8,-10 -9,-17 0,-6 1,-13 5,-19 7,-11 16,-16 27,-16 4,0 11,2 19,6 23,15 36,31 39,48 4,18 0,34 -10,50 -10,15 -24,27 -44,37 -19,10 -39,15 -61,15 -24,0 -45,-7 -65,-21 -22,-18 -47,-33 -74,-45 -27,-13 -55,-19 -84,-19 -46,0 -71,24 -77,71 -1,12 -6,18 -16,18 0,0 -4,-1 -10,-2l-14 -5c-12,-6 -18,-15 -18,-27 0,-4 2,-8 4,-12 14,-29 31,-51 52,-66 21,-15 48,-22 81,-22 75,0 141,25 198,75 8,7 17,10 26,10 8,0 15,-3 22,-7z"/>
  <path d="M3601 450c9,0 17,5 23,15 7,9 11,18 11,26 0,9 -3,24 -8,44 -5,20 -10,42 -17,65 -6,24 -12,46 -19,67 -6,21 -11,37 -13,47 -2,7 -5,12 -10,15 -4,4 -10,6 -16,6 -12,0 -21,-5 -27,-16 -7,-10 -11,-21 -11,-31 0,-6 2,-12 5,-20 3,-7 7,-15 12,-24 4,-8 8,-17 11,-25 3,-8 5,-16 5,-23 0,-4 -2,-6 -6,-6 -7,0 -13,1 -20,5 -7,4 -14,5 -21,5 -4,0 -7,-1 -10,-4 -2,-3 -3,-6 -3,-10 0,-2 0,-3 0,-4 1,0 1,-2 1,-3 1,-4 4,-8 8,-11 21,-15 38,-31 51,-47 14,-17 26,-37 37,-60 4,-7 10,-11 17,-11z"/>
  <path d="M3817 466c22,0 41,4 59,14 17,9 26,26 26,52 0,15 -3,30 -11,44 -7,15 -16,28 -28,40 -11,12 -24,22 -38,31 -14,9 -28,16 -42,21 -2,0 -5,1 -7,3 -3,1 -5,3 -5,7 0,16 10,36 29,60 18,23 43,48 73,73 30,25 63,50 101,75 37,25 74,47 111,67 38,19 73,35 107,48 33,12 61,18 82,18 2,0 5,0 10,0 5,0 10,0 15,-1 5,-1 10,-1 14,-2 4,-1 6,-3 6,-5 -3,-4 -6,-8 -11,-11 -5,-4 -10,-8 -15,-11 -5,-4 -10,-8 -13,-12 -4,-5 -6,-10 -6,-16 0,-8 4,-15 12,-21 7,-6 15,-9 23,-9 4,0 10,1 18,4 7,4 15,8 22,12 7,5 14,10 20,15 6,6 9,10 11,14 2,7 4,15 4,24 0,15 -5,26 -13,35 -8,9 -19,16 -32,22 -13,5 -26,9 -39,11 -14,2 -26,3 -38,3 -32,0 -69,-6 -109,-19 -41,-13 -82,-30 -123,-52 -41,-21 -81,-47 -120,-77 -39,-29 -73,-61 -103,-95 -30,-34 -54,-69 -73,-106 -18,-36 -27,-72 -27,-107 0,-17 2,-34 6,-52 4,-17 10,-33 19,-48 9,-14 20,-26 34,-35 14,-10 31,-14 51,-14zm-7 68c-7,0 -14,3 -19,8 -5,5 -9,12 -13,19 -4,7 -6,15 -8,23 -2,8 -3,15 -3,21 0,3 0,6 0,11 0,5 2,7 6,7 4,0 10,-2 18,-7 7,-5 14,-11 21,-18 6,-7 12,-14 17,-22 5,-7 7,-13 7,-18 0,-7 -3,-13 -8,-17 -6,-4 -12,-7 -18,-7z"/>
  <path d="M4250 562c4,0 9,0 14,0 5,0 10,1 15,2 5,1 9,3 13,6 3,3 6,6 6,11 1,4 2,11 4,22 2,10 2,17 1,19 3,4 6,6 11,6 1,0 2,0 2,-1l2 0c16,-10 32,-21 48,-33 17,-12 34,-18 54,-18 13,0 25,3 34,9 9,5 16,8 21,8 3,0 7,-2 13,-5 5,-4 11,-8 17,-12 6,-5 13,-9 20,-12 8,-4 15,-6 22,-6 18,0 30,7 37,21 7,13 11,28 11,43 0,10 -1,21 -4,31 -3,11 -4,21 -4,30 0,3 0,4 1,4 2,0 7,-3 13,-9 6,-6 14,-13 24,-19 10,-7 20,-14 31,-20 11,-6 22,-9 33,-9 8,0 17,3 27,9 11,6 16,14 16,23 0,5 -2,10 -6,13 -4,4 -9,6 -15,6 -19,1 -37,5 -55,13 -17,8 -33,17 -47,26 -13,10 -25,19 -36,26 -10,8 -18,12 -22,12 -12,0 -21,-3 -27,-9 -7,-6 -11,-15 -11,-26 0,-8 2,-17 6,-26 4,-9 9,-19 14,-29 5,-11 10,-21 14,-31 4,-10 6,-19 6,-28 0,-4 -1,-6 -4,-6 -8,0 -18,6 -31,17 -14,12 -27,25 -40,40 -13,15 -26,29 -37,44 -11,15 -19,26 -23,33 -7,11 -15,17 -25,17 -8,0 -15,-2 -21,-7 -7,-4 -10,-10 -11,-18 0,-4 2,-10 7,-19 5,-8 10,-17 15,-27 5,-9 10,-19 15,-27 5,-9 7,-16 7,-21 0,-2 -1,-3 -3,-3 -12,0 -24,5 -39,16 -14,11 -28,23 -42,38 -14,14 -27,29 -39,44 -11,15 -20,27 -26,36 -5,9 -12,13 -19,13 -6,0 -13,-2 -19,-7 -6,-5 -10,-10 -10,-17 0,-9 3,-17 9,-24 5,-8 12,-16 18,-24 7,-8 13,-17 19,-27 6,-10 8,-22 8,-35 0,-7 0,-16 -1,-27 -1,-11 -5,-16 -14,-16 -8,0 -17,3 -28,9 -10,7 -21,14 -31,21 -10,8 -20,15 -28,21 -8,7 -14,10 -18,10 -13,0 -20,-6 -20,-17 0,-14 5,-26 14,-36 9,-10 20,-19 33,-26 14,-8 28,-13 42,-17 15,-3 28,-5 39,-5z"/>
  <path d="M4948 363c18,0 32,7 40,21 8,14 12,29 12,45 0,20 -4,37 -12,51 -8,15 -17,27 -27,38 -9,10 -18,19 -27,25 -8,7 -13,13 -14,19 -1,8 -2,16 -1,23 1,7 1,15 1,23 0,14 -1,29 -4,43 -4,15 -7,30 -12,45 -4,16 -8,30 -11,45 -3,14 -5,28 -5,42 0,2 0,5 2,7 1,2 3,4 6,4 8,0 21,-7 39,-19 19,-12 39,-26 60,-40 22,-15 42,-28 60,-40 19,-13 33,-19 41,-19 6,0 11,2 14,7 3,4 6,8 10,12 0,1 0,2 1,4 1,2 1,4 1,6 0,5 -3,10 -8,14 -28,19 -57,36 -85,52 -28,17 -57,34 -85,51 -23,15 -47,22 -73,22 -22,0 -35,-5 -40,-16 -5,-10 -8,-26 -8,-46 0,-16 2,-33 5,-50 3,-17 7,-35 11,-52 4,-18 7,-35 10,-53 4,-17 5,-33 5,-47 0,-5 -2,-7 -6,-7 -4,0 -8,1 -12,3 -4,2 -8,3 -12,3 -11,0 -21,-4 -30,-12 -10,-7 -14,-17 -14,-28 0,-22 4,-44 13,-65 9,-22 21,-40 36,-57 15,-16 33,-29 54,-39 20,-10 42,-15 65,-15zm-31 56c-8,0 -16,4 -25,11 -8,7 -16,16 -23,26 -8,11 -13,21 -18,33 -4,11 -6,20 -6,27 0,4 1,9 3,13 3,4 6,7 11,7 8,0 16,-4 25,-11 8,-7 16,-16 23,-26 7,-10 13,-21 18,-32 4,-11 6,-20 6,-28 0,-4 -1,-8 -3,-13 -2,-5 -6,-7 -11,-7z"/>
  <path d="M5298 568c13,0 23,4 31,13 9,9 15,19 20,31 5,12 8,25 10,38 2,13 3,25 3,34 0,24 -5,52 -17,84 -11,31 -25,63 -42,93 -18,31 -37,60 -58,86 -21,26 -41,45 -61,57 -10,6 -19,12 -27,18 -8,6 -18,10 -30,12 -19,3 -38,6 -57,8 -20,3 -39,4 -58,4 -9,0 -17,-4 -23,-13 -6,-8 -9,-16 -9,-24 0,-4 3,-7 8,-9 4,-2 10,-4 16,-4 7,0 13,-1 20,-1 6,0 11,0 14,0 10,0 21,1 31,3 11,1 21,2 31,2 5,0 13,-4 23,-13 11,-9 22,-20 35,-34 13,-13 26,-29 40,-46 14,-17 27,-34 38,-51 11,-17 20,-33 28,-47 7,-15 10,-27 10,-37 0,-2 -1,-4 -3,-4 -5,0 -12,3 -21,8 -9,4 -18,7 -26,7 -8,0 -15,-3 -22,-8 -7,-5 -13,-12 -18,-20 -4,-8 -8,-16 -10,-24 -3,-9 -4,-17 -4,-24 0,-13 4,-27 13,-43 8,-16 19,-31 31,-46 13,-14 27,-26 42,-36 16,-9 30,-14 42,-14zm-10 50c-8,0 -17,4 -26,11 -8,6 -16,15 -22,24 -7,10 -12,20 -17,30 -4,11 -6,20 -6,28 0,4 0,8 1,11 1,4 3,6 7,8l-1 0c3,2 6,2 10,2 8,0 16,-3 24,-10 9,-7 16,-15 23,-24 7,-10 13,-20 17,-31 4,-11 7,-20 7,-27 0,-6 -2,-11 -4,-15 -3,-4 -7,-7 -13,-7z"/>
  <path d="M5603 580c31,0 61,1 90,2 29,1 59,2 89,2 10,0 19,-1 28,-3 9,-1 18,-3 26,-5 16,-4 32,-5 48,-3 16,1 32,2 48,2 18,0 35,-2 52,-7 10,-3 21,-6 31,-8 11,-3 21,-5 33,-6 16,-3 35,-8 55,-15 20,-7 40,-16 60,-26 20,-11 39,-22 56,-35 17,-13 31,-26 41,-39 5,-6 7,-13 6,-22 -1,-8 -1,-16 -1,-23 0,-9 3,-16 10,-21 6,-5 14,-8 22,-8 9,0 17,4 24,13 7,8 10,17 10,25 0,8 -2,14 -6,21 -16,26 -33,49 -52,67 -18,19 -38,34 -60,48 -21,13 -44,24 -69,33 -25,9 -52,18 -81,27 -17,5 -32,14 -45,28 -12,14 -26,30 -41,46 -14,16 -32,32 -52,48 -21,16 -47,27 -80,35 -3,1 -6,2 -9,2 -2,1 -5,1 -8,1 -10,0 -16,-3 -20,-8 -3,-5 -6,-11 -7,-17 -1,-6 -2,-11 -2,-17 -1,-5 -3,-7 -6,-7 -1,0 -6,4 -17,12 -11,8 -23,16 -37,26 -14,10 -28,18 -41,26 -14,8 -23,12 -30,12 -11,0 -19,-5 -23,-16 -5,-12 -7,-22 -7,-30 0,-19 5,-36 15,-52 10,-16 21,-30 33,-42l3 -6c0,-4 -3,-7 -8,-9 -5,-2 -12,-4 -19,-5 -7,-1 -14,-2 -21,-2 -7,-1 -11,-1 -14,-1 -24,0 -45,4 -63,12 -19,8 -34,19 -47,34 -13,14 -23,31 -31,50 -7,19 -12,40 -13,63 -1,7 -4,13 -8,18 -4,4 -10,7 -18,7 -8,0 -16,-3 -24,-9 -9,-5 -13,-12 -13,-21 0,-3 1,-8 4,-15 2,-6 5,-13 9,-21 3,-7 7,-15 10,-23 3,-8 5,-15 6,-20 4,-20 11,-37 22,-51 10,-15 23,-28 38,-38 15,-10 32,-17 50,-22 18,-5 36,-7 54,-7zm170 47c-25,0 -41,11 -49,33 -4,10 -11,20 -20,31 -9,11 -13,21 -13,32 0,2 1,3 2,3 4,0 12,-4 23,-12 12,-9 23,-18 35,-28 12,-11 23,-21 32,-32 9,-10 14,-17 14,-20 -3,-4 -6,-6 -11,-7 -5,0 -9,0 -13,0zm147 0c-20,0 -35,8 -47,23 -12,16 -17,33 -17,51 0,1 0,2 0,4 0,1 0,2 2,2 1,0 6,-3 16,-9 10,-7 21,-14 32,-21 11,-8 22,-16 31,-23 10,-8 15,-13 15,-15 0,-7 -5,-10 -13,-11 -8,-1 -15,-1 -19,-1z"/>
 </g>
 </g>
</svg>
